<svg width="239" height="90" viewBox="0 0 239 90" fill="none" xmlns="http://www.w3.org/2000/svg">
<g clip-path="url(#clip0_58_68)">
<mask id="mask0_58_68" style="mask-type:luminance" maskUnits="userSpaceOnUse" x="0" y="0" width="239" height="90">
<path d="M238.14 0H0.5V90H238.14V0Z" fill="white"/>
</mask>
<g mask="url(#mask0_58_68)">
<path fill-rule="evenodd" clip-rule="evenodd" d="M41.7785 0C64.5395 0 83.0569 19.2216 83.0569 42.8481C83.0569 66.4747 64.5395 85.6963 41.7785 85.6963C19.0174 85.8298 0.5 66.6082 0.5 42.8481C0.5 19.2216 19.0174 0 41.7785 0Z" fill="#7A9757"/>
<path d="M36.5063 70.7459C40.8385 70.7459 44.3505 67.1004 44.3505 62.6034C44.3505 58.1065 40.8385 54.4609 36.5063 54.4609C32.1741 54.4609 28.6621 58.1065 28.6621 62.6034C28.6621 67.1004 32.1741 70.7459 36.5063 70.7459Z" fill="#3C3C3C"/>
<path d="M48.0797 53.9273C51.7018 53.9273 54.638 50.8794 54.638 47.1197C54.638 43.3599 51.7018 40.312 48.0797 40.312C44.4577 40.312 41.5215 43.3599 41.5215 47.1197C41.5215 50.8794 44.4577 53.9273 48.0797 53.9273Z" fill="#3C3C3C"/>
<path fill-rule="evenodd" clip-rule="evenodd" d="M57.9811 29.7666C60.553 29.7666 62.7391 31.9023 62.7391 34.7055C62.7391 37.3752 60.6816 39.6444 57.9811 39.6444C55.4092 39.6444 53.2231 37.3752 53.2231 34.7055C53.2231 31.9023 55.2806 29.7666 57.9811 29.7666Z" fill="#3C3C3C"/>
<path fill-rule="evenodd" clip-rule="evenodd" d="M65.8255 20.2896C67.7544 20.2896 69.2976 21.8914 69.2976 23.8936C69.2976 25.8958 67.7544 27.4976 65.8255 27.4976C63.8966 27.4976 62.3535 25.8958 62.3535 23.8936C62.3535 21.8914 63.8966 20.2896 65.8255 20.2896Z" fill="#3C3C3C"/>
<path fill-rule="evenodd" clip-rule="evenodd" d="M25.0615 40.7124C28.6621 40.7124 31.4912 43.649 31.4912 47.3866C31.4912 51.1241 28.6621 54.0607 25.0615 54.0607C21.4609 54.0607 18.6318 51.1241 18.6318 47.3866C18.6318 43.649 21.4609 40.7124 25.0615 40.7124Z" fill="#3C3C3C"/>
<path fill-rule="evenodd" clip-rule="evenodd" d="M15.1596 31.2349C17.4743 31.2349 19.2746 33.2371 19.2746 35.5063C19.2746 37.909 17.3457 39.7778 15.1596 39.7778C12.845 39.7778 11.0447 37.7756 11.0447 35.5063C10.9161 33.2371 12.845 31.2349 15.1596 31.2349Z" fill="#3C3C3C"/>
<path d="M108.518 5.47314H95.4019V50.0566H108.518V5.47314Z" fill="#7A9757"/>
<path fill-rule="evenodd" clip-rule="evenodd" d="M129.736 51.5243C124.721 51.5243 120.092 50.3229 115.72 47.7868L114.305 46.8524L118.549 36.1737L119.835 37.1081C122.921 39.3773 125.879 40.5787 128.579 40.5787C130.122 40.5787 131.28 40.3117 132.18 39.6443C132.951 39.1103 133.337 38.4429 133.337 37.642C133.337 36.4407 132.694 35.5063 131.537 34.7054C130.379 33.9045 128.065 32.8366 124.85 31.7688C121.892 30.7009 119.578 29.3661 118.163 27.6308C116.491 25.6285 115.72 22.9589 115.72 19.7553C115.72 15.2168 117.263 11.6128 120.22 9.07658C123.178 6.5404 126.907 5.20557 131.665 5.20557C136.423 5.20557 140.924 6.5404 145.296 9.07658V9.21007L141.181 19.6218L139.124 18.1535C137.066 16.8186 135.009 16.2847 132.951 16.2847C131.794 16.2847 130.894 16.5517 130.251 16.9521C129.479 17.3526 129.222 18.02 129.222 18.6874C129.222 19.4883 129.608 20.2892 130.508 20.8231C131.408 21.4905 133.723 22.5584 137.066 23.8932C140.538 25.3616 142.981 26.9634 144.525 28.9656C146.068 30.9679 146.839 33.3706 146.839 36.3072C146.839 41.2461 145.296 45.1171 142.21 47.9202C138.995 50.1895 134.88 51.5243 129.736 51.5243Z" fill="#7A9757"/>
<path d="M119.963 80.2231H116.491V69.2775C116.491 65.9404 115.462 64.3386 113.276 64.3386C110.576 64.3386 109.29 66.3408 109.29 70.3453V80.2231H105.818V69.2775C105.818 65.9404 104.789 64.3386 102.475 64.3386C99.9027 64.3386 98.4881 66.4743 98.4881 70.7458V80.0896H95.0161V61.8024H98.4881V64.3386C99.7741 62.2029 101.446 61.135 103.503 61.2685C104.661 61.2685 105.689 61.6689 106.59 62.3363C107.361 63.0038 108.004 63.6712 108.39 64.6056C109.547 62.4698 111.347 61.402 113.791 61.402C117.777 61.402 119.706 63.9381 119.706 69.0105V80.2231H119.963Z" fill="#7A9757"/>
<path d="M141.181 80.2234H137.709V77.2867C136.037 79.6894 133.98 80.8908 131.536 80.8908C129.093 80.8908 127.164 79.9564 125.493 78.0876C123.821 76.2189 123.049 73.8162 123.049 71.013C123.049 68.2099 123.821 65.8072 125.493 63.9384C127.036 62.0696 129.093 61.1353 131.536 61.1353C134.237 61.1353 136.294 62.3366 137.709 64.8728V61.6692H141.181V80.2234ZM137.966 71.013C137.966 69.0108 137.452 67.409 136.294 66.2076C135.137 65.0063 133.851 64.3389 132.179 64.3389C130.636 64.3389 129.222 65.0063 128.193 66.2076C127.164 67.409 126.521 69.0108 126.521 70.8795C126.521 72.8818 127.036 74.4836 128.193 75.6849C129.222 76.8863 130.636 77.5537 132.308 77.5537C133.98 77.5537 135.266 76.8863 136.423 75.6849C137.452 74.4836 137.966 72.8818 137.966 71.013Z" fill="#7A9757"/>
<path d="M160.856 80.2232H157.384V69.2776C157.384 67.5423 157.127 66.3409 156.484 65.54C155.841 64.7391 154.941 64.3387 153.526 64.3387C151.983 64.3387 150.697 64.8726 150.054 65.807C149.282 66.7414 149.025 68.4767 149.025 70.7459V80.0897H145.553V61.8025H149.025V64.3387C150.311 62.2029 152.24 61.2686 154.555 61.2686C158.798 61.2686 160.856 63.8047 160.856 68.8771V80.2232Z" fill="#7A9757"/>
<path d="M182.202 80.2234H178.73V77.2867C177.059 79.6894 175.001 80.8908 172.558 80.8908C170.115 80.8908 168.186 79.9564 166.514 78.0876C164.971 76.2189 164.071 73.8162 164.071 71.013C164.071 68.2099 164.842 65.8072 166.514 63.9384C168.057 62.0696 170.115 61.1353 172.558 61.1353C175.258 61.1353 177.316 62.3366 178.73 64.8728V61.6692H182.202V80.2234ZM178.988 71.013C178.988 69.0108 178.473 67.409 177.316 66.2076C176.159 65.0063 174.873 64.3389 173.201 64.3389C171.658 64.3389 170.243 65.0063 169.215 66.2076C168.186 67.409 167.543 69.0108 167.543 70.8795C167.543 72.8818 168.057 74.4836 169.215 75.6849C170.243 76.8863 171.658 77.5537 173.33 77.5537C175.001 77.5537 176.416 76.8863 177.445 75.6849C178.473 74.4836 178.988 72.8818 178.988 71.013Z" fill="#7A9757"/>
<path d="M203.549 81.2913C203.549 84.8953 202.906 87.4315 201.491 89.1668C200.077 90.9021 197.891 91.7029 194.933 91.7029C192.361 91.7029 190.304 90.9021 188.761 89.4337C187.089 87.8319 186.317 85.8297 186.317 83.427H189.789C189.789 85.0288 190.304 86.2301 191.204 87.1645C192.233 88.0989 193.519 88.6328 195.319 88.6328C198.662 88.6328 200.206 86.4971 200.206 82.0921V77.2867C198.405 79.6894 196.348 80.8908 193.776 80.8908C191.333 80.8908 189.404 79.9564 187.861 78.0876C186.317 76.2189 185.546 73.8162 185.546 71.013C185.546 68.2099 186.317 65.8072 187.861 63.9384C189.404 62.0696 191.333 61.1353 193.776 61.1353C196.476 61.1353 198.662 62.3366 200.206 64.8728V61.6692H203.678V81.2913H203.549ZM200.334 71.013C200.334 69.5447 199.82 68.0764 198.791 66.7416C197.634 65.2732 196.219 64.4723 194.547 64.4723C192.876 64.4723 191.461 65.1398 190.432 66.3411C189.404 67.5425 188.889 69.1443 188.889 71.013C188.889 73.0153 189.404 74.7506 190.432 75.9519C191.461 77.1533 192.876 77.8207 194.547 77.8207C196.091 77.8207 197.505 77.1533 198.662 75.6849C199.691 74.2166 200.334 72.7483 200.334 71.013Z" fill="#7A9757"/>
<path d="M224.124 75.8182C223.352 77.2865 222.195 78.4879 220.652 79.4223C219.109 80.3567 217.566 80.8906 215.894 80.8906C213.194 80.8906 210.879 79.9562 209.207 78.2209C207.535 76.3522 206.635 74.0829 206.635 71.1463C206.635 68.4767 207.407 66.0739 209.079 64.2052C210.75 62.2029 212.936 61.2686 215.508 61.2686C218.209 61.2686 220.266 62.2029 221.938 64.0717C223.481 65.807 224.124 68.2097 224.124 71.0128V71.6803H210.107C210.107 73.549 210.622 75.0173 211.65 76.0852C212.679 77.2866 214.094 77.8205 215.637 77.8205C218.08 77.8205 220.009 76.6191 221.295 74.3499L224.124 75.8182ZM220.781 68.8771C220.523 67.5423 220.009 66.3409 219.109 65.54C218.209 64.7391 217.051 64.2052 215.637 64.2052C214.351 64.2052 213.065 64.6056 212.165 65.54C211.136 66.3409 210.493 67.5423 210.236 68.8771H220.781Z" fill="#7A9757"/>
<path d="M238.141 61.8027L237.369 65.4067C236.726 64.8728 235.954 64.6058 235.054 64.6058C233.64 64.6058 232.611 65.2732 231.839 66.4746C231.068 67.5425 230.811 69.0108 230.811 70.7461V80.3569H227.467V61.8027H230.811V64.8728C232.097 62.4701 233.768 61.1353 235.569 61.1353C236.212 61.1353 237.112 61.4022 238.141 61.8027Z" fill="#7A9757"/>
<path fill-rule="evenodd" clip-rule="evenodd" d="M182.074 9.61082C179.116 6.80767 174.873 5.33936 169.215 5.33936H151.469V50.0563H164.457H164.585V34.8392H170.243C175.387 34.8392 179.245 33.6378 181.945 31.1016C184.646 28.5655 186.06 25.0949 186.06 20.423C186.06 15.8845 184.774 12.2805 182.074 9.61082ZM168.186 25.3619C165.485 25.3619 163.299 23.0926 163.299 20.156C163.299 17.3529 165.485 15.0836 168.186 15.0836C170.886 15.0836 173.201 17.3529 173.201 20.156C173.201 22.9592 171.015 25.3619 168.186 25.3619Z" fill="#7A9757"/>
</g>
</g>
<defs>
<clipPath id="clip0_58_68">
<rect width="238" height="90" fill="white" transform="translate(0.5)"/>
</clipPath>
</defs>
</svg>
