<svg width="134" height="134" viewBox="0 0 134 134" fill="none" xmlns="http://www.w3.org/2000/svg">
<g clip-path="url(#clip0_58_4)">
<path d="M6.69998 52.1111V62.5333H4.46665C4.12725 62.5333 3.79231 62.6107 3.48729 62.7595C3.18226 62.9083 2.91517 63.1247 2.70631 63.3922C2.49745 63.6598 2.35231 63.9714 2.28193 64.3034C2.21154 64.6354 2.21776 64.9791 2.30011 65.3084L4.46665 73.9745V122.559L2.30011 131.225C2.21776 131.554 2.21154 131.898 2.28193 132.23C2.35232 132.562 2.49745 132.874 2.70631 133.141C2.91517 133.409 3.18227 133.625 3.48729 133.774C3.79232 133.923 4.12725 134 4.46665 134H129.533C129.873 134 130.208 133.923 130.513 133.774C130.818 133.625 131.085 133.409 131.294 133.141C131.503 132.874 131.648 132.562 131.718 132.23C131.788 131.898 131.782 131.554 131.7 131.225L129.533 122.559V73.9745L131.7 65.3084C131.782 64.9791 131.788 64.6354 131.718 64.3034C131.648 63.9714 131.503 63.6598 131.294 63.3922C131.085 63.1247 130.818 62.9083 130.513 62.7595C130.208 62.6107 129.873 62.5333 129.533 62.5333H127.3V52.1111L133.553 43.7733C133.802 43.4415 133.954 43.0469 133.991 42.6338C134.028 42.2208 133.95 41.8055 133.764 41.4345C133.579 41.0636 133.294 40.7516 132.941 40.5336C132.588 40.3155 132.181 40.2 131.767 40.2H118.367V36.6583L122.179 32.8458C122.492 32.5335 122.704 32.1355 122.79 31.7023C122.877 31.2691 122.832 30.8201 122.663 30.412C122.494 30.004 122.208 29.6552 121.841 29.4098C121.473 29.1644 121.042 29.0334 120.6 29.0333H98.2667V26.8H102.733V22.3333H81.7802L77.9308 14.6346C77.7454 14.2636 77.4603 13.9516 77.1075 13.7336C76.7546 13.5155 76.3481 13.4 75.9333 13.4H69.2333V8.93333H71.4667C71.8814 8.93333 72.288 8.81783 72.6408 8.59978C72.9936 8.38172 73.2787 8.06973 73.4642 7.69876L75.0803 4.46667H78.1667V0H73.7C73.2852 2.70219e-06 72.8787 0.115502 72.5259 0.333557C72.1731 0.551611 71.888 0.863604 71.7025 1.23458L70.0864 4.46667H69.2333V0H64.7667V4.46667H63.9136L62.2975 1.23458C62.112 0.863604 61.8269 0.551611 61.4741 0.333557C61.1213 0.115502 60.7147 2.70219e-06 60.3 0H55.8333V4.46667H58.9197L60.5358 7.69876C60.7213 8.06973 61.0064 8.38172 61.3592 8.59978C61.712 8.81783 62.1186 8.93333 62.5333 8.93333H64.7667V13.4H58.0667C57.6519 13.4 57.2453 13.5155 56.8925 13.7336C56.5397 13.9516 56.2546 14.2636 56.0691 14.6346L52.2198 22.3333H31.2667V26.8H35.7333V29.0333H13.4C12.9583 29.0334 12.5265 29.1644 12.1593 29.4098C11.792 29.6552 11.5058 30.004 11.3368 30.412C11.1677 30.8201 11.1235 31.2691 11.2096 31.7023C11.2957 32.1355 11.5084 32.5335 11.8207 32.8458L15.6333 36.6583V40.2H2.23332C1.81857 40.2 1.41203 40.3155 1.05923 40.5336C0.706427 40.7516 0.42131 41.0636 0.23582 41.4345C0.0503301 41.8055 -0.0282058 42.2208 0.00901161 42.6338C0.0462291 43.0469 0.197729 43.4415 0.446539 43.7733L6.69998 52.1111ZM11.1667 53.6H15.6333V62.5333H11.1667V53.6ZM35.7333 53.6V62.5333H31.2667V53.6H35.7333ZM58.0667 53.6V62.5333H53.6V53.6H58.0667ZM80.4 53.6V62.5333H75.9333V53.6H80.4ZM102.733 53.6V62.5333H98.2667V53.6H102.733ZM126.673 67L125.556 71.4667H115.644L114.527 67H126.673ZM104.477 129.533L102.733 122.559V73.9745L104.477 67H109.923L111.667 73.9745V122.559L109.923 129.533H104.477ZM77.677 129.533L75.9333 122.559V73.9745L77.677 67H83.123L84.8667 73.9745V122.559L83.123 129.533H77.677ZM50.877 129.533L49.1333 122.559V73.9745L50.877 67H56.323L58.0667 73.9745V122.559L56.323 129.533H50.877ZM24.077 129.533L22.3333 122.559V73.9745L24.077 67H29.523L31.2667 73.9745V122.559L29.523 129.533H24.077ZM19.4729 67L18.3563 71.4667H8.44368L7.32702 67H19.4729ZM8.93332 75.9333H17.8667V120.6H8.93332V75.9333ZM46.273 67L45.1563 71.4667H35.2437L34.127 67H46.273ZM35.7333 75.9333H44.6667V120.6H35.7333V75.9333ZM71.9563 71.4667H62.0437L60.927 67H73.073L71.9563 71.4667ZM62.5333 75.9333H71.4667V120.6H62.5333V75.9333ZM99.873 67L98.7563 71.4667H88.8437L87.727 67H99.873ZM89.3333 75.9333H98.2667V120.6H89.3333V75.9333ZM116.133 75.9333H125.067V120.6H116.133V75.9333ZM113.9 62.5333H107.2V53.6H113.9V62.5333ZM93.8 62.5333H84.8667V53.6H93.8V62.5333ZM71.4667 62.5333H62.5333V53.6H71.4667V62.5333ZM49.1333 62.5333H40.2V53.6H49.1333V62.5333ZM26.8 62.5333H20.1V53.6H26.8V62.5333ZM7.32702 129.533L8.44368 125.067H18.3563L19.4729 129.533H7.32702ZM34.127 129.533L35.2437 125.067H45.1563L46.273 129.533H34.127ZM60.927 129.533L62.0437 125.067H71.9563L73.073 129.533H60.927ZM87.727 129.533L88.8437 125.067H98.7563L99.873 129.533H87.727ZM114.527 129.533L115.644 125.067H125.556L126.673 129.533H114.527ZM118.367 62.5333V53.6H122.833V62.5333H118.367ZM115.208 33.5L114.554 34.1542C114.135 34.573 113.9 35.141 113.9 35.7333V40.2H98.2667V33.5H115.208ZM74.553 17.8667L76.7864 22.3333H69.2333V17.8667H74.553ZM59.447 17.8667H64.7667V22.3333H57.2136L59.447 17.8667ZM93.8 26.8V40.2H40.2V26.8H93.8ZM19.446 34.1542L18.7917 33.5H35.7333V40.2H20.1V35.7333C20.1 35.141 19.8647 34.573 19.446 34.1542ZM127.3 44.6667L123.95 49.1333H10.0501L6.69998 44.6667H127.3Z" fill="#7A9757"/>
</g>
<defs>
<clipPath id="clip0_58_4">
<rect width="134" height="134" fill="white"/>
</clipPath>
</defs>
</svg>
