<svg width="134" height="134" viewBox="0 0 134 134" fill="none" xmlns="http://www.w3.org/2000/svg">
<path d="M101.981 94.8319C101.588 94.4393 101.055 94.2188 100.5 94.2188H98L90.7172 60.7188H106.781C107.337 60.7187 107.869 60.4981 108.262 60.1055C108.654 59.7128 108.875 59.1803 108.875 58.625V48.1562C108.875 47.601 108.654 47.0684 108.262 46.6758C107.869 46.2831 107.337 46.0625 106.781 46.0625H86.8359L78.1701 35.4708C78.5772 35.3262 78.9296 35.0592 79.1789 34.7063C79.4282 34.3534 79.5622 33.9321 79.5625 33.5V6.28125C79.5625 5.72596 79.3419 5.19342 78.9492 4.80078C78.5566 4.40813 78.024 4.18753 77.4688 4.1875H67C66.4447 4.18753 65.9122 4.40813 65.5195 4.80078C65.1269 5.19342 64.9063 5.72596 64.9062 6.28125V24.3778L54.387 37.2346C54.284 36.7694 54.0253 36.3533 53.6538 36.055C53.2823 35.7566 52.8202 35.5939 52.3438 35.5938H27.2188C26.6635 35.5938 26.1309 35.8144 25.7383 36.207C25.3456 36.5997 25.125 37.1322 25.125 37.6875V48.1562C25.125 48.7115 25.3456 49.2441 25.7383 49.6367C26.1309 50.0294 26.6635 50.25 27.2188 50.25H45.5585L36 94.2188H33.5C33.225 94.2184 32.9526 94.2725 32.6985 94.3777C32.4445 94.4829 32.2137 94.6372 32.0194 94.8319L17.3631 109.488C16.9706 109.881 16.75 110.413 16.75 110.969V127.719C16.75 128.274 16.9706 128.807 17.3633 129.199C17.7559 129.592 18.2885 129.812 18.8438 129.812H115.156C115.712 129.812 116.244 129.592 116.637 129.199C117.029 128.807 117.25 128.274 117.25 127.719V110.969C117.25 110.413 117.029 109.881 116.637 109.488L101.981 94.8319ZM110.102 108.875H49.0237L38.555 98.4062H99.6328L110.102 108.875ZM104.688 56.5312H83.75V50.25H104.688V56.5312ZM72.9211 46.0625C72.6069 45.1806 72.1005 44.3797 71.4386 43.7177C70.7766 43.0558 69.9756 42.5493 69.0938 42.2352V35.5938H72.86L81.4253 46.0625H72.9211ZM58.625 85.8438V64.9062H64.9062V85.8438H58.625ZM67 50.25C66.5859 50.25 66.1811 50.1272 65.8368 49.8971C65.4925 49.6671 65.2241 49.3401 65.0656 48.9575C64.9072 48.5749 64.8657 48.1539 64.9465 47.7478C65.0273 47.3416 65.2267 46.9686 65.5195 46.6757C65.8123 46.3829 66.1854 46.1835 66.5915 46.1027C66.9977 46.0219 67.4187 46.0634 67.8012 46.2219C68.1838 46.3803 68.5108 46.6487 68.7409 46.993C68.971 47.3373 69.0938 47.7421 69.0938 48.1562C69.0931 48.7114 68.8723 49.2435 68.4798 49.6361C68.0873 50.0286 67.5551 50.2494 67 50.25ZM75.375 31.4062H69.0938V8.375H75.375V31.4062ZM64.9062 33.5V42.2352C64.0244 42.5493 63.2234 43.0557 62.5615 43.7177C61.8995 44.3797 61.3931 45.1806 61.0789 46.0625H54.4375V43.7854L64.9062 30.9902V33.5ZM29.3125 39.7812H50.25V46.0625H29.3125V39.7812ZM49.8437 50.25H61.0789C61.3931 51.1319 61.8995 51.9328 62.5615 52.5948C63.2234 53.2568 64.0244 53.7632 64.9062 54.0773V60.7188H56.5312C55.976 60.7188 55.4434 60.9394 55.0508 61.332C54.6581 61.7247 54.4375 62.2572 54.4375 62.8125V87.9375C54.4375 88.4928 54.6581 89.0253 55.0508 89.418C55.4434 89.8106 55.976 90.0312 56.5312 90.0312H67C67.5553 90.0312 68.0878 89.8106 68.4805 89.418C68.8731 89.0253 69.0937 88.4928 69.0938 87.9375V54.0773C69.9756 53.7632 70.7766 53.2567 71.4386 52.5948C72.1005 51.9328 72.6069 51.1319 72.9211 50.25H79.5625V58.625C79.5625 59.1803 79.7831 59.7128 80.1758 60.1055C80.5684 60.4981 81.101 60.7187 81.6562 60.7188H86.432L93.7147 94.2188H40.2853L49.8437 50.25ZM33.5 99.2734L43.1016 108.875H23.8985L33.5 99.2734ZM39.7812 125.625V117.25H35.5938V125.625H31.4062V117.25H27.2188V125.625H20.9375V113.062H46.0625V125.625H39.7812ZM50.25 125.625V113.062H113.062V125.625H50.25Z" fill="#7A9757"/>
<path d="M69.0935 117.25H73.281V121.438H69.0935V117.25Z" fill="#7A9757"/>
<path d="M58.625 117.25H62.8125V121.438H58.625V117.25Z" fill="#7A9757"/>
<path d="M100.5 117.25H104.688V121.438H100.5V117.25Z" fill="#7A9757"/>
<path d="M79.5625 117.25H83.75V121.438H79.5625V117.25Z" fill="#7A9757"/>
<path d="M90.0315 117.25H94.219V121.438H90.0315V117.25Z" fill="#7A9757"/>
<path d="M79.5625 83.75H83.75V90.0312H79.5625V83.75Z" fill="#7A9757"/>
<path d="M75.375 69.0938H79.5625V75.3749H75.375V69.0938Z" fill="#7A9757"/>
<path d="M46.0625 83.75H50.25V90.0312H46.0625V83.75Z" fill="#7A9757"/>
</svg>
