<svg width="126" height="126" viewBox="0 0 126 126" fill="none" xmlns="http://www.w3.org/2000/svg">
<g clip-path="url(#clip0_58_2)">
<path d="M125.199 36.3945L115.344 26.5389V14.8438C115.344 14.4303 115.222 14.0261 114.992 13.6825L114.989 13.6778L114.984 13.6697L106.617 1.11987C106.426 0.833068 106.167 0.597902 105.863 0.435252C105.559 0.272603 105.22 0.1875 104.875 0.1875C104.53 0.1875 104.191 0.272603 103.887 0.435252C103.583 0.597902 103.324 0.833068 103.133 1.11987L94.7664 13.6697L94.761 13.6778L94.7579 13.6824C94.528 14.026 94.4057 14.4303 94.4062 14.8438V26.5389L84.5506 36.3945C84.3559 36.5887 84.2016 36.8195 84.0964 37.0736C83.9911 37.3277 83.9371 37.6 83.9375 37.875V79.7499L81.4251 76.4001C81.23 76.14 80.9771 75.929 80.6864 75.7836C80.3956 75.6382 80.0751 75.5625 79.75 75.5625H63V54.625C63 54.2116 62.8776 53.8075 62.6483 53.4636L58.4608 47.1824C58.2696 46.8956 58.0106 46.6604 57.7067 46.4978C57.4028 46.3351 57.0634 46.25 56.7188 46.25C56.3741 46.25 56.0347 46.3351 55.7308 46.4978C55.4269 46.6604 55.1679 46.8956 54.9767 47.1824L52.5312 50.8505L50.0858 47.1824C49.8946 46.8956 49.6356 46.6604 49.3317 46.4977C49.0278 46.3351 48.6884 46.25 48.3438 46.25H39.9688C39.6241 46.25 39.2847 46.3351 38.9808 46.4977C38.6769 46.6604 38.4179 46.8956 38.2267 47.1824L35.7812 50.8505L33.3358 47.1824C33.1446 46.8956 32.8856 46.6604 32.5817 46.4978C32.2778 46.3351 31.9384 46.25 31.5938 46.25C31.2491 46.25 30.9097 46.3351 30.6058 46.4978C30.3019 46.6604 30.0429 46.8956 29.8517 47.1824L25.6642 53.4636C25.4349 53.8075 25.3125 54.2116 25.3125 54.625V75.5625H8.5625C8.23744 75.5625 7.91685 75.6382 7.62611 75.7836C7.33537 75.929 7.08246 76.14 6.8874 76.4001L0.606148 84.7751C0.335645 85.1379 0.190275 85.5787 0.19191 86.0312H0.1875V123.719C0.187506 124.274 0.408098 124.807 0.800751 125.199C1.1934 125.592 1.72595 125.812 2.28125 125.812H123.719C124.274 125.812 124.807 125.592 125.199 125.199C125.592 124.807 125.812 124.274 125.812 123.719V37.875C125.813 37.6 125.759 37.3277 125.654 37.0736C125.548 36.8195 125.394 36.5887 125.199 36.3945ZM88.125 88.125H94.4062V102.781H88.125V88.125ZM111.156 88.125V102.781H106.969V88.125H111.156ZM102.781 102.781H98.5938V88.125H102.781V102.781ZM102.781 106.969V121.625H98.5938V106.969H102.781ZM106.969 106.969H111.156V121.625H106.969V106.969ZM115.344 88.125H121.625V102.781H115.344V88.125ZM88.125 83.9375V54.625H121.625V83.9375H88.125ZM111.156 44.1562V50.4375H106.969V44.1562H102.781V50.4375H98.5938V44.1562H94.4062V50.4375H88.125V39.9688H121.625V50.4375H115.344V44.1562H111.156ZM91.086 35.7812L97.3672 29.5H112.383L118.664 35.7812H91.086ZM111.156 25.3125H106.969V21.125H102.781V25.3125H98.5938V16.9375H111.156V25.3125ZM104.875 6.05585L109.338 12.75H100.412L104.875 6.05585ZM83.9375 102.781H79.75V96.5H75.5625V102.781H71.375V96.5H67.1875V102.781H63V88.125H83.9375V102.781ZM75.5625 115.344V121.625H71.375V115.344H67.1875V121.625H63V106.969H83.9375V121.625H79.75V115.344H75.5625ZM78.7031 79.75L81.8438 83.9375H63V79.75H78.7031ZM56.7188 52.1184L58.8125 55.259V56.7188H54.625V55.259L56.7188 52.1184ZM41.0892 50.4375H47.2233L50.4375 55.2589V58.8125H37.875V55.2589L41.0892 50.4375ZM42.0625 115.344V121.625H37.875V106.969H50.4375V121.625H46.25V115.344H42.0625ZM46.25 102.781V96.5H42.0625V102.781H37.875V88.125H50.4375V102.781H46.25ZM37.875 83.9375V79.75H50.4375V83.9375H37.875ZM46.25 75.5625V69.2812H42.0625V75.5625H37.875V63H50.4375V75.5625H46.25ZM31.5938 52.1184L33.6875 55.259V56.7188H29.5V55.259L31.5938 52.1184ZM9.60938 79.75H25.3125V83.9375H6.46875L9.60938 79.75ZM16.9375 96.5V102.781H12.75V96.5H8.5625V102.781H4.375V88.125H25.3125V102.781H21.125V96.5H16.9375ZM4.375 106.969H25.3125V121.625H21.125V115.344H16.9375V121.625H12.75V115.344H8.5625V121.625H4.375V106.969ZM29.5 121.625V60.9062H33.6875V121.625H29.5ZM54.625 121.625V60.9062H58.8125V121.625H54.625ZM88.125 106.969H94.4062V121.625H88.125V106.969ZM115.344 121.625V106.969H121.625V121.625H115.344Z" fill="#7A9757"/>
</g>
<defs>
<clipPath id="clip0_58_2">
<rect width="126" height="126" fill="white"/>
</clipPath>
</defs>
</svg>
