<svg width="134" height="134" viewBox="0 0 134 134" fill="none" xmlns="http://www.w3.org/2000/svg">
<path d="M43.9688 108.875C43.4135 108.875 42.8809 109.096 42.4882 109.488C42.0956 109.881 41.875 110.413 41.875 110.969V119.344H46.0625V110.969C46.0625 110.413 45.8419 109.881 45.4493 109.488C45.0566 109.096 44.524 108.875 43.9688 108.875Z" fill="#7A9757"/>
<path d="M92.125 110.969C92.125 110.413 91.9044 109.881 91.5118 109.488C91.1191 109.096 90.5865 108.875 90.0312 108.875C89.476 108.875 88.9434 109.096 88.5507 109.488C88.1581 109.881 87.9375 110.413 87.9375 110.969V119.344H92.125V110.969Z" fill="#7A9757"/>
<path d="M25.125 113.062H20.9375V119.344H25.125V113.062Z" fill="#7A9757"/>
<path d="M25.125 79.5625H20.9375V87.9375H25.125V79.5625Z" fill="#7A9757"/>
<path d="M25.125 64.9062H20.9375V73.2812H25.125V64.9062Z" fill="#7A9757"/>
<path d="M113.062 79.5625H108.875V87.9375H113.062V79.5625Z" fill="#7A9757"/>
<path d="M113.062 64.9062H108.875V73.2812H113.062V64.9062Z" fill="#7A9757"/>
<path d="M113.062 113.062H108.875V119.344H113.062V113.062Z" fill="#7A9757"/>
<path d="M127.719 94.2188H123.531V57.2291L129.394 49.4124C129.627 49.1014 129.769 48.7315 129.804 48.3442C129.839 47.957 129.765 47.5676 129.591 47.2199C129.418 46.8721 129.15 46.5796 128.819 46.3752C128.489 46.1708 128.108 46.0625 127.719 46.0625H121.437V31.4062C121.437 31.0812 121.361 30.7608 121.215 30.4706L121.216 30.4698L117.029 22.0948C116.855 21.747 116.588 21.4546 116.257 21.2502C115.926 21.0457 115.545 20.9375 115.156 20.9375H113.062V12.5625H117.25V8.375H113.062V4.1875H108.875V8.375H104.687V12.5625H108.875V20.9375H106.781C106.392 20.9375 106.011 21.0457 105.681 21.2502C105.35 21.4546 105.082 21.747 104.909 22.0948L100.721 30.4698L100.723 30.4706C100.576 30.7608 100.5 31.0812 100.5 31.4062V46.0625H94.2187C93.8299 46.0625 93.4487 46.1708 93.118 46.3752C92.7872 46.5796 92.5199 46.8721 92.346 47.2199C92.1721 47.5676 92.0985 47.957 92.1334 48.3442C92.1684 48.7315 92.3104 49.1014 92.5438 49.4124L98.4062 57.2291V75.3749L94.2187 72.2343V62.8125H90.0312V72.2343L83.052 77.4688H77.4687V64.9062H73.2812V71.1874L69.0937 68.0468V61.5861L74.7617 55.9181C74.9561 55.7237 75.1104 55.4929 75.2156 55.2388C75.3209 54.9848 75.375 54.7125 75.375 54.4375C75.375 54.1625 75.3209 53.8903 75.2156 53.6362C75.1104 53.3822 74.9561 53.1513 74.7617 52.9569L69.0937 47.2889V39.7812H64.9062V47.2889L59.2383 52.9569C59.0438 53.1513 58.8896 53.3821 58.7843 53.6362C58.6791 53.8902 58.625 54.1625 58.625 54.4375C58.625 54.7125 58.6791 54.9847 58.7843 55.2388C58.8896 55.4928 59.0438 55.7237 59.2383 55.9181L64.9062 61.5861V68.0468L60.7187 71.1874V64.9062H56.5312V77.4688H50.948L43.9687 72.2343V62.8125H39.7812V72.2343L35.5937 75.3749V57.2291L41.4562 49.4124C41.6895 49.1014 41.8316 48.7315 41.8665 48.3442C41.9014 47.957 41.8278 47.5676 41.6539 47.2199C41.4801 46.8721 41.2127 46.5796 40.882 46.3752C40.5512 46.1708 40.1701 46.0625 39.7812 46.0625H33.5V31.4062C33.4998 31.0812 33.4236 30.7608 33.2773 30.4706L33.2789 30.4698L29.0914 22.0948C28.9175 21.747 28.6502 21.4546 28.3195 21.2502C27.9887 21.0457 27.6076 20.9375 27.2187 20.9375H25.125V12.5625H29.3125V8.375H25.125V4.1875H20.9375V8.375H16.75V12.5625H20.9375V20.9375H18.8437C18.4549 20.9375 18.0738 21.0457 17.743 21.2502C17.4123 21.4546 17.145 21.747 16.9711 22.0948L12.7836 30.4698L12.7852 30.4706C12.6389 30.7608 12.5627 31.0812 12.5625 31.4062V46.0625H6.28124C5.89241 46.0625 5.51126 46.1708 5.18049 46.3752C4.84973 46.5796 4.58243 46.8721 4.40854 47.2199C4.23465 47.5676 4.16104 47.957 4.19596 48.3442C4.23089 48.7315 4.37296 49.1014 4.60627 49.4124L10.4687 57.2291V94.2188H6.28124C5.89241 94.2187 5.51126 94.327 5.18049 94.5314C4.84973 94.7358 4.58243 95.0283 4.40854 95.3761C4.23465 95.7239 4.16104 96.1132 4.19596 96.5005C4.23089 96.8877 4.37296 97.2576 4.60627 97.5687L10.4687 105.385V127.719C10.4687 128.274 10.6893 128.807 11.082 129.199C11.4746 129.592 12.0072 129.812 12.5625 129.812H121.437C121.993 129.812 122.525 129.592 122.918 129.199C123.311 128.807 123.531 128.274 123.531 127.719V105.385L129.394 97.5687C129.627 97.2576 129.769 96.8877 129.804 96.5005C129.839 96.1132 129.765 95.7239 129.591 95.3761C129.418 95.0283 129.15 94.7358 128.819 94.5314C128.489 94.327 128.108 94.2187 127.719 94.2188ZM63.6797 54.4375L67 51.1172L70.3203 54.4375L67 57.7578L63.6797 54.4375ZM60.7187 76.4219L67 71.7109L73.2812 76.4219V98.4062H69.0937V79.5625C69.0937 79.0072 68.8731 78.4746 68.4805 78.082C68.0878 77.6893 67.5553 77.4688 67 77.4688C66.4447 77.4688 65.9121 77.6893 65.5195 78.082C65.1268 78.4746 64.9062 79.0072 64.9062 79.5625V98.4062H60.7187V76.4219ZM41.875 75.8984L48.1562 80.6094V98.4062H35.5937V80.6094L41.875 75.8984ZM20.1378 25.125H25.9247L28.0185 29.3125H18.044L20.1378 25.125ZM16.75 33.5H29.3125V46.0625H16.75V33.5ZM31.4062 125.625H14.6562V106.781H31.4062V125.625ZM31.4062 102.594H13.6094L10.4687 98.4062H31.4062V102.594ZM31.4062 94.2188H14.6562V58.625H31.4062V94.2188ZM13.6094 54.4375L10.4687 50.25H35.5937L32.4531 54.4375H13.6094ZM52.3437 125.625H35.5937V102.594H52.3437V125.625ZM52.3437 81.6562H56.5312V98.4062H52.3437V81.6562ZM69.0937 125.625H64.9062V113.062C64.9062 112.507 65.1268 111.975 65.5195 111.582C65.9121 111.189 66.4447 110.969 67 110.969C67.5553 110.969 68.0878 111.189 68.4805 111.582C68.8731 111.975 69.0937 112.507 69.0937 113.062V125.625ZM77.4687 125.625H73.2812V113.062C73.2812 111.397 72.6195 109.799 71.4415 108.621C70.2635 107.443 68.6659 106.781 67 106.781C65.3341 106.781 63.7364 107.443 62.5585 108.621C61.3805 109.799 60.7187 111.397 60.7187 113.062V125.625H56.5312V102.594H77.4687V125.625ZM77.4687 81.6562H81.6562V98.4062H77.4687V81.6562ZM98.4062 125.625H81.6562V102.594H98.4062V125.625ZM98.4062 98.4062H85.8437V80.6094L92.125 75.8984L98.4062 80.6094V98.4062ZM108.075 25.125H113.862L115.956 29.3125H105.982L108.075 25.125ZM104.687 33.5H117.25V46.0625H104.687V33.5ZM98.4062 50.25H123.531L120.391 54.4375H101.547L98.4062 50.25ZM119.344 58.625V94.2188H102.594V58.625H119.344ZM119.344 125.625H102.594V106.781H119.344V125.625ZM120.391 102.594H102.594V98.4062H123.531L120.391 102.594Z" fill="#7A9757"/>
</svg>
