<svg width="60" height="126" viewBox="0 0 60 126" fill="none" xmlns="http://www.w3.org/2000/svg">
<g clip-path="url(#clip0_58_26)">
<path d="M1.09393 24.3197C1.2816 24.6232 1.54375 24.8738 1.85548 25.0476C2.16722 25.2214 2.51819 25.3126 2.87509 25.3126H3.45962L6.47386 34.3555L3.80746 36.1331C3.38281 36.4161 3.07617 36.8445 2.94518 37.3378C2.8142 37.831 2.86789 38.3551 3.09618 38.8116L11.2501 55.1194V98.5939H4.96884C4.41356 98.5939 3.88102 98.8145 3.48837 99.2071C3.09572 99.5998 2.87512 100.132 2.87509 100.688V109.063C2.87512 109.618 3.09572 110.15 3.48837 110.543C3.88102 110.936 4.41356 111.156 4.96884 111.156H7.06259V123.719C7.06262 124.274 7.28322 124.807 7.67587 125.199C8.06852 125.592 8.60106 125.813 9.15634 125.813H46.8438C47.3991 125.813 47.9317 125.592 48.3243 125.199C48.717 124.807 48.9376 124.274 48.9376 123.719V111.156H51.0313C51.5866 111.156 52.1192 110.936 52.5118 110.543C52.9045 110.15 53.1251 109.618 53.1251 109.063V100.688C53.1251 100.132 52.9045 99.5998 52.5118 99.2071C52.1192 98.8145 51.5866 98.5939 51.0313 98.5939H44.7501V79.7501H46.8438C48.5091 79.7482 50.1057 79.0858 51.2832 77.9083C52.4608 76.7307 53.1232 75.1342 53.1251 73.4689V68.5643L58.5297 64.7038C58.958 64.3979 59.2554 63.9418 59.3625 63.4264C59.4697 62.911 59.3789 62.3742 59.1081 61.9228L52.8268 51.4541C52.681 51.2111 52.4874 51.0003 52.2577 50.8344C52.0281 50.6685 51.7671 50.5509 51.4907 50.4887C51.2143 50.4266 50.9281 50.4212 50.6495 50.4729C50.3709 50.5245 50.1057 50.6322 49.87 50.7893L47.7467 52.2049L44.3984 47.1825C44.1964 46.8793 43.9187 46.6341 43.5928 46.4712L35.935 42.6423C36.2265 41.7811 36.3751 40.878 36.3751 39.9689V31.5939H40.5626V27.4064H35.2483C34.9847 26.952 34.6791 26.5232 34.3355 26.1258L38.3638 22.0976L35.4026 19.1364L30.8277 23.7113C30.5877 23.625 30.3433 23.5483 30.0938 23.4839V16.9376H25.9063V23.4839C25.6569 23.5483 25.4124 23.625 25.1724 23.7113L20.5976 19.1364L17.6364 22.0976L21.6646 26.1258C21.3211 26.5233 21.0155 26.952 20.7518 27.4064H17.7785L16.5646 24.9786C17.0016 24.7021 17.3201 24.2728 17.4579 23.7744C17.5958 23.276 17.5431 22.7441 17.3103 22.2824L15.6847 19.0314L17.3103 15.7803C17.4699 15.4611 17.5453 15.1064 17.5293 14.7498C17.5133 14.3933 17.4064 14.0467 17.2188 13.7431C17.0311 13.4395 16.769 13.1889 16.4573 13.0151C16.1455 12.8413 15.7945 12.7501 15.4376 12.7501H14.4756C15.0059 10.8231 15.0174 8.7902 14.5089 6.85735C14.0004 4.92449 12.99 3.16041 11.5801 1.74387L10.6369 0.800763C10.2442 0.40824 9.71163 0.187744 9.15634 0.187744C8.60106 0.187744 8.06851 0.40824 7.67574 0.800763L6.73263 1.74387C5.3227 3.16041 4.31228 4.92449 3.80377 6.85735C3.29527 8.7902 3.30675 10.8231 3.83705 12.7501H2.87509C2.51818 12.7501 2.16718 12.8413 1.85543 13.0151C1.54368 13.1889 1.28154 13.4395 1.09391 13.7431C0.90627 14.0467 0.799368 14.3933 0.783358 14.7498C0.767347 15.1064 0.842757 15.4611 1.00243 15.7803L2.62794 19.0314L1.00243 22.2824C0.842812 22.6016 0.767436 22.9564 0.78345 23.3129C0.799464 23.6695 0.906336 24.016 1.09393 24.3197ZM6.84151 18.0949L6.26287 16.9376H12.0498L11.4712 18.0949C11.3258 18.3857 11.2502 18.7063 11.2502 19.0314C11.2502 19.3564 11.3258 19.6771 11.4712 19.9678L12.0498 21.1251H6.26287L6.84151 19.9678C6.98686 19.6771 7.06253 19.3564 7.06253 19.0314C7.06253 18.7063 6.98686 18.3857 6.84151 18.0949ZM7.87388 25.3126H12.0498L14.0469 29.3068L10.0856 31.9477L7.87388 25.3126ZM28.0001 27.4064C28.9655 27.4076 29.9009 27.7418 30.6486 28.3526C31.3962 28.9634 31.9103 29.8134 32.104 30.7591C29.8976 32.6564 27.0819 33.6959 24.1719 33.6876H23.8126V31.5939C23.8139 30.4837 24.2555 29.4193 25.0405 28.6343C25.8255 27.8492 26.8899 27.4076 28.0001 27.4064ZM23.8126 37.8751H24.1719C26.9793 37.8803 29.7404 37.1601 32.1876 35.7843V39.9689C32.1876 41.0795 31.7464 42.1446 30.9611 42.9299C30.1758 43.7152 29.1107 44.1564 28.0001 44.1564C26.8895 44.1564 25.8244 43.7152 25.0391 42.9299C24.2538 42.1446 23.8126 41.0795 23.8126 39.9689V37.8751ZM7.66807 38.592L15.9341 33.0812L19.6438 40.5005C19.7377 41.9983 20.2328 43.4432 21.077 44.6839C21.9213 45.9246 23.0837 46.9154 24.4425 47.5525C25.8013 48.1896 27.3064 48.4495 28.8001 48.305C30.2939 48.1605 31.7213 47.617 32.9328 46.7313L29.7345 49.9295C25.9075 53.777 20.8435 56.1475 15.4376 56.622V54.6251C15.4376 54.3 15.3619 53.9794 15.2165 53.6887L7.66807 38.592ZM36.3775 63.4683C36.3885 65.7539 36.879 68.0117 37.8174 70.0958C31.1861 74.6012 23.4444 77.198 15.4376 77.6026V71.3159C23.0581 70.9136 30.3696 68.1735 36.3775 63.4683ZM15.4376 81.7952C18.2573 81.6676 21.0601 81.289 23.8126 80.6639V86.0314H28.0001V79.5113C29.4194 79.0515 30.8152 78.5266 32.1876 77.9366V90.2189H15.4376V81.7952ZM36.3751 75.8893C37.6213 75.2025 38.8354 74.46 40.0174 73.6617C40.1937 73.879 40.3745 74.0933 40.5626 74.3026V90.2189H36.3751V75.8893ZM44.7501 121.625H11.2501V111.156H17.5313V117.438H21.7188V111.156H25.9063V117.438H30.0938V111.156H34.2813V117.438H38.4688V111.156H44.7501V121.625ZM48.9376 106.969H7.06259V102.781H48.9376V106.969ZM15.4376 98.5939V94.4064H40.5626V98.5939H15.4376ZM48.9376 73.4689C48.937 74.024 48.7162 74.5562 48.3236 74.9487C47.9311 75.3412 47.3989 75.562 46.8438 75.5626H44.7501V74.5464L48.9376 71.5553V73.4689ZM50.3658 55.4915L54.5226 62.4199L42.9862 70.6602C41.4064 68.5547 40.5556 65.9918 40.5626 63.3595V62.0268L50.3658 55.4915ZM44.2626 54.5276L40.5626 56.9942V54.6251H36.3751V57.933C30.7126 63.3909 23.2881 66.6489 15.4376 67.1208V60.8274C21.958 60.345 28.0856 57.527 32.6957 52.8907L37.4866 48.0998L41.2228 49.9678L44.2626 54.5276ZM9.15634 5.30723C9.97692 6.34526 10.4931 7.5908 10.6472 8.90498C10.8014 10.2192 10.5876 11.5503 10.0295 12.7501H8.28314C7.72511 11.5503 7.51126 10.2192 7.66544 8.90498C7.81962 7.5908 8.33577 6.34526 9.15634 5.30723Z" fill="#7A9757"/>
</g>
<defs>
<clipPath id="clip0_58_26">
<rect width="60" height="126" fill="white"/>
</clipPath>
</defs>
</svg>
