<svg width="183" height="50" viewBox="0 0 183 50" fill="none" xmlns="http://www.w3.org/2000/svg">
<g clip-path="url(#clip0_58_90)">
<path d="M62.5451 17.2508C60.2998 14.9006 57.3349 13.1859 54.0137 12.3168C54.6243 13.7685 55.0385 15.28 55.2477 16.8193C57.3763 17.8035 59.1734 19.2754 60.4535 21.0839C61.7343 22.8924 62.4526 24.9723 62.5349 27.1102C62.6166 29.2482 62.06 31.3671 60.9211 33.2495C59.7823 35.132 58.1026 36.7101 56.0543 37.822C54.0061 38.9339 51.6632 39.5396 49.266 39.5767C46.8689 39.6139 44.5038 39.0813 42.4136 38.0335C40.3234 36.9857 38.5832 35.4606 37.3718 33.6146C36.1604 31.7686 35.5213 29.6681 35.5201 27.529C35.5201 20.2152 29.939 14.0449 22.3772 12.2263C23.5475 10.7561 25.0727 9.53893 26.8403 8.66453C28.6079 7.79013 30.5729 7.28076 32.5904 7.17395C34.6079 7.06714 36.6266 7.36562 38.4977 8.04739C40.3687 8.72916 42.0445 9.77685 43.4015 11.1132C44.7585 12.4497 45.7621 14.0407 46.3384 15.7692C46.9147 17.4976 47.049 19.3194 46.7313 21.1003C46.4137 22.8812 45.6523 24.5759 44.5031 26.0593C43.354 27.5428 41.8464 28.7772 40.0915 29.6718C40.4657 30.9103 41.1589 32.0536 42.116 33.0106C44.8582 31.6286 47.1399 29.6217 48.7283 27.1951C50.3165 24.7685 51.1543 22.0092 51.1561 19.1991C51.1561 10.4612 43.1884 3.35205 33.3941 3.35205C30.1881 3.3533 27.042 4.12816 24.2892 5.59456C21.5364 7.06097 19.2793 9.16436 17.7569 11.6819C7.96518 11.6819 0 18.7923 0 27.529C0 35.8756 7.26615 42.731 16.4553 43.3324C15.2052 41.9909 14.1607 40.5068 13.3496 38.9194C11.0051 38.197 8.92881 36.9125 7.34843 35.2068C5.7681 33.501 4.74465 31.44 4.3904 29.2495C4.03615 27.0591 4.36476 24.8239 5.3402 22.7891C6.31563 20.7544 7.90021 18.9985 9.92019 17.7142C11.9402 16.4299 14.3175 15.6667 16.7915 15.5083C19.2655 15.3499 21.7406 15.8024 23.9454 16.8163C26.1502 17.8301 27.9995 19.3661 29.2906 21.2557C30.5816 23.1454 31.2645 25.3159 31.2644 27.529C31.2664 30.3086 32.0872 33.039 33.6446 35.4463C35.2021 37.8538 37.4412 39.8536 40.1378 41.2455C38.0839 42.3003 35.7552 42.8545 33.3854 42.8526C31.0155 42.8506 28.6879 42.2925 26.6362 41.2344C24.5845 40.1761 22.8808 38.655 21.6961 36.8237C20.5114 34.9924 19.8874 32.9153 19.8866 30.8007C19.8925 29.1012 20.2988 27.4217 21.0793 25.8713C21.8597 24.3209 22.9968 22.9342 24.4167 21.8013C23.3875 20.849 22.1177 20.1304 20.7135 19.7055C17.4519 22.6648 15.6262 26.6503 15.6309 30.8007C15.6309 39.5397 23.5987 46.6478 33.3916 46.6478C37.577 46.6558 41.6295 45.3374 44.827 42.9278C46.2019 43.2254 47.6116 43.3755 49.0263 43.3749C58.8193 43.3749 66.7868 36.2657 66.7868 27.5279C66.7868 23.7612 65.283 20.1179 62.5451 17.2508Z" fill="url(#paint0_linear_58_90)"/>
<path d="M103.905 7.55835V22.5749H101.099V12.0676L95.1288 18.5307L89.1502 12.0541V22.5749H86.3442V7.55835H87.8349L95.1288 15.383L102.411 7.55835H103.905Z" fill="white"/>
<path d="M115.51 7.54834L122.204 22.5749H119.422L118.27 20.0286H109.943L108.804 22.5749H106.008L112.715 7.54834H115.51ZM110.953 17.7438H117.26L114.112 10.4926L110.953 17.7438Z" fill="white"/>
<path d="M125.411 18.2267C127.137 19.6799 129.121 20.2701 130.79 20.2701C132.904 20.2801 134.525 19.3579 134.525 18.0792C134.525 14.8833 123.895 17.3671 123.895 11.939C123.895 9.00484 126.609 7.5584 129.873 7.54834C132.094 7.56165 134.256 8.18625 136.063 9.33681L134.466 11.1007C133.213 10.2836 131.412 9.82198 129.886 9.82198C128.101 9.82198 126.679 10.4189 126.679 11.7602C126.679 15.0611 137.296 12.3269 137.296 18.0691C137.296 20.668 134.477 22.5749 130.861 22.5649C128.617 22.5649 126.057 21.8003 123.685 19.9447L125.411 18.2267Z" fill="white"/>
<path d="M153.376 7.53711V9.87441H147.48V22.5749H144.672V9.87441H138.777V7.53711H153.376Z" fill="white"/>
<path d="M167.023 7.54834V9.87447H158.343V13.1966H164.897V15.5227H158.343V20.2589H167.023V22.5749H155.524V7.54834H167.023Z" fill="white"/>
<path d="M179.837 22.5749L175.668 16.2034H171.924V22.5749H169.116V7.55835H177.151C179.863 7.55835 182.083 9.29767 182.083 11.9077C182.083 13.846 180.885 15.345 178.678 15.9843L183 22.5794L179.837 22.5749ZM171.924 13.9298H176.821C178.055 13.9298 179.327 13.1652 179.327 11.9077C179.327 10.7229 178.164 9.88452 176.821 9.88452H171.924V13.9298Z" fill="white"/>
<path d="M87.4626 37.0057C89.1893 38.4589 91.1748 39.0491 92.8425 39.0491C94.9557 39.0591 96.5769 38.1369 96.5769 36.8582C96.5769 33.6624 85.9481 36.1462 85.9481 30.7181C85.9481 27.7839 88.6616 26.3374 91.9267 26.3274C94.1465 26.341 96.3079 26.9655 98.1152 28.1159L96.5178 29.8764C95.2649 29.0593 93.465 28.5977 91.938 28.5977C90.1528 28.5977 88.732 29.1946 88.732 30.5359C88.732 33.8368 99.3494 31.1026 99.3494 36.8448C99.3494 39.4436 96.5303 41.3506 92.9123 41.3406C90.6698 41.3406 88.1095 40.576 85.7365 38.7204L87.4626 37.0057Z" fill="white"/>
<path d="M113.294 26.3274V28.6536H104.615V31.9757H111.164V34.3018H104.611V39.0379H113.294V41.354H101.796V26.3274H113.294Z" fill="white"/>
<path d="M126.104 41.354L121.934 34.9825H118.187V41.354H115.381V26.3374H123.414C126.128 26.3374 128.347 28.0767 128.347 30.6868C128.347 32.6251 127.148 34.124 124.941 34.7634L129.263 41.3584L126.104 41.354ZM118.187 32.7089H123.085C124.319 32.7089 125.591 31.9443 125.591 30.6868C125.591 29.5019 124.429 28.6636 123.085 28.6636H118.187V32.7089Z" fill="white"/>
<path d="M145.389 26.3162L138.6 41.3539H135.719L128.919 26.3162H131.96L137.152 38.043L142.343 26.3162H145.389Z" fill="white"/>
<path d="M159.021 26.3274V28.6536H150.342V31.9757H156.895V34.3018H150.342V39.0379H159.021V41.354H147.522V26.3274H159.021Z" fill="white"/>
<path d="M171.838 41.354L167.668 34.9825H163.921V41.354H161.115V26.3374H169.148C171.862 26.3374 174.081 28.0767 174.081 30.6868C174.081 32.6251 172.884 34.124 170.675 34.7634L174.997 41.3584L171.838 41.354ZM163.921 32.7089H168.82C170.053 32.7089 171.325 31.9443 171.325 30.6868C171.325 29.5019 170.163 28.6636 168.82 28.6636H163.921V32.7089Z" fill="white"/>
</g>
<defs>
<linearGradient id="paint0_linear_58_90" x1="-0.00125278" y1="25.0005" x2="66.7885" y2="25.0005" gradientUnits="userSpaceOnUse">
<stop stop-color="#7A9757"/>
<stop offset="1" stop-color="#5A8723"/>
</linearGradient>
<clipPath id="clip0_58_90">
<rect width="183" height="50" fill="white"/>
</clipPath>
</defs>
</svg>
