<svg width="864" height="733" viewBox="0 0 864 733" fill="none" xmlns="http://www.w3.org/2000/svg">
<g clip-path="url(#clip0_63_186)">
<mask id="mask0_63_186" style="mask-type:luminance" maskUnits="userSpaceOnUse" x="0" y="0" width="1027" height="733">
<path d="M1027 0H0V733H1027V0Z" fill="white"/>
</mask>
<g mask="url(#mask0_63_186)">
<path d="M153.885 733C146.601 733.001 139.445 731.098 133.125 727.48L0.651934 651.28C0.450457 651.169 0.283203 651.005 0.168251 650.806C0.0532995 650.607 -0.0049758 650.38 -0.000218669 650.15C-0.000365551 649.921 0.0598383 649.696 0.174321 649.498C0.288804 649.299 0.453534 649.134 0.651934 649.02L30.455 632.111C30.6027 632.022 30.7667 631.964 30.9373 631.94C31.1078 631.916 31.2814 631.927 31.4478 631.972C31.6142 632.016 31.7698 632.094 31.9055 632.2C32.0412 632.306 32.1541 632.438 32.2376 632.589C32.3233 632.737 32.3789 632.901 32.4013 633.071C32.4237 633.241 32.4123 633.414 32.3679 633.579C32.3235 633.745 32.2469 633.9 32.1425 634.036C32.038 634.172 31.9078 634.286 31.7593 634.371L3.93439 650.259L134.364 725.328C140.289 728.725 147 730.513 153.83 730.513C160.661 730.513 167.372 728.725 173.297 725.328L415.221 585.839C415.422 585.733 415.646 585.677 415.873 585.677C416.101 585.677 416.325 585.733 416.526 585.839L477.958 620.874C478.108 620.958 478.241 621.071 478.347 621.206C478.453 621.342 478.531 621.498 478.575 621.664C478.62 621.83 478.631 622.004 478.607 622.174C478.583 622.345 478.525 622.509 478.436 622.657C478.35 622.805 478.236 622.935 478.101 623.04C477.965 623.144 477.809 623.221 477.644 623.265C477.478 623.309 477.306 623.321 477.136 623.298C476.966 623.276 476.802 623.22 476.653 623.135L415.895 588.491L174.601 727.588C168.285 731.166 161.144 733.032 153.885 733Z" fill="#7A9757"/>
<path d="M559.411 608.964C559.127 608.966 558.85 608.875 558.622 608.705C558.394 608.535 558.228 608.295 558.149 608.022C558.07 607.748 558.083 607.457 558.185 607.191C558.288 606.926 558.474 606.702 558.715 606.552L828.813 434.853L615.539 311.687C615.36 311.568 615.213 311.407 615.111 311.217C615.009 311.027 614.956 310.815 614.956 310.6C614.956 310.385 615.009 310.173 615.111 309.984C615.213 309.794 615.36 309.633 615.539 309.514L683.775 271.327C683.916 271.191 684.085 271.089 684.271 271.028C684.456 270.967 684.653 270.948 684.847 270.973C685.041 270.998 685.226 271.066 685.39 271.172C685.554 271.279 685.692 271.42 685.794 271.587C685.895 271.754 685.958 271.941 685.978 272.136C685.997 272.33 685.973 272.526 685.907 272.71C685.84 272.893 685.733 273.06 685.594 273.197C685.455 273.334 685.286 273.437 685.101 273.5L618.822 310.579L832.052 433.658C832.231 433.777 832.378 433.938 832.48 434.128C832.582 434.318 832.635 434.53 832.635 434.745C832.635 434.96 832.582 435.172 832.48 435.361C832.378 435.551 832.231 435.712 832.052 435.831L560.128 608.769C559.911 608.896 559.663 608.963 559.411 608.964Z" fill="#7A9757"/>
<path d="M105.517 466.933L14.608 414.467C12.6299 413.315 12.869 411.337 15.1515 410.011L41.8678 394.602L139.907 451.11L113.213 466.52C112.052 467.186 110.751 467.571 109.414 467.643C108.077 467.715 106.743 467.471 105.517 466.933Z" fill="#647352"/>
<path d="M234.751 395.406V377.302H205.23L139.777 339.528C138.785 339.079 137.703 338.869 136.615 338.914C135.528 338.959 134.466 339.259 133.516 339.789L68.3014 377.41H38.9766V395.558C39.0076 395.88 39.1223 396.187 39.3092 396.45C39.4961 396.713 39.7486 396.923 40.0417 397.058L133.951 451.262C134.942 451.712 136.025 451.922 137.112 451.877C138.199 451.831 139.261 451.532 140.211 451.002L233.229 397.384C233.627 397.206 233.974 396.932 234.24 396.587C234.505 396.242 234.681 395.836 234.751 395.406Z" fill="#838383"/>
<path d="M133.973 433.18L40.0636 378.975C38.4549 378.041 38.6506 376.432 40.5201 375.346L133.516 321.663C134.468 321.138 135.529 320.841 136.616 320.795C137.702 320.75 138.784 320.958 139.777 321.402L233.686 375.65C235.273 376.585 235.077 378.215 233.229 379.28L140.233 432.962C139.278 433.481 138.215 433.77 137.129 433.808C136.042 433.846 134.962 433.631 133.973 433.18Z" fill="#838383"/>
<path d="M134.299 426.833L51.0629 378.78C49.6282 377.954 49.8238 376.606 51.4542 375.585L133.886 327.987C134.739 327.523 135.69 327.267 136.661 327.24C137.632 327.214 138.595 327.418 139.472 327.835L222.708 375.867C224.121 376.693 223.947 378.041 222.295 379.084L139.864 426.66C139.014 427.122 138.068 427.379 137.102 427.409C136.135 427.44 135.175 427.242 134.299 426.833Z" fill="#7A9757"/>
<path d="M134.495 422.791L58.0412 378.649C56.7152 377.91 56.8892 376.585 58.4108 375.715L134.125 331.986C134.902 331.556 135.769 331.315 136.656 331.281C137.543 331.247 138.426 331.422 139.233 331.791L215.709 375.933C217.013 376.671 216.861 378.106 215.339 378.867L139.603 422.595C138.826 423.025 137.959 423.267 137.072 423.301C136.185 423.335 135.302 423.16 134.495 422.791Z" fill="#6B864A"/>
<path d="M135.125 410.859L78.7141 378.258C77.7576 377.693 77.888 376.737 78.9967 376.085L134.842 343.831C135.42 343.523 136.061 343.348 136.716 343.322C137.371 343.296 138.023 343.418 138.625 343.679L195.014 376.28C195.97 376.845 195.861 377.823 194.753 378.454L138.885 410.707C138.314 411.023 137.676 411.202 137.023 411.228C136.37 411.255 135.72 411.128 135.125 410.859Z" fill="#6B864A"/>
<path d="M135.125 374.411L126.168 369.238L131.06 366.435L139.994 371.586L135.125 374.411Z" fill="#7A9757"/>
<path d="M151.733 373.672L142.798 378.845L137.907 376.019L146.863 370.869L151.733 373.672Z" fill="#7A9757"/>
<path d="M133.081 375.585L128.212 378.388L123.321 375.585L128.212 372.759L133.081 375.585Z" fill="#7A9757"/>
<path d="M149.972 385.322L145.081 388.147L130.995 380.019L135.886 377.193L149.972 385.322Z" fill="#7A9757"/>
<path d="M897.745 347.396L806.835 294.886C804.879 293.735 805.118 291.757 807.401 290.431L834.095 275.022L932.156 331.53L905.44 346.961C904.281 347.631 902.981 348.02 901.644 348.095C900.308 348.171 898.972 347.931 897.745 347.396Z" fill="#647352"/>
<path d="M1026.98 275.935V257.83H997.479L932.026 220.035C931.031 219.585 929.944 219.375 928.853 219.42C927.763 219.465 926.698 219.765 925.743 220.296L860.529 257.917H831.182V276.065C831.209 276.387 831.322 276.697 831.509 276.961C831.697 277.225 831.952 277.433 832.247 277.565L926.135 331.769C927.126 332.218 928.209 332.429 929.296 332.383C930.383 332.338 931.445 332.038 932.395 331.508L1025.46 277.847C1025.85 277.678 1026.19 277.416 1026.46 277.082C1026.72 276.748 1026.9 276.354 1026.98 275.935Z" fill="#838383"/>
<path d="M926.2 313.708L832.312 259.504C830.704 258.569 830.899 256.961 832.747 255.896L925.743 202.213C926.696 201.678 927.761 201.375 928.853 201.33C929.945 201.284 931.032 201.498 932.026 201.952L1025.91 256.113C1027.52 257.026 1027.33 258.656 1025.46 259.721L932.46 313.404C931.512 313.936 930.452 314.24 929.366 314.293C928.279 314.346 927.195 314.146 926.2 313.708Z" fill="#838383"/>
<path d="M926.526 307.362L843.29 259.308C841.877 258.482 842.051 257.135 843.703 256.113L926.135 208.516C926.978 208.05 927.918 207.787 928.88 207.749C929.843 207.712 930.801 207.9 931.678 208.298L1014.91 256.33C1016.35 257.156 1016.17 258.504 1014.52 259.547L932.091 307.123C931.248 307.598 930.304 307.867 929.337 307.908C928.37 307.95 927.407 307.763 926.526 307.362Z" fill="#7A9757"/>
<path d="M926.743 303.341L850.312 259.199C849.007 258.439 849.181 257.026 850.681 256.244L926.396 212.645C927.171 212.212 928.037 211.966 928.924 211.929C929.811 211.891 930.695 212.062 931.504 212.428L1007.98 256.57C1009.28 257.33 1009.11 258.743 1007.61 259.504L931.874 303.232C931.086 303.647 930.212 303.873 929.321 303.892C928.431 303.911 927.548 303.722 926.743 303.341Z" fill="#6B864A"/>
<path d="M514.478 680.382C495.631 680.382 477.914 676.144 464.589 668.45C450.894 660.539 443.351 649.911 443.351 638.501C443.351 627.09 450.894 616.441 464.589 608.529C492.109 592.664 536.868 592.664 564.367 608.529C578.062 616.441 585.627 627.09 585.627 638.501C585.627 649.911 578.062 660.539 564.367 668.45C551.042 676.144 533.325 680.382 514.478 680.382ZM514.478 599.206C496.892 599.206 479.306 603.074 465.893 610.79C453.046 618.223 445.959 628.047 445.959 638.501C445.959 648.955 453.046 658.757 465.893 666.19C478.74 673.623 496.087 677.752 514.478 677.752C532.869 677.752 550.129 673.645 563.063 666.168C575.997 658.692 582.997 648.911 582.997 638.479C582.997 628.047 575.91 618.201 563.063 610.768C549.672 603.074 532.064 599.206 514.478 599.206Z" fill="url(#paint0_linear_63_186)"/>
<path d="M514.478 668.428C543.136 668.428 566.368 655.019 566.368 638.479C566.368 621.938 543.136 608.529 514.478 608.529C485.821 608.529 462.589 621.938 462.589 638.479C462.589 655.019 485.821 668.428 514.478 668.428Z" fill="#647352"/>
<path d="M578.041 615.897V601.814H573.15C569.46 596.938 564.777 592.901 559.411 589.969C534.608 575.646 494.349 575.646 469.545 589.969C464.179 592.901 459.497 596.938 455.807 601.814H450.938V615.897C450.938 625.286 457.133 634.675 469.545 641.848C494.37 656.17 534.608 656.17 559.411 641.848C571.824 634.675 578.041 625.286 578.041 615.897Z" fill="#838383"/>
<path d="M514.478 638.479C549.571 638.479 578.019 622.054 578.019 601.792C578.019 581.53 549.571 565.105 514.478 565.105C479.386 565.105 450.938 581.53 450.938 601.792C450.938 622.054 479.386 638.479 514.478 638.479Z" fill="#838383"/>
<path opacity="0.4" d="M573.172 604.465V585.231H568.672C565.25 580.757 560.925 577.055 555.977 574.364C533.065 561.128 495.892 561.128 472.98 574.364C468.032 577.055 463.706 580.757 460.285 585.231H455.785V604.465C455.785 613.159 461.524 621.853 472.98 628.373C495.892 641.587 533.065 641.587 555.977 628.373C567.433 621.809 573.172 613.137 573.172 604.465Z" fill="#7A9757"/>
<g opacity="0.4">
<path opacity="0.4" d="M573.172 599.097V579.949H568.672C565.25 575.476 560.925 571.773 555.977 569.082C533.065 555.846 495.892 555.846 472.98 569.082C468.032 571.773 463.706 575.476 460.285 579.949H455.785V599.206C455.785 607.899 461.524 616.593 472.98 623.113C495.892 636.349 533.065 636.349 555.977 623.113C567.433 616.441 573.172 607.769 573.172 599.097Z" fill="#7A9757"/>
</g>
<path opacity="0.4" d="M514.478 619.114C546.894 619.114 573.172 603.944 573.172 585.231C573.172 566.517 546.894 551.347 514.478 551.347C482.063 551.347 455.785 566.517 455.785 585.231C455.785 603.944 482.063 619.114 514.478 619.114Z" fill="#7A9757"/>
<g opacity="0.4">
<path opacity="0.4" d="M554.911 606.965C545.94 618.027 533.877 626.168 520.261 630.35C532.755 629.869 544.973 626.531 555.977 620.592C567.433 614.072 573.172 605.378 573.172 596.685V590.816C566.07 594.93 559.862 600.42 554.911 606.965Z" fill="#7A9757"/>
</g>
<path d="M578.041 581.71V567.626H573.15C569.46 562.75 564.777 558.713 559.411 555.781C534.608 541.458 494.349 541.458 469.545 555.781C464.179 558.713 459.497 562.75 455.807 567.626H450.938V581.731C450.938 591.099 457.133 600.488 469.545 607.66C494.37 621.983 534.608 621.983 559.411 607.66C571.824 600.488 578.041 591.099 578.041 581.71Z" fill="#838383"/>
<path d="M514.478 604.291C549.571 604.291 578.019 587.866 578.019 567.604C578.019 547.343 549.571 530.917 514.478 530.917C479.386 530.917 450.938 547.343 450.938 567.604C450.938 587.866 479.386 604.291 514.478 604.291Z" fill="#838383"/>
<path opacity="0.4" d="M572.693 568.322V549.087H568.193C564.772 544.614 560.446 540.911 555.498 538.22C532.586 524.984 495.435 524.984 472.502 538.22C467.554 540.911 463.228 544.614 459.806 549.087H455.307V568.322C455.307 577.015 461.046 585.709 472.502 592.229C495.435 605.443 532.586 605.443 555.498 592.229C566.976 585.665 572.693 576.994 572.693 568.322Z" fill="#7A9757"/>
<g opacity="0.4">
<path opacity="0.4" d="M572.693 562.953V543.697H568.193C564.772 539.224 560.446 535.521 555.498 532.83C532.586 519.594 495.435 519.594 472.502 532.83C467.554 535.521 463.228 539.224 459.806 543.697H455.307V562.953C455.307 571.647 461.046 580.341 472.502 586.861C495.435 600.097 532.586 600.097 555.498 586.861C566.976 580.297 572.693 571.625 572.693 562.953Z" fill="#7A9757"/>
</g>
<path opacity="0.4" d="M514.022 582.97C546.437 582.97 572.715 567.8 572.715 549.087C572.715 530.374 546.437 515.204 514.022 515.204C481.606 515.204 455.329 530.374 455.329 549.087C455.329 567.8 481.606 582.97 514.022 582.97Z" fill="#7A9757"/>
<g opacity="0.4">
<path opacity="0.4" d="M554.911 570.256C542.368 586.23 524.847 592.968 512.5 595.793C528.173 596.098 544.02 592.837 555.976 585.926C567.432 579.406 573.171 570.712 573.171 562.019V554.238C566.081 558.311 559.873 563.757 554.911 570.256Z" fill="#7A9757"/>
</g>
<path d="M578.041 546.827V532.721H573.15C569.459 527.853 564.776 523.823 559.411 520.898C534.608 506.554 494.349 506.554 469.545 520.898C464.184 523.837 459.502 527.873 455.807 532.743H450.938V546.848C450.938 556.237 457.133 565.627 469.545 572.777C494.37 587.121 534.608 587.121 559.411 572.777C571.824 565.605 578.041 556.216 578.041 546.827Z" fill="#838383"/>
<path d="M514.478 569.408C549.571 569.408 578.019 552.983 578.019 532.721C578.019 512.46 549.571 496.034 514.478 496.034C479.386 496.034 450.938 512.46 450.938 532.721C450.938 552.983 479.386 569.408 514.478 569.408Z" fill="#838383"/>
<path opacity="0.4" d="M573.172 531.482V512.248H568.672C565.249 507.775 560.924 504.073 555.977 501.381C533.065 488.167 495.892 488.167 472.98 501.381C468.033 504.073 463.707 507.775 460.285 512.248H455.785V531.482C455.785 540.176 461.524 548.87 472.98 555.39C495.892 568.626 533.065 568.626 555.977 555.39C567.433 548.826 573.172 540.154 573.172 531.482Z" fill="#7A9757"/>
<g opacity="0.4">
<path opacity="0.4" d="M573.172 526.093V506.858H568.672C565.256 502.379 560.929 498.675 555.977 495.991C533.065 482.755 495.892 482.755 472.98 495.991C468.027 498.675 463.7 502.379 460.285 506.858H455.785V526.093C455.785 534.786 461.524 543.48 472.98 550C495.892 563.236 533.065 563.236 555.977 550C567.433 543.436 573.172 534.764 573.172 526.093Z" fill="#7A9757"/>
</g>
<path opacity="0.4" d="M514.478 546.11C546.894 546.11 573.172 530.939 573.172 512.226C573.172 493.513 546.894 478.343 514.478 478.343C482.063 478.343 455.785 493.513 455.785 512.226C455.785 530.939 482.063 546.11 514.478 546.11Z" fill="#7A9757"/>
<path d="M578.041 511.922V497.838H573.15C569.46 492.963 564.777 488.925 559.411 485.993C534.608 471.671 494.349 471.671 469.545 485.993C464.179 488.925 459.497 492.963 455.807 497.838H450.938V511.922C450.938 521.311 457.133 530.7 469.545 537.872C494.37 552.195 534.608 552.195 559.411 537.872C571.824 530.7 578.041 521.268 578.041 511.922Z" fill="#838383"/>
<path d="M514.478 534.503C549.571 534.503 578.019 518.078 578.019 497.817C578.019 477.555 549.571 461.13 514.478 461.13C479.386 461.13 450.938 477.555 450.938 497.817C450.938 518.078 479.386 534.503 514.478 534.503Z" fill="#838383"/>
<path d="M514.478 534.503C549.571 534.503 578.019 518.078 578.019 497.817C578.019 477.555 549.571 461.13 514.478 461.13C479.386 461.13 450.938 477.555 450.938 497.817C450.938 518.078 479.386 534.503 514.478 534.503Z" fill="#838383"/>
<g opacity="0.4">
<path opacity="0.4" d="M554.911 533.547C541.129 551.087 521.369 557.455 509.022 559.824C525.804 560.715 543.129 557.476 555.976 550.043C567.432 543.523 573.171 534.83 573.171 526.136V517.442C566.078 521.548 559.871 527.023 554.911 533.547Z" fill="#7A9757"/>
</g>
<path d="M578.041 511.922V497.838H573.15C569.46 492.963 564.777 488.925 559.411 485.993C534.608 471.671 494.349 471.671 469.545 485.993C464.179 488.925 459.497 492.963 455.807 497.838H450.938V511.922C450.938 521.311 457.133 530.7 469.545 537.872C494.37 552.195 534.608 552.195 559.411 537.872C571.824 530.7 578.041 521.268 578.041 511.922Z" fill="#838383"/>
<path d="M514.478 534.503C549.571 534.503 578.019 518.078 578.019 497.817C578.019 477.555 549.571 461.13 514.478 461.13C479.386 461.13 450.938 477.555 450.938 497.817C450.938 518.078 479.386 534.503 514.478 534.503Z" fill="#838383"/>
<path d="M514.478 534.503C549.571 534.503 578.019 518.078 578.019 497.817C578.019 477.555 549.571 461.13 514.478 461.13C479.386 461.13 450.938 477.555 450.938 497.817C450.938 518.078 479.386 534.503 514.478 534.503Z" fill="#838383"/>
<path d="M559.781 522.659C534.956 536.981 494.718 536.981 469.893 522.659C454.676 513.965 448.829 501.772 452.242 490.405C448.09 502.098 453.85 514.704 469.632 523.767C494.457 538.09 534.695 538.09 559.498 523.767C569.128 518.225 574.997 511.335 577.15 504.206C574.65 510.922 568.911 517.399 559.781 522.659Z" fill="#838383"/>
<path d="M559.781 557.563C534.956 571.886 494.718 571.886 469.893 557.563C454.676 548.87 448.829 536.677 452.242 525.31C448.09 536.981 453.85 549.609 469.632 558.672C494.457 572.994 534.695 572.994 559.498 558.672C569.128 553.108 574.997 546.218 577.15 539.111C574.65 545.827 568.911 552.282 559.781 557.563Z" fill="#838383"/>
<path d="M559.781 592.446C534.956 606.769 494.718 606.769 469.893 592.446C454.676 583.753 448.829 571.56 452.242 560.215C448.09 571.886 453.85 584.492 469.632 593.555C494.457 607.899 534.695 607.899 559.498 593.555C569.128 588.013 574.997 581.123 577.15 573.994C574.65 580.71 568.911 587.187 559.781 592.446Z" fill="#838383"/>
<path d="M559.781 627.351C534.956 641.674 494.718 641.674 469.893 627.351C454.676 618.658 448.829 606.465 452.242 595.098C448.09 606.769 453.85 619.397 469.632 628.46C494.457 642.782 534.695 642.782 559.498 628.46C569.128 622.896 574.997 616.006 577.15 608.899C574.65 615.615 568.911 622.07 559.781 627.351Z" fill="#838383"/>
<path d="M547.107 494.404V487.167H544.607C542.712 484.659 540.304 482.584 537.542 481.081C524.804 473.735 504.153 473.735 491.414 481.081C488.653 482.584 486.244 484.659 484.349 487.167H481.849V494.404C481.849 499.229 485.045 504.054 491.414 507.727C504.153 515.073 524.804 515.073 537.542 507.727C543.933 504.054 547.107 499.229 547.107 494.404Z" fill="#7A9757"/>
<path d="M514.478 506.01C532.499 506.01 547.107 497.574 547.107 487.167C547.107 476.76 532.499 468.324 514.478 468.324C496.458 468.324 481.849 476.76 481.849 487.167C481.849 497.574 496.458 506.01 514.478 506.01Z" fill="#BCD5FF"/>
<path d="M514.478 506.01C532.499 506.01 547.107 497.574 547.107 487.167C547.107 476.76 532.499 468.324 514.478 468.324C496.458 468.324 481.849 476.76 481.849 487.167C481.849 497.574 496.458 506.01 514.478 506.01Z" fill="#647352"/>
<path d="M530.021 496.143C525.201 498.575 519.878 499.842 514.478 499.842C509.079 499.842 503.756 498.575 498.936 496.143C496.624 494.913 494.709 493.051 493.414 490.775C491.24 486.428 496.74 483.342 502.631 479.908C511.218 474.953 517.304 473.735 525.891 478.691C531.782 482.081 537.76 486.45 535.543 490.753C534.251 493.037 532.336 494.907 530.021 496.143Z" fill="#6B864A"/>
<path d="M498.935 485.428C503.755 482.996 509.079 481.729 514.478 481.729C519.877 481.729 525.201 482.996 530.021 485.428C532.343 486.664 534.26 488.543 535.542 490.84C537.716 486.493 535.912 481.647 530.021 478.234C525.201 475.802 519.877 474.535 514.478 474.535C509.079 474.535 503.755 475.802 498.935 478.234C493.044 481.647 491.197 486.515 493.414 490.818C494.71 488.538 496.624 486.669 498.935 485.428Z" fill="#647352"/>
<g opacity="0.51">
<path opacity="0.51" d="M550.325 551.369C545.977 553.064 542.847 552.608 543.173 550.348C543.499 548.087 547.26 544.914 551.542 543.219C555.824 541.524 559.02 542.002 558.672 544.24C558.324 546.479 554.542 549.674 550.325 551.369Z" fill="#6B864A"/>
</g>
<g opacity="0.51">
<path opacity="0.51" d="M550.325 586.752C545.977 588.447 542.847 587.991 543.173 585.752C543.499 583.514 547.26 580.297 551.542 578.624C555.824 576.95 559.02 577.385 558.672 579.645C558.324 581.905 554.542 585.079 550.325 586.752Z" fill="#6B864A"/>
</g>
<g opacity="0.51">
<path opacity="0.51" d="M550.498 622.396C546.151 624.069 543.02 623.613 543.347 621.374C543.673 619.136 547.433 615.941 551.716 614.245C555.998 612.55 559.194 613.028 558.846 615.267C558.498 617.506 554.672 620.7 550.498 622.396Z" fill="#6B864A"/>
</g>
<g opacity="0.51">
<path opacity="0.51" d="M562.454 542.48C562.146 542.593 561.813 542.618 561.491 542.552C561.17 542.486 560.873 542.331 560.635 542.105C560.396 541.879 560.226 541.591 560.143 541.274C560.06 540.956 560.067 540.622 560.164 540.308C560.261 539.995 560.443 539.714 560.691 539.499C560.939 539.284 561.242 539.142 561.566 539.09C561.891 539.038 562.223 539.077 562.526 539.204C562.829 539.331 563.09 539.539 563.281 539.807C563.514 540.273 563.559 540.811 563.405 541.309C563.251 541.808 562.91 542.227 562.454 542.48Z" fill="#6B864A"/>
</g>
<g opacity="0.51">
<path opacity="0.51" d="M562.454 578.037C562.146 578.15 561.813 578.175 561.491 578.109C561.17 578.043 560.873 577.888 560.635 577.662C560.396 577.436 560.226 577.148 560.143 576.831C560.06 576.513 560.067 576.179 560.164 575.865C560.261 575.551 560.443 575.271 560.691 575.056C560.939 574.841 561.242 574.699 561.566 574.647C561.891 574.594 562.223 574.634 562.526 574.761C562.829 574.887 563.09 575.096 563.281 575.364C563.514 575.83 563.559 576.368 563.405 576.866C563.251 577.364 562.91 577.784 562.454 578.037Z" fill="#6B864A"/>
</g>
<g opacity="0.51">
<path opacity="0.51" d="M562.454 613.463C562.146 613.577 561.813 613.601 561.491 613.535C561.17 613.469 560.873 613.314 560.635 613.088C560.396 612.863 560.226 612.575 560.143 612.257C560.06 611.939 560.067 611.605 560.164 611.291C560.261 610.978 560.443 610.697 560.691 610.482C560.939 610.267 561.242 610.125 561.566 610.073C561.891 610.021 562.223 610.06 562.526 610.187C562.829 610.314 563.09 610.522 563.281 610.79C563.514 611.256 563.559 611.794 563.405 612.292C563.251 612.791 562.91 613.21 562.454 613.463Z" fill="#6B864A"/>
</g>
<path d="M348.768 338.485C348.548 338.489 348.331 338.437 348.137 338.333L292.357 307.275C292.138 307.168 291.955 307 291.828 306.792C291.701 306.585 291.636 306.345 291.64 306.101C291.64 305.867 291.703 305.637 291.821 305.434C291.94 305.232 292.11 305.065 292.314 304.949L567.715 151.79C567.914 151.678 568.139 151.619 568.367 151.619C568.596 151.619 568.82 151.678 569.019 151.79L690.753 223.143C690.942 223.202 691.114 223.302 691.258 223.438C691.402 223.573 691.513 223.739 691.584 223.923C691.654 224.108 691.681 224.306 691.664 224.502C691.647 224.699 691.585 224.889 691.483 225.058C691.382 225.228 691.243 225.372 691.078 225.48C690.912 225.587 690.725 225.656 690.529 225.681C690.333 225.706 690.134 225.686 689.947 225.623C689.76 225.56 689.59 225.455 689.449 225.316L568.28 154.355L295.683 306.101L349.398 335.986C349.657 336.123 349.862 336.343 349.98 336.611C350.099 336.878 350.123 337.178 350.051 337.462C349.978 337.745 349.812 337.996 349.579 338.174C349.346 338.352 349.061 338.446 348.768 338.441V338.485Z" fill="#7A9757"/>
<path d="M693.971 327.944L603.062 275.478C601.083 274.326 601.344 272.348 603.605 271.131L630.321 255.722L728.382 312.23L701.666 327.661C700.495 328.307 699.189 328.67 697.852 328.719C696.516 328.768 695.186 328.502 693.971 327.944Z" fill="#647352"/>
<path d="M823.205 256.526V238.422H793.793L728.317 200.626C727.326 200.177 726.243 199.967 725.156 200.012C724.069 200.057 723.007 200.357 722.057 200.887L656.842 238.509H627.43V256.656C627.465 256.976 627.582 257.282 627.768 257.545C627.955 257.807 628.205 258.017 628.495 258.156L722.404 312.361C723.394 312.817 724.478 313.031 725.566 312.986C726.655 312.94 727.717 312.637 728.665 312.1L821.661 258.417C822.054 258.253 822.401 257.995 822.67 257.665C822.939 257.335 823.123 256.944 823.205 256.526Z" fill="#838383"/>
<path d="M722.426 294.3L628.582 240.095C626.974 239.161 627.191 237.552 629.039 236.487L722.056 182.804C723.005 182.268 724.067 181.964 725.155 181.919C726.244 181.873 727.328 182.088 728.317 182.544L822.052 236.748C823.661 237.661 823.443 239.291 821.596 240.356L728.6 294.039C727.66 294.555 726.614 294.847 725.543 294.892C724.472 294.938 723.406 294.735 722.426 294.3Z" fill="#838383"/>
<path d="M722.752 287.953L639.451 239.9C638.038 239.074 638.212 237.726 639.864 236.705L722.295 189.107C723.138 188.641 724.079 188.379 725.041 188.341C726.004 188.303 726.962 188.491 727.838 188.89L811.183 236.922C812.596 237.748 812.422 239.095 810.792 240.139L728.36 287.714C727.511 288.196 726.56 288.469 725.585 288.511C724.61 288.552 723.639 288.361 722.752 287.953Z" fill="#7A9757"/>
<path d="M722.969 283.933L646.494 239.791C645.19 239.03 645.342 237.617 646.864 236.835L722.6 193.085C723.371 192.651 724.233 192.406 725.117 192.368C726.001 192.33 726.881 192.501 727.687 192.867L804.162 237.009C805.466 237.77 805.314 239.182 803.792 239.943L728.056 283.715C727.283 284.144 726.421 284.386 725.538 284.424C724.655 284.462 723.776 284.293 722.969 283.933Z" fill="#7A9757"/>
<path d="M723.578 271.979L667.189 239.378C666.211 238.835 666.341 237.857 667.45 237.205L723.317 204.973C723.887 204.652 724.525 204.47 725.179 204.444C725.833 204.417 726.484 204.547 727.078 204.821L783.467 237.422C784.445 237.987 784.315 238.965 783.206 239.595L727.339 271.849C726.767 272.166 726.128 272.344 725.474 272.367C724.82 272.389 724.171 272.257 723.578 271.979Z" fill="#6B864A"/>
<path d="M723.578 235.531L714.644 230.38L719.513 227.555L728.469 232.706L723.578 235.531Z" fill="#7A9757"/>
<path d="M740.186 234.792L731.251 239.965L726.36 237.139L735.316 231.988L740.186 234.792Z" fill="#7A9757"/>
<path d="M721.556 236.705L716.665 239.53L711.774 236.705L716.665 233.879L721.556 236.705Z" fill="#7A9757"/>
<path d="M738.425 246.442L733.534 249.267L719.448 241.138L724.339 238.313L738.425 246.442Z" fill="#7A9757"/>
<path d="M356.506 453.479L265.554 401.014C263.576 399.862 263.837 397.884 266.097 396.667L292.814 381.257L390.875 437.766L364.158 453.197C362.993 453.836 361.694 454.194 360.366 454.243C359.037 454.292 357.716 454.031 356.506 453.479Z" fill="#647352"/>
<path d="M485.74 382.17V364.066H456.241L390.766 326.183C389.775 325.734 388.692 325.524 387.605 325.569C386.517 325.614 385.456 325.914 384.505 326.444L319.291 364.066H289.966V382.17C290.001 382.49 290.117 382.796 290.304 383.058C290.49 383.321 290.74 383.531 291.031 383.67L384.94 437.874C385.93 438.33 387.013 438.545 388.102 438.499C389.19 438.454 390.253 438.15 391.201 437.614L484.197 383.931C484.574 383.779 484.911 383.541 485.179 383.235C485.447 382.929 485.64 382.564 485.74 382.17Z" fill="#838383"/>
<path d="M384.962 419.835L291.053 365.631C289.444 364.696 289.662 363.088 291.509 362.023L384.505 308.275C385.453 307.738 386.516 307.434 387.604 307.389C388.693 307.344 389.776 307.558 390.766 308.014L484.675 362.218C486.284 363.131 486.088 364.761 484.218 365.826L391.222 419.509C390.277 420.05 389.218 420.361 388.131 420.417C387.044 420.474 385.958 420.275 384.962 419.835Z" fill="#838383"/>
<path d="M385.288 413.489L302.053 365.435C300.64 364.609 300.813 363.262 302.466 362.24L384.897 314.643C385.74 314.177 386.68 313.914 387.643 313.877C388.605 313.839 389.563 314.027 390.44 314.425L473.676 362.457C475.11 363.283 474.915 364.631 473.284 365.674L390.853 413.25C390.01 413.725 389.066 413.994 388.099 414.035C387.132 414.077 386.169 413.889 385.288 413.489Z" fill="#7A9757"/>
<path d="M385.505 409.468L309.03 365.326C307.726 364.566 307.878 363.153 309.4 362.371L385.114 318.664C385.889 318.23 386.755 317.985 387.642 317.947C388.53 317.909 389.414 318.08 390.223 318.446L466.698 362.61C468.002 363.37 467.85 364.674 466.328 365.565L390.592 409.272C389.818 409.697 388.955 409.936 388.072 409.97C387.189 410.004 386.31 409.832 385.505 409.468Z" fill="#7A9757"/>
<path d="M386.114 397.514L329.725 364.913C328.747 364.37 328.878 363.392 329.986 362.74L385.853 330.509C386.423 330.187 387.062 330.006 387.715 329.979C388.369 329.953 389.02 330.082 389.614 330.356L446.003 362.957C446.981 363.522 446.851 364.501 445.742 365.131L389.875 397.384C389.303 397.702 388.664 397.88 388.01 397.902C387.357 397.925 386.707 397.792 386.114 397.514Z" fill="#6B864A"/>
<path d="M386.114 361.067L377.18 355.916L382.049 353.09L391.005 358.241L386.114 361.067Z" fill="#7A9757"/>
<path d="M402.722 360.327L393.788 365.5L388.918 362.675L397.853 357.524L402.722 360.327Z" fill="#7A9757"/>
<path d="M384.092 362.24L379.201 365.065L374.31 362.24L379.201 359.415L384.092 362.24Z" fill="#7A9757"/>
<path d="M400.961 371.977L396.07 374.802L382.005 366.674L386.875 363.848L400.961 371.977Z" fill="#7A9757"/>
<path d="M637.799 513.704L546.89 461.217C544.934 460.086 545.173 458.087 547.455 456.87L574.237 441.374L672.298 497.882L645.582 513.291C644.41 513.972 643.093 514.365 641.74 514.437C640.387 514.508 639.036 514.257 637.799 513.704Z" fill="#647352"/>
<path d="M767.033 442.286V424.16H737.534L672.058 386.517C671.065 386.063 669.978 385.849 668.886 385.895C667.794 385.94 666.729 386.243 665.776 386.778L600.561 424.378H571.215V442.547C571.244 442.869 571.358 443.178 571.545 443.441C571.732 443.704 571.986 443.914 572.28 444.047L666.167 498.251C667.16 498.696 668.242 498.903 669.328 498.858C670.415 498.813 671.476 498.516 672.428 497.991L765.533 444.221C765.922 444.046 766.262 443.778 766.524 443.44C766.785 443.103 766.96 442.707 767.033 442.286Z" fill="#838383"/>
<path d="M666.254 479.973L572.367 425.855C570.758 424.921 570.954 423.291 572.802 422.226L665.798 368.543C666.754 368.018 667.818 367.721 668.908 367.675C669.998 367.63 671.084 367.838 672.08 368.282L765.967 422.487C767.576 423.421 767.38 425.03 765.511 426.116L672.515 479.799C671.558 480.317 670.493 480.603 669.405 480.633C668.318 480.663 667.238 480.437 666.254 479.973Z" fill="#838383"/>
<path d="M666.581 473.692L583.345 425.638C581.932 424.812 582.106 423.465 583.758 422.421L666.189 374.846C667.031 374.376 667.97 374.11 668.933 374.069C669.895 374.027 670.854 374.211 671.733 374.607L754.968 422.661C756.403 423.486 756.207 424.834 754.577 425.855L672.059 473.453C671.226 473.913 670.298 474.175 669.348 474.216C668.397 474.258 667.45 474.078 666.581 473.692Z" fill="#7A9757"/>
<path d="M666.798 469.671L590.323 425.638C589.019 424.899 589.193 423.573 590.693 422.704L666.428 378.975C667.205 378.545 668.072 378.304 668.959 378.27C669.847 378.236 670.729 378.41 671.537 378.78L747.99 422.921C749.316 423.66 749.142 425.095 747.642 425.855L671.906 469.562C671.124 469.984 670.253 470.213 669.365 470.232C668.477 470.251 667.597 470.059 666.798 469.671Z" fill="#7A9757"/>
<path d="M667.406 457.739L611.017 425.138C610.061 424.573 610.17 423.595 611.278 422.965L667.145 390.864C667.717 390.547 668.355 390.369 669.008 390.342C669.661 390.316 670.311 390.442 670.906 390.712L727.317 423.313C728.273 423.878 728.143 424.834 727.034 425.486L671.189 457.587C670.61 457.896 669.97 458.07 669.315 458.096C668.66 458.123 668.007 458.001 667.406 457.739Z" fill="#6B864A"/>
<path d="M667.407 421.291L658.472 416.119L663.342 413.293L672.298 418.466L667.407 421.291Z" fill="#7A9757"/>
<path d="M684.036 420.552L675.08 425.725L670.211 422.9L679.145 417.727L684.036 420.552Z" fill="#7A9757"/>
<path d="M665.385 422.465L660.494 425.269L655.625 422.465L660.494 419.64L665.385 422.465Z" fill="#7A9757"/>
<path d="M682.254 432.202L677.384 435.005L663.298 426.877L668.167 424.073L682.254 432.202Z" fill="#7A9757"/>
<path opacity="0.4" d="M767.033 395.471L727.1 395.71L672.058 363.935C671.069 363.479 669.985 363.265 668.897 363.311C667.808 363.356 666.746 363.659 665.798 364.196L609.996 396.406L571.258 396.623V420.161C571.322 420.446 571.449 420.713 571.63 420.942C571.81 421.172 572.04 421.358 572.302 421.487L666.254 475.626C667.246 476.076 668.328 476.286 669.416 476.241C670.503 476.195 671.565 475.896 672.515 475.366L765.533 421.748C765.881 421.58 766.192 421.344 766.446 421.052C766.7 420.761 766.892 420.421 767.011 420.053L767.033 395.471Z" fill="#7A9757"/>
<path d="M768.076 406.577V388.473H738.577L673.102 350.678C672.111 350.229 671.028 350.018 669.94 350.063C668.853 350.109 667.792 350.408 666.841 350.939L601.627 388.56H572.302V406.708C572.337 407.028 572.453 407.333 572.64 407.596C572.826 407.858 573.076 408.069 573.367 408.208L667.276 462.412C668.265 462.868 669.349 463.082 670.438 463.037C671.526 462.992 672.589 462.688 673.537 462.151L766.533 408.468C766.924 408.301 767.268 408.042 767.537 407.713C767.806 407.383 767.991 406.994 768.076 406.577Z" fill="#838383"/>
<path d="M667.298 444.351L573.389 390.146C571.78 389.212 571.998 387.604 573.845 386.539L666.841 332.856C667.789 332.319 668.852 332.015 669.94 331.97C671.029 331.925 672.112 332.139 673.102 332.595L767.011 386.799C768.62 387.712 768.402 389.342 766.554 390.407L673.558 444.09C672.608 444.62 671.547 444.92 670.459 444.965C669.372 445.011 668.289 444.8 667.298 444.351Z" fill="#838383"/>
<path d="M667.711 438.005L584.475 389.951C583.062 389.125 583.236 387.777 584.866 386.756L667.298 339.159C668.144 338.692 669.088 338.43 670.054 338.392C671.02 338.354 671.982 338.542 672.863 338.941L756.098 386.973C757.511 387.799 757.337 389.147 755.707 390.19L673.254 437.766C672.414 438.24 671.474 438.509 670.511 438.551C669.547 438.592 668.588 438.405 667.711 438.005Z" fill="#7A9757"/>
<path d="M667.841 433.984L591.366 389.842C590.062 389.082 590.214 387.669 591.736 386.886L667.472 343.179C668.243 342.746 669.105 342.501 669.989 342.463C670.873 342.425 671.753 342.596 672.559 342.962L749.034 387.104C750.338 387.864 750.186 389.168 748.664 390.038L672.928 433.767C672.155 434.195 671.293 434.438 670.411 434.475C669.528 434.513 668.648 434.345 667.841 433.984Z" fill="#6B864A"/>
<path d="M668.45 385.582L659.494 380.41L664.385 377.606L673.341 382.757L668.45 385.582Z" fill="#7A9757"/>
<path d="M685.058 384.844L676.124 390.016L671.232 387.191L680.189 382.04L685.058 384.844Z" fill="#7A9757"/>
<path d="M666.406 386.756L661.537 389.582L656.646 386.756L661.537 383.931L666.406 386.756Z" fill="#7A9757"/>
<path d="M683.297 396.493L678.406 399.318L664.32 391.19L669.211 388.364L683.297 396.493Z" fill="#7A9757"/>
<path d="M385.766 217.97L310.313 174.415L385.766 130.86L461.22 174.415L385.766 217.97Z" fill="#838383"/>
<path d="M385.766 385.148L310.313 341.593L385.766 298.038L461.22 341.593L385.766 385.148Z" fill="white"/>
<path d="M461.219 174.415V341.593L385.766 385.148V217.97L461.219 174.415Z" fill="#838383"/>
<path d="M310.313 174.415V341.593L385.766 385.148V217.97L310.313 174.415Z" fill="#8FA575"/>
<g opacity="0.51">
<path opacity="0.51" d="M315.421 185.5V335.768L380.658 373.411V223.143L315.421 185.5Z" fill="#6B864A"/>
</g>
<path d="M449.894 214.797V219.209L397.092 249.702V245.29L449.894 214.797Z" fill="#8FA575"/>
<path d="M449.894 233.488V237.9L397.092 268.393V263.959L449.894 233.488Z" fill="#8FA575"/>
<path d="M449.894 252.157V256.591L397.092 287.062V282.65L449.894 252.157Z" fill="#8FA575"/>
<path d="M449.894 270.849V275.261L397.092 305.754V301.342L449.894 270.849Z" fill="#8FA575"/>
<path d="M449.894 289.54V293.952L397.092 324.445V320.011L449.894 289.54Z" fill="#8FA575"/>
<path d="M449.894 308.209V312.643L397.092 343.114V338.702L449.894 308.209Z" fill="#8FA575"/>
<path d="M385.766 202.669L331.029 171.068L385.766 139.467L440.503 171.068L385.766 202.669Z" fill="#3C3C3C"/>
<path d="M440.503 171.068V174.915L385.766 206.516V202.669L440.503 171.068Z" fill="#3C3C3C"/>
<path d="M331.029 171.068V174.915L385.766 206.516V202.669L331.029 171.068Z" fill="#3C3C3C"/>
<path d="M364.528 171.568L362.115 170.177L362.311 169.047L384.81 155.963L387.919 157.441L387.353 158.419L364.528 171.568Z" fill="#8FA575"/>
<path d="M384.918 157.006L387.353 158.419L388.896 157.506L384.918 155.224L360.55 169.286L362.115 170.177L384.918 157.006Z" fill="#8FA575"/>
<path d="M371.897 175.806L369.462 174.415L369.68 173.285L392.157 160.179L395.287 161.679L394.7 162.657L371.897 175.806Z" fill="#8FA575"/>
<path d="M392.287 161.244L394.7 162.657L396.266 161.744L392.287 159.44L367.919 173.502L369.484 174.415L392.287 161.244Z" fill="#8FA575"/>
<path d="M379.267 180.044L376.832 178.653L377.028 177.501L399.527 164.417L402.635 165.917L402.07 166.873L379.267 180.044Z" fill="#8FA575"/>
<path d="M399.635 165.483L402.07 166.873L403.635 165.982L399.635 163.679L375.267 177.74L376.832 178.653L399.635 165.483Z" fill="#8FA575"/>
<path d="M386.614 184.282L384.179 182.891L384.397 181.739L406.874 168.656L410.004 170.155L409.417 171.112L386.614 184.282Z" fill="#8FA575"/>
<path d="M407.004 169.721L409.417 171.112L410.982 170.221L407.004 167.917L382.636 181.979L384.201 182.891L407.004 169.721Z" fill="#8FA575"/>
<path d="M382.766 225.49C382.719 224.447 382.421 223.431 381.899 222.527C381.377 221.623 380.646 220.858 379.767 220.296C379.456 220.071 379.091 219.932 378.709 219.894C378.327 219.856 377.942 219.919 377.593 220.078L375.419 221.339H376.745C376.722 221.548 376.722 221.76 376.745 221.969C376.8 223.013 377.1 224.029 377.621 224.936C378.142 225.842 378.87 226.613 379.745 227.185C379.954 227.298 380.172 227.392 380.397 227.468L379.788 228.62L381.853 227.403C382.156 227.188 382.399 226.9 382.559 226.565C382.719 226.23 382.79 225.86 382.766 225.49Z" fill="#7A9757"/>
<path d="M380.636 226.729C380.636 228.663 379.288 229.424 377.636 228.468C376.764 227.897 376.038 227.13 375.517 226.228C374.996 225.325 374.694 224.313 374.636 223.273C374.636 221.36 375.984 220.578 377.636 221.534C378.508 222.105 379.234 222.872 379.755 223.774C380.276 224.677 380.578 225.689 380.636 226.729Z" fill="#6B864A"/>
<path d="M379.353 226.012C379.353 227.098 378.592 227.555 377.636 226.99C377.131 226.667 376.71 226.228 376.407 225.71C376.105 225.193 375.93 224.611 375.897 224.012C375.897 222.904 376.68 222.469 377.636 223.012C378.139 223.341 378.557 223.784 378.855 224.306C379.154 224.827 379.324 225.412 379.353 226.012Z" fill="#7A9757"/>
<path d="M319.508 186.564C319.458 185.52 319.157 184.503 318.631 183.598C318.105 182.694 317.37 181.93 316.486 181.37C316.173 181.149 315.808 181.014 315.426 180.98C315.044 180.945 314.66 181.013 314.312 181.174L312.139 182.413H313.443C313.419 182.63 313.419 182.849 313.443 183.065C313.501 184.106 313.803 185.118 314.324 186.02C314.845 186.922 315.571 187.689 316.443 188.26C316.649 188.377 316.868 188.472 317.095 188.542L316.486 189.694L318.66 188.477C318.951 188.255 319.181 187.964 319.329 187.629C319.478 187.295 319.539 186.929 319.508 186.564Z" fill="#7A9757"/>
<path d="M317.356 187.868C317.356 189.781 316.008 190.563 314.356 189.607C313.484 189.037 312.758 188.27 312.237 187.367C311.716 186.465 311.415 185.453 311.356 184.413C311.356 182.478 312.704 181.718 314.356 182.674C315.228 183.244 315.954 184.012 316.475 184.914C316.996 185.816 317.298 186.828 317.356 187.868Z" fill="#6B864A"/>
<path d="M316.074 187.129C316.074 188.238 315.313 188.673 314.356 188.129C313.854 187.8 313.436 187.357 313.137 186.836C312.839 186.315 312.668 185.73 312.639 185.13C312.639 184.043 313.4 183.587 314.356 184.152C314.859 184.476 315.277 184.915 315.575 185.433C315.874 185.951 316.045 186.532 316.074 187.129Z" fill="#7A9757"/>
<path d="M382.766 375.215C382.722 374.169 382.426 373.149 381.904 372.241C381.382 371.333 380.649 370.564 379.767 369.999C379.454 369.778 379.088 369.643 378.706 369.609C378.324 369.574 377.94 369.642 377.593 369.804L375.419 371.042H376.745C376.721 371.259 376.721 371.478 376.745 371.694C376.803 372.735 377.105 373.747 377.626 374.649C378.147 375.551 378.873 376.318 379.745 376.889C379.949 377.017 380.168 377.119 380.397 377.193L379.788 378.323L381.853 377.106C382.162 376.903 382.411 376.62 382.571 376.287C382.732 375.954 382.8 375.584 382.766 375.215Z" fill="#7A9757"/>
<path d="M380.636 376.454C380.636 378.367 379.288 379.149 377.636 378.193C376.764 377.622 376.038 376.855 375.517 375.953C374.996 375.051 374.694 374.039 374.636 372.998C374.636 371.086 375.984 370.303 377.636 371.26C378.508 371.83 379.234 372.597 379.755 373.5C380.276 374.402 380.578 375.414 380.636 376.454Z" fill="#6B864A"/>
<path d="M379.353 375.65C379.353 376.758 378.592 377.193 377.636 376.65C377.132 376.325 376.712 375.887 376.41 375.369C376.107 374.852 375.932 374.27 375.897 373.672C375.897 372.564 376.68 372.107 377.636 372.672C378.137 372.998 378.554 373.437 378.853 373.955C379.151 374.472 379.323 375.053 379.353 375.65Z" fill="#7A9757"/>
<path d="M319.508 336.333C319.458 335.289 319.157 334.271 318.631 333.367C318.105 332.463 317.37 331.699 316.486 331.139C316.175 330.914 315.811 330.776 315.429 330.737C315.047 330.699 314.662 330.763 314.312 330.922L312.139 332.182H313.443C313.419 332.399 313.419 332.617 313.443 332.834C313.501 333.874 313.803 334.886 314.324 335.789C314.845 336.691 315.571 337.458 316.443 338.029C316.649 338.146 316.868 338.241 317.095 338.311L316.486 339.463L318.66 338.246C318.951 338.024 319.181 337.733 319.329 337.398C319.478 337.064 319.539 336.698 319.508 336.333Z" fill="#7A9757"/>
<path d="M317.356 337.594C317.356 339.506 316.008 340.267 314.356 339.311C313.484 338.74 312.758 337.973 312.237 337.071C311.716 336.169 311.415 335.157 311.356 334.116C311.356 332.204 312.704 331.421 314.356 332.378C315.23 332.951 315.957 333.722 316.478 334.628C316.999 335.534 317.3 336.55 317.356 337.594Z" fill="#6B864A"/>
<path d="M316.074 336.855C316.074 337.942 315.313 338.398 314.356 337.855C313.855 337.525 313.438 337.081 313.14 336.56C312.841 336.039 312.67 335.455 312.639 334.855C312.639 333.747 313.4 333.312 314.356 333.856C314.859 334.184 315.277 334.628 315.576 335.149C315.874 335.67 316.045 336.255 316.074 336.855Z" fill="#7A9757"/>
<g opacity="0.51">
<path opacity="0.51" d="M310.313 315.164L385.766 269.61V217.97L310.313 174.415V315.164Z" fill="#7A9757"/>
</g>
<path d="M728.23 88.892L650.929 44.446L728.23 0L805.509 44.446L728.23 88.892Z" fill="#838383"/>
<path d="M728.23 259.482L650.929 215.036L728.23 170.59L805.509 215.036L728.23 259.482Z" fill="white"/>
<path d="M805.509 44.4458V215.036L728.23 259.482V88.8918L805.509 44.4458Z" fill="#838383"/>
<path d="M650.929 44.4458V215.036L728.23 259.482V88.8918L650.929 44.4458Z" fill="#8FA575"/>
<g opacity="0.51">
<path opacity="0.51" d="M656.168 55.7695V209.103L722.991 247.507V94.1734L656.168 55.7695Z" fill="#6B864A"/>
</g>
<path d="M793.923 85.6538V90.1744L739.816 121.276V116.777L793.923 85.6538Z" fill="#8FA575"/>
<path d="M793.923 104.714V109.235L739.816 140.336V135.837L793.923 104.714Z" fill="#8FA575"/>
<path d="M793.923 123.797V128.296L739.816 159.397V154.898L793.923 123.797Z" fill="#8FA575"/>
<path d="M793.923 142.857V147.356L739.816 178.479V173.959L793.923 142.857Z" fill="#8FA575"/>
<path d="M793.923 161.918V166.439L739.816 197.54V193.019L793.923 161.918Z" fill="#8FA575"/>
<path d="M793.923 180.979V185.499L739.816 216.601V212.102L793.923 180.979Z" fill="#8FA575"/>
<path d="M728.23 73.2872L672.124 41.0339L728.23 8.78076L784.314 41.0339L728.23 73.2872Z" fill="#3C3C3C"/>
<path d="M784.315 41.0337V44.9675L728.23 77.199V73.2869L784.315 41.0337Z" fill="#3C3C3C"/>
<path d="M672.124 41.0337V44.9675L728.23 77.199V73.2869L672.124 41.0337Z" fill="#3C3C3C"/>
<path d="M706.47 41.5552L703.992 40.1208L704.187 38.9689L727.23 25.6025L730.425 27.1238L729.838 28.1236L706.47 41.5552Z" fill="#8FA575"/>
<path d="M727.361 26.6895L729.839 28.1239L731.426 27.2111L727.361 24.8638L702.383 39.2083L703.992 40.1211L727.361 26.6895Z" fill="#8FA575"/>
<path d="M714.013 45.8805L711.513 44.446L711.731 43.2941L734.773 29.9277L737.969 31.4491L737.382 32.4489L714.013 45.8805Z" fill="#8FA575"/>
<path d="M734.882 31.0144L737.382 32.4488L738.969 31.5143L734.882 29.167L709.926 43.5331L711.535 44.446L734.882 31.0144Z" fill="#8FA575"/>
<path d="M721.557 50.1839L719.057 48.7712L719.274 47.6193L742.317 34.2529L745.512 35.7743L744.903 36.7523L721.557 50.1839Z" fill="#8FA575"/>
<path d="M742.425 35.3396L744.903 36.7523L746.512 35.8394L742.425 33.4922L717.47 47.8583L719.078 48.7712L742.425 35.3396Z" fill="#8FA575"/>
<path d="M729.078 54.5086L726.6 53.0959L726.817 51.9222L749.859 38.5776L753.055 40.0989L752.446 41.077L729.078 54.5086Z" fill="#8FA575"/>
<path d="M749.968 39.6643L752.446 41.077L754.055 40.1642L749.968 37.8169L725.013 52.1614L726.6 53.0959L749.968 39.6643Z" fill="#8FA575"/>
<path d="M725.143 96.564C725.084 95.4993 724.773 94.4638 724.237 93.5421C723.7 92.6204 722.953 91.8388 722.057 91.2609C721.746 91.0361 721.381 90.8976 720.999 90.8594C720.617 90.8212 720.232 90.8848 719.883 91.0436L717.709 92.3259H719.057C719.034 92.5426 719.034 92.7612 719.057 92.9779C719.1 94.0424 719.394 95.0816 719.916 96.0108C720.437 96.9399 721.171 97.7327 722.057 98.3245C722.263 98.4483 722.481 98.5503 722.709 98.6288L722.078 99.8024L724.252 98.5636C724.564 98.3389 724.811 98.0354 724.968 97.6842C725.125 97.3329 725.185 96.9463 725.143 96.564Z" fill="#7A9757"/>
<path d="M722.969 97.8462C722.969 99.8023 721.578 100.585 719.882 99.6067C718.99 99.0264 718.247 98.2437 717.715 97.3222C717.182 96.4007 716.875 95.3664 716.817 94.3036C716.817 92.3475 718.187 91.5651 719.882 92.5431C720.778 93.1223 721.524 93.9043 722.06 94.8257C722.596 95.7471 722.908 96.7819 722.969 97.8462Z" fill="#6B864A"/>
<path d="M721.665 97.0855C721.665 98.2156 720.861 98.6721 719.882 98.107C719.371 97.7736 718.945 97.3244 718.639 96.7958C718.333 96.2672 718.156 95.674 718.122 95.0642C718.122 93.9341 718.904 93.4776 719.882 94.0427C720.397 94.375 720.826 94.8234 721.136 95.3519C721.446 95.8804 721.627 96.4742 721.665 97.0855Z" fill="#7A9757"/>
<path d="M660.32 56.8995C660.263 55.8367 659.955 54.8024 659.423 53.8809C658.89 52.9594 658.147 52.1766 657.255 51.5964C656.944 51.3716 656.579 51.233 656.197 51.1949C655.815 51.1567 655.43 51.2202 655.081 51.3791L652.907 52.6614H654.255C654.231 52.8781 654.231 53.0967 654.255 53.3134C654.316 54.3777 654.628 55.4125 655.164 56.334C655.701 57.2554 656.447 58.0373 657.342 58.6165C657.546 58.7442 657.765 58.8464 657.994 58.9207L657.364 60.0944L659.537 58.8338C659.82 58.6029 660.039 58.3047 660.176 57.9667C660.313 57.6286 660.362 57.2616 660.32 56.8995Z" fill="#7A9757"/>
<path d="M658.125 58.1817C658.125 60.1377 656.755 60.9202 655.059 59.9421C654.164 59.363 653.418 58.581 652.882 57.6596C652.346 56.7382 652.034 55.7034 651.973 54.6391C651.973 52.683 653.364 51.9006 655.059 52.8786C655.952 53.4588 656.695 54.2416 657.227 55.1631C657.76 56.0846 658.067 57.1189 658.125 58.1817Z" fill="#6B864A"/>
<path d="M656.842 57.4213C656.842 58.5515 656.059 59.0079 655.081 58.4428C654.569 58.1094 654.143 57.6602 653.837 57.1316C653.531 56.603 653.354 56.0098 653.32 55.4001C653.32 54.2699 654.103 53.8135 655.081 54.3786C655.594 54.7107 656.021 55.1596 656.327 55.6884C656.633 56.2173 656.809 56.8112 656.842 57.4213Z" fill="#7A9757"/>
<path d="M725.143 249.332C725.084 248.27 724.776 247.236 724.244 246.315C723.711 245.394 722.969 244.61 722.078 244.029C721.765 243.808 721.399 243.673 721.017 243.639C720.636 243.604 720.252 243.671 719.904 243.833L717.73 245.094H719.078C719.056 245.318 719.056 245.544 719.078 245.768C719.119 246.83 719.41 247.868 719.927 248.797C720.445 249.726 721.174 250.52 722.056 251.114C722.263 251.232 722.482 251.327 722.708 251.397L722.078 252.57L724.252 251.332C724.564 251.107 724.811 250.803 724.968 250.452C725.124 250.101 725.185 249.714 725.143 249.332Z" fill="#7A9757"/>
<path d="M722.969 250.615C722.969 252.571 721.578 253.375 719.882 252.397C718.99 251.812 718.247 251.025 717.714 250.1C717.182 249.175 716.875 248.138 716.817 247.072C716.817 245.138 718.187 244.333 719.882 245.311C720.778 245.891 721.524 246.673 722.06 247.594C722.596 248.515 722.908 249.55 722.969 250.615Z" fill="#6B864A"/>
<path d="M721.665 249.875C721.665 250.984 720.861 251.44 719.882 250.875C719.367 250.546 718.938 250.097 718.632 249.568C718.325 249.039 718.15 248.443 718.122 247.832C718.122 246.702 718.904 246.246 719.882 246.811C720.4 247.145 720.831 247.597 721.141 248.13C721.451 248.662 721.63 249.26 721.665 249.875Z" fill="#7A9757"/>
<path d="M660.32 209.668C660.261 208.605 659.953 207.572 659.421 206.65C658.888 205.729 658.146 204.946 657.255 204.365C656.942 204.143 656.576 204.009 656.194 203.974C655.813 203.94 655.429 204.007 655.081 204.169L652.907 205.429H654.255C654.232 205.654 654.232 205.879 654.255 206.103C654.316 207.168 654.628 208.202 655.164 209.124C655.701 210.045 656.447 210.827 657.342 211.406C657.547 211.528 657.766 211.623 657.994 211.689L657.364 212.863L659.538 211.624C659.823 211.391 660.045 211.089 660.182 210.747C660.319 210.405 660.366 210.033 660.32 209.668Z" fill="#7A9757"/>
<path d="M658.125 210.95C658.125 212.906 656.755 213.688 655.059 212.71C654.162 212.134 653.414 211.353 652.877 210.431C652.341 209.509 652.031 208.472 651.973 207.407C651.973 205.473 653.364 204.669 655.059 205.647C655.952 206.227 656.695 207.01 657.227 207.931C657.76 208.853 658.067 209.887 658.125 210.95Z" fill="#6B864A"/>
<path d="M656.842 210.211C656.842 211.319 656.059 211.776 655.081 211.211C654.566 210.881 654.137 210.433 653.83 209.904C653.524 209.374 653.349 208.779 653.32 208.168C653.32 207.038 654.103 206.581 655.081 207.146C655.596 207.482 656.023 207.935 656.33 208.467C656.636 209 656.811 209.597 656.842 210.211Z" fill="#7A9757"/>
<g opacity="0.51">
<path opacity="0.51" d="M650.929 188.064L728.23 141.597V88.8918L650.929 44.4458V188.064Z" fill="#7A9757"/>
</g>
<path d="M79.8662 642.782C61.0192 642.782 43.3026 638.436 29.8684 630.85C16.1516 622.939 8.6084 612.29 8.6084 600.879C8.6084 589.469 16.1516 578.841 29.8684 570.93C57.3672 555.042 102.126 555.042 129.625 570.93C143.342 578.841 150.885 589.469 150.885 600.879C150.885 612.29 143.342 622.939 129.625 630.85C116.43 638.631 98.7133 642.782 79.8662 642.782ZM79.8662 561.584C62.2583 561.584 44.6721 565.453 31.2813 573.19C18.4123 580.601 11.3257 590.447 11.3257 600.879C11.3257 611.312 18.4123 621.157 31.2813 628.59C44.1504 636.023 61.4757 640.152 79.8662 640.152C98.2568 640.152 115.495 636.045 128.429 628.59C141.364 621.135 148.385 611.333 148.385 600.879C148.385 590.425 141.298 580.623 128.429 573.19C115.039 565.453 97.4525 561.584 79.8662 561.584Z" fill="url(#paint1_linear_63_186)"/>
<path d="M79.8662 630.829C108.524 630.829 131.755 617.42 131.755 600.879C131.755 584.339 108.524 570.93 79.8662 570.93C51.2086 570.93 27.9771 584.339 27.9771 600.879C27.9771 617.42 51.2086 630.829 79.8662 630.829Z" fill="#647352"/>
<path d="M143.407 578.297V564.192H138.538C134.84 559.33 130.159 555.301 124.799 552.369C99.9741 538.024 59.7367 538.024 34.9116 552.369C29.5521 555.301 24.8708 559.33 21.1731 564.192H16.3037V578.297C16.3037 587.687 22.5208 597.076 34.9116 604.248C59.7367 618.57 99.9741 618.57 124.799 604.248C137.299 597.076 143.407 587.687 143.407 578.297Z" fill="#838383"/>
<path d="M79.866 600.879C114.959 600.879 143.407 584.454 143.407 564.192C143.407 543.931 114.959 527.505 79.866 527.505C44.7734 527.505 16.3252 543.931 16.3252 564.192C16.3252 584.454 44.7734 600.879 79.866 600.879Z" fill="#838383"/>
<path opacity="0.4" d="M138.559 566.909V547.674H134.038C130.624 543.202 126.306 539.499 121.364 536.807C98.4305 523.593 61.2799 523.593 38.3678 536.807C33.4205 539.499 29.0951 543.202 25.6726 547.674H21.1729V566.909C21.1729 575.603 26.89 584.296 38.3678 590.816C61.2799 604.052 98.4305 604.052 121.364 590.816C132.82 584.296 138.559 575.603 138.559 566.909Z" fill="#7A9757"/>
<g opacity="0.4">
<path opacity="0.4" d="M138.559 561.475V542.241H134.038C130.625 537.768 126.306 534.065 121.364 531.374C98.4305 518.138 61.2799 518.138 38.3678 531.374C33.4198 534.065 29.0942 537.767 25.6726 542.241H21.1729V561.475C21.1729 570.169 26.89 578.863 38.3678 585.383C61.2799 598.619 98.4305 598.619 121.364 585.383C132.82 578.819 138.559 570.147 138.559 561.475Z" fill="#7A9757"/>
</g>
<path opacity="0.4" d="M79.866 581.492C112.281 581.492 138.559 566.322 138.559 547.609C138.559 528.896 112.281 513.726 79.866 513.726C47.4507 513.726 21.1729 528.896 21.1729 547.609C21.1729 566.322 47.4507 581.492 79.866 581.492Z" fill="#7A9757"/>
<g opacity="0.4">
<path opacity="0.4" d="M120.299 569.343C111.319 580.4 99.2601 588.547 85.6484 592.751C98.1407 592.253 110.355 588.916 121.364 582.992C132.82 576.472 138.559 567.778 138.559 559.085V553.347C131.471 557.415 125.264 562.852 120.299 569.343Z" fill="#7A9757"/>
</g>
<path d="M143.407 544.11V529.961H138.538C134.848 525.085 130.166 521.047 124.799 518.116C99.9741 503.772 59.7367 503.772 34.9116 518.116C29.5451 521.047 24.8623 525.085 21.1731 529.961H16.3037V544.045C16.3037 553.434 22.5208 562.823 34.9116 569.995C59.7367 584.318 99.9741 584.318 124.799 569.995C137.299 562.888 143.407 553.499 143.407 544.11Z" fill="#838383"/>
<path d="M79.866 566.692C114.959 566.692 143.407 550.266 143.407 530.005C143.407 509.743 114.959 493.318 79.866 493.318C44.7734 493.318 16.3252 509.743 16.3252 530.005C16.3252 550.266 44.7734 566.692 79.866 566.692Z" fill="#838383"/>
<path opacity="0.4" d="M138.081 530.722V511.487H133.581C130.159 507.015 125.834 503.312 120.886 500.62C97.9742 487.406 60.8018 487.406 37.8898 500.62C32.9425 503.312 28.6171 507.015 25.1946 511.487H20.6948V530.722C20.6948 539.416 26.4337 548.109 37.8898 554.629C60.8018 567.865 97.9742 567.865 120.886 554.629C132.342 548.066 138.081 539.394 138.081 530.722Z" fill="#7A9757"/>
<g opacity="0.4">
<path opacity="0.4" d="M138.081 525.332V506.054H133.581C130.16 501.58 125.834 497.878 120.886 495.187C97.9742 481.951 60.8018 481.951 37.8898 495.187C32.9418 497.878 28.6162 501.58 25.1946 506.054H20.6948V525.288C20.6948 533.982 26.4337 542.676 37.8898 549.196C60.8018 562.41 97.9742 562.41 120.886 549.196C132.342 542.676 138.081 534.004 138.081 525.332Z" fill="#7A9757"/>
</g>
<path opacity="0.4" d="M79.388 545.349C111.803 545.349 138.081 530.179 138.081 511.466C138.081 492.752 111.803 477.582 79.388 477.582C46.9726 477.582 20.6948 492.752 20.6948 511.466C20.6948 530.179 46.9726 545.349 79.388 545.349Z" fill="#7A9757"/>
<g opacity="0.4">
<path opacity="0.4" d="M120.299 532.656C107.756 548.631 90.2353 555.346 77.8662 558.193C93.5395 558.498 109.387 555.238 121.343 548.326C132.799 541.697 138.538 533.113 138.538 524.419V516.638C131.452 520.71 125.252 526.156 120.299 532.656Z" fill="#7A9757"/>
</g>
<path d="M143.407 509.227V495.187H138.538C134.842 490.317 130.161 486.28 124.799 483.342C99.9741 469.019 59.7367 469.019 34.9116 483.342C29.55 486.28 24.8686 490.317 21.1731 495.187H16.3037V509.292C16.3037 518.681 22.5208 528.049 34.9116 535.221C59.7367 549.544 99.9741 549.544 124.799 535.221C137.299 528.005 143.407 518.616 143.407 509.227Z" fill="#838383"/>
<path d="M79.866 531.809C114.959 531.809 143.407 515.383 143.407 495.122C143.407 474.86 114.959 458.435 79.866 458.435C44.7734 458.435 16.3252 474.86 16.3252 495.122C16.3252 515.383 44.7734 531.809 79.866 531.809Z" fill="#838383"/>
<path opacity="0.4" d="M138.559 493.861V474.626H134.038C130.625 470.153 126.306 466.45 121.364 463.76C98.4305 450.524 61.2798 450.524 38.346 463.76C33.404 466.45 29.0855 470.153 25.6726 474.626H21.1729V493.883C21.1729 502.576 26.89 511.27 38.3678 517.79C61.2799 531.004 98.4305 531.004 121.364 517.79C132.82 511.205 138.559 502.533 138.559 493.861Z" fill="#7A9757"/>
<g opacity="0.4">
<path opacity="0.4" d="M138.559 488.493V469.236H134.038C130.625 464.763 126.306 461.06 121.364 458.37C98.4305 445.134 61.2798 445.134 38.346 458.37C33.404 461.06 29.0855 464.763 25.6726 469.236H21.1729V488.493C21.1729 497.186 26.89 505.88 38.3678 512.4C61.2799 525.636 98.4305 525.636 121.364 512.4C132.82 505.837 138.559 497.165 138.559 488.493Z" fill="#7A9757"/>
</g>
<path opacity="0.4" d="M79.866 508.51C112.281 508.51 138.559 493.34 138.559 474.627C138.559 455.913 112.281 440.743 79.866 440.743C47.4507 440.743 21.1729 455.913 21.1729 474.627C21.1729 493.34 47.4507 508.51 79.866 508.51Z" fill="#7A9757"/>
<path d="M143.407 474.322V460.217H138.538C134.84 455.354 130.159 451.326 124.799 448.394C99.9741 434.049 59.7367 434.049 34.9116 448.394C29.5521 451.326 24.8708 455.354 21.1731 460.217H16.3037V474.322C16.3037 483.711 22.5208 493.1 34.9116 500.273C59.7367 514.595 99.9741 514.595 124.799 500.273C137.299 493.013 143.407 483.711 143.407 474.322Z" fill="#838383"/>
<path d="M79.866 496.904C114.959 496.904 143.407 480.479 143.407 460.217C143.407 439.955 114.959 423.53 79.866 423.53C44.7734 423.53 16.3252 439.955 16.3252 460.217C16.3252 480.479 44.7734 496.904 79.866 496.904Z" fill="#838383"/>
<path d="M79.866 496.904C114.959 496.904 143.407 480.479 143.407 460.217C143.407 439.955 114.959 423.53 79.866 423.53C44.7734 423.53 16.3252 439.955 16.3252 460.217C16.3252 480.479 44.7734 496.904 79.866 496.904Z" fill="#838383"/>
<g opacity="0.4">
<path opacity="0.4" d="M120.299 495.948C106.517 513.487 86.7572 519.855 74.3882 522.224C91.1701 523.115 108.517 519.855 121.364 512.444C132.821 505.924 138.559 497.23 138.559 488.536V479.843C131.45 483.927 125.239 489.404 120.299 495.948Z" fill="#7A9757"/>
</g>
<path d="M143.407 474.322V460.217H138.538C134.84 455.354 130.159 451.326 124.799 448.394C99.9741 434.049 59.7367 434.049 34.9116 448.394C29.5521 451.326 24.8708 455.354 21.1731 460.217H16.3037V474.322C16.3037 483.711 22.5208 493.1 34.9116 500.273C59.7367 514.595 99.9741 514.595 124.799 500.273C137.299 493.013 143.407 483.711 143.407 474.322Z" fill="#838383"/>
<path d="M79.866 496.904C114.959 496.904 143.407 480.479 143.407 460.217C143.407 439.955 114.959 423.53 79.866 423.53C44.7734 423.53 16.3252 439.955 16.3252 460.217C16.3252 480.479 44.7734 496.904 79.866 496.904Z" fill="#838383"/>
<path d="M79.866 496.904C114.959 496.904 143.407 480.479 143.407 460.217C143.407 439.955 114.959 423.53 79.866 423.53C44.7734 423.53 16.3252 439.955 16.3252 460.217C16.3252 480.479 44.7734 496.904 79.866 496.904Z" fill="#838383"/>
<path d="M125.147 485.059C100.344 499.381 60.1063 499.381 35.2813 485.059C20.0645 476.365 14.2169 464.172 17.6298 452.806C13.4778 464.477 19.2167 477.104 35.0204 486.167C59.8454 500.49 100.083 500.49 124.908 486.167C134.516 480.603 140.407 473.714 142.559 466.607C140.038 473.322 134.277 479.777 125.147 485.059Z" fill="#838383"/>
<path d="M125.147 519.942C100.344 534.265 60.1063 534.265 35.2813 519.942C20.0645 511.248 14.2169 499.055 17.6298 487.71C13.4778 499.381 19.2167 512.009 35.0204 521.05C59.8454 535.395 100.083 535.395 124.908 521.05C134.516 515.508 140.407 508.618 142.559 501.49C140.038 508.227 134.277 514.747 125.147 519.942Z" fill="#838383"/>
<path d="M125.147 554.847C100.344 569.169 60.1063 569.169 35.2813 554.847C20.0645 546.153 14.2169 533.96 17.6298 522.593C13.4778 534.264 19.2167 546.892 35.0204 555.955C59.8454 570.278 100.083 570.278 124.908 555.955C134.516 550.413 140.407 543.501 142.559 536.394C140.038 543.11 134.277 549.522 125.147 554.847Z" fill="#838383"/>
<path d="M125.147 589.73C100.344 604.052 60.1063 604.052 35.2813 589.73C20.0645 581.036 14.2169 568.843 17.6298 557.498C13.4778 569.169 19.2167 581.797 35.0204 590.86C59.8454 605.182 100.083 605.182 124.908 590.86C134.516 585.296 140.407 578.406 142.559 571.299C140.038 577.993 134.277 584.47 125.147 589.73Z" fill="#838383"/>
<path d="M112.495 456.805V449.546H109.974C108.082 447.043 105.681 444.969 102.931 443.46C90.192 436.092 69.519 436.092 56.7804 443.46C54.0295 444.969 51.6292 447.043 49.7372 449.546H47.2373V456.783C47.2373 461.586 50.4111 466.411 56.7804 470.084C69.519 477.452 90.192 477.452 102.931 470.084C109.3 466.433 112.495 461.608 112.495 456.805Z" fill="#7A9757"/>
<path d="M79.8664 468.389C97.8869 468.389 112.495 459.952 112.495 449.545C112.495 439.139 97.8869 430.702 79.8664 430.702C61.8458 430.702 47.2373 439.139 47.2373 449.545C47.2373 459.952 61.8458 468.389 79.8664 468.389Z" fill="#BCD5FF"/>
<path d="M79.8664 468.389C97.8869 468.389 112.495 459.952 112.495 449.545C112.495 439.139 97.8869 430.702 79.8664 430.702C61.8458 430.702 47.2373 439.139 47.2373 449.545C47.2373 459.952 61.8458 468.389 79.8664 468.389Z" fill="#647352"/>
<path d="M95.3873 458.522C90.5746 460.965 85.253 462.239 79.8553 462.239C74.4576 462.239 69.1361 460.965 64.3234 458.522C62.0087 457.305 60.0922 455.449 58.8019 453.175C56.628 448.828 62.1278 445.72 68.0189 442.308C76.7142 437.353 82.6922 436.114 91.257 441.069C97.1698 444.481 103.126 448.828 100.931 453.153C99.6347 455.436 97.7108 457.3 95.3873 458.522Z" fill="#6B864A"/>
<path d="M64.3232 447.828C69.1359 445.385 74.4574 444.111 79.8551 444.111C85.2529 444.111 90.5744 445.385 95.3871 447.828C97.7018 449.045 99.6183 450.901 100.909 453.175C103.082 448.828 101.3 444.003 95.3871 440.591C90.5744 438.148 85.2529 436.874 79.8551 436.874C74.4574 436.874 69.1359 438.148 64.3232 440.591C58.4104 444.003 56.5844 448.872 58.8017 453.175C60.092 450.901 62.0085 449.045 64.3232 447.828Z" fill="#647352"/>
<g opacity="0.51">
<path opacity="0.51" d="M115.56 513.769C111.213 515.443 108.082 514.986 108.43 512.748C108.778 510.509 112.495 507.314 116.778 505.619C121.06 503.924 124.256 504.38 123.93 506.641C123.603 508.901 119.908 512.074 115.56 513.769Z" fill="#6B864A"/>
</g>
<g opacity="0.51">
<path opacity="0.51" d="M115.56 549.152C111.213 550.847 108.082 550.391 108.43 548.131C108.778 545.87 112.495 542.697 116.778 541.024C121.06 539.35 124.256 539.785 123.93 542.024C123.603 544.262 119.908 547.479 115.56 549.152Z" fill="#6B864A"/>
</g>
<g opacity="0.51">
<path opacity="0.51" d="M115.865 584.774C111.517 586.47 108.387 586.013 108.734 583.775C109.082 581.536 112.799 578.319 117.082 576.646C121.364 574.972 124.56 575.407 124.234 577.667C123.908 579.928 120.147 583.101 115.865 584.774Z" fill="#6B864A"/>
</g>
<g opacity="0.51">
<path opacity="0.51" d="M127.821 504.88C127.647 505.084 127.429 505.246 127.183 505.353C126.938 505.46 126.671 505.51 126.403 505.498C126.135 505.487 125.874 505.414 125.638 505.286C125.403 505.158 125.2 504.978 125.044 504.759C124.889 504.541 124.786 504.29 124.742 504.026C124.699 503.761 124.716 503.49 124.793 503.234C124.87 502.977 125.004 502.741 125.186 502.545C125.368 502.348 125.593 502.195 125.843 502.098C126.013 501.879 126.233 501.702 126.484 501.583C126.735 501.463 127.01 501.404 127.288 501.41C127.566 501.416 127.839 501.487 128.084 501.617C128.33 501.747 128.542 501.933 128.703 502.159C128.864 502.386 128.97 502.647 129.012 502.921C129.054 503.196 129.031 503.477 128.946 503.741C128.86 504.006 128.714 504.246 128.518 504.444C128.323 504.642 128.084 504.791 127.821 504.88Z" fill="#6B864A"/>
</g>
<g opacity="0.51">
<path opacity="0.51" d="M127.821 540.437C127.647 540.641 127.429 540.803 127.183 540.91C126.938 541.017 126.671 541.067 126.403 541.055C126.135 541.043 125.874 540.971 125.638 540.843C125.403 540.715 125.2 540.535 125.044 540.316C124.889 540.098 124.786 539.847 124.742 539.583C124.699 539.318 124.716 539.047 124.793 538.791C124.87 538.534 125.004 538.298 125.186 538.101C125.368 537.905 125.593 537.752 125.843 537.655C126.013 537.436 126.233 537.259 126.484 537.14C126.735 537.02 127.01 536.961 127.288 536.967C127.566 536.973 127.839 537.044 128.084 537.174C128.33 537.304 128.542 537.489 128.703 537.716C128.864 537.942 128.97 538.204 129.012 538.478C129.054 538.753 129.031 539.034 128.946 539.298C128.86 539.562 128.714 539.803 128.518 540.001C128.323 540.199 128.084 540.348 127.821 540.437Z" fill="#6B864A"/>
</g>
<g opacity="0.51">
<path opacity="0.51" d="M127.821 575.863C127.647 576.067 127.429 576.229 127.183 576.336C126.938 576.443 126.671 576.493 126.403 576.481C126.135 576.47 125.874 576.397 125.638 576.269C125.403 576.141 125.2 575.961 125.044 575.743C124.889 575.524 124.786 575.273 124.742 575.009C124.699 574.745 124.716 574.474 124.793 574.217C124.87 573.96 125.004 573.725 125.186 573.528C125.368 573.331 125.593 573.178 125.843 573.081C126.013 572.862 126.233 572.685 126.484 572.566C126.735 572.446 127.01 572.387 127.288 572.393C127.566 572.399 127.839 572.47 128.084 572.6C128.33 572.73 128.542 572.916 128.703 573.142C128.864 573.369 128.97 573.63 129.012 573.905C129.054 574.179 129.031 574.46 128.946 574.724C128.86 574.989 128.714 575.23 128.518 575.427C128.323 575.625 128.084 575.774 127.821 575.863Z" fill="#6B864A"/>
</g>
</g>
</g>
<defs>
<linearGradient id="paint0_linear_63_186" x1="58746.9" y1="29737.3" x2="68058.9" y2="29737.3" gradientUnits="userSpaceOnUse">
<stop stop-color="#7A9757"/>
<stop offset="0.28" stop-color="#7A9E4F"/>
<stop offset="0.6" stop-color="#6A8944"/>
<stop offset="0.95" stop-color="#577F27"/>
<stop offset="1" stop-color="#34540E"/>
</linearGradient>
<linearGradient id="paint1_linear_63_186" x1="29865.3" y1="28256.1" x2="39177.4" y2="28256.1" gradientUnits="userSpaceOnUse">
<stop stop-color="#7A9757"/>
<stop offset="0.28" stop-color="#FED80B"/>
<stop offset="0.6" stop-color="#FDCA19"/>
<stop offset="0.95" stop-color="#FAB331"/>
<stop offset="1" stop-color="#F9AF35"/>
</linearGradient>
<clipPath id="clip0_63_186">
<rect width="864" height="733" fill="white"/>
</clipPath>
</defs>
</svg>
