<svg width="993" height="738" viewBox="0 0 993 738" fill="none" xmlns="http://www.w3.org/2000/svg">
<g clip-path="url(#clip0_1200_259)" filter="url(#filter0_d_1200_259)">
<g opacity="0.3">
<path opacity="0.3" d="M1000.08 469.308C999.89 469.303 999.7 469.251 999.528 469.156L780.915 334.488C776.873 332.008 774.656 328.631 774.656 324.948C774.656 321.266 776.873 317.946 780.915 315.408L923.289 227.64C926.598 225.617 928.422 222.965 928.422 220.218C928.422 217.47 926.633 214.837 923.289 212.795L682.213 64.4475C678.129 62.2457 673.618 61.0986 669.042 61.0986C664.466 61.0986 659.954 62.2457 655.87 64.4475L575.017 114.266C571.708 116.307 569.884 118.94 569.884 121.688C569.884 124.435 571.673 127.068 575.017 129.11L695.197 203.141C699.239 205.621 701.457 208.998 701.457 212.681C701.457 216.363 699.239 219.683 695.197 222.221L515.499 332.886C507.612 337.732 494.79 337.732 486.885 332.886L367.581 259.313C367.454 259.235 367.342 259.132 367.252 259.009C367.163 258.885 367.097 258.744 367.059 258.593C367.02 258.442 367.01 258.285 367.029 258.13C367.049 257.975 367.096 257.826 367.17 257.691C367.319 257.415 367.565 257.214 367.854 257.132C368.142 257.05 368.449 257.093 368.708 257.252L488.119 330.749C492.2 332.959 496.713 334.111 501.29 334.111C505.868 334.111 510.38 332.959 514.462 330.749L694.178 220.084C697.486 218.042 699.293 215.409 699.293 212.662C699.293 209.914 697.504 207.262 694.178 205.24L573.962 131.171C569.938 128.69 567.72 125.332 567.72 121.631C567.72 117.929 569.938 114.628 573.962 112.091L654.815 62.2723C662.702 57.426 675.525 57.426 683.429 62.2723L924.487 210.887C928.529 213.368 930.747 216.745 930.747 220.427C930.747 224.11 928.529 227.449 924.505 229.967L782.113 317.736C778.805 319.778 776.998 322.411 776.998 325.158C776.998 327.906 778.787 330.558 782.113 332.58L1000.74 467.248C1000.96 467.383 1001.12 467.587 1001.21 467.831C1001.3 468.074 1001.32 468.342 1001.25 468.595C1001.19 468.848 1001.05 469.071 1000.85 469.231C1000.66 469.391 1000.42 469.478 1000.17 469.48L1000.08 469.308Z" fill="url(#paint0_linear_1200_259)"/>
<path opacity="0.3" d="M948.005 368.336C947.808 368.335 947.614 368.278 947.444 368.171C947.274 368.064 947.135 367.91 947.039 367.726C946.962 367.593 946.912 367.444 946.89 367.289C946.869 367.135 946.876 366.977 946.913 366.826C946.95 366.674 947.015 366.532 947.104 366.408C947.193 366.284 947.305 366.181 947.433 366.104L1159.64 235.386C1164.2 232.581 1166.8 228.918 1166.8 225.083C1166.8 221.248 1164.29 217.584 1159.64 214.78L956.124 89.4043C946.27 83.3559 930.264 83.3559 920.356 89.4043L874.931 117.433C874.804 117.536 874.658 117.61 874.502 117.648C874.347 117.687 874.185 117.69 874.029 117.657C873.872 117.624 873.724 117.555 873.593 117.457C873.463 117.358 873.354 117.23 873.274 117.083C873.194 116.936 873.143 116.772 873.127 116.603C873.11 116.433 873.127 116.262 873.178 116.1C873.228 115.938 873.309 115.79 873.418 115.664C873.526 115.539 873.657 115.439 873.804 115.372L919.301 87.3436C929.763 80.8946 946.771 80.8946 957.233 87.3436L1160.77 212.719C1166.14 215.963 1168.94 220.351 1168.94 225.083C1168.94 229.815 1166.05 234.203 1160.77 237.447L948.559 368.165C948.392 368.274 948.201 368.333 948.005 368.336V368.336Z" fill="url(#paint1_linear_1200_259)"/>
<path opacity="0.3" d="M442.676 730.019C437.071 730.134 431.531 728.722 426.58 725.917L135.805 546.831C131.298 544.045 128.812 540.286 128.812 536.222C128.812 532.158 131.298 528.4 135.805 525.614L234.971 464.557C243.913 459.081 258.221 459.081 267.163 464.557L450.562 577.512C458.825 582.606 472.256 582.606 480.518 577.512L727.978 425.1C731.752 422.753 733.844 419.719 733.844 416.552C733.844 413.385 731.752 410.351 727.961 408.023L654.851 362.975C646.589 357.9 633.158 357.9 624.895 362.975L481.681 451.22C472.739 456.696 458.431 456.696 449.489 451.22L249.314 327.925C241.07 322.83 227.621 322.83 219.359 327.925L5.68117 459.578C5.55293 459.664 5.4096 459.722 5.25978 459.748C5.10996 459.774 4.95675 459.768 4.80935 459.729C4.66194 459.691 4.52337 459.621 4.40197 459.523C4.28057 459.426 4.17884 459.304 4.10287 459.164C4.02691 459.023 3.97829 458.868 3.95993 458.707C3.94157 458.547 3.95385 458.384 3.99603 458.228C4.03821 458.072 4.10942 457.928 4.20538 457.802C4.30135 457.677 4.42009 457.573 4.55448 457.498L218.25 325.845C227.192 320.369 241.499 320.369 250.441 325.845L450.562 449.16C458.807 454.235 472.256 454.235 480.5 449.16L623.822 360.857C632.764 355.381 647.071 355.381 656.013 360.857L729.141 405.905C733.648 408.672 736.133 412.431 736.133 416.495C736.133 420.559 733.648 424.318 729.141 427.103L481.681 579.591C472.739 585.048 458.431 585.048 449.489 579.591L266.072 466.599C257.809 461.505 244.36 461.505 236.116 466.599L136.949 527.655C133.158 530.002 131.066 533.036 131.066 536.203C131.066 539.371 133.158 542.404 136.949 544.732L427.689 723.818C435.951 728.912 449.382 728.912 457.645 723.818L833.869 492.109C833.996 492.006 834.142 491.932 834.298 491.894C834.454 491.855 834.615 491.852 834.772 491.885C834.928 491.918 835.077 491.987 835.207 492.086C835.337 492.184 835.446 492.312 835.526 492.459C835.607 492.606 835.657 492.77 835.674 492.939C835.69 493.109 835.673 493.28 835.623 493.442C835.573 493.604 835.491 493.752 835.383 493.878C835.275 494.003 835.143 494.103 834.996 494.17L458.771 725.917C453.82 728.722 448.281 730.134 442.676 730.019V730.019Z" fill="url(#paint2_linear_1200_259)"/>
<path opacity="0.3" d="M720.861 641.335C720.666 641.339 720.475 641.286 720.306 641.182L657.712 602.679C657.467 602.512 657.291 602.251 657.221 601.95C657.152 601.649 657.194 601.33 657.34 601.061C657.485 600.793 657.723 600.595 658.002 600.508C658.282 600.422 658.581 600.454 658.839 600.599L721.433 639.103C721.688 639.265 721.873 639.529 721.946 639.837C722.02 640.144 721.977 640.47 721.826 640.744C721.73 640.926 721.589 641.077 721.42 641.181C721.25 641.285 721.057 641.338 720.861 641.335Z" fill="url(#paint3_linear_1200_259)"/>
<path opacity="0.3" d="M549.926 217.756C549.73 217.759 549.537 217.706 549.367 217.602C549.197 217.498 549.056 217.347 548.96 217.165C548.811 216.889 548.77 216.561 548.848 216.253C548.925 215.946 549.113 215.683 549.371 215.524L631.638 164.809C631.896 164.65 632.203 164.607 632.492 164.689C632.78 164.771 633.026 164.972 633.176 165.248C633.249 165.383 633.297 165.532 633.316 165.687C633.335 165.842 633.325 165.999 633.287 166.15C633.249 166.301 633.183 166.442 633.093 166.566C633.003 166.689 632.892 166.792 632.764 166.87L550.409 217.604C550.259 217.69 550.095 217.742 549.926 217.756Z" fill="url(#paint4_linear_1200_259)"/>
<path opacity="0.3" d="M550.713 240.023H513.675C513.376 240.023 513.09 239.896 512.878 239.671C512.667 239.445 512.548 239.139 512.548 238.821V215.924C512.546 215.766 512.573 215.608 512.629 215.461C512.685 215.314 512.768 215.181 512.873 215.069C512.978 214.957 513.103 214.868 513.241 214.809C513.379 214.749 513.526 214.72 513.675 214.722H550.713C551.011 214.722 551.298 214.849 551.509 215.075C551.721 215.3 551.839 215.606 551.839 215.924V238.821C551.835 239.134 551.72 239.434 551.517 239.66C551.305 239.89 551.015 240.02 550.713 240.023ZM514.748 237.619H549.64V217.165H514.784L514.748 237.619Z" fill="url(#paint5_linear_1200_259)"/>
<path opacity="0.3" d="M994.056 187.591H956.965C956.826 187.598 956.687 187.577 956.556 187.527C956.426 187.478 956.305 187.401 956.202 187.302C956.099 187.203 956.016 187.083 955.956 186.949C955.897 186.815 955.863 186.67 955.856 186.522V165.839C955.87 165.539 955.994 165.257 956.201 165.053C956.409 164.85 956.683 164.741 956.965 164.752H994.056C994.197 164.744 994.338 164.766 994.471 164.817C994.604 164.867 994.726 164.945 994.831 165.046C994.935 165.147 995.02 165.269 995.081 165.405C995.141 165.541 995.176 165.689 995.183 165.839V186.522C995.164 186.822 995.036 187.103 994.825 187.303C994.614 187.503 994.338 187.606 994.056 187.591V187.591ZM958.091 185.435H992.929V166.927H958.091V185.435Z" fill="url(#paint6_linear_1200_259)"/>
<path opacity="0.3" d="M451.528 676.995C444.615 677.121 437.786 675.354 431.695 671.863C426.187 668.486 423.146 663.887 423.146 658.965C423.146 654.042 426.187 649.425 431.695 646.048C442.622 639.312 460.417 639.312 471.362 646.048C476.87 649.444 479.91 654.023 479.91 658.965C479.91 663.906 476.87 668.505 471.362 671.863C465.27 675.354 458.442 677.121 451.528 676.995ZM451.528 643.434C445.008 643.295 438.562 644.937 432.804 648.204C428.029 651.142 425.382 654.996 425.382 659.041C425.382 663.086 428.029 666.921 432.804 669.879C443.123 676.232 459.916 676.232 470.235 669.879C475.028 666.921 477.657 663.086 477.657 659.041C477.657 654.996 475.028 651.142 470.235 648.204C464.484 644.934 458.043 643.292 451.528 643.434V643.434Z" fill="url(#paint7_linear_1200_259)"/>
<path opacity="0.3" d="M382.246 634.313C375.333 634.462 368.499 632.721 362.395 629.257C356.886 625.88 353.864 621.281 353.864 616.359C353.864 611.436 356.886 606.819 362.395 603.461C373.34 596.706 391.134 596.706 402.079 603.461C407.587 606.838 410.61 611.436 410.61 616.359C410.61 621.281 407.587 625.899 402.079 629.276C395.976 632.723 389.15 634.456 382.246 634.313ZM382.246 600.751C375.731 600.61 369.29 602.252 363.539 605.521C358.746 608.46 356.117 612.314 356.117 616.359C356.117 620.404 358.746 624.239 363.539 627.196C373.858 633.55 390.651 633.55 400.97 627.196C405.763 624.258 408.392 620.404 408.392 616.359C408.392 612.314 405.763 608.46 400.97 605.521C395.207 602.251 388.755 600.609 382.228 600.751H382.246Z" fill="url(#paint8_linear_1200_259)"/>
<path opacity="0.3" d="M243.663 548.968C236.757 549.109 229.93 547.369 223.83 543.911C218.304 540.515 215.281 535.936 215.281 530.994C215.281 526.052 218.304 521.454 223.812 518.096C234.757 511.361 252.551 511.361 263.496 518.096C269.005 521.492 272.045 526.072 272.045 530.994C272.045 535.917 269.005 540.534 263.496 543.911C257.394 547.365 250.569 549.105 243.663 548.968ZM243.663 515.387C237.143 515.248 230.697 516.89 224.939 520.157C220.146 523.114 217.517 526.949 217.517 530.994C217.517 535.039 220.146 538.893 224.939 541.832C235.258 548.185 252.051 548.185 262.37 541.832C267.163 538.893 269.792 535.039 269.792 530.994C269.792 526.949 267.163 523.114 262.37 520.157C256.614 516.903 250.176 515.268 243.663 515.406V515.387Z" fill="url(#paint9_linear_1200_259)"/>
<path opacity="0.3" d="M262.942 520.329C262.743 520.325 262.547 520.267 262.375 520.161C262.203 520.054 262.059 519.901 261.958 519.718C261.885 519.583 261.837 519.434 261.818 519.279C261.799 519.124 261.809 518.966 261.847 518.816C261.885 518.665 261.951 518.524 262.041 518.4C262.131 518.277 262.242 518.173 262.37 518.096L307.687 490.182C307.814 490.079 307.961 490.005 308.116 489.967C308.272 489.928 308.433 489.925 308.59 489.958C308.747 489.991 308.895 490.06 309.025 490.158C309.155 490.257 309.264 490.385 309.344 490.532C309.425 490.679 309.475 490.843 309.492 491.012C309.508 491.182 309.491 491.353 309.441 491.515C309.391 491.677 309.309 491.825 309.201 491.951C309.093 492.076 308.961 492.176 308.814 492.243L263.496 520.157C263.329 520.266 263.138 520.325 262.942 520.329V520.329Z" fill="url(#paint10_linear_1200_259)"/>
<path opacity="0.3" d="M389.006 596.382C388.81 596.385 388.617 596.332 388.447 596.228C388.277 596.124 388.136 595.973 388.04 595.791C387.964 595.655 387.914 595.504 387.893 595.347C387.873 595.19 387.882 595.03 387.92 594.877C387.959 594.724 388.025 594.581 388.117 594.456C388.208 594.331 388.322 594.227 388.451 594.15L433.769 566.235C434.022 566.12 434.305 566.107 434.566 566.199C434.827 566.291 435.047 566.482 435.186 566.735C435.324 566.988 435.371 567.286 435.318 567.574C435.264 567.861 435.114 568.118 434.896 568.296L389.56 596.21C389.394 596.321 389.202 596.381 389.006 596.382V596.382Z" fill="url(#paint11_linear_1200_259)"/>
<path opacity="0.3" d="M511.368 693.328C511.166 693.327 510.968 693.268 510.796 693.156L473.239 669.745C473.111 669.666 472.999 669.561 472.909 669.435C472.82 669.31 472.755 669.166 472.718 669.013C472.682 668.86 472.674 668.701 472.696 668.545C472.718 668.389 472.769 668.239 472.846 668.104C472.918 667.968 473.015 667.849 473.131 667.754C473.247 667.658 473.381 667.589 473.522 667.55C473.664 667.511 473.812 667.502 473.957 667.525C474.102 667.549 474.241 667.603 474.366 667.684L511.922 691.095C512.174 691.262 512.356 691.525 512.429 691.831C512.502 692.137 512.462 692.462 512.316 692.736C512.218 692.913 512.08 693.06 511.914 693.164C511.748 693.267 511.56 693.324 511.368 693.328V693.328Z" fill="url(#paint12_linear_1200_259)"/>
<path opacity="0.3" d="M757.952 664.116H720.86C720.565 664.111 720.283 663.983 720.075 663.758C719.868 663.533 719.752 663.23 719.752 662.914V640.018C719.749 639.862 719.776 639.707 719.831 639.562C719.886 639.418 719.968 639.286 720.071 639.176C720.174 639.065 720.298 638.978 720.433 638.92C720.569 638.861 720.714 638.832 720.86 638.835H757.952C758.246 638.835 758.528 638.96 758.736 639.181C758.944 639.403 759.061 639.704 759.061 640.018V662.914C759.063 663.07 759.036 663.225 758.981 663.37C758.926 663.515 758.845 663.646 758.741 663.757C758.638 663.867 758.515 663.954 758.379 664.013C758.243 664.071 758.098 664.1 757.952 664.097V664.116ZM721.987 661.731H756.825V641.335H721.987V661.731Z" fill="url(#paint13_linear_1200_259)"/>
</g>
<path opacity="0.5" d="M738.923 508.671L605.938 425.73C604.561 424.871 604.722 423.383 606.332 422.391L711.275 357.881C712.09 357.398 712.999 357.125 713.93 357.082C714.861 357.039 715.789 357.227 716.64 357.633L849.625 440.555C851.02 441.394 850.841 442.902 849.232 443.875L744.289 508.404C743.475 508.891 742.567 509.168 741.636 509.215C740.704 509.261 739.775 509.075 738.923 508.671V508.671Z" fill="#FCEA95"/>
<path d="M854.239 150.48L767.484 203.313V364.998V472.953C768.459 472.915 769.413 472.641 770.274 472.152L852.952 421.208C853.304 421.035 853.608 420.769 853.837 420.435C854.066 420.101 854.21 419.71 854.257 419.3V419.3L854.239 150.48Z" fill="#838383"/>
<path d="M771.043 430.767V201.137L767.466 203.313V364.998V472.953H768.074H768.199C768.652 472.878 769.096 472.75 769.523 472.571H769.612C769.832 472.475 770.047 472.366 770.256 472.247L771.025 471.77L771.043 430.767Z" fill="#838383"/>
<path d="M764.855 203.561L627.381 118.883C625.986 118.024 626.165 116.517 627.757 115.544L710.398 64.6383C711.213 64.1559 712.122 63.8823 713.054 63.8393C713.985 63.7962 714.913 63.9848 715.764 64.3903L853.291 149.068C854.686 149.926 854.507 151.434 852.916 152.407L770.274 203.313C769.452 203.804 768.533 204.083 767.592 204.126C766.651 204.169 765.713 203.975 764.855 203.561V203.561Z" fill="#838383"/>
<path d="M714.458 73.3961L648.395 114.075L642.01 112.816V118.025L766.214 194.536L829.112 148.915L714.458 73.3961Z" fill="#3C3C3C"/>
<path d="M838.68 144.698V149.907L766.214 194.536V189.327L838.68 144.698Z" fill="#3C3C3C"/>
<path d="M766.214 189.327L642.01 112.816L714.458 68.1873L838.68 144.698L766.214 189.327Z" fill="#3C3C3C"/>
<path d="M688.366 107.225L686.38 106.004L686.541 105.031L704.908 93.621L707.466 94.9184L706.983 95.7579L688.366 107.225Z" fill="#E6E634"/>
<path d="M704.997 94.5559L706.982 95.758L708.252 94.9757L704.997 92.9723L685.11 105.222L686.398 106.023L704.997 94.5559Z" fill="#E6E634"/>
<path d="M694.374 110.927L692.389 109.706L692.55 108.713L710.917 97.3035L713.457 98.6009L712.992 99.4595L694.374 110.927Z" fill="#E6E634"/>
<path d="M711.006 98.2384L712.991 99.4595L714.261 98.6582L711.006 96.6738L691.119 108.923L692.389 109.706L711.006 98.2384Z" fill="#E6E634"/>
<path d="M700.383 114.609L698.398 113.388L698.559 112.396L716.926 101.005L719.465 102.302L719 103.142L700.383 114.609Z" fill="#E6E634"/>
<path d="M717.015 101.921L719 103.142L720.27 102.36L717.015 100.356L697.128 112.606L698.398 113.388L717.015 101.921Z" fill="#E6E634"/>
<path d="M706.392 118.292L704.407 117.07L704.568 116.097L722.935 104.688L725.475 105.985L724.992 106.824L706.392 118.292Z" fill="#E6E634"/>
<path d="M723.024 105.622L724.992 106.824L726.279 106.042L723.024 104.039L703.137 116.288L704.407 117.07L723.024 105.622Z" fill="#E6E634"/>
<path d="M723.954 129.186L721.969 127.965L722.13 126.973L740.497 115.582L743.037 116.88L742.572 117.719L723.954 129.186Z" fill="#E6E634"/>
<path d="M740.586 116.498L742.572 117.719L743.841 116.937L740.586 114.933L720.699 127.183L721.969 127.965L740.586 116.498Z" fill="#E6E634"/>
<path d="M729.963 132.869L727.978 131.648L728.139 130.655L746.506 119.265L749.046 120.562L748.581 121.402L729.963 132.869Z" fill="#E6E634"/>
<path d="M746.595 120.2L748.581 121.402L749.85 120.619L746.595 118.616L726.708 130.865L727.978 131.667L746.595 120.2Z" fill="#E6E634"/>
<path d="M735.972 136.57L733.987 135.349L734.148 134.357L752.515 122.966L755.055 124.245L754.572 125.103L735.972 136.57Z" fill="#E6E634"/>
<path d="M752.605 123.882L754.572 125.103L755.859 124.302L752.605 122.318L732.718 134.567L733.987 135.349L752.605 123.882Z" fill="#E6E634"/>
<path d="M741.964 140.253L739.997 139.032L740.158 138.039L758.506 126.649L761.064 127.946L760.581 128.786L741.964 140.253Z" fill="#E6E634"/>
<path d="M758.614 127.565L760.581 128.786L761.868 128.003L758.614 126L738.727 138.249L739.996 139.032L758.614 127.565Z" fill="#E6E634"/>
<path d="M759.543 151.148L757.558 149.926L757.719 148.934L776.086 137.543L778.626 138.822L778.161 139.68L759.543 151.148Z" fill="#E6E634"/>
<path d="M776.176 138.459L778.161 139.68L779.43 138.879L776.176 136.895L756.289 149.144L757.558 149.926L776.176 138.459Z" fill="#E6E634"/>
<path d="M765.552 154.83L763.567 153.609L763.728 152.617L782.077 141.226L784.635 142.523L784.17 143.363L765.552 154.83Z" fill="#E6E634"/>
<path d="M782.185 142.142L784.17 143.363L785.439 142.581L782.185 140.577L762.298 152.827L763.567 153.609L782.185 142.142Z" fill="#E6E634"/>
<path d="M771.562 158.512L769.576 157.291L769.737 156.299L788.086 144.908L790.644 146.206L790.161 147.045L771.562 158.512Z" fill="#E6E634"/>
<path d="M788.194 145.824L790.161 147.045L791.448 146.263L788.194 144.26L768.307 156.509L769.576 157.291L788.194 145.824Z" fill="#E6E634"/>
<path d="M777.553 162.195L775.585 160.993L775.746 160.001L794.095 148.591L796.653 149.888L796.17 150.747L777.553 162.195Z" fill="#E6E634"/>
<path d="M794.203 149.526L796.17 150.747L797.457 149.945L794.203 147.942L774.316 160.191L775.585 160.993L794.203 149.526Z" fill="#E6E634"/>
<path d="M783.973 367.535C783.564 367.532 783.163 367.413 782.811 367.192C782.458 366.976 782.164 366.665 781.96 366.29C781.756 365.915 781.648 365.489 781.648 365.055V281.77C781.651 280.839 781.882 279.925 782.318 279.118C782.754 278.312 783.38 277.641 784.134 277.172L840.54 242.427C840.893 242.21 841.293 242.095 841.7 242.094C842.107 242.094 842.507 242.208 842.86 242.424C843.214 242.64 843.507 242.952 843.712 243.327C843.917 243.703 844.026 244.129 844.027 244.564V327.848C844.026 328.78 843.796 329.695 843.36 330.502C842.924 331.309 842.297 331.979 841.542 332.447L785.136 367.192C784.784 367.415 784.382 367.534 783.973 367.535V367.535ZM841.702 243.514C841.526 243.521 841.354 243.573 841.202 243.667L784.796 278.412C784.242 278.753 783.784 279.246 783.469 279.84C783.155 280.434 782.995 281.107 783.007 281.789V365.055C783.009 365.241 783.056 365.425 783.145 365.586C783.233 365.747 783.36 365.88 783.512 365.973C783.664 366.066 783.836 366.114 784.011 366.114C784.186 366.113 784.358 366.064 784.51 365.971L840.916 331.226C841.469 330.885 841.927 330.392 842.242 329.798C842.556 329.204 842.716 328.531 842.704 327.848V244.564C842.702 244.378 842.655 244.196 842.568 244.035C842.48 243.874 842.354 243.741 842.203 243.648C842.051 243.552 841.879 243.499 841.702 243.495V243.514Z" fill="#E6E634"/>
<path d="M680.282 240.519L663.489 230.196V226.266L680.282 236.588V240.519Z" fill="#F9AF35"/>
<path d="M688.884 245.823L682.839 242.102V238.172L688.884 241.893V245.823Z" fill="#F9AF35"/>
<path d="M695.555 249.925L691.441 247.407V243.476L695.555 245.995V249.925Z" fill="#F9AF35"/>
<path d="M672.645 244.793L663.489 239.164V235.234L672.645 240.862V244.793Z" fill="#F9AF35"/>
<path d="M686.398 253.283L675.203 246.376V242.446L686.398 249.353V253.283Z" fill="#F9AF35"/>
<path d="M693.087 257.386L688.973 254.867V250.937L693.087 253.455V257.386Z" fill="#F9AF35"/>
<path d="M699.418 261.297L695.322 258.778V254.848L699.418 257.367V261.297Z" fill="#F9AF35"/>
<path d="M670.106 252.234L663.489 248.151V244.22L670.106 248.303V252.234Z" fill="#F9AF35"/>
<path d="M674.935 255.191L672.681 253.798V249.868L674.935 251.261V255.191Z" fill="#F9AF35"/>
<path d="M681.605 259.313L677.492 256.775V252.844L681.605 255.382V259.313Z" fill="#F9AF35"/>
<path d="M687.918 272.173L663.489 257.138V253.207L687.918 268.242V272.173Z" fill="#F9AF35"/>
<path d="M696.52 277.477L690.476 273.756V269.826L696.52 273.546V277.477Z" fill="#F9AF35"/>
<path d="M670.106 270.188L663.489 266.124V262.194L670.106 266.258V270.188Z" fill="#F9AF35"/>
<path d="M685.629 279.747L672.681 271.772V267.842L685.629 275.817V279.747Z" fill="#F9AF35"/>
<path d="M692.3 283.869L688.204 281.331V277.401L692.3 279.938V283.869Z" fill="#F9AF35"/>
<path d="M677.027 283.43L663.489 275.092V271.161L677.027 279.499V283.43Z" fill="#F9AF35"/>
<path d="M689.385 291.043L679.602 285.014V281.083L689.385 287.112V291.043Z" fill="#F9AF35"/>
<path d="M698.559 296.691L691.942 292.627V288.696L698.559 292.76V296.691Z" fill="#F9AF35"/>
<path d="M668.067 286.902L663.489 284.079V280.148L668.067 282.953V286.902Z" fill="#F9AF35"/>
<path d="M676.669 292.188L670.625 288.467V284.537L676.669 288.257V292.188Z" fill="#F9AF35"/>
<path d="M688.973 299.762L679.227 293.771V289.841L688.973 295.832V299.762Z" fill="#F9AF35"/>
<path d="M677.492 301.69L663.489 293.065V289.135L677.492 297.759V301.69Z" fill="#F9AF35"/>
<path d="M693.194 311.344L680.067 303.273V299.343L693.194 307.414V311.344Z" fill="#F9AF35"/>
<path d="M699.847 315.446L695.751 312.928V308.997L699.847 311.516V315.446Z" fill="#F9AF35"/>
<path d="M706.249 319.396L702.154 316.877V312.947L706.249 315.466V319.396Z" fill="#F9AF35"/>
<path d="M671.876 307.204L663.489 302.033V298.103L671.876 303.273V307.204Z" fill="#F9AF35"/>
<path d="M706.982 256.966L718.607 264.14V260.209L706.982 253.035V256.966Z" fill="#F9AF35"/>
<path d="M709.468 267.498L718.607 273.127V269.196L709.468 263.568V267.498Z" fill="#F9AF35"/>
<path d="M711.99 278.03L718.607 282.113V278.164L711.99 274.1V278.03Z" fill="#F9AF35"/>
<path d="M708.986 285.147L718.607 291.081V287.15L708.986 281.217V285.147Z" fill="#F9AF35"/>
<path d="M711.99 295.985L718.607 300.068V296.137L711.99 292.054V295.985Z" fill="#F9AF35"/>
<path d="M710.22 303.884L718.607 309.055V305.124L710.22 299.953V303.884Z" fill="#F9AF35"/>
<path d="M714.047 315.217L718.607 318.022V314.092L714.047 311.287V315.217Z" fill="#F9AF35"/>
<path d="M709.755 321.552L718.607 327.009V323.078L709.755 317.621V321.552Z" fill="#F9AF35"/>
<path d="M710.22 330.825L718.607 335.996V332.065L710.22 326.894V330.825Z" fill="#F9AF35"/>
<path d="M678.011 310.982L674.452 308.787V304.857L678.011 307.051V310.982Z" fill="#F9AF35"/>
<path d="M688.616 317.507L680.586 312.565V308.635L688.616 313.577V317.507Z" fill="#F9AF35"/>
<path d="M695.251 347.73L681.695 339.373V335.442L695.251 343.8V347.73Z" fill="#F9AF35"/>
<path d="M704.532 353.435L699.203 350.153V346.223L704.532 349.504V353.435Z" fill="#F9AF35"/>
<path d="M766.787 204.992L626.433 117.986L626.451 386.367L767.43 473.544L766.787 204.992Z" fill="#E6E634"/>
<path d="M757.827 207.625C757.78 206.692 757.527 205.784 757.088 204.975C756.65 204.166 756.039 203.479 755.305 202.969C755.048 202.775 754.747 202.657 754.433 202.626C754.118 202.596 753.802 202.655 753.517 202.797V202.797L751.728 203.923H752.837C752.818 204.113 752.818 204.305 752.837 204.496C752.888 205.432 753.144 206.344 753.585 207.156C754.026 207.968 754.64 208.658 755.377 209.17C755.545 209.277 755.725 209.36 755.913 209.418L755.394 210.448L757.183 209.361C757.421 209.155 757.605 208.887 757.717 208.583C757.83 208.279 757.868 207.949 757.827 207.625Z" fill="#FFDD06"/>
<path d="M756.038 208.75C756.038 210.468 754.894 211.154 753.499 210.296C752.764 209.786 752.153 209.099 751.715 208.29C751.277 207.481 751.024 206.573 750.977 205.64C750.977 203.923 752.104 203.236 753.499 204.095C754.235 204.603 754.849 205.29 755.29 206.099C755.731 206.907 755.988 207.816 756.038 208.75V208.75Z" fill="#F9AF35"/>
<path d="M754.948 208.082C754.948 209.074 754.304 209.475 753.499 208.979C753.078 208.686 752.727 208.292 752.476 207.828C752.224 207.364 752.078 206.843 752.05 206.308C752.05 205.316 752.694 204.915 753.499 205.411C753.92 205.704 754.27 206.098 754.522 206.562C754.774 207.026 754.92 207.547 754.948 208.082V208.082Z" fill="#FFDD06"/>
<path d="M637.199 133.136C637.162 132.211 636.923 131.309 636.501 130.5C636.079 129.692 635.485 129 634.767 128.48C634.51 128.286 634.209 128.168 633.895 128.138C633.581 128.108 633.265 128.167 632.979 128.309V128.309L631.19 129.415H632.299C632.281 129.606 632.281 129.797 632.299 129.988C632.332 130.925 632.573 131.842 633.002 132.661C633.431 133.48 634.036 134.179 634.767 134.7C634.936 134.807 635.116 134.89 635.304 134.948L634.785 135.979L636.574 134.891C636.811 134.681 636.993 134.409 637.103 134.101C637.213 133.794 637.246 133.461 637.199 133.136Z" fill="#FFDD06"/>
<path d="M635.393 134.262C635.393 135.979 634.267 136.666 632.872 135.807C632.135 135.299 631.521 134.612 631.08 133.803C630.639 132.994 630.383 132.086 630.332 131.152C630.332 129.434 631.477 128.747 632.872 129.606C633.606 130.115 634.217 130.803 634.655 131.612C635.093 132.421 635.346 133.329 635.393 134.262V134.262Z" fill="#F9AF35"/>
<path d="M634.32 133.593C634.32 134.585 633.676 134.986 632.872 134.49C632.448 134.198 632.095 133.805 631.84 133.341C631.585 132.877 631.436 132.356 631.405 131.819C631.405 130.827 632.067 130.427 632.872 130.923C633.293 131.215 633.643 131.609 633.895 132.073C634.146 132.537 634.292 133.058 634.32 133.593Z" fill="#FFDD06"/>
<path d="M757.862 459.101C757.815 458.168 757.563 457.26 757.124 456.451C756.686 455.642 756.075 454.954 755.341 454.445C755.085 454.248 754.785 454.126 754.471 454.093C754.157 454.059 753.84 454.115 753.553 454.254L751.764 455.361H752.873C752.854 455.551 752.854 455.743 752.873 455.933C752.919 456.869 753.174 457.779 753.615 458.589C754.057 459.398 754.673 460.084 755.412 460.589C755.58 460.701 755.761 460.791 755.949 460.856L755.43 461.867L757.219 460.78C757.448 460.579 757.627 460.32 757.74 460.027C757.852 459.734 757.894 459.415 757.862 459.101Z" fill="#FFDD06"/>
<path d="M756.056 460.226C756.056 461.924 754.929 462.63 753.534 461.772C752.798 461.263 752.184 460.577 751.743 459.768C751.302 458.959 751.045 458.051 750.995 457.116C750.995 455.399 752.139 454.712 753.534 455.552C754.269 456.065 754.88 456.756 755.318 457.568C755.756 458.38 756.009 459.291 756.056 460.226V460.226Z" fill="#F9AF35"/>
<path d="M754.983 459.558C754.983 460.55 754.339 460.95 753.535 460.454C753.109 460.161 752.754 459.764 752.499 459.297C752.244 458.83 752.097 458.305 752.068 457.765C752.068 456.792 752.73 456.391 753.535 456.887C753.959 457.176 754.312 457.57 754.564 458.035C754.816 458.499 754.96 459.022 754.983 459.558V459.558Z" fill="#FFDD06"/>
<path d="M636.663 384.745C636.616 383.812 636.363 382.904 635.925 382.095C635.486 381.286 634.875 380.599 634.141 380.09C633.884 379.896 633.583 379.777 633.269 379.747C632.955 379.717 632.639 379.776 632.353 379.918L630.564 381.025H631.673C631.654 381.221 631.654 381.42 631.673 381.616C631.725 382.55 631.982 383.458 632.423 384.267C632.864 385.075 633.477 385.762 634.213 386.272C634.381 386.378 634.561 386.462 634.749 386.52L634.231 387.55L636.019 386.463C636.254 386.258 636.436 385.993 636.549 385.693C636.662 385.392 636.701 385.066 636.663 384.745Z" fill="#FFDD06"/>
<path d="M634.857 385.871C634.857 387.588 633.73 388.275 632.335 387.417C631.598 386.908 630.985 386.222 630.543 385.413C630.102 384.604 629.846 383.695 629.795 382.761C629.795 381.044 630.94 380.357 632.335 381.216C633.069 381.725 633.68 382.412 634.118 383.221C634.557 384.03 634.81 384.938 634.857 385.871V385.871Z" fill="#F9AF35"/>
<path d="M633.784 385.203C633.784 386.195 633.14 386.595 632.335 386.099C631.911 385.809 631.557 385.415 631.302 384.951C631.047 384.487 630.898 383.965 630.868 383.428C630.868 382.436 631.53 382.036 632.335 382.532C632.756 382.824 633.106 383.219 633.358 383.683C633.61 384.147 633.756 384.667 633.784 385.203V385.203Z" fill="#FFDD06"/>
<g opacity="0.51">
<path opacity="0.51" d="M627.148 372.858L766.858 295.355V207.434L627.148 133.327V372.858Z" fill="#FFDD06"/>
</g>
<path d="M844.01 331.149L782.972 368.756V279.728L844.01 242.141V331.149Z" fill="#BCD5FF"/>
<path d="M840.612 244.239V329.47L782.972 364.978V368.756L844.01 331.149V242.141L840.612 244.239Z" fill="#FFDD06"/>
<path d="M880.779 354.122L877.506 356.03L844.707 335.824C844.378 335.642 844.013 335.546 843.643 335.546C843.273 335.546 842.908 335.642 842.579 335.824L785.994 370.664C785.457 370.34 782.99 369.08 782.99 369.08L784.188 372.4C784.254 372.572 784.374 372.714 784.527 372.801L819.079 394.075C819.408 394.258 819.773 394.353 820.143 394.353C820.514 394.353 820.879 394.258 821.207 394.075L879.098 358.415C879.323 358.303 879.502 358.106 879.599 357.861V357.861L880.779 354.122Z" fill="#606060"/>
<path d="M880.278 354.694L820.939 391.252C820.601 391.434 820.227 391.53 819.848 391.53C819.469 391.53 819.096 391.434 818.757 391.252L783.347 369.443C782.793 369.1 782.846 368.489 783.508 368.088L842.829 331.55C843.162 331.351 843.535 331.236 843.916 331.217C844.298 331.197 844.679 331.272 845.029 331.436L880.439 353.244C880.994 353.702 880.922 354.294 880.278 354.694Z" fill="#606060"/>
<path d="M803.055 383.333V382.646L805.362 384.076C805.374 384.103 805.38 384.133 805.38 384.162C805.38 384.192 805.374 384.221 805.362 384.248V384.934L803.055 383.524C803.041 383.494 803.034 383.461 803.034 383.428C803.034 383.395 803.041 383.362 803.055 383.333V383.333Z" fill="#F9AF35"/>
<path d="M806.453 385.451V384.764C806.453 384.764 806.453 384.669 806.453 384.764L808.76 386.175C808.777 386.231 808.777 386.291 808.76 386.347V387.052C808.76 387.052 808.76 387.147 808.76 387.052L806.453 385.641C806.439 385.612 806.432 385.579 806.432 385.546C806.432 385.513 806.439 385.48 806.453 385.451V385.451Z" fill="#F9AF35"/>
<path d="M792.575 367.497L841.881 337.121C842.04 337.019 842.223 336.964 842.409 336.964C842.595 336.964 842.777 337.019 842.936 337.121L860.498 347.959C860.554 347.997 860.599 348.049 860.631 348.111C860.662 348.172 860.679 348.242 860.679 348.312C860.679 348.382 860.662 348.451 860.631 348.513C860.599 348.575 860.554 348.627 860.498 348.665L811.228 379.021C811.063 379.115 810.879 379.164 810.692 379.164C810.505 379.164 810.32 379.115 810.155 379.021L792.575 368.184C792.52 368.148 792.474 368.098 792.442 368.038C792.41 367.977 792.393 367.909 792.393 367.84C792.393 367.771 792.41 367.703 792.442 367.643C792.474 367.583 792.52 367.532 792.575 367.497V367.497Z" fill="#606060"/>
<path d="M792.575 368.184L792.754 368.298L841.881 337.961C842.04 337.858 842.223 337.804 842.409 337.804C842.595 337.804 842.777 337.858 842.936 337.961L860.32 348.684H860.498C860.554 348.646 860.599 348.594 860.631 348.532C860.662 348.47 860.679 348.401 860.679 348.331C860.679 348.261 860.662 348.192 860.631 348.13C860.599 348.068 860.554 348.016 860.498 347.978L842.936 337.141C842.777 337.038 842.595 336.984 842.409 336.984C842.223 336.984 842.04 337.038 841.881 337.141L792.575 367.516C792.524 367.553 792.481 367.602 792.452 367.66C792.423 367.719 792.407 367.784 792.407 367.85C792.407 367.916 792.423 367.981 792.452 368.039C792.481 368.098 792.524 368.147 792.575 368.184V368.184Z" fill="#606060"/>
<path d="M844.278 339.869L801.446 366.238L799.532 365.074L842.364 338.686L844.278 339.869Z" fill="#F9AF35"/>
<path d="M848.945 342.731L808.76 367.478L806.864 366.314L847.032 341.567L848.945 342.731Z" fill="#F9AF35"/>
<path d="M851.986 344.601L804.683 373.736L802.769 372.572L850.072 343.437L851.986 344.601Z" fill="#F9AF35"/>
<path d="M855.026 346.49L807.723 375.606L805.827 374.442L853.112 345.307L855.026 346.49Z" fill="#F9AF35"/>
<path d="M858.066 348.36L810.763 377.495L808.867 376.312L856.153 347.177L858.066 348.36Z" fill="#F9AF35"/>
<path d="M798.853 367.839L796.957 369.002L795.043 367.839L796.957 366.657L798.853 367.839Z" fill="#F9AF35"/>
<path d="M805.577 369.443L801.625 371.885L799.711 370.702L803.663 368.279L805.577 369.443Z" fill="#F9AF35"/>
<path d="M843.777 374.843L857.083 366.657C857.198 366.618 857.3 366.541 857.371 366.436C857.443 366.331 857.482 366.205 857.482 366.075C857.482 365.946 857.443 365.82 857.371 365.715C857.3 365.61 857.198 365.533 857.083 365.494L847.98 359.903C847.69 359.743 847.368 359.659 847.041 359.659C846.714 359.659 846.392 359.743 846.102 359.903L832.814 368.088C832.705 368.132 832.61 368.21 832.543 368.312C832.477 368.415 832.441 368.536 832.441 368.661C832.441 368.785 832.477 368.907 832.543 369.009C832.61 369.112 832.705 369.19 832.814 369.233L841.899 374.843C842.189 375.003 842.511 375.087 842.838 375.087C843.165 375.087 843.487 375.003 843.777 374.843V374.843Z" fill="#606060"/>
<path d="M832.814 368.489L846.102 360.285C846.395 360.134 846.716 360.056 847.041 360.056C847.366 360.056 847.687 360.134 847.98 360.285L857.083 365.894C857.219 365.972 857.331 366.092 857.404 366.238C857.548 365.951 857.405 365.646 857.083 365.417L847.98 359.827C847.69 359.666 847.368 359.582 847.041 359.582C846.714 359.582 846.392 359.666 846.102 359.827L832.814 368.012C832.741 368.042 832.674 368.086 832.617 368.144C832.56 368.201 832.515 368.27 832.483 368.347C832.452 368.423 832.435 368.505 832.433 368.589C832.431 368.672 832.445 368.755 832.474 368.833C832.555 368.686 832.673 368.567 832.814 368.489V368.489Z" fill="#606060"/>
<path d="M840.612 244.24L782.972 279.729V364.978L840.612 329.47V244.24Z" fill="#FFDD06"/>
<path d="M840.612 244.24L782.972 279.729V364.978L840.612 329.47V244.24Z" fill="#FFDD06"/>
<g opacity="0.11">
<path opacity="0.51" d="M837.41 331.455V250.116L782.971 283.64V364.978L837.41 331.455Z" fill="#4553C7"/>
<g opacity="0.11">
<path opacity="0.11" d="M842.99 331.512L783.973 367.898C783.642 368.095 783.272 368.207 782.893 368.223C782.514 368.24 782.136 368.161 781.791 367.993L746.56 346.28C745.987 345.936 746.059 345.345 746.703 344.944L805.72 308.559C806.052 308.365 806.422 308.256 806.8 308.239C807.179 308.223 807.555 308.299 807.902 308.463L843.151 330.176C843.705 330.52 843.634 331.13 842.99 331.512Z" fill="url(#paint14_linear_1200_259)"/>
<path opacity="0.11" d="M783.758 337.961L796.992 329.814C797.511 329.489 797.511 328.974 796.992 328.669L787.943 323.098C787.665 322.953 787.359 322.877 787.049 322.877C786.739 322.877 786.433 322.953 786.155 323.098L772.939 331.245C772.42 331.55 772.42 332.065 772.939 332.39L781.97 337.961C782.248 338.106 782.554 338.181 782.864 338.181C783.174 338.181 783.48 338.106 783.758 337.961V337.961Z" fill="url(#paint15_linear_1200_259)"/>
<path opacity="0.11" d="M772.849 331.779L786.065 323.632C786.346 323.496 786.651 323.425 786.959 323.425C787.268 323.425 787.573 323.496 787.854 323.632L796.903 329.203C797.036 329.287 797.147 329.405 797.225 329.547C797.368 329.28 797.225 328.955 796.903 328.745L787.854 323.174C787.575 323.029 787.269 322.953 786.959 322.953C786.65 322.953 786.344 323.029 786.065 323.174L772.849 331.321C772.491 331.531 772.384 331.855 772.509 332.122C772.6 331.985 772.715 331.868 772.849 331.779Z" fill="#91AFFF"/>
<path opacity="0.11" d="M767.108 350.783L816.182 320.56C816.341 320.457 816.524 320.403 816.71 320.403C816.896 320.403 817.078 320.457 817.237 320.56L834.71 331.34C834.765 331.376 834.811 331.426 834.843 331.486C834.875 331.547 834.892 331.614 834.892 331.684C834.892 331.753 834.875 331.821 834.843 331.881C834.811 331.941 834.765 331.991 834.71 332.027L785.672 362.25C785.51 362.343 785.329 362.392 785.144 362.392C784.96 362.392 784.779 362.343 784.617 362.25L767.108 351.47C767.053 351.434 767.007 351.384 766.975 351.324C766.943 351.263 766.926 351.195 766.926 351.126C766.926 351.057 766.943 350.989 766.975 350.929C767.007 350.869 767.053 350.818 767.108 350.783V350.783Z" fill="#ADC8FF"/>
<path opacity="0.11" d="M767.108 351.47L767.287 351.584L816.182 321.457C816.344 321.363 816.525 321.314 816.71 321.314C816.894 321.314 817.075 321.363 817.237 321.457L834.549 332.142L834.71 332.027C834.765 331.991 834.811 331.941 834.843 331.881C834.875 331.821 834.892 331.753 834.892 331.684C834.892 331.614 834.875 331.547 834.843 331.486C834.811 331.426 834.765 331.376 834.71 331.34L817.183 320.56C817.024 320.457 816.842 320.403 816.656 320.403C816.47 320.403 816.287 320.457 816.128 320.56L767.108 350.783C767.053 350.818 767.007 350.869 766.975 350.929C766.943 350.989 766.926 351.057 766.926 351.126C766.926 351.195 766.943 351.263 766.975 351.324C767.007 351.384 767.053 351.434 767.108 351.47V351.47Z" fill="#91AFFF"/>
<path opacity="0.11" d="M830.06 330.596L787.299 356.927L788.998 357.976L831.741 331.645L830.06 330.596Z" fill="#242993"/>
<path opacity="0.11" d="M825.553 327.829L784.921 352.843L786.62 353.893L827.252 328.86L825.553 327.829Z" fill="#242993"/>
<path opacity="0.11" d="M781.881 354.713L778.089 357.06L779.788 358.09L783.58 355.762L781.881 354.713Z" fill="#242993"/>
<path opacity="0.11" d="M785.243 358.205L782.596 359.825L784.295 360.874L786.924 359.253L785.243 358.205Z" fill="#242993"/>
<path opacity="0.11" d="M822.727 326.074L775.263 355.324L776.962 356.354L824.426 327.123L822.727 326.074Z" fill="#242993"/>
<path opacity="0.11" d="M819.902 324.338L772.438 353.588L774.137 354.618L821.601 325.387L819.902 324.338Z" fill="#242993"/>
<path opacity="0.11" d="M817.076 322.602L769.63 351.832L771.311 352.882L818.775 323.651L817.076 322.602Z" fill="#242993"/>
</g>
</g>
<path d="M798.691 290.318L795.24 292.436V289.975L798.691 287.857V290.318Z" fill="#F9AF35"/>
<path d="M798.691 306.975L795.24 309.093V294.687L798.691 292.55V306.975Z" fill="#F9AF35"/>
<path d="M798.691 314.95L795.24 317.068V311.344L798.691 309.226V314.95Z" fill="#F9AF35"/>
<path d="M798.691 323.212L795.24 325.33V319.606L798.691 317.488V323.212Z" fill="#F9AF35"/>
<path d="M803.824 295.107L800.391 297.244V291.52L803.824 289.383V295.107Z" fill="#F9AF35"/>
<path d="M803.824 306.059L800.391 308.177V299.782L803.824 297.645V306.059Z" fill="#F9AF35"/>
<path d="M803.824 316.133L800.391 318.251V311.039L803.824 308.921V316.133Z" fill="#F9AF35"/>
<path d="M798.691 331.474L795.24 333.592V327.868L798.691 325.75V331.474Z" fill="#F9AF35"/>
<path d="M803.824 287.151L800.391 289.269V286.807L803.824 284.689V287.151Z" fill="#F9AF35"/>
<path d="M801.267 337.904L795.24 341.605V339.22L801.267 335.5V337.904Z" fill="#F9AF35"/>
<path d="M419.784 249.162L357.709 210.926L419.784 172.689L481.842 210.926L419.784 249.162Z" fill="#838383"/>
<path d="M419.784 395.926L357.709 357.69L419.784 319.453L481.842 357.69L419.784 395.926Z" fill="white"/>
<path d="M481.842 210.926V357.69L419.784 395.926V249.162L481.842 210.926Z" fill="#838383"/>
<path d="M357.709 210.926V357.69L419.784 395.926V249.162L357.709 210.926Z" fill="#E6E634"/>
<g opacity="0.51">
<path opacity="0.51" d="M361.912 220.656V352.576L415.564 385.623V253.722L361.912 220.656Z" fill="#F9AF35"/>
</g>
<path d="M472.542 246.376V250.269L429.084 277.019V273.146L472.542 246.376Z" fill="#E6E634"/>
<path d="M472.542 262.785V266.659L429.084 293.428V289.555L472.542 262.785Z" fill="#E6E634"/>
<path d="M472.542 279.175V283.067L429.084 309.837V305.944L472.542 279.175Z" fill="#E6E634"/>
<path d="M472.542 295.584V299.457L429.084 326.227V322.353L472.542 295.584Z" fill="#E6E634"/>
<path d="M472.542 311.993V315.866L429.084 342.636V338.743L472.542 311.993Z" fill="#E6E634"/>
<path d="M472.542 328.383V332.275L429.084 359.025V355.152L472.542 328.383Z" fill="#E6E634"/>
<path d="M419.784 235.73L374.734 207.987L419.784 180.245L464.816 207.987L419.784 235.73Z" fill="#3C3C3C"/>
<path d="M464.816 207.987V211.364L419.784 239.107V235.73L464.816 207.987Z" fill="#3C3C3C"/>
<path d="M374.734 207.987V211.364L419.784 239.107V235.73L374.734 207.987Z" fill="#3C3C3C"/>
<path d="M402.312 208.445L400.309 207.205L400.47 206.213L418.979 194.727L421.555 196.024L421.072 196.883L402.312 208.445Z" fill="#E6E634"/>
<path d="M419.087 195.642L421.072 196.883L422.359 196.081L419.087 194.078L399.039 206.423L400.309 207.205L419.087 195.642Z" fill="#E6E634"/>
<path d="M408.356 212.147L406.371 210.926L406.532 209.933L425.042 198.447L427.599 199.745L427.134 200.603L408.356 212.147Z" fill="#E6E634"/>
<path d="M425.131 199.363L427.134 200.603L428.404 199.802L425.131 197.779L405.083 210.143L406.371 210.926L425.131 199.363Z" fill="#E6E634"/>
<path d="M414.419 215.867L412.416 214.646L412.595 213.654L431.087 202.149L433.662 203.465L433.179 204.324L414.419 215.867Z" fill="#E6E634"/>
<path d="M431.194 203.084L433.179 204.324L434.467 203.522L431.194 201.5L411.146 213.864L412.434 214.646L431.194 203.084Z" fill="#E6E634"/>
<path d="M420.482 219.588L418.479 218.367L418.639 217.356L437.149 205.869L439.707 207.186L439.242 208.025L420.482 219.588Z" fill="#E6E634"/>
<path d="M437.239 206.804L439.242 208.025L440.529 207.243L437.239 205.221L417.191 217.565L418.479 218.367L437.239 206.804Z" fill="#E6E634"/>
<path d="M417.316 255.764C417.268 254.851 417.02 253.962 416.591 253.17C416.163 252.378 415.565 251.704 414.848 251.204C414.592 251.006 414.292 250.885 413.978 250.851C413.664 250.818 413.347 250.874 413.06 251.013V251.013L411.271 252.12H412.362C412.343 252.31 412.343 252.502 412.362 252.692C412.41 253.605 412.658 254.494 413.087 255.286C413.516 256.078 414.113 256.751 414.83 257.252C414.998 257.358 415.179 257.442 415.367 257.5L414.848 258.511L416.636 257.443C416.872 257.246 417.058 256.989 417.177 256.696C417.296 256.402 417.344 256.082 417.316 255.764V255.764Z" fill="#FFDD06"/>
<path d="M415.563 256.87C415.563 258.549 414.455 259.217 413.095 258.378C412.369 257.886 411.763 257.215 411.331 256.421C410.898 255.628 410.651 254.735 410.61 253.818C410.61 252.139 411.718 251.452 413.095 252.291C413.814 252.795 414.412 253.472 414.841 254.267C415.269 255.063 415.517 255.954 415.563 256.87V256.87Z" fill="#F9AF35"/>
<path d="M414.508 256.221C414.508 257.175 413.864 257.576 413.095 257.099C412.68 256.81 412.335 256.421 412.086 255.964C411.838 255.507 411.693 254.994 411.665 254.466C411.665 253.493 412.309 253.112 413.095 253.589C413.507 253.879 413.849 254.269 414.095 254.726C414.34 255.183 414.482 255.695 414.508 256.221V256.221Z" fill="#FFDD06"/>
<path d="M365.256 221.572C365.208 220.659 364.96 219.771 364.531 218.978C364.103 218.186 363.505 217.513 362.788 217.012C362.531 216.818 362.23 216.7 361.915 216.669C361.601 216.639 361.285 216.698 361 216.84L359.211 217.928H360.302C360.283 218.118 360.283 218.31 360.302 218.5C360.35 219.414 360.598 220.302 361.027 221.094C361.456 221.886 362.053 222.56 362.77 223.061C362.942 223.165 363.121 223.255 363.307 223.328L362.788 224.32L364.576 223.251C364.812 223.055 364.998 222.798 365.117 222.504C365.236 222.211 365.284 221.89 365.256 221.572V221.572Z" fill="#FFDD06"/>
<path d="M363.503 222.736C363.503 224.415 362.395 225.102 361.035 224.263C360.312 223.769 359.71 223.097 359.281 222.303C358.851 221.51 358.607 220.618 358.567 219.702C358.567 218.023 359.658 217.337 361.035 218.176C361.753 218.677 362.35 219.35 362.779 220.142C363.207 220.934 363.456 221.823 363.503 222.736Z" fill="#F9AF35"/>
<path d="M362.448 222.087C362.448 223.06 361.822 223.441 361.035 222.964C360.619 222.677 360.273 222.288 360.024 221.831C359.776 221.373 359.632 220.86 359.604 220.332C359.604 219.378 360.248 218.977 361.035 219.473C361.448 219.759 361.79 220.145 362.036 220.599C362.282 221.053 362.423 221.563 362.448 222.087V222.087Z" fill="#FFDD06"/>
<path d="M417.316 387.207C417.267 386.291 417.018 385.401 416.59 384.606C416.161 383.811 415.565 383.133 414.848 382.627C414.591 382.433 414.29 382.315 413.976 382.285C413.661 382.255 413.345 382.314 413.06 382.456L411.271 383.543H412.362C412.343 383.734 412.343 383.925 412.362 384.116C412.401 385.032 412.641 385.926 413.063 386.725C413.486 387.524 414.079 388.205 414.794 388.714C414.962 388.826 415.142 388.916 415.331 388.981L414.812 389.973L416.601 388.905C416.846 388.71 417.04 388.452 417.166 388.155C417.291 387.858 417.343 387.531 417.316 387.207Z" fill="#FFDD06"/>
<path d="M415.563 388.294C415.563 389.973 414.455 390.66 413.095 389.821C412.369 389.329 411.763 388.658 411.331 387.864C410.898 387.071 410.651 386.178 410.61 385.26C410.61 383.581 411.718 382.895 413.095 383.734C413.813 384.235 414.41 384.908 414.839 385.7C415.267 386.492 415.516 387.381 415.563 388.294V388.294Z" fill="#F9AF35"/>
<path d="M414.508 387.569C414.508 388.541 413.864 388.942 413.095 388.446C412.681 388.162 412.335 387.776 412.087 387.322C411.838 386.868 411.693 386.358 411.665 385.833C411.665 384.86 412.309 384.459 413.095 384.955C413.505 385.244 413.846 385.631 414.091 386.084C414.336 386.538 414.479 387.046 414.508 387.569V387.569Z" fill="#FFDD06"/>
<path d="M365.256 353.072C365.208 352.159 364.96 351.271 364.531 350.479C364.103 349.687 363.505 349.013 362.788 348.512C362.531 348.318 362.23 348.2 361.915 348.17C361.601 348.139 361.285 348.198 361 348.341L359.211 349.428H360.302C360.283 349.618 360.283 349.81 360.302 350C360.35 350.914 360.598 351.802 361.027 352.594C361.456 353.386 362.053 354.06 362.77 354.561C362.938 354.667 363.119 354.75 363.307 354.809L362.788 355.82L364.576 354.751C364.812 354.555 364.998 354.298 365.117 354.004C365.236 353.711 365.284 353.391 365.256 353.072V353.072Z" fill="#FFDD06"/>
<path d="M363.503 354.179C363.503 355.858 362.395 356.526 361.035 355.686C360.312 355.192 359.71 354.521 359.281 353.727C358.851 352.933 358.607 352.041 358.567 351.126C358.567 349.447 359.658 348.76 361.035 349.619C361.753 350.12 362.35 350.793 362.779 351.585C363.207 352.377 363.456 353.266 363.503 354.179V354.179Z" fill="#F9AF35"/>
<path d="M362.448 353.53C362.448 354.503 361.822 354.884 361.035 354.407C360.62 354.118 360.275 353.73 360.026 353.273C359.778 352.815 359.633 352.302 359.604 351.775C359.604 350.802 360.248 350.42 361.035 350.897C361.448 351.187 361.791 351.576 362.036 352.034C362.282 352.491 362.423 353.003 362.448 353.53V353.53Z" fill="#FFDD06"/>
<g opacity="0.51">
<path opacity="0.51" d="M357.709 334.488L419.784 294.516V249.162L357.709 210.926V334.488Z" fill="#FFDD06"/>
</g>
<path d="M749.582 245.46L662.827 298.293V460.074V568.029C663.805 567.997 664.762 567.715 665.617 567.208L748.259 516.322C748.611 516.149 748.916 515.883 749.144 515.549C749.373 515.215 749.517 514.824 749.564 514.414V514.414L749.582 245.46Z" fill="#838383"/>
<path d="M666.386 525.747V296.118L662.809 298.293V460.074V568.029H663.417H663.542C663.995 567.954 664.439 567.826 664.866 567.647H664.955C665.18 567.556 665.396 567.441 665.599 567.304L666.368 566.846L666.386 525.747Z" fill="#838383"/>
<path d="M660.198 298.541L522.724 213.94C521.329 213.082 521.508 211.574 523.1 210.601L605.741 159.695C606.556 159.213 607.465 158.939 608.397 158.896C609.328 158.853 610.256 159.042 611.107 159.447L748.599 244.125C749.976 244.984 749.815 246.491 748.205 247.464L665.563 298.37C664.743 298.84 663.831 299.1 662.9 299.13C661.969 299.16 661.044 298.958 660.198 298.541Z" fill="#838383"/>
<path d="M609.801 168.377L543.756 209.056L537.353 207.796V213.005L661.557 289.516L724.455 243.896L609.801 168.377Z" fill="#3C3C3C"/>
<path d="M734.023 239.679V244.888L661.557 289.517V284.308L734.023 239.679Z" fill="#3C3C3C"/>
<path d="M661.557 284.308L537.353 207.796L609.801 163.149L734.023 239.679L661.557 284.308Z" fill="#3C3C3C"/>
<path d="M583.708 202.206L581.741 200.985L581.902 200.012L600.251 188.602L602.809 189.899L602.326 190.739L583.708 202.206Z" fill="#E6E634"/>
<path d="M600.341 189.537L602.326 190.739L603.595 189.957L600.341 187.953L580.454 200.203L581.741 200.985L600.341 189.537Z" fill="#E6E634"/>
<path d="M589.718 205.907L587.732 204.686L587.911 203.694L606.26 192.303L608.818 193.582L608.335 194.44L589.718 205.907Z" fill="#E6E634"/>
<path d="M606.349 193.219L608.335 194.44L609.604 193.658L606.349 191.655L586.462 203.904L587.75 204.686L606.349 193.219Z" fill="#E6E634"/>
<path d="M595.726 209.59L593.741 208.369L593.902 207.377L612.269 195.986L614.809 197.283L614.344 198.123L595.726 209.59Z" fill="#E6E634"/>
<path d="M612.359 196.902L614.344 198.123L615.614 197.34L612.359 195.337L592.472 207.587L593.741 208.369L612.359 196.902Z" fill="#E6E634"/>
<path d="M601.736 213.272L599.75 212.051L599.911 211.059L618.278 199.668L620.818 200.966L620.353 201.805L601.736 213.272Z" fill="#E6E634"/>
<path d="M618.368 200.603L620.353 201.805L621.622 201.023L618.368 199.02L598.481 211.269L599.75 212.07L618.368 200.603Z" fill="#E6E634"/>
<path d="M619.298 224.167L617.312 222.946L617.491 221.954L635.84 210.563L638.398 211.86L637.915 212.7L619.298 224.167Z" fill="#E6E634"/>
<path d="M635.929 211.479L637.915 212.7L639.184 211.918L635.929 209.914L616.042 222.164L617.312 222.946L635.929 211.479Z" fill="#E6E634"/>
<path d="M625.307 227.85L623.322 226.629L623.483 225.636L641.849 214.245L644.389 215.543L643.924 216.382L625.307 227.85Z" fill="#E6E634"/>
<path d="M641.939 215.18L643.924 216.382L645.193 215.6L641.939 213.597L622.052 225.846L623.321 226.647L641.939 215.18Z" fill="#E6E634"/>
<path d="M631.316 231.551L629.331 230.33L629.492 229.338L647.858 217.947L650.398 219.225L649.933 220.084L631.316 231.551Z" fill="#E6E634"/>
<path d="M647.948 218.863L649.933 220.084L651.202 219.283L647.948 217.298L628.061 229.548L629.33 230.33L647.948 218.863Z" fill="#E6E634"/>
<path d="M637.325 235.234L635.339 234.013L635.5 233.02L653.867 221.63L656.407 222.927L655.942 223.767L637.325 235.234Z" fill="#E6E634"/>
<path d="M653.957 222.545L655.942 223.767L657.212 222.984L653.957 220.981L634.07 233.23L635.34 234.013L653.957 222.545Z" fill="#E6E634"/>
<path d="M654.887 246.128L652.901 244.907L653.062 243.915L671.429 232.524L673.969 233.803L673.504 234.661L654.887 246.128Z" fill="#E6E634"/>
<path d="M671.519 233.44L673.504 234.661L674.774 233.86L671.519 231.875L651.632 244.125L652.902 244.907L671.519 233.44Z" fill="#E6E634"/>
<path d="M660.895 249.811L658.91 248.59L659.071 247.597L677.438 236.207L679.978 237.504L679.513 238.344L660.895 249.811Z" fill="#E6E634"/>
<path d="M677.528 237.123L679.513 238.344L680.782 237.561L677.528 235.558L657.641 247.807L658.91 248.59L677.528 237.123Z" fill="#E6E634"/>
<path d="M666.905 253.493L664.919 252.272L665.08 251.28L683.447 239.889L685.987 241.187L685.504 242.026L666.905 253.493Z" fill="#E6E634"/>
<path d="M683.537 240.805L685.504 242.026L686.792 241.244L683.537 239.24L663.65 251.49L664.92 252.272L683.537 240.805Z" fill="#E6E634"/>
<path d="M672.896 257.176L670.928 255.974L671.089 254.981L689.438 243.572L691.996 244.869L691.513 245.728L672.896 257.176Z" fill="#E6E634"/>
<path d="M689.546 244.507L691.513 245.728L692.801 244.926L689.546 242.923L669.659 255.172L670.928 255.974L689.546 244.507Z" fill="#E6E634"/>
<path d="M679.316 462.516C678.907 462.512 678.506 462.394 678.154 462.172C677.801 461.957 677.507 461.646 677.303 461.271C677.099 460.896 676.991 460.469 676.991 460.035V376.751C676.994 375.817 677.227 374.901 677.666 374.094C678.106 373.287 678.736 372.617 679.495 372.152L735.883 337.408C736.236 337.19 736.636 337.076 737.043 337.075C737.45 337.075 737.85 337.188 738.204 337.405C738.557 337.621 738.85 337.933 739.055 338.308C739.26 338.684 739.369 339.11 739.37 339.544V422.829C739.369 423.761 739.139 424.676 738.703 425.483C738.267 426.289 737.64 426.96 736.885 427.428L680.479 462.172C680.127 462.396 679.725 462.514 679.316 462.516ZM737.046 338.495C736.869 338.501 736.697 338.554 736.545 338.648L680.139 373.393C679.591 373.741 679.138 374.236 678.825 374.828C678.511 375.42 678.348 376.09 678.35 376.77V460.074C678.348 460.258 678.392 460.44 678.477 460.601C678.561 460.761 678.684 460.896 678.833 460.989C678.986 461.083 679.158 461.133 679.334 461.133C679.51 461.133 679.683 461.083 679.835 460.989L736.241 426.245C736.795 425.904 737.253 425.41 737.567 424.816C737.882 424.223 738.041 423.549 738.029 422.867V339.544C738.028 339.359 737.981 339.176 737.893 339.016C737.805 338.855 737.679 338.722 737.528 338.629C737.382 338.535 737.216 338.483 737.046 338.476V338.495Z" fill="#E6E634"/>
<path d="M662.13 299.972L521.776 212.967L521.794 481.348L662.774 568.525L662.13 299.972Z" fill="#E6E634"/>
<path d="M653.188 302.606C653.137 301.671 652.881 300.763 652.44 299.954C651.998 299.145 651.385 298.458 650.648 297.95C650.391 297.756 650.09 297.637 649.776 297.607C649.461 297.577 649.145 297.636 648.86 297.778L647.071 298.904H648.18C648.17 299.095 648.17 299.286 648.18 299.476C648.227 300.412 648.48 301.323 648.918 302.135C649.356 302.947 649.967 303.637 650.702 304.151C650.872 304.254 651.051 304.337 651.238 304.399L650.72 305.429L652.508 304.342C652.752 304.14 652.943 303.874 653.062 303.569C653.181 303.265 653.225 302.933 653.188 302.606V302.606Z" fill="#FFDD06"/>
<path d="M651.381 303.731C651.381 305.449 650.237 306.135 648.842 305.277C648.108 304.767 647.497 304.08 647.059 303.271C646.62 302.462 646.367 301.554 646.32 300.621C646.32 298.904 647.447 298.217 648.842 299.076C649.578 299.584 650.192 300.271 650.633 301.08C651.075 301.888 651.331 302.797 651.381 303.731V303.731Z" fill="#F9AF35"/>
<path d="M650.308 303.063C650.308 304.055 649.647 304.455 648.842 303.959C648.421 303.667 648.07 303.272 647.819 302.808C647.567 302.345 647.421 301.824 647.393 301.289C647.393 300.297 648.037 299.896 648.842 300.392C649.265 300.684 649.619 301.077 649.873 301.541C650.128 302.005 650.277 302.526 650.308 303.063Z" fill="#FFDD06"/>
<path d="M532.543 228.117C532.496 227.184 532.243 226.276 531.804 225.467C531.366 224.658 530.755 223.971 530.021 223.461C529.763 223.267 529.462 223.149 529.148 223.119C528.834 223.088 528.518 223.147 528.233 223.289V223.289L526.444 224.396H527.553C527.534 224.586 527.534 224.778 527.553 224.969C527.603 225.905 527.86 226.817 528.301 227.629C528.742 228.441 529.356 229.131 530.092 229.643C530.261 229.75 530.441 229.833 530.629 229.891L530.11 230.921L531.899 229.834C532.134 229.629 532.316 229.364 532.429 229.064C532.541 228.764 532.581 228.438 532.543 228.117Z" fill="#FFDD06"/>
<path d="M530.736 229.204C530.736 230.921 529.609 231.608 528.214 230.75C527.478 230.241 526.864 229.555 526.423 228.746C525.982 227.937 525.725 227.028 525.675 226.094C525.675 224.377 526.819 223.69 528.214 224.549C528.949 225.058 529.56 225.745 529.998 226.554C530.436 227.363 530.689 228.271 530.736 229.204V229.204Z" fill="#F9AF35"/>
<path d="M529.663 228.574C529.663 229.566 529.019 229.967 528.215 229.471C527.793 229.178 527.443 228.784 527.191 228.32C526.94 227.856 526.794 227.335 526.766 226.8C526.766 225.808 527.41 225.407 528.215 225.903C528.636 226.196 528.986 226.59 529.238 227.054C529.489 227.518 529.635 228.039 529.663 228.574Z" fill="#FFDD06"/>
<path d="M653.206 554.081C653.158 553.148 652.905 552.24 652.467 551.431C652.029 550.622 651.418 549.935 650.684 549.426C650.428 549.228 650.128 549.107 649.814 549.073C649.5 549.04 649.183 549.096 648.896 549.235L647.107 550.342H648.216C648.197 550.532 648.197 550.724 648.216 550.914C648.266 551.848 648.523 552.757 648.964 553.566C649.405 554.375 650.019 555.061 650.755 555.57C650.923 555.682 651.104 555.771 651.292 555.837L650.773 556.848L652.562 555.76C652.791 555.56 652.97 555.301 653.083 555.008C653.195 554.715 653.237 554.396 653.206 554.081Z" fill="#FFDD06"/>
<path d="M651.399 555.207C651.399 556.905 650.273 557.611 648.878 556.752C648.141 556.244 647.527 555.557 647.086 554.749C646.645 553.94 646.389 553.031 646.338 552.097C646.338 550.38 647.483 549.693 648.878 550.532C649.612 551.046 650.223 551.737 650.661 552.549C651.099 553.361 651.352 554.271 651.399 555.207V555.207Z" fill="#F9AF35"/>
<path d="M650.326 554.539C650.326 555.531 649.682 555.931 648.878 555.435C648.452 555.142 648.097 554.745 647.842 554.278C647.588 553.81 647.44 553.285 647.411 552.746C647.411 551.773 648.073 551.372 648.878 551.868C649.302 552.157 649.655 552.551 649.907 553.015C650.159 553.48 650.303 554.003 650.326 554.539V554.539Z" fill="#FFDD06"/>
<path d="M532.006 479.726C531.959 478.793 531.706 477.885 531.268 477.076C530.83 476.267 530.219 475.58 529.485 475.071C529.227 474.876 528.926 474.758 528.612 474.728C528.298 474.698 527.982 474.757 527.696 474.899V474.899L525.908 476.006H527.017C526.997 476.202 526.997 476.4 527.017 476.597C527.068 477.531 527.325 478.439 527.766 479.248C528.207 480.056 528.821 480.743 529.556 481.253C529.724 481.359 529.905 481.442 530.093 481.501L529.574 482.531L531.362 481.443C531.597 481.239 531.78 480.974 531.892 480.674C532.005 480.373 532.044 480.047 532.006 479.726Z" fill="#FFDD06"/>
<path d="M530.2 480.852C530.2 482.569 529.073 483.256 527.678 482.397C526.942 481.889 526.328 481.203 525.887 480.394C525.445 479.585 525.189 478.676 525.139 477.742C525.139 476.025 526.283 475.338 527.678 476.196C528.412 476.706 529.023 477.393 529.462 478.202C529.9 479.011 530.153 479.919 530.2 480.852V480.852Z" fill="#F9AF35"/>
<path d="M529.127 480.183C529.127 481.175 528.483 481.576 527.678 481.08C527.256 480.789 526.905 480.395 526.653 479.93C526.401 479.466 526.256 478.945 526.229 478.409C526.229 477.417 526.873 477.017 527.678 477.513C528.099 477.805 528.45 478.2 528.701 478.664C528.953 479.128 529.099 479.648 529.127 480.183Z" fill="#FFDD06"/>
<g opacity="0.51">
<path opacity="0.51" d="M522.492 467.839L662.201 390.336V302.415L522.492 228.307V467.839Z" fill="#FFDD06"/>
</g>
<path d="M575.625 335.5L558.832 325.177V321.228L575.625 331.569V335.5Z" fill="#F9AF35"/>
<path d="M584.227 340.804L578.182 337.083V333.153L584.227 336.873V340.804Z" fill="#F9AF35"/>
<path d="M590.898 344.906L586.784 342.388V338.457L590.898 340.976V344.906Z" fill="#F9AF35"/>
<path d="M567.988 339.774L558.832 334.145V330.214L567.988 335.843V339.774Z" fill="#F9AF35"/>
<path d="M581.759 348.264L570.546 341.357V337.427L581.759 344.334V348.264Z" fill="#F9AF35"/>
<path d="M588.43 352.366L584.316 349.848V345.917L588.43 348.436V352.366Z" fill="#F9AF35"/>
<path d="M594.761 356.278L590.665 353.759V349.829L594.761 352.347V356.278Z" fill="#F9AF35"/>
<path d="M565.449 347.215L558.832 343.132V339.201L565.449 343.284V347.215Z" fill="#F9AF35"/>
<path d="M570.278 350.172L568.024 348.779V344.849L570.278 346.242V350.172Z" fill="#F9AF35"/>
<path d="M576.948 354.294L572.835 351.756V347.825L576.948 350.363V354.294Z" fill="#F9AF35"/>
<path d="M583.261 367.153L558.832 352.118V348.188L583.261 363.223V367.153Z" fill="#F9AF35"/>
<path d="M591.864 372.458L585.819 368.737V364.807L591.864 368.527V372.458Z" fill="#F9AF35"/>
<path d="M565.449 365.169L558.832 361.105V357.175L565.449 361.239V365.169Z" fill="#F9AF35"/>
<path d="M580.99 374.728L568.024 366.753V362.822L580.99 370.798V374.728Z" fill="#F9AF35"/>
<path d="M587.661 378.85L583.548 376.312V372.381L587.661 374.919V378.85Z" fill="#F9AF35"/>
<path d="M572.37 378.411L558.832 370.073V366.142L572.37 374.48V378.411Z" fill="#F9AF35"/>
<path d="M584.728 386.024L574.945 379.994V376.064L584.728 382.093V386.024Z" fill="#F9AF35"/>
<path d="M593.902 391.671L587.285 387.607V383.677L593.902 387.741V391.671Z" fill="#F9AF35"/>
<path d="M563.41 381.883L558.832 379.059V375.129L563.41 377.934V381.883Z" fill="#F9AF35"/>
<path d="M572.012 387.169L565.968 383.448V379.517L572.012 383.238V387.169Z" fill="#F9AF35"/>
<path d="M584.316 394.743L574.588 388.752V384.822L584.316 390.813V394.743Z" fill="#F9AF35"/>
<path d="M572.835 396.67L558.832 388.046V384.116L572.835 392.74V396.67Z" fill="#F9AF35"/>
<path d="M588.537 406.325L575.41 398.254V394.323L588.537 402.394V406.325Z" fill="#F9AF35"/>
<path d="M595.19 410.427L591.094 407.909V403.978L595.19 406.497V410.427Z" fill="#F9AF35"/>
<path d="M601.593 414.377L597.497 411.858V407.928L601.593 410.446V414.377Z" fill="#F9AF35"/>
<path d="M567.237 402.185L558.832 397.014V393.083L567.237 398.254V402.185Z" fill="#F9AF35"/>
<path d="M602.326 351.947L613.95 359.121V355.19L602.326 348.016V351.947Z" fill="#F9AF35"/>
<path d="M604.812 362.479L613.95 368.108V364.177L604.812 358.548V362.479Z" fill="#F9AF35"/>
<path d="M607.351 373.011L613.95 377.094V373.145L607.351 369.081V373.011Z" fill="#F9AF35"/>
<path d="M604.329 380.128L613.95 386.062V382.131L604.329 376.198V380.128Z" fill="#F9AF35"/>
<path d="M607.351 390.965L613.95 395.049V391.118L607.351 387.035V390.965Z" fill="#F9AF35"/>
<path d="M605.562 398.865L613.95 404.035V400.105L605.562 394.934V398.865Z" fill="#F9AF35"/>
<path d="M609.39 410.198L613.95 413.003V409.073L609.39 406.268V410.198Z" fill="#F9AF35"/>
<path d="M605.098 416.533L613.95 421.99V418.059L605.098 412.602V416.533Z" fill="#F9AF35"/>
<path d="M605.562 425.806L613.95 430.976V427.046L605.562 421.875V425.806Z" fill="#F9AF35"/>
<path d="M573.372 405.962L569.795 403.768V399.838L573.372 402.032V405.962Z" fill="#F9AF35"/>
<path d="M583.959 412.488L575.929 407.546V403.615L583.959 408.557V412.488Z" fill="#F9AF35"/>
<path d="M590.594 442.711L577.056 434.354V430.423L590.594 438.78V442.711Z" fill="#F9AF35"/>
<path d="M599.876 448.416L594.546 445.134V441.203L599.876 444.485V448.416Z" fill="#F9AF35"/>
<path d="M216.444 592.661L141.653 546.602C140.025 545.591 140.24 543.854 142.1 542.691L164.079 529.163L244.754 578.771L222.774 592.318C221.818 592.9 220.747 593.235 219.647 593.294C218.548 593.354 217.45 593.137 216.444 592.661V592.661Z" fill="#FCEA95"/>
<path d="M322.764 529.964V514.07H298.549L244.682 480.89C243.871 480.487 242.982 480.293 242.088 480.322C241.193 480.352 240.318 480.605 239.532 481.062L185.88 514.09H161.701V530.021C161.73 530.302 161.825 530.571 161.979 530.801C162.132 531.031 162.338 531.216 162.577 531.338L239.836 578.924C240.65 579.324 241.541 579.512 242.437 579.472C243.332 579.433 244.206 579.166 244.986 578.695L321.494 531.567C321.809 531.426 322.089 531.207 322.309 530.928C322.53 530.65 322.686 530.319 322.764 529.964V529.964Z" fill="#838383"/>
<path d="M239.854 563.106L162.631 515.54C161.307 514.719 161.486 513.307 163.006 512.372L239.532 465.244C240.312 464.773 241.185 464.507 242.081 464.467C242.977 464.427 243.868 464.615 244.682 465.015L321.941 512.601C323.264 513.403 323.085 514.834 321.565 515.769L245.058 562.896C244.268 563.368 243.384 563.633 242.479 563.669C241.575 563.706 240.675 563.513 239.854 563.106V563.106Z" fill="#838383"/>
<path d="M240.122 557.554L171.573 515.406C170.41 514.681 170.553 513.498 171.895 512.601L239.711 470.816C240.407 470.406 241.184 470.176 241.979 470.143C242.773 470.11 243.564 470.275 244.289 470.625L312.856 512.754C314.018 513.479 313.875 514.662 312.534 515.578L244.682 557.382C243.989 557.793 243.214 558.022 242.421 558.052C241.629 558.082 240.841 557.911 240.122 557.554V557.554Z" fill="#FFDD06"/>
<path d="M240.301 554.024L177.385 515.272C176.312 514.605 176.437 513.364 177.689 512.677L239.997 474.307C240.631 473.927 241.341 473.712 242.068 473.678C242.795 473.645 243.519 473.795 244.182 474.117L307.097 512.868C308.17 513.536 308.045 514.681 306.793 515.444L244.486 553.833C243.85 554.209 243.141 554.422 242.414 554.455C241.688 554.488 240.964 554.341 240.301 554.024V554.024Z" fill="#F9AF35"/>
<path d="M240.801 543.53L194.41 514.91C193.606 514.433 193.713 513.574 194.625 513.002L240.587 484.706C241.056 484.425 241.58 484.265 242.117 484.239C242.654 484.212 243.189 484.32 243.681 484.553L290.072 513.174C290.876 513.67 290.769 514.528 289.857 515.082L243.895 543.396C243.425 543.674 242.9 543.831 242.363 543.854C241.826 543.877 241.291 543.766 240.801 543.53V543.53Z" fill="#F9AF35"/>
<path d="M240.802 511.533L233.433 507.011L237.457 504.53L244.808 509.052L240.802 511.533Z" fill="#FFDD06"/>
<path d="M254.465 510.903L247.114 515.425L243.091 512.945L250.459 508.423L254.465 510.903Z" fill="#FFDD06"/>
<path d="M239.12 512.563L235.114 515.044L231.091 512.563L235.114 510.083L239.12 512.563Z" fill="#FFDD06"/>
<path d="M253.016 521.111L248.992 523.592L237.404 516.455L241.427 513.975L253.016 521.111Z" fill="#FFDD06"/>
<path d="M361.643 680.811L286.853 634.733C285.225 633.741 285.44 631.985 287.318 630.917L309.279 617.294L389.954 666.997L367.974 680.525C367.011 681.088 365.938 681.407 364.84 681.457C363.742 681.506 362.648 681.286 361.643 680.811V680.811Z" fill="#FCEA95"/>
<path d="M467.963 618.095V602.201H443.695L389.757 569.04C388.94 568.65 388.05 568.468 387.156 568.508C386.262 568.547 385.39 568.808 384.606 569.269L330.954 602.297H306.811V618.229C306.834 618.511 306.925 618.783 307.075 619.017C307.226 619.251 307.43 619.44 307.669 619.564L384.928 667.15C385.745 667.54 386.635 667.722 387.529 667.683C388.423 667.643 389.295 667.382 390.079 666.921L466.658 619.812C466.994 619.667 467.289 619.433 467.518 619.133C467.746 618.833 467.899 618.476 467.963 618.095V618.095Z" fill="#838383"/>
<path d="M385.053 651.257L307.795 603.671C306.489 602.869 306.65 601.438 308.17 600.504L384.678 553.376C385.46 552.91 386.333 552.647 387.228 552.607C388.122 552.568 389.013 552.752 389.828 553.147L467.087 600.732C468.411 601.553 468.25 602.965 466.712 603.9L390.204 651.028C389.424 651.499 388.55 651.765 387.655 651.805C386.759 651.845 385.867 651.657 385.053 651.257Z" fill="#838383"/>
<path d="M385.322 645.685L316.844 603.518C315.681 602.793 315.825 601.61 317.184 600.694L385 558.927C385.69 558.511 386.464 558.275 387.256 558.238C388.049 558.202 388.838 558.366 389.56 558.718L458.038 600.904C459.218 601.61 459.057 602.812 457.716 603.709L389.9 645.494C389.203 645.904 388.427 646.134 387.632 646.167C386.837 646.2 386.046 646.035 385.322 645.685V645.685Z" fill="#FFDD06"/>
<path d="M385.501 642.155L322.585 603.404C321.512 602.736 321.637 601.591 322.889 600.809L385.197 562.439C385.836 562.062 386.548 561.849 387.277 561.816C388.006 561.783 388.733 561.931 389.399 562.248L452.351 600.999C453.442 601.667 453.299 602.908 452.047 603.594L389.757 641.964C389.113 642.354 388.391 642.575 387.65 642.608C386.91 642.641 386.173 642.486 385.501 642.155V642.155Z" fill="#F9AF35"/>
<path d="M386.001 631.661L339.682 603.175C338.895 602.698 338.984 601.839 339.896 601.267L385.858 572.952C386.327 572.67 386.852 572.51 387.39 572.487C387.928 572.464 388.463 572.577 388.952 572.818L435.361 601.438C436.148 601.915 436.041 602.774 435.129 603.346L389.185 631.642C388.695 631.919 388.15 632.066 387.595 632.069C387.041 632.072 386.494 631.932 386.001 631.661V631.661Z" fill="#F9AF35"/>
<path d="M386.001 599.664L378.651 595.142L382.657 592.661L390.007 597.202L386.001 599.664Z" fill="#FFDD06"/>
<path d="M399.665 599.034L392.314 603.556L388.291 601.095L395.659 596.554L399.665 599.034Z" fill="#FFDD06"/>
<path d="M384.32 600.694L380.314 603.174L376.29 600.694L380.314 598.233L384.32 600.694Z" fill="#FFDD06"/>
<path d="M398.216 609.242L394.192 611.722L382.621 604.587L386.627 602.125L398.216 609.242Z" fill="#FFDD06"/>
</g>
<defs>
<filter id="filter0_d_1200_259" x="0" y="0.433716" width="1199" height="737.566" filterUnits="userSpaceOnUse" color-interpolation-filters="sRGB">
<feFlood flood-opacity="0" result="BackgroundImageFix"/>
<feColorMatrix in="SourceAlpha" type="matrix" values="0 0 0 0 0 0 0 0 0 0 0 0 0 0 0 0 0 0 127 0" result="hardAlpha"/>
<feOffset dy="4"/>
<feGaussianBlur stdDeviation="2"/>
<feComposite in2="hardAlpha" operator="out"/>
<feColorMatrix type="matrix" values="0 0 0 0 0 0 0 0 0 0 0 0 0 0 0 0 0 0 0.25 0"/>
<feBlend mode="normal" in2="BackgroundImageFix" result="effect1_dropShadow_1200_259"/>
<feBlend mode="normal" in="SourceGraphic" in2="effect1_dropShadow_1200_259" result="shape"/>
</filter>
<linearGradient id="paint0_linear_1200_259" x1="367.027" y1="264.025" x2="1001.21" y2="264.025" gradientUnits="userSpaceOnUse">
<stop stop-color="#FFDD06"/>
<stop offset="1" stop-color="#F9AF35"/>
</linearGradient>
<linearGradient id="paint1_linear_1200_259" x1="153917" y1="36388.6" x2="202828" y2="36388.6" gradientUnits="userSpaceOnUse">
<stop stop-color="#FFDD06"/>
<stop offset="1" stop-color="#F9AF35"/>
</linearGradient>
<linearGradient id="paint2_linear_1200_259" x1="26037" y1="116475" x2="412766" y2="116475" gradientUnits="userSpaceOnUse">
<stop stop-color="#FFDD06"/>
<stop offset="1" stop-color="#F9AF35"/>
</linearGradient>
<linearGradient id="paint3_linear_1200_259" x1="26351.6" y1="14263.5" x2="28697.7" y2="14263.5" gradientUnits="userSpaceOnUse">
<stop stop-color="#FFDD06"/>
<stop offset="1" stop-color="#F9AF35"/>
</linearGradient>
<linearGradient id="paint4_linear_1200_259" x1="548.799" y1="191.12" x2="633.39" y2="191.12" gradientUnits="userSpaceOnUse">
<stop stop-color="white"/>
<stop offset="0.04" stop-color="#F7F7F7"/>
<stop offset="1"/>
</linearGradient>
<linearGradient id="paint5_linear_1200_259" x1="12915.2" y1="3454.44" x2="13779.2" y2="3454.44" gradientUnits="userSpaceOnUse">
<stop stop-color="white"/>
<stop offset="0.04" stop-color="#F7F7F7"/>
<stop offset="1"/>
</linearGradient>
<linearGradient id="paint6_linear_1200_259" x1="23118.1" y1="2476.58" x2="23982.9" y2="2476.58" gradientUnits="userSpaceOnUse">
<stop stop-color="#FFDD06"/>
<stop offset="1" stop-color="#F9AF35"/>
</linearGradient>
<linearGradient id="paint7_linear_1200_259" x1="15503.6" y1="13397.1" x2="17305.2" y2="13397.1" gradientUnits="userSpaceOnUse">
<stop stop-color="#FFDD06"/>
<stop offset="1" stop-color="#F9AF35"/>
</linearGradient>
<linearGradient id="paint8_linear_1200_259" x1="13231.2" y1="12522.9" x2="15031.7" y2="12522.9" gradientUnits="userSpaceOnUse">
<stop stop-color="#FFDD06"/>
<stop offset="1" stop-color="#F9AF35"/>
</linearGradient>
<linearGradient id="paint9_linear_1200_259" x1="8698.04" y1="10831.4" x2="10499.7" y2="10831.4" gradientUnits="userSpaceOnUse">
<stop stop-color="white"/>
<stop offset="0.04" stop-color="#F7F7F7"/>
<stop offset="1"/>
</linearGradient>
<linearGradient id="paint10_linear_1200_259" x1="8629.37" y1="8806.41" x2="9897.43" y2="8806.41" gradientUnits="userSpaceOnUse">
<stop stop-color="#FFDD06"/>
<stop offset="1" stop-color="#F9AF35"/>
</linearGradient>
<linearGradient id="paint11_linear_1200_259" x1="12059.8" y1="10047.6" x2="13322.1" y2="10047.6" gradientUnits="userSpaceOnUse">
<stop stop-color="#FFDD06"/>
<stop offset="1" stop-color="#F9AF35"/>
</linearGradient>
<linearGradient id="paint12_linear_1200_259" x1="12143.2" y1="10102.4" x2="13028.7" y2="10102.4" gradientUnits="userSpaceOnUse">
<stop stop-color="#FFDD06"/>
<stop offset="1" stop-color="#F9AF35"/>
</linearGradient>
<linearGradient id="paint13_linear_1200_259" x1="17682.5" y1="9495.72" x2="18546.5" y2="9495.72" gradientUnits="userSpaceOnUse">
<stop stop-color="#FFDD06"/>
<stop offset="1" stop-color="#F9AF35"/>
</linearGradient>
<linearGradient id="paint14_linear_1200_259" x1="778.876" y1="338.228" x2="876.254" y2="338.228" gradientUnits="userSpaceOnUse">
<stop stop-color="#C0D6FF"/>
<stop offset="0.3" stop-color="#C5DBFF"/>
<stop offset="0.65" stop-color="#D3E9FF"/>
<stop offset="1" stop-color="#E9FFFF"/>
</linearGradient>
<linearGradient id="paint15_linear_1200_259" x1="-45169" y1="3110.36" x2="-44822.8" y2="3110.36" gradientUnits="userSpaceOnUse">
<stop stop-color="#C0D6FF"/>
<stop offset="0.3" stop-color="#C5DBFF"/>
<stop offset="0.65" stop-color="#D3E9FF"/>
<stop offset="1" stop-color="#E9FFFF"/>
</linearGradient>
<clipPath id="clip0_1200_259">
<rect width="1191" height="729.566" fill="white" transform="translate(4 0.433716)"/>
</clipPath>
</defs>
</svg>
