<svg width="948" height="776" viewBox="0 0 948 776" fill="none" xmlns="http://www.w3.org/2000/svg">
<g clip-path="url(#clip0_183_0)">
<path opacity="0.66" d="M954.44 445.141L956.936 446.672C965.945 452.3 964.872 462.246 954.44 468.858L483.584 770.014C473.227 776.654 457.53 777.446 448.497 771.817L446.001 770.287C436.967 764.659 438.04 754.713 448.497 748.101L919.353 446.863C929.71 440.223 945.407 439.431 954.44 445.141Z" fill="url(#paint0_linear_183_0)"/>
<path opacity="0.66" d="M766.901 481.836L769.397 483.367C778.406 488.995 777.333 498.913 766.901 505.553L539.459 651.049C529.102 657.661 513.405 658.481 504.397 652.852L501.901 651.322C492.892 645.694 493.965 635.748 504.397 629.136L731.839 483.64C742.196 477 757.892 476.208 766.901 481.836Z" fill="url(#paint1_linear_183_0)"/>
<path opacity="0.66" d="M646.642 475.58L649.137 477.11C658.146 482.738 657.073 492.657 646.642 499.296L351.87 687.826C341.513 694.438 325.816 695.231 316.783 689.602L314.287 688.099C305.253 682.443 306.351 672.525 316.783 665.886L611.48 477.356C621.911 470.743 637.608 469.951 646.642 475.58Z" fill="url(#paint2_linear_183_0)"/>
<path opacity="0.66" d="M894.273 233.961L896.769 235.491C905.778 241.119 904.705 251.038 894.273 257.677L286.163 646.705C275.806 653.344 260.109 654.137 251.075 648.508L248.58 646.978C239.546 641.349 240.644 631.404 251.075 624.791L859.211 235.737C869.542 229.125 885.264 228.332 894.273 233.961Z" fill="url(#paint3_linear_183_0)"/>
<path opacity="0.66" d="M651.732 148.248L654.228 149.778C663.237 155.407 662.164 165.352 651.732 171.964L43.6218 561.019C33.2654 567.631 17.5685 568.424 8.68438 562.795L6.18885 561.265C-2.82001 555.636 -1.74693 545.718 8.68438 539.078L616.67 150.051C627.027 143.412 642.724 142.619 651.732 148.248Z" fill="url(#paint4_linear_183_0)"/>
<path opacity="0.66" d="M731.565 254.835L734.06 256.366C743.069 261.994 741.996 271.94 731.565 278.552L220.355 605.61C209.999 612.223 194.302 613.042 185.268 607.414L182.773 605.884C173.739 600.255 174.837 590.309 185.268 583.697L696.503 256.611C706.834 250.027 722.556 249.207 731.565 254.835Z" fill="url(#paint5_linear_183_0)"/>
<path opacity="0.66" d="M625.405 239.562L627.9 241.092C636.909 246.721 635.836 256.639 625.405 263.278L433.823 385.823C423.467 392.462 407.77 393.255 398.886 387.626L396.39 386.096C387.381 380.468 388.454 370.522 398.886 363.91L590.467 241.365C600.674 234.753 616.396 233.933 625.405 239.562Z" fill="url(#paint6_linear_183_0)"/>
<path d="M352.169 158.057L227.243 79.0655L352.169 0.101562L477.12 79.0929L352.169 158.057Z" fill="#838383"/>
<path d="M352.169 461.208L227.243 382.216L352.169 303.252L477.12 382.216L352.169 461.208Z" fill="white"/>
<path d="M477.12 79.0929V382.216L352.169 461.207V158.057L477.12 79.0929Z" fill="#838383"/>
<path d="M227.243 79.0656V382.216L352.169 461.208V158.057L227.243 79.0656Z" fill="#E6E634"/>
<g opacity="0.51">
<path opacity="0.51" d="M235.703 99.2028V371.67L343.709 439.95V167.456L235.703 99.2028Z" fill="#F9AF35"/>
</g>
<path d="M458.379 152.319V160.325L370.911 215.627V207.594L458.379 152.319Z" fill="#E6E634"/>
<path d="M458.379 186.2V194.205L370.911 249.508V241.475L458.379 186.2Z" fill="#E6E634"/>
<path d="M458.379 220.08V228.086L370.911 283.388V275.355L458.379 220.08Z" fill="#E6E634"/>
<path d="M458.379 253.961V261.967L370.911 317.269V309.236L458.379 253.961Z" fill="#E6E634"/>
<path d="M458.379 287.842V295.848L370.911 351.122V343.117L458.379 287.842Z" fill="#E6E634"/>
<path d="M458.379 321.723V329.728L370.911 385.031V376.998L458.379 321.723Z" fill="#E6E634"/>
<path d="M352.169 130.324L261.532 73.0272L352.169 15.7305L442.832 73.0272L352.169 130.324Z" fill="#3C3C3C"/>
<path d="M442.832 73.0272V79.9946L352.169 137.291V130.324L442.832 73.0272Z" fill="#3C3C3C"/>
<path d="M261.532 73.0272V79.9946L352.169 137.291V130.324L261.532 73.0272Z" fill="#3C3C3C"/>
<path d="M317.007 73.9288L312.99 71.415L313.339 69.3385L350.572 45.6219L355.738 48.2996L354.79 50.0756L317.007 73.9288Z" fill="#E6E634"/>
<path d="M350.772 47.5346L354.789 50.0757L357.36 48.4363L350.772 44.2559L310.419 69.7757L313.014 71.4151L350.772 47.5346Z" fill="#E6E634"/>
<path d="M329.21 81.6339L325.193 79.0929L325.517 77.0163L362.75 53.2998L367.941 56.0048L366.968 57.7535L329.21 81.6339Z" fill="#E6E634"/>
<path d="M362.95 55.2124L366.968 57.7535L369.563 56.1141L362.95 51.9609L322.597 77.4535L325.193 79.0929L362.95 55.2124Z" fill="#E6E634"/>
<path d="M341.388 89.3118L337.371 86.7707L337.695 84.6942L374.953 60.9777L380.119 63.6827L379.146 65.4313L341.388 89.3118Z" fill="#E6E634"/>
<path d="M375.153 62.8902L379.146 65.4313L381.741 63.7919L375.153 59.6388L334.8 85.1313L337.371 86.7707L375.153 62.8902Z" fill="#E6E634"/>
<path d="M353.567 96.9896L349.549 94.4485L349.898 92.3719L387.132 68.6554L392.297 71.3604L391.349 73.1091L353.567 96.9896Z" fill="#E6E634"/>
<path d="M387.331 70.5681L391.349 73.1092L393.919 71.4698L387.331 67.3167L346.979 92.8092L349.574 94.4485L387.331 70.5681Z" fill="#E6E634"/>
<path d="M347.228 171.664C347.131 169.774 346.629 167.935 345.761 166.298C344.894 164.66 343.687 163.269 342.237 162.237C341.729 161.839 341.132 161.595 340.509 161.533C339.887 161.471 339.26 161.591 338.694 161.882L335.175 164.123H337.346C337.319 164.514 337.319 164.906 337.346 165.297C337.441 167.188 337.943 169.027 338.81 170.665C339.677 172.303 340.886 173.694 342.337 174.724C342.668 174.945 343.02 175.128 343.385 175.27L342.387 177.32L345.831 175.134C346.315 174.735 346.698 174.206 346.943 173.598C347.188 172.991 347.286 172.325 347.228 171.664Z" fill="#FFDD06"/>
<path d="M343.684 173.932C343.684 177.402 341.463 178.823 338.693 177.074C337.242 176.044 336.034 174.653 335.166 173.015C334.299 171.377 333.797 169.538 333.702 167.647C333.702 164.177 335.948 162.784 338.693 164.505C340.143 165.537 341.35 166.928 342.217 168.566C343.085 170.203 343.587 172.042 343.684 173.932Z" fill="#F9AF35"/>
<path d="M341.563 172.62C341.563 174.615 340.29 175.352 338.718 174.423C337.88 173.825 337.183 173.018 336.684 172.068C336.185 171.119 335.899 170.053 335.848 168.959C335.848 166.964 337.121 166.226 338.718 167.155C339.552 167.757 340.244 168.565 340.739 169.515C341.233 170.464 341.516 171.528 341.563 172.62Z" fill="#FFDD06"/>
<path d="M242.441 101.17C242.344 99.2799 241.841 97.4415 240.974 95.8038C240.107 94.166 238.899 92.775 237.45 91.7435C236.939 91.35 236.343 91.1101 235.721 91.0478C235.099 90.9854 234.473 91.1028 233.906 91.3883L230.387 93.6288H232.583C232.545 94.0193 232.545 94.4132 232.583 94.8037C232.674 96.6953 233.174 98.5361 234.042 100.175C234.91 101.814 236.12 103.204 237.574 104.23C237.914 104.452 238.274 104.635 238.647 104.777L237.624 106.853L241.068 104.64C241.548 104.238 241.926 103.708 242.167 103.1C242.407 102.493 242.501 101.829 242.441 101.17Z" fill="#FFDD06"/>
<path d="M238.897 103.602C238.897 107.072 236.676 108.465 233.906 106.744C232.456 105.712 231.249 104.321 230.382 102.684C229.514 101.046 229.012 99.2075 228.915 97.3175C228.915 93.8474 231.136 92.4266 233.906 94.1753C235.358 95.2036 236.568 96.5938 237.435 98.2322C238.303 99.8707 238.804 101.711 238.897 103.602Z" fill="#F9AF35"/>
<path d="M236.801 102.126C236.801 104.121 235.503 104.859 233.931 103.93C233.095 103.328 232.4 102.521 231.902 101.571C231.403 100.622 231.115 99.5583 231.061 98.4651C231.061 96.4705 232.359 95.7328 233.931 96.6617C234.766 97.2631 235.461 98.0709 235.96 99.02C236.458 99.9692 236.746 101.033 236.801 102.126Z" fill="#FFDD06"/>
<path d="M347.228 443.174C347.135 441.283 346.634 439.443 345.767 437.805C344.899 436.166 343.69 434.776 342.237 433.748C341.731 433.345 341.136 433.097 340.513 433.03C339.89 432.962 339.262 433.078 338.694 433.365L335.175 435.633H337.346C337.318 436.024 337.318 436.417 337.346 436.808C337.445 438.698 337.948 440.535 338.815 442.173C339.682 443.81 340.889 445.201 342.337 446.234C342.674 446.436 343.024 446.61 343.385 446.754L342.387 448.83L345.831 446.617C346.315 446.224 346.699 445.7 346.943 445.097C347.188 444.494 347.286 443.831 347.228 443.174Z" fill="#FFDD06"/>
<path d="M343.684 445.442C343.684 448.912 341.463 450.306 338.693 448.584C337.245 447.551 336.039 446.16 335.172 444.522C334.305 442.885 333.801 441.047 333.702 439.158C333.702 435.687 335.948 434.267 338.693 436.015C340.146 437.044 341.355 438.434 342.223 440.072C343.09 441.711 343.591 443.551 343.684 445.442Z" fill="#F9AF35"/>
<path d="M341.563 444.103C341.563 446.098 340.29 446.836 338.718 445.907C337.874 445.315 337.173 444.51 336.673 443.558C336.174 442.607 335.891 441.538 335.848 440.442C335.848 438.447 337.121 437.71 338.718 438.611C339.554 439.217 340.247 440.03 340.742 440.984C341.236 441.939 341.517 443.007 341.563 444.103Z" fill="#FFDD06"/>
<path d="M242.441 372.681C242.347 370.789 241.847 368.949 240.979 367.311C240.112 365.673 238.902 364.282 237.45 363.254C236.943 362.851 236.348 362.603 235.725 362.536C235.102 362.468 234.474 362.584 233.906 362.871L230.387 365.139H232.583C232.543 365.53 232.543 365.924 232.583 366.314C232.68 368.204 233.183 370.043 234.05 371.68C234.917 373.318 236.125 374.709 237.574 375.741C237.915 375.954 238.274 376.128 238.647 376.26L237.624 378.336L241.068 376.123C241.55 375.729 241.93 375.204 242.17 374.601C242.411 373.997 242.504 373.335 242.441 372.681Z" fill="#FFDD06"/>
<path d="M238.897 374.948C238.897 378.418 236.676 379.812 233.906 378.09C232.456 377.059 231.249 375.668 230.382 374.03C229.514 372.392 229.012 370.554 228.915 368.664C228.915 365.194 231.136 363.773 233.906 365.522C235.358 366.55 236.568 367.94 237.435 369.579C238.303 371.217 238.804 373.057 238.897 374.948Z" fill="#F9AF35"/>
<path d="M236.801 373.609C236.801 375.604 235.503 376.342 233.931 375.413C233.091 374.816 232.393 374.01 231.894 373.059C231.395 372.109 231.109 371.043 231.061 369.948C231.061 367.953 232.359 367.216 233.931 368.145C234.771 368.741 235.469 369.548 235.968 370.498C236.467 371.448 236.752 372.515 236.801 373.609Z" fill="#FFDD06"/>
<g opacity="0.51">
<path opacity="0.51" d="M227.243 334.319L352.169 251.721V158.057L227.243 79.0656V334.319Z" fill="#FFDD06"/>
</g>
<path d="M511.583 201.473V504.761L386.632 425.797V377.735L395.092 372.134V150.816C394.462 150.737 393.857 150.504 393.32 150.133C391.868 149.105 390.658 147.715 389.791 146.076C388.923 144.438 388.422 142.598 388.329 140.707C388.26 140.025 388.363 139.336 388.627 138.715C388.891 138.093 389.306 137.563 389.827 137.182H389.951L393.32 135.023C393.88 134.723 394.505 134.597 395.125 134.66C395.746 134.723 396.339 134.971 396.839 135.379C398.254 136.394 399.435 137.754 400.292 139.351C401.149 140.947 401.658 142.739 401.78 144.587C401.792 145.289 401.673 145.986 401.431 146.636L496.136 206.501L498.058 205.271C498.626 204.984 499.254 204.868 499.877 204.936C500.5 205.003 501.095 205.251 501.601 205.654C503.054 206.682 504.263 208.072 505.131 209.711C505.998 211.349 506.499 213.189 506.592 215.08C506.664 215.759 506.565 216.446 506.305 217.068C506.046 217.689 505.636 218.221 505.12 218.605L503.074 219.917V300.739L511.534 295.274L511.583 201.473Z" fill="#E6E634"/>
<g opacity="0.51">
<path opacity="0.51" d="M503.049 210.927V483.394L500.454 481.754L500.429 481.727L496.71 479.377L496.336 479.131L495.687 478.749L495.388 478.53L401.082 418.938L398.137 417.08L395.941 415.687L395.042 415.113V142.647L395.492 142.947L397.912 144.45L401.431 146.69L496.136 206.555L503.049 210.927Z" fill="#F9AF35"/>
</g>
<g opacity="0.51">
<path opacity="0.51" d="M511.584 201.473V295.165L503.124 300.629V219.944L505.17 218.632C505.686 218.248 506.096 217.716 506.355 217.095C506.615 216.474 506.714 215.786 506.642 215.108C506.549 213.217 506.048 211.377 505.181 209.738C504.313 208.1 503.104 206.709 501.651 205.681C501.145 205.278 500.55 205.03 499.927 204.963C499.304 204.896 498.676 205.012 498.108 205.299L496.186 206.528L401.431 146.663C401.677 146.005 401.796 145.298 401.78 144.587C401.683 142.696 401.181 140.858 400.313 139.22C399.446 137.583 398.239 136.192 396.789 135.16C396.289 134.753 395.696 134.504 395.075 134.442C394.455 134.379 393.83 134.505 393.271 134.805L389.902 136.963H389.777C389.256 137.344 388.842 137.875 388.578 138.496C388.313 139.118 388.21 139.807 388.279 140.488C388.373 142.379 388.874 144.219 389.741 145.858C390.609 147.496 391.818 148.886 393.271 149.915C393.807 150.285 394.412 150.519 395.042 150.598V371.915L386.583 377.517V122.509L511.584 201.473Z" fill="#838383"/>
<path opacity="0.51" d="M506.592 215.108C506.664 215.786 506.565 216.474 506.305 217.095C506.046 217.716 505.636 218.248 505.12 218.632L503.074 219.944V300.766L395.042 372.134V150.816C394.412 150.737 393.807 150.504 393.27 150.133C391.818 149.105 390.608 147.715 389.741 146.076C388.873 144.438 388.373 142.598 388.279 140.707C388.21 140.025 388.313 139.336 388.577 138.715C388.842 138.093 389.256 137.563 389.777 137.182H389.902L393.27 135.023C393.83 134.723 394.455 134.597 395.075 134.66C395.696 134.723 396.289 134.971 396.789 135.379C398.213 136.388 399.404 137.745 400.27 139.342C401.136 140.94 401.653 142.734 401.78 144.587C401.792 145.289 401.673 145.986 401.431 146.636L496.136 206.501L498.058 205.271C498.626 204.984 499.254 204.868 499.877 204.936C500.5 205.003 501.095 205.251 501.601 205.654C503.057 206.685 504.269 208.079 505.136 209.723C506.004 211.366 506.503 213.212 506.592 215.108Z" fill="#FFDD06"/>
</g>
<path d="M506.592 215.108C506.664 215.786 506.565 216.474 506.305 217.095C506.046 217.716 505.636 218.248 505.12 218.632L503.074 219.944L501.676 220.846L502.674 218.824C502.303 218.709 501.944 218.554 501.601 218.359C501.248 218.139 500.913 217.882 500.603 217.594C498.571 215.678 497.205 213.053 496.735 210.162C496.699 209.708 496.699 209.251 496.735 208.796C496.695 208.406 496.695 208.012 496.735 207.621H494.589L496.186 206.583L498.108 205.353C498.676 205.066 499.304 204.95 499.927 205.018C500.55 205.085 501.145 205.333 501.651 205.736C503.088 206.765 504.284 208.149 505.142 209.777C506 211.405 506.497 213.231 506.592 215.108Z" fill="#FFDD06"/>
<path d="M503.024 217.375C503.024 220.846 500.803 222.266 498.033 220.518C496.581 219.489 495.371 218.099 494.503 216.461C493.636 214.822 493.135 212.982 493.042 211.091C493.042 207.621 495.263 206.228 498.033 207.949C499.483 208.98 500.69 210.371 501.557 212.009C502.424 213.647 502.927 215.485 503.024 217.375Z" fill="#F9AF35"/>
<path d="M500.928 216.064C500.928 218.059 499.63 218.796 498.058 217.867C497.225 217.264 496.534 216.456 496.04 215.506C495.546 214.557 495.263 213.494 495.213 212.403C495.213 210.408 496.486 209.67 498.058 210.599C498.895 211.199 499.591 212.007 500.089 212.956C500.588 213.905 500.875 214.97 500.928 216.064Z" fill="#FFDD06"/>
<path d="M401.78 144.587C401.792 145.289 401.673 145.986 401.431 146.636C401.232 147.26 400.833 147.784 400.308 148.111L396.864 150.297L397.862 148.275C397.485 148.155 397.124 147.981 396.789 147.756C396.435 147.536 396.101 147.279 395.791 146.991C395.515 146.758 395.257 146.502 395.017 146.226C393.424 144.428 392.348 142.157 391.923 139.696C391.887 139.241 391.887 138.784 391.923 138.33C391.884 137.939 391.884 137.545 391.923 137.155H389.777H389.901L393.27 134.996C393.83 134.696 394.455 134.57 395.075 134.633C395.696 134.696 396.289 134.944 396.789 135.351C398.216 136.364 399.409 137.725 400.275 139.327C401.141 140.929 401.656 142.73 401.78 144.587Z" fill="#FFDD06"/>
<path d="M398.237 146.882C398.301 147.53 398.211 148.185 397.974 148.784C397.738 149.383 397.364 149.904 396.889 150.297C396.624 150.503 396.323 150.646 396.005 150.716C395.687 150.787 395.359 150.784 395.042 150.707C394.412 150.628 393.807 150.395 393.27 150.024C391.818 148.996 390.608 147.605 389.741 145.967C388.873 144.328 388.373 142.488 388.279 140.597C388.21 139.916 388.313 139.227 388.577 138.606C388.842 137.984 389.256 137.454 389.777 137.073H389.902C390.452 136.85 391.043 136.775 391.626 136.856C392.208 136.937 392.764 137.171 393.246 137.537C395.514 139.166 397.163 141.643 397.887 144.505C398.092 145.278 398.209 146.077 398.237 146.882Z" fill="#F9AF35"/>
<path d="M396.14 145.57C396.14 147.565 394.868 148.302 393.27 147.373C392.438 146.771 391.747 145.962 391.253 145.013C390.759 144.063 390.475 143 390.426 141.909C390.426 139.914 391.698 139.176 393.27 140.105C394.109 140.704 394.806 141.511 395.305 142.46C395.804 143.41 396.09 144.476 396.14 145.57Z" fill="#FFDD06"/>
<path d="M506.592 486.618C506.499 484.727 505.998 482.887 505.131 481.249C504.263 479.61 503.054 478.22 501.601 477.192C501.1 476.788 500.509 476.54 499.89 476.473C499.271 476.405 498.647 476.521 498.083 476.809L494.564 479.077H496.735C496.695 479.467 496.695 479.861 496.735 480.252C496.832 482.142 497.335 483.98 498.202 485.618C499.069 487.256 500.276 488.647 501.726 489.678C502.072 489.88 502.43 490.054 502.799 490.197L501.776 492.274L505.22 490.061C505.704 489.668 506.085 489.144 506.326 488.54C506.566 487.936 506.658 487.273 506.592 486.618Z" fill="#FFDD06"/>
<path d="M503.024 488.859C503.024 492.329 500.803 493.722 498.033 492.001C496.583 490.969 495.376 489.578 494.509 487.94C493.642 486.303 493.139 484.464 493.042 482.574C493.042 479.104 495.263 477.683 498.033 479.432C499.486 480.46 500.695 481.851 501.563 483.489C502.43 485.128 502.931 486.968 503.024 488.859Z" fill="#F9AF35"/>
<path d="M500.928 487.547C500.928 489.542 499.63 490.279 498.058 489.35C497.221 488.752 496.527 487.945 496.032 486.994C495.537 486.044 495.257 484.978 495.213 483.886C495.213 481.891 496.486 481.153 498.058 482.055C498.897 482.659 499.594 483.471 500.092 484.425C500.591 485.38 500.877 486.449 500.928 487.547Z" fill="#FFDD06"/>
<path d="M636.46 121.498L511.534 200.462L386.583 121.498L511.509 42.5344L636.46 121.498Z" fill="#838383"/>
<path d="M511.583 200.435V503.722L636.36 424.622V121.334L511.583 200.435ZM617.768 372.134L530.425 427.409V419.403L617.768 364.128V372.134ZM617.768 338.253L530.425 393.528V385.522L617.768 330.247V338.253ZM617.768 304.372L530.425 359.647V351.642L617.768 296.367V304.372ZM617.768 270.492L530.425 325.766V317.761L617.768 262.486V270.492ZM617.768 236.611L530.425 291.886V283.935L617.768 228.66V236.611ZM617.768 202.73L530.425 258.005V249.999L617.768 194.725V202.73Z" fill="#838383"/>
<g opacity="0.51">
<path opacity="0.51" d="M387.306 377.489L512.232 294.919V201.228L387.306 122.264V377.489Z" fill="#FFDD06"/>
</g>
<path d="M617.719 194.752V202.758L530.275 258.032V250.027L617.719 194.752Z" fill="#838383"/>
<path d="M617.719 228.633V236.638L530.275 291.913V283.907L617.719 228.633Z" fill="#838383"/>
<path d="M617.719 262.513V270.519L530.275 325.794V317.788L617.719 262.513Z" fill="#838383"/>
<path d="M617.719 296.394V304.4L530.275 359.675V351.669L617.719 296.394Z" fill="#838383"/>
<path d="M617.719 330.275V338.281L530.275 393.555V385.55L617.719 330.275Z" fill="#838383"/>
<path d="M617.719 364.156V372.161L530.275 427.436V419.43L617.719 364.156Z" fill="#838383"/>
<path d="M617.719 194.752V202.758L530.275 258.032V250.027L617.719 194.752Z" fill="#E6E634"/>
<path d="M617.719 228.633V236.638L530.275 291.913V283.907L617.719 228.633Z" fill="#E6E634"/>
<path d="M617.719 262.513V270.519L530.275 325.794V317.788L617.719 262.513Z" fill="#E6E634"/>
<path d="M617.719 296.394V304.4L530.275 359.675V351.669L617.719 296.394Z" fill="#E6E634"/>
<path d="M617.719 330.275V338.281L530.275 393.555V385.55L617.719 330.275Z" fill="#E6E634"/>
<path d="M617.719 364.156V372.161L530.275 427.436V419.43L617.719 364.156Z" fill="#E6E634"/>
<path d="M476.946 118.384L472.928 115.87L473.252 113.793L510.485 90.0768L515.651 92.7545L514.703 94.5305L476.946 118.384Z" fill="#E6E634"/>
<path d="M510.685 91.9894L514.703 94.5304L517.273 92.891L510.685 88.7106L470.333 114.23L472.928 115.87L510.685 91.9894Z" fill="#E6E634"/>
<path d="M489.124 126.061L485.106 123.52L485.43 121.471L522.689 97.7546L527.854 100.432L526.881 102.208L489.124 126.061Z" fill="#E6E634"/>
<path d="M522.888 99.6672L526.881 102.208L529.477 100.569L522.888 96.3884L482.536 121.908L485.106 123.548L522.888 99.6672Z" fill="#E6E634"/>
<path d="M501.302 133.739L497.284 131.225L497.634 129.149L534.867 105.432L540.033 108.11L539.059 109.886L501.302 133.739Z" fill="#E6E634"/>
<path d="M535.067 107.345L539.059 109.886L541.655 108.247L535.067 104.066L494.714 129.586L497.309 131.226L535.067 107.345Z" fill="#E6E634"/>
<path d="M513.505 141.444L509.487 138.903L509.812 136.827L547.045 113.11L552.211 115.788L551.263 117.564L513.505 141.444Z" fill="#E6E634"/>
<path d="M547.245 115.023L551.263 117.564L553.858 115.924L547.245 111.744L506.892 137.264L509.487 138.903L547.245 115.023Z" fill="#E6E634"/>
<path d="M401.78 416.124C401.685 414.234 401.183 412.394 400.316 410.756C399.449 409.118 398.24 407.728 396.789 406.698C396.288 406.294 395.697 406.046 395.078 405.979C394.459 405.911 393.834 406.028 393.27 406.315L389.752 408.583H391.923C391.895 408.974 391.895 409.367 391.923 409.758C392.02 411.648 392.522 413.486 393.39 415.124C394.257 416.762 395.464 418.153 396.914 419.184C397.254 419.398 397.614 419.572 397.987 419.704L396.964 421.78L400.433 419.567C400.914 419.173 401.291 418.648 401.528 418.043C401.765 417.439 401.852 416.777 401.78 416.124Z" fill="#FFDD06"/>
<path d="M398.261 418.392C398.261 421.862 396.015 423.283 393.27 421.534C391.821 420.503 390.613 419.112 389.746 417.474C388.879 415.836 388.376 413.998 388.279 412.108C388.279 408.638 390.5 407.217 393.27 408.966C394.719 409.999 395.925 411.39 396.792 413.027C397.659 414.665 398.162 416.503 398.261 418.392Z" fill="#F9AF35"/>
<path d="M396.14 417.053C396.14 419.048 394.868 419.786 393.27 418.857C392.434 418.259 391.739 417.451 391.245 416.501C390.75 415.55 390.469 414.485 390.426 413.392C390.426 411.397 391.698 410.66 393.27 411.589C394.114 412.18 394.816 412.986 395.316 413.937C395.815 414.888 396.098 415.957 396.14 417.053Z" fill="#FFDD06"/>
<path d="M512.108 174.779L421.445 117.482L512.083 60.1852L602.745 117.482L512.108 174.779Z" fill="#3C3C3C"/>
<path d="M602.745 117.482V124.449L512.108 181.746V174.779L602.745 117.482Z" fill="#3C3C3C"/>
<path d="M421.445 117.482V124.449L512.108 181.746V174.779L421.445 117.482Z" fill="#3C3C3C"/>
<path d="M476.372 117.4L472.354 114.859L472.678 112.782L509.937 89.0658L515.102 91.7708L514.129 93.5195L476.372 117.4Z" fill="#E6E634"/>
<path d="M510.111 90.9785L514.129 93.5195L516.724 91.8802L510.111 87.6997L469.783 113.22L472.354 114.859L510.111 90.9785Z" fill="#E6E634"/>
<path d="M488.55 125.078L484.532 122.537L484.856 120.46L522.115 96.7437L527.28 99.4486L526.307 101.197L488.55 125.078Z" fill="#E6E634"/>
<path d="M522.314 98.6562L526.307 101.197L528.903 99.5579L522.314 95.4048L481.962 120.897L484.532 122.537L522.314 98.6562Z" fill="#E6E634"/>
<path d="M500.753 132.756L496.71 130.214L497.06 128.138L534.293 104.421L539.459 107.126L538.51 108.875L500.753 132.756Z" fill="#E6E634"/>
<path d="M534.493 106.334L538.51 108.875L541.081 107.236L534.493 103.083L494.14 128.575L496.735 130.215L534.493 106.334Z" fill="#E6E634"/>
<path d="M512.931 140.433L508.913 137.892L509.238 135.816L546.496 112.099L551.662 114.804L550.688 116.553L512.931 140.433Z" fill="#E6E634"/>
<path d="M546.671 114.012L550.689 116.553L553.284 114.914L546.671 110.76L506.343 136.253L508.913 137.892L546.671 114.012Z" fill="#E6E634"/>
<path d="M434.172 246.147L410.764 231.365V225.736L434.172 240.518V246.147Z" fill="#F9AF35"/>
<path d="M446.176 253.743L437.766 248.415V242.786L446.176 248.114V253.743Z" fill="#F9AF35"/>
<path d="M455.509 259.617L449.769 256.011V250.382L455.509 253.989V259.617Z" fill="#F9AF35"/>
<path d="M423.516 252.294L410.764 244.207V238.578L423.516 246.639V252.294Z" fill="#F9AF35"/>
<path d="M442.732 264.426L427.11 254.535V248.906L442.732 258.797V264.426Z" fill="#F9AF35"/>
<path d="M452.04 270.3L446.301 266.694V261.065L452.04 264.672V270.3Z" fill="#F9AF35"/>
<path d="M460.899 275.902L455.16 272.295V266.667L460.899 270.273V275.902Z" fill="#F9AF35"/>
<path d="M419.998 262.923L410.764 257.076V251.448L419.998 257.295V262.923Z" fill="#F9AF35"/>
<path d="M426.736 267.158L423.566 265.164V259.535L426.736 261.53V267.158Z" fill="#F9AF35"/>
<path d="M436.044 273.06L430.304 269.426V263.797L436.044 267.431V273.06Z" fill="#F9AF35"/>
<path d="M444.828 291.476L410.764 269.945V264.317L444.828 285.847V291.476Z" fill="#F9AF35"/>
<path d="M456.857 299.072L448.422 293.744V288.115L456.857 293.443V299.072Z" fill="#F9AF35"/>
<path d="M419.998 288.634L410.764 282.815V277.186L419.998 283.006V288.634Z" fill="#F9AF35"/>
<path d="M441.659 302.323L423.566 290.902V285.274L441.659 296.695V302.323Z" fill="#F9AF35"/>
<path d="M450.967 308.225L445.228 304.591V298.963L450.967 302.597V308.225Z" fill="#F9AF35"/>
<path d="M429.655 307.597L410.764 295.656V290.028L429.655 301.968V307.597Z" fill="#F9AF35"/>
<path d="M446.899 318.499L433.224 309.865V304.236L446.899 312.87V318.499Z" fill="#F9AF35"/>
<path d="M459.702 326.586L450.468 320.766V315.138L459.702 320.958V326.586Z" fill="#F9AF35"/>
<path d="M417.153 312.569L410.764 308.526V302.897L417.153 306.941V312.569Z" fill="#F9AF35"/>
<path d="M429.156 320.138L420.721 314.81V309.181L429.156 314.509V320.138Z" fill="#F9AF35"/>
<path d="M446.301 331.013L432.725 322.406V316.777L446.301 325.357V331.013Z" fill="#F9AF35"/>
<path d="M430.304 333.745L410.764 321.395V315.766L430.304 328.116V333.745Z" fill="#F9AF35"/>
<path d="M452.19 347.57L433.873 336.013V330.384L452.19 341.942V347.57Z" fill="#F9AF35"/>
<path d="M461.498 353.445L455.759 349.838V344.21L461.498 347.844V353.445Z" fill="#F9AF35"/>
<path d="M470.432 359.101L464.692 355.494V349.866L470.432 353.472V359.101Z" fill="#F9AF35"/>
<path d="M422.468 341.641L410.764 334.264V328.608L422.468 336.013V341.641Z" fill="#F9AF35"/>
<path d="M471.431 269.699L487.677 279.973V274.344L471.431 264.071V269.699Z" fill="#F9AF35"/>
<path d="M474.924 284.782L487.676 292.842V287.213L474.924 279.153V284.782Z" fill="#F9AF35"/>
<path d="M478.443 299.864L487.676 305.684V300.055L478.443 294.236V299.864Z" fill="#F9AF35"/>
<path d="M474.25 310.056L487.676 318.553V312.925L474.25 304.454V310.056Z" fill="#F9AF35"/>
<path d="M478.443 325.575L487.676 331.423V325.794L478.443 319.947V325.575Z" fill="#F9AF35"/>
<path d="M475.972 336.887L487.676 344.292V338.663L475.972 331.259V336.887Z" fill="#F9AF35"/>
<path d="M481.288 353.117L487.676 357.134V351.505L481.288 347.488V353.117Z" fill="#F9AF35"/>
<path d="M475.323 362.188L487.676 370.003V364.374L475.323 356.56V362.188Z" fill="#F9AF35"/>
<path d="M475.972 375.467L487.676 382.872V377.243L475.972 369.839V375.467Z" fill="#F9AF35"/>
<path d="M431.028 347.051L426.037 343.909V338.281L431.028 341.423V347.051Z" fill="#F9AF35"/>
<path d="M445.826 356.396L434.596 349.319V343.691L445.826 350.767V356.396Z" fill="#F9AF35"/>
<path d="M455.085 399.676L436.169 387.708V382.08L455.085 394.047V399.676Z" fill="#F9AF35"/>
<path d="M468.037 407.873L460.6 403.146V397.517L468.037 402.244V407.873Z" fill="#F9AF35"/>
<path d="M668.702 363.145L543.776 284.181L668.702 205.189L793.628 284.181L668.702 363.145Z" fill="#838383"/>
<path d="M668.702 666.295L543.776 587.304L668.702 508.34L793.628 587.331L668.702 666.295Z" fill="white"/>
<path d="M793.628 284.181V587.331L668.702 666.295V363.145L793.628 284.181Z" fill="#838383"/>
<path d="M543.776 284.181V587.304L668.702 666.295V363.145L543.776 284.181Z" fill="#E6E634"/>
<g opacity="0.51">
<path opacity="0.51" d="M552.236 304.291V576.757L660.242 645.038V372.544L552.236 304.291Z" fill="#F9AF35"/>
</g>
<path d="M774.887 357.407V365.44L687.443 420.715V412.681L774.887 357.407Z" fill="#E6E634"/>
<path d="M774.887 391.287V399.293L687.443 454.595V446.562L774.887 391.287Z" fill="#E6E634"/>
<path d="M774.887 425.168V433.174L687.443 488.476V480.443L774.887 425.168Z" fill="#E6E634"/>
<path d="M774.887 459.049V467.055L687.443 522.357V514.324L774.887 459.049Z" fill="#E6E634"/>
<path d="M774.887 492.93V500.935L687.443 556.238V548.205L774.887 492.93Z" fill="#E6E634"/>
<path d="M774.887 526.811V534.816L687.443 590.118V582.085L774.887 526.811Z" fill="#E6E634"/>
<path d="M668.702 335.412L578.064 278.115L668.702 220.818L759.365 278.115L668.702 335.412Z" fill="#3C3C3C"/>
<path d="M759.365 278.115V285.082L668.702 342.379V335.411L759.365 278.115Z" fill="#3C3C3C"/>
<path d="M578.064 278.115V285.082L668.702 342.379V335.411L578.064 278.115Z" fill="#3C3C3C"/>
<path d="M633.54 279.044L629.522 276.503L629.872 274.426L667.105 250.71L672.271 253.415L671.323 255.163L633.54 279.044Z" fill="#E6E634"/>
<path d="M667.305 252.622L671.322 255.163L673.893 253.524L667.305 249.344L626.952 274.863L629.547 276.503L667.305 252.622Z" fill="#E6E634"/>
<path d="M645.743 286.722L641.726 284.181L642.05 282.104L679.283 258.388L684.474 261.093L683.501 262.841L645.743 286.722Z" fill="#E6E634"/>
<path d="M679.483 260.3L683.501 262.841L686.096 261.202L679.483 257.021L639.13 282.541L641.725 284.181L679.483 260.3Z" fill="#E6E634"/>
<path d="M657.922 294.4L653.904 291.858L654.228 289.782L691.486 266.065L696.652 268.77L695.679 270.519L657.922 294.4Z" fill="#E6E634"/>
<path d="M691.686 267.978L695.679 270.519L698.274 268.88L691.686 264.726L651.333 290.219L653.904 291.858L691.686 267.978Z" fill="#E6E634"/>
<path d="M670.1 302.077L666.082 299.536L666.431 297.46L703.665 273.743L708.83 276.448L707.882 278.197L670.1 302.077Z" fill="#E6E634"/>
<path d="M703.864 275.656L707.882 278.197L710.452 276.558L703.864 272.405L663.511 297.897L666.107 299.536L703.864 275.656Z" fill="#E6E634"/>
<path d="M663.811 376.834C663.714 374.944 663.211 373.105 662.344 371.467C661.477 369.83 660.27 368.439 658.82 367.407C658.311 367.008 657.715 366.765 657.092 366.703C656.469 366.64 655.842 366.761 655.276 367.052L651.758 369.292H653.929C653.903 369.683 653.903 370.076 653.929 370.467C654.024 372.358 654.525 374.197 655.393 375.835C656.26 377.473 657.469 378.864 658.92 379.894C659.251 380.115 659.602 380.298 659.968 380.44L658.97 382.517L662.413 380.304C662.898 379.905 663.281 379.376 663.526 378.768C663.771 378.161 663.869 377.495 663.811 376.834Z" fill="#FFDD06"/>
<path d="M660.218 379.019C660.218 382.489 657.996 383.91 655.226 382.162C653.775 381.132 652.567 379.741 651.7 378.103C650.832 376.465 650.331 374.626 650.235 372.735C650.235 369.265 652.481 367.872 655.226 369.593C656.676 370.625 657.884 372.016 658.751 373.653C659.618 375.291 660.12 377.129 660.218 379.019Z" fill="#F9AF35"/>
<path d="M658.096 377.708C658.096 379.702 656.823 380.44 655.251 379.511C654.413 378.913 653.716 378.106 653.217 377.156C652.718 376.206 652.432 375.141 652.381 374.047C652.381 372.052 653.654 371.314 655.251 372.243C656.084 372.846 656.775 373.655 657.269 374.604C657.763 375.553 658.046 376.617 658.096 377.708Z" fill="#FFDD06"/>
<path d="M558.999 306.285C558.906 304.394 558.405 302.554 557.537 300.916C556.67 299.277 555.46 297.887 554.008 296.859C553.501 296.455 552.906 296.208 552.283 296.14C551.66 296.073 551.032 296.189 550.464 296.476L546.945 298.744H549.141C549.101 299.134 549.101 299.528 549.141 299.919C549.239 301.809 549.741 303.647 550.608 305.285C551.475 306.923 552.683 308.314 554.132 309.345C554.478 309.547 554.837 309.721 555.206 309.864L554.182 311.941L557.626 309.728C558.106 309.332 558.485 308.807 558.725 308.204C558.965 307.601 559.06 306.94 558.999 306.285Z" fill="#FFDD06"/>
<path d="M555.43 308.526C555.43 311.996 553.209 313.389 550.439 311.668C548.989 310.636 547.782 309.245 546.915 307.608C546.048 305.97 545.545 304.131 545.448 302.241C545.448 298.771 547.669 297.351 550.439 299.099C551.892 300.128 553.101 301.518 553.969 303.156C554.836 304.795 555.337 306.635 555.43 308.526Z" fill="#F9AF35"/>
<path d="M553.334 307.214C553.334 309.209 552.036 309.946 550.464 309.017C549.627 308.418 548.931 307.61 548.432 306.661C547.934 305.711 547.646 304.647 547.594 303.553C547.594 301.558 548.892 300.821 550.464 301.75C551.299 302.351 551.994 303.159 552.493 304.108C552.991 305.057 553.279 306.121 553.334 307.214Z" fill="#FFDD06"/>
<path d="M663.811 648.262C663.718 646.371 663.217 644.531 662.349 642.892C661.482 641.254 660.272 639.864 658.82 638.835C658.314 638.432 657.718 638.184 657.096 638.117C656.473 638.05 655.845 638.166 655.276 638.453L651.758 640.721H653.929C653.901 641.112 653.901 641.505 653.929 641.896C654.028 643.785 654.531 645.623 655.398 647.26C656.265 648.898 657.471 650.289 658.92 651.322C659.251 651.535 659.603 651.709 659.968 651.841L658.97 653.918L662.413 651.705C662.9 651.313 663.284 650.79 663.53 650.186C663.775 649.583 663.872 648.919 663.811 648.262Z" fill="#FFDD06"/>
<path d="M660.218 650.53C660.218 654 657.996 655.394 655.226 653.672C653.778 652.639 652.572 651.248 651.705 649.61C650.838 647.973 650.334 646.135 650.235 644.245C650.235 640.775 652.481 639.355 655.226 641.103C656.679 642.132 657.888 643.522 658.756 645.16C659.623 646.799 660.124 648.639 660.218 650.53Z" fill="#F9AF35"/>
<path d="M658.096 649.191C658.096 651.185 656.823 651.923 655.251 650.994C654.407 650.403 653.706 649.597 653.206 648.646C652.707 647.695 652.424 646.626 652.381 645.53C652.381 643.535 653.654 642.797 655.251 643.726C656.088 644.324 656.782 645.132 657.277 646.082C657.772 647.032 658.052 648.098 658.096 649.191Z" fill="#FFDD06"/>
<path d="M558.999 577.768C558.902 575.878 558.399 574.04 557.532 572.402C556.665 570.764 555.457 569.373 554.008 568.342C553.501 567.939 552.906 567.691 552.283 567.623C551.66 567.556 551.032 567.672 550.464 567.959L546.945 570.227H549.141C549.101 570.617 549.101 571.011 549.141 571.402C549.239 573.292 549.741 575.13 550.608 576.768C551.475 578.406 552.683 579.797 554.132 580.828C554.473 581.042 554.832 581.216 555.206 581.348L554.182 583.424L557.626 581.211C558.108 580.817 558.488 580.292 558.728 579.688C558.969 579.085 559.062 578.423 558.999 577.768Z" fill="#FFDD06"/>
<path d="M555.43 580.036C555.43 583.506 553.209 584.927 550.439 583.178C548.987 582.15 547.777 580.76 546.909 579.121C546.042 577.483 545.541 575.643 545.448 573.752C545.448 570.282 547.669 568.888 550.439 570.609C551.889 571.641 553.096 573.032 553.963 574.67C554.83 576.308 555.333 578.146 555.43 580.036Z" fill="#F9AF35"/>
<path d="M553.334 578.697C553.334 580.692 552.036 581.429 550.464 580.5C549.624 579.904 548.926 579.097 548.427 578.147C547.928 577.197 547.642 576.131 547.594 575.036C547.594 573.041 548.892 572.304 550.464 573.233C551.304 573.829 552.002 574.636 552.501 575.586C553 576.536 553.285 577.602 553.334 578.697Z" fill="#FFDD06"/>
<g opacity="0.51">
<path opacity="0.51" d="M543.776 539.407L668.702 456.809V363.145L543.776 284.181V539.407Z" fill="#FFDD06"/>
</g>
</g>
<defs>
<linearGradient id="paint0_linear_183_0" x1="419.738" y1="736.812" x2="710.346" y2="274.974" gradientUnits="userSpaceOnUse">
<stop stop-color="#F9AF35"/>
<stop offset="0.19" stop-color="#FCC81B"/>
<stop offset="0.37" stop-color="#FED80C"/>
<stop offset="0.51" stop-color="#FFDD06"/>
<stop offset="0.64" stop-color="#FED60E"/>
<stop offset="0.85" stop-color="#FBC122"/>
<stop offset="1" stop-color="#F9AF35"/>
</linearGradient>
<linearGradient id="paint1_linear_183_0" x1="289155" y1="564536" x2="289155" y2="545529" gradientUnits="userSpaceOnUse">
<stop stop-color="#F9AF35"/>
<stop offset="0.19" stop-color="#FCC81B"/>
<stop offset="0.37" stop-color="#FED80C"/>
<stop offset="0.51" stop-color="#FFDD06"/>
<stop offset="0.64" stop-color="#FED60E"/>
<stop offset="0.85" stop-color="#FBC122"/>
<stop offset="1" stop-color="#F9AF35"/>
</linearGradient>
<linearGradient id="paint2_linear_183_0" x1="369026" y1="711309" x2="369026" y2="681730" gradientUnits="userSpaceOnUse">
<stop stop-color="#F9AF35"/>
<stop offset="0.19" stop-color="#FCC81B"/>
<stop offset="0.37" stop-color="#FED80C"/>
<stop offset="0.51" stop-color="#FFDD06"/>
<stop offset="0.64" stop-color="#FED60E"/>
<stop offset="0.85" stop-color="#FBC122"/>
<stop offset="1" stop-color="#F9AF35"/>
</linearGradient>
<linearGradient id="paint3_linear_183_0" x1="721895" y1="1.3545e+06" x2="721895" y2="1.24498e+06" gradientUnits="userSpaceOnUse">
<stop stop-color="#F9AF35"/>
<stop offset="0.19" stop-color="#FCC81B"/>
<stop offset="0.37" stop-color="#FED80C"/>
<stop offset="0.51" stop-color="#FFDD06"/>
<stop offset="0.64" stop-color="#FED60E"/>
<stop offset="0.85" stop-color="#FBC122"/>
<stop offset="1" stop-color="#F9AF35"/>
</linearGradient>
<linearGradient id="paint4_linear_183_0" x1="779500" y1="1.36324e+06" x2="779500" y2="1.25372e+06" gradientUnits="userSpaceOnUse">
<stop stop-color="#F9AF35"/>
<stop offset="0.19" stop-color="#FCC81B"/>
<stop offset="0.37" stop-color="#FED80C"/>
<stop offset="0.51" stop-color="#FFDD06"/>
<stop offset="0.64" stop-color="#FED60E"/>
<stop offset="0.85" stop-color="#FBC122"/>
<stop offset="1" stop-color="#F9AF35"/>
</linearGradient>
<linearGradient id="paint5_linear_183_0" x1="633044" y1="1.15562e+06" x2="633044" y2="1.0762e+06" gradientUnits="userSpaceOnUse">
<stop stop-color="#F9AF35"/>
<stop offset="0.19" stop-color="#FCC81B"/>
<stop offset="0.37" stop-color="#FED80C"/>
<stop offset="0.51" stop-color="#FFDD06"/>
<stop offset="0.64" stop-color="#FED60E"/>
<stop offset="0.85" stop-color="#FBC122"/>
<stop offset="1" stop-color="#F9AF35"/>
</linearGradient>
<linearGradient id="paint6_linear_183_0" x1="281509" y1="481917" x2="281509" y2="467595" gradientUnits="userSpaceOnUse">
<stop stop-color="#F9AF35"/>
<stop offset="0.19" stop-color="#FCC81B"/>
<stop offset="0.37" stop-color="#FED80C"/>
<stop offset="0.51" stop-color="#FFDD06"/>
<stop offset="0.64" stop-color="#FED60E"/>
<stop offset="0.85" stop-color="#FBC122"/>
<stop offset="1" stop-color="#F9AF35"/>
</linearGradient>
<clipPath id="clip0_183_0">
<rect width="963" height="775.459" fill="white" transform="translate(0 0.101562)"/>
</clipPath>
</defs>
</svg>
