<svg width="72" height="57" viewBox="0 0 72 57" fill="none" xmlns="http://www.w3.org/2000/svg">
<g clip-path="url(#clip0_71_13)">
<path d="M58.8442 51.422C57.9016 52.8675 58.3096 54.8039 59.7555 55.7464C61.201 56.6894 63.1374 56.2815 64.0804 54.8355C69.0894 47.153 72.0001 37.9753 72.0001 28.1272C72.0001 18.279 69.0894 9.10121 64.0804 1.41864C63.1374 -0.0271609 61.201 -0.435022 59.7555 0.507663C58.3096 1.45039 57.9016 3.38664 58.8442 4.83248C63.2116 11.5304 65.7497 19.5276 65.7497 28.1272C65.7497 36.7265 63.2116 44.7237 58.8442 51.422Z" fill="#7A9757"/>
<path d="M12.2448 0.507663C13.6906 1.45035 14.0985 3.38664 13.1558 4.83248C8.7886 11.5304 6.2504 19.5276 6.2504 28.1272C6.2504 36.7265 8.78856 44.7237 13.1558 51.422C14.0985 52.8675 13.6906 54.8039 12.2448 55.7464C10.799 56.6894 8.86269 56.2815 7.92 54.8355C2.91085 47.153 0 37.9753 0 28.1272C0 18.279 2.91085 9.10121 7.92 1.41864C8.86269 -0.0271609 10.799 -0.435022 12.2448 0.507663Z" fill="#7A9757"/>
<path d="M21.3479 13.0878C22.7499 14.0945 23.0704 16.0471 22.0637 17.4492C19.9783 20.3534 18.7511 23.9111 18.7511 27.7647C18.7511 31.6183 19.9783 35.176 22.0637 38.0804C23.0704 39.4825 22.7499 41.4352 21.3479 42.4419C19.9458 43.4482 17.9932 43.1278 16.9865 41.726C14.1636 37.7941 12.5007 32.9692 12.5007 27.7647C12.5007 22.5606 14.1636 17.7352 16.9865 13.8037C17.9932 12.4017 19.9458 12.0811 21.3479 13.0878Z" fill="#7A9757"/>
<path d="M36.4608 16.6681C30.132 16.6681 25.0017 21.7984 25.0017 28.1272C25.0017 34.4559 30.132 39.5862 36.4608 39.5862C42.7895 39.5862 47.9198 34.4559 47.9198 28.1272C47.9198 21.7984 42.7895 16.6681 36.4608 16.6681Z" fill="#7A9757"/>
<path d="M50.5901 38.0803C49.5833 39.4825 49.9038 41.4351 51.3059 42.4418C52.7077 43.4486 54.6603 43.1277 55.6671 41.7259C58.4901 37.7944 60.1532 32.9691 60.1532 27.7646C60.1532 22.5606 58.4901 17.7353 55.6671 13.8037C54.6603 12.4016 52.7077 12.0811 51.3059 13.0878C49.9038 14.0945 49.5833 16.0471 50.5901 17.4492C52.6752 20.3538 53.9028 23.9111 53.9028 27.7646C53.9028 31.6182 52.6752 35.1759 50.5901 38.0803Z" fill="#7A9757"/>
</g>
<defs>
<clipPath id="clip0_71_13">
<rect width="72" height="57" fill="white"/>
</clipPath>
</defs>
</svg>
