<svg width="72" height="72" viewBox="0 0 72 72" fill="none" xmlns="http://www.w3.org/2000/svg">
<g clip-path="url(#clip0_71_4)">
<mask id="mask0_71_4" style="mask-type:luminance" maskUnits="userSpaceOnUse" x="0" y="0" width="72" height="72">
<path d="M72 0H0V72H72V0Z" fill="white"/>
</mask>
<g mask="url(#mask0_71_4)">
<path d="M70.5742 37.5633C68.9836 32.196 66.0883 27.254 62.1882 23.241L63.3447 22.0845C64.1558 21.2733 64.1558 19.9582 63.3447 19.1471L52.8538 8.65619C52.0428 7.84506 50.7275 7.84506 49.9164 8.65619L48.7599 9.81269C44.747 5.91259 39.805 3.01726 34.4376 1.42665C28.914 -0.210501 23.0154 -0.443517 17.3798 0.752921C16.4295 0.954718 15.7459 1.78806 15.7341 2.75964C15.7223 3.73094 16.3855 4.58073 17.3305 4.80545L19.3639 5.28878C24.8678 6.59715 29.8915 9.40305 33.8919 13.4034L39.5307 19.0422L38.9012 19.6716C38.0901 20.4827 38.0901 21.7979 38.9012 22.609L39.5307 23.2384L0.60932 62.1598C-0.201805 62.9709 -0.201805 64.286 0.60932 65.0972L6.90384 71.3917C7.3094 71.7972 7.84096 72.0002 8.37238 72.0002C8.9038 72.0002 9.43551 71.7975 9.84093 71.3917L48.7621 32.4705L49.3916 33.0999C50.2026 33.911 51.5178 33.911 52.3289 33.0999L52.9584 32.4705L58.5972 38.1092C62.5974 42.1096 65.4034 47.1332 66.7118 52.6369L67.1953 54.6704C67.4179 55.6072 68.255 56.267 69.2156 56.267C69.2242 56.267 69.2325 56.267 69.2411 56.2669C70.2124 56.2551 71.046 55.5716 71.2477 54.6213C72.4441 48.9856 72.2112 43.0871 70.5742 37.5633ZM8.37252 66.9855L5.01538 63.6285L42.4679 26.176L45.825 29.5331L8.37252 66.9855ZM61.5345 35.1719L54.4271 28.0644C53.6161 27.2533 52.3008 27.2533 51.4897 28.0644L50.8605 28.6938L43.3071 21.1404L43.9366 20.511C44.7477 19.6999 44.7477 18.3848 43.9366 17.5736L36.8291 10.4662C34.4104 8.04742 31.662 6.01272 28.6776 4.41465C35.2059 5.29117 41.3561 8.27875 46.1708 13.0935L47.2937 14.2165C47.6833 14.606 48.2114 14.825 48.7624 14.825C49.3132 14.825 49.8414 14.6062 50.231 14.2165L51.3849 13.0625L58.9383 20.6159L57.7844 21.7699C57.3948 22.1594 57.1759 22.6876 57.1759 23.2384C57.1759 23.7894 57.3948 24.3176 57.7844 24.7071L58.9074 25.8302C63.7221 30.6449 66.7097 36.795 67.5861 43.3232C65.9877 40.339 63.9533 37.5906 61.5345 35.1719Z" fill="#7A9757"/>
<path d="M58.157 53.5665C58.157 50.2739 55.4783 47.595 52.1855 47.595H51.9259V44.9987C51.9259 43.8516 50.996 42.9216 49.8489 42.9216C48.7018 42.9216 47.7719 43.8516 47.7719 44.9987V47.5949H43.6178C42.4707 47.5949 41.5408 48.5248 41.5408 49.6719V65.2496C41.5408 66.3967 42.4707 67.3267 43.6178 67.3267H47.7719V69.9229C47.7719 71.07 48.7018 71.9999 49.8489 71.9999C50.996 71.9999 51.9259 71.07 51.9259 69.9229V67.3267H52.1855C55.4781 67.3267 58.157 64.6479 58.157 61.3552C58.157 59.8681 57.6093 58.5071 56.7068 57.4607C57.6093 56.4145 58.157 55.0536 58.157 53.5665ZM52.1855 63.1728H45.6948V59.5379H52.1855C53.1876 59.5379 54.003 60.3532 54.003 61.3553C54.003 62.3574 53.1876 63.1728 52.1855 63.1728ZM52.1855 55.3838H45.6948V51.7491H52.1855C53.1876 51.7491 54.003 52.5644 54.003 53.5665C54.003 54.5686 53.1876 55.3838 52.1855 55.3838Z" fill="#7A9757"/>
</g>
</g>
<defs>
<clipPath id="clip0_71_4">
<rect width="72" height="72" fill="white"/>
</clipPath>
</defs>
</svg>
