<svg width="72" height="72" viewBox="0 0 72 72" fill="none" xmlns="http://www.w3.org/2000/svg">
<path d="M62.0209 29.7624H61.8427V25.396C61.8427 11.3702 50.4726 0 36.4466 0C22.4206 0 11.0506 11.3702 11.0506 25.396V29.7624H9.98137C6.06054 29.7624 3.03088 33.2375 3.03088 37.2476V48.3861C2.93213 52.2727 6.00289 55.5034 9.88944 55.6022C9.92014 55.603 9.95067 55.6036 9.98137 55.6039H16.5754C17.5094 55.5601 18.231 54.7671 18.187 53.8331C18.1855 53.7995 18.1829 53.7659 18.1793 53.7325V31.9008C18.1793 30.8316 17.5556 29.7622 16.5754 29.7622H14.615V25.3959C14.615 13.3386 24.3894 3.56419 36.4466 3.56419C48.5039 3.56419 58.2783 13.3386 58.2783 25.3959V29.7622H56.3179C55.3377 29.7622 54.714 30.8314 54.714 31.9008V53.7325C54.6145 54.6622 55.2875 55.4966 56.2173 55.5961C56.2507 55.5996 56.2843 55.6022 56.3179 55.6037H58.3673L58.1891 55.871C55.5152 59.4246 51.3195 61.506 46.8723 61.4848C45.8987 56.711 41.2394 53.6302 36.4656 54.6039C32.3832 55.4364 29.4399 59.0117 29.4069 63.178C29.4557 68.0645 33.4311 72 38.3179 71.9997C40.7369 71.9604 43.0427 70.9678 44.7336 69.2373C45.8745 68.0689 46.6221 66.5736 46.8723 64.96C52.4414 64.9811 57.6935 62.3715 61.0405 57.9204L62.7337 55.4253C66.5653 55.1581 68.9712 52.7521 68.9712 49.2768V38.1382C68.9714 34.3069 66.12 29.7624 62.0209 29.7624ZM14.615 52.0395H9.98137C8.06257 51.9928 6.54493 50.3996 6.59166 48.4808C6.59251 48.4493 6.59371 48.4177 6.59524 48.386V37.2474C6.59524 35.1979 8.02095 33.3266 9.98137 33.3266H14.615V52.0395ZM42.1497 66.7425C41.1621 67.8133 39.7746 68.4264 38.318 68.4356C35.4188 68.3896 33.0661 66.0761 32.9715 63.1781C32.9703 60.2745 35.3232 57.9198 38.2268 57.9186C41.1304 57.9174 43.4851 60.2702 43.4863 63.1739V63.1781C43.5605 64.5012 43.0755 65.7945 42.1497 66.7425ZM65.407 49.2772C65.407 51.6831 63.0902 52.0395 62.0209 52.0395H58.2783V33.3267H62.0209C63.9813 33.3267 65.407 36.0891 65.407 38.1386V49.2772Z" fill="#7A9757"/>
</svg>
