<svg width="675" height="598" viewBox="0 0 675 598" fill="none" xmlns="http://www.w3.org/2000/svg">
<g clip-path="url(#clip0_57_47)">
<mask id="mask0_57_47" style="mask-type:luminance" maskUnits="userSpaceOnUse" x="0" y="0" width="812" height="598">
<path d="M812 0H0V598H812V0Z" fill="white"/>
</mask>
<g mask="url(#mask0_57_47)">
<path opacity="0.66" d="M804.783 343.195L806.887 344.375C814.483 348.716 813.578 356.385 804.783 361.484L407.757 593.723C399.025 598.843 385.789 599.454 378.172 595.113L376.068 593.933C368.45 589.593 369.355 581.923 378.172 576.824L775.197 344.523C783.93 339.402 797.165 338.791 804.783 343.195Z" fill="url(#paint0_linear_57_47)"/>
<path opacity="0.66" d="M851.878 250.945L853.982 252.125C861.578 256.466 860.673 264.135 851.878 269.234L454.852 501.473C446.12 506.593 432.884 507.204 425.267 502.863L423.163 501.683C415.545 497.343 416.45 489.673 425.267 484.574L822.292 252.273C831.025 247.152 844.26 246.541 851.878 250.945Z" fill="url(#paint1_linear_57_47)"/>
<path opacity="0.66" d="M694.878 279.945L696.982 281.125C704.578 285.466 703.673 293.135 694.878 298.234L297.852 530.473C289.12 535.593 275.884 536.204 268.267 531.863L266.163 530.683C258.545 526.343 259.45 518.673 268.267 513.574L665.292 281.273C674.025 276.152 687.26 275.541 694.878 279.945Z" fill="url(#paint2_linear_57_47)"/>
<path opacity="0.66" d="M638.878 248.945L640.982 250.125C648.578 254.466 647.673 262.135 638.878 267.234L241.852 499.473C233.12 504.593 219.884 505.204 212.267 500.863L210.163 499.683C202.545 495.343 203.45 487.673 212.267 482.574L609.292 250.273C618.025 245.152 631.26 244.541 638.878 248.945Z" fill="url(#paint3_linear_57_47)"/>
<path opacity="0.66" d="M582.878 215.945L584.982 217.125C592.578 221.466 591.673 229.135 582.878 234.234L185.852 466.473C177.12 471.593 163.884 472.204 156.267 467.863L154.163 466.683C146.545 462.343 147.45 454.673 156.267 449.574L553.292 217.273C562.025 212.152 575.26 211.541 582.878 215.945Z" fill="url(#paint4_linear_57_47)"/>
<path opacity="0.66" d="M433.878 181.945L435.982 183.125C443.578 187.466 442.673 195.135 433.878 200.234L36.8517 432.473C28.1197 437.593 14.8837 438.204 7.26672 433.863L5.16271 432.683C-2.45529 428.343 -1.55028 420.673 7.26672 415.574L404.292 183.273C413.025 178.152 426.26 177.541 433.878 181.945Z" fill="url(#paint5_linear_57_47)"/>
<path opacity="0.66" d="M653.878 115.945L655.982 117.125C663.578 121.466 662.673 129.135 653.878 134.234L256.852 366.473C248.12 371.593 234.884 372.204 227.267 367.863L225.163 366.683C217.545 362.343 218.45 354.673 227.267 349.574L624.292 117.273C633.025 112.152 646.26 111.541 653.878 115.945Z" fill="url(#paint6_linear_57_47)"/>
<path d="M296.948 121.808L191.611 60.8936L296.948 0L402.307 60.9146L296.948 121.808Z" fill="#838383"/>
<path d="M296.948 355.585L191.611 294.67L296.948 233.776L402.307 294.67L296.948 355.585Z" fill="white"/>
<path d="M402.307 60.9146V294.67L296.949 355.585V121.808L402.307 60.9146Z" fill="#838383"/>
<path d="M191.611 60.8936V294.67L296.948 355.585V121.808L191.611 60.8936Z" fill="#839969"/>
<g opacity="0.51">
<path opacity="0.51" d="M198.744 76.4224V286.537L289.815 339.192V129.056L198.744 76.4224Z" fill="#B2C0A0"/>
</g>
<path d="M386.504 117.383V123.557L312.751 166.204V160.009L386.504 117.383Z" fill="#839969"/>
<path d="M386.504 143.511V149.684L312.751 192.331V186.136L386.504 143.511Z" fill="#839969"/>
<path d="M386.504 169.638V175.812L312.751 218.458V212.264L386.504 169.638Z" fill="#839969"/>
<path d="M386.504 195.765V201.939L312.751 244.586V238.391L386.504 195.765Z" fill="#839969"/>
<path d="M386.504 221.893V228.066L312.751 270.692V264.518L386.504 221.893Z" fill="#839969"/>
<path d="M386.504 248.02V254.194L312.751 296.84V290.645L386.504 248.02Z" fill="#839969"/>
<path d="M296.948 100.422L220.523 56.237L296.948 12.0522L373.395 56.237L296.948 100.422Z" fill="#3C3C3C"/>
<path d="M373.395 56.2371V61.61L296.949 105.795V100.422L373.395 56.2371Z" fill="#3C3C3C"/>
<path d="M220.523 56.2371V61.61L296.948 105.795V100.422L220.523 56.2371Z" fill="#3C3C3C"/>
<path d="M267.3 56.9323L263.912 54.9938L264.207 53.3924L295.602 35.1033L299.958 37.1682L299.158 38.5378L267.3 56.9323Z" fill="#839969"/>
<path d="M295.77 36.5783L299.158 38.5378L301.326 37.2736L295.77 34.0498L261.745 53.7296L263.934 54.9938L295.77 36.5783Z" fill="#839969"/>
<path d="M277.589 62.8742L274.202 60.9147L274.475 59.3133L305.87 41.0242L310.247 43.1101L309.426 44.4587L277.589 62.8742Z" fill="#839969"/>
<path d="M306.039 42.4991L309.426 44.4586L311.615 43.1944L306.039 39.9917L272.013 59.6504L274.202 60.9146L306.039 42.4991Z" fill="#839969"/>
<path d="M287.858 68.7951L284.47 66.8356L284.744 65.2342L316.16 46.9451L320.516 49.031L319.695 50.3795L287.858 68.7951Z" fill="#839969"/>
<path d="M316.329 48.42L319.695 50.3795L321.884 49.1153L316.329 45.9126L282.303 65.5713L284.471 66.8355L316.329 48.42Z" fill="#839969"/>
<path d="M298.127 74.7158L294.739 72.7562L295.033 71.1549L326.428 52.8657L330.784 54.9517L329.985 56.3002L298.127 74.7158Z" fill="#839969"/>
<path d="M326.597 54.3405L329.985 56.3002L332.152 55.0359L326.597 51.8333L292.572 71.4919L294.76 72.7562L326.597 54.3405Z" fill="#839969"/>
<path d="M292.782 132.301C292.7 130.844 292.276 129.426 291.545 128.163C290.814 126.9 289.796 125.827 288.574 125.032C288.145 124.725 287.642 124.537 287.117 124.489C286.592 124.441 286.063 124.534 285.586 124.758L282.619 126.486H284.449C284.427 126.787 284.427 127.09 284.449 127.392C284.53 128.85 284.953 130.268 285.684 131.531C286.415 132.795 287.434 133.867 288.658 134.661C288.937 134.832 289.233 134.973 289.542 135.083L288.7 136.663L291.604 134.977C292.012 134.669 292.335 134.262 292.542 133.793C292.748 133.325 292.831 132.811 292.782 132.301Z" fill="#7A9757"/>
<path d="M289.794 134.05C289.794 136.726 287.922 137.822 285.586 136.473C284.362 135.679 283.343 134.607 282.612 133.343C281.881 132.08 281.458 130.662 281.377 129.204C281.377 126.528 283.271 125.453 285.586 126.781C286.808 127.576 287.826 128.649 288.558 129.912C289.289 131.175 289.712 132.593 289.794 134.05Z" fill="#B2C0A0"/>
<path d="M288.006 133.039C288.006 134.577 286.933 135.146 285.607 134.429C284.9 133.968 284.312 133.346 283.892 132.613C283.471 131.881 283.23 131.059 283.187 130.215C283.187 128.677 284.26 128.108 285.607 128.825C286.31 129.288 286.894 129.912 287.31 130.644C287.727 131.376 287.965 132.197 288.006 133.039Z" fill="#7A9757"/>
<path d="M204.426 77.9397C204.344 76.4822 203.92 75.0645 203.189 73.8015C202.458 72.5385 201.44 71.4659 200.217 70.6704C199.787 70.3669 199.284 70.182 198.76 70.1339C198.235 70.0858 197.708 70.1764 197.229 70.3965L194.262 72.1242H196.114C196.081 72.4254 196.081 72.7291 196.114 73.0303C196.191 74.489 196.612 75.9086 197.344 77.1723C198.076 78.4361 199.096 79.5079 200.322 80.2996C200.609 80.4704 200.912 80.6116 201.227 80.721L200.364 82.3223L203.268 80.6156C203.673 80.3055 203.992 79.8968 204.195 79.4284C204.397 78.96 204.477 78.4475 204.426 77.9397Z" fill="#7A9757"/>
<path d="M201.437 79.8147C201.437 82.4906 199.565 83.5652 197.229 82.2378C196.007 81.4423 194.988 80.3696 194.257 79.1067C193.526 77.8437 193.102 76.426 193.021 74.9685C193.021 72.2925 194.893 71.1969 197.229 72.5454C198.454 73.3384 199.474 74.4104 200.205 75.6739C200.937 76.9374 201.359 78.3564 201.437 79.8147Z" fill="#B2C0A0"/>
<path d="M199.67 78.6768C199.67 80.2149 198.576 80.7838 197.25 80.0674C196.545 79.6037 195.959 78.9808 195.539 78.2488C195.119 77.5169 194.876 76.6964 194.83 75.8533C194.83 74.3152 195.924 73.7463 197.25 74.4627C197.955 74.9265 198.541 75.5494 198.961 76.2813C199.381 77.0132 199.624 77.8337 199.67 78.6768Z" fill="#7A9757"/>
<path d="M292.782 341.678C292.703 340.22 292.281 338.801 291.55 337.538C290.818 336.274 289.798 335.202 288.574 334.409C288.147 334.098 287.645 333.907 287.12 333.855C286.594 333.803 286.065 333.893 285.586 334.114L282.619 335.863H284.449C284.426 336.164 284.426 336.467 284.449 336.769C284.533 338.226 284.957 339.643 285.688 340.906C286.419 342.169 287.436 343.241 288.658 344.038C288.942 344.194 289.237 344.328 289.542 344.439L288.7 346.04L291.604 344.333C292.012 344.03 292.335 343.626 292.542 343.161C292.748 342.696 292.831 342.185 292.782 341.678Z" fill="#7A9757"/>
<path d="M289.794 343.427C289.794 346.103 287.922 347.177 285.586 345.85C284.365 345.053 283.347 343.98 282.616 342.718C281.885 341.455 281.461 340.038 281.377 338.581C281.377 335.905 283.271 334.809 285.586 336.158C286.811 336.951 287.83 338.023 288.562 339.286C289.293 340.55 289.716 341.969 289.794 343.427Z" fill="#B2C0A0"/>
<path d="M288.006 342.395C288.006 343.933 286.933 344.502 285.607 343.785C284.895 343.329 284.304 342.708 283.882 341.974C283.461 341.241 283.223 340.417 283.187 339.571C283.187 338.033 284.26 337.464 285.607 338.159C286.311 338.626 286.896 339.253 287.313 339.989C287.73 340.725 287.967 341.549 288.006 342.395Z" fill="#7A9757"/>
<path d="M204.426 287.317C204.347 285.858 203.925 284.439 203.193 283.176C202.462 281.912 201.442 280.84 200.217 280.047C199.79 279.736 199.288 279.545 198.763 279.493C198.238 279.441 197.708 279.531 197.229 279.752L194.262 281.501H196.114C196.08 281.802 196.08 282.106 196.114 282.407C196.196 283.865 196.62 285.282 197.351 286.545C198.082 287.808 199.1 288.881 200.322 289.676C200.609 289.841 200.913 289.975 201.227 290.077L200.364 291.678L203.268 289.971C203.675 289.667 203.995 289.263 204.198 288.797C204.401 288.332 204.479 287.822 204.426 287.317Z" fill="#7A9757"/>
<path d="M201.437 289.065C201.437 291.741 199.565 292.816 197.229 291.488C196.007 290.693 194.988 289.62 194.257 288.357C193.526 287.094 193.102 285.676 193.021 284.219C193.021 281.543 194.893 280.447 197.229 281.796C198.454 282.589 199.474 283.661 200.205 284.924C200.937 286.188 201.359 287.607 201.437 289.065Z" fill="#B2C0A0"/>
<path d="M199.67 288.033C199.67 289.571 198.576 290.14 197.25 289.424C196.542 288.964 195.953 288.342 195.532 287.609C195.112 286.876 194.871 286.054 194.83 285.21C194.83 283.671 195.924 283.103 197.25 283.819C197.958 284.279 198.547 284.901 198.967 285.634C199.388 286.366 199.629 287.189 199.67 288.033Z" fill="#7A9757"/>
<g opacity="0.51">
<path opacity="0.51" d="M191.611 257.734L296.948 194.038V121.808L191.611 60.8936V257.734Z" fill="#7A9757"/>
</g>
<path d="M431.366 155.289V389.171L326.008 328.277V291.214L333.141 286.895V116.224C332.61 116.164 332.099 115.983 331.647 115.698C330.422 114.905 329.403 113.833 328.671 112.569C327.94 111.306 327.517 109.887 327.439 108.428C327.38 107.903 327.467 107.372 327.69 106.892C327.913 106.413 328.262 106.004 328.701 105.71H328.806L331.647 104.046C332.119 103.814 332.646 103.717 333.169 103.766C333.692 103.814 334.192 104.006 334.614 104.32C335.807 105.103 336.803 106.151 337.526 107.383C338.248 108.614 338.678 109.996 338.78 111.42C338.791 111.962 338.69 112.499 338.486 113.001L418.341 159.166L419.962 158.218C420.441 157.996 420.97 157.907 421.496 157.959C422.021 158.011 422.523 158.202 422.95 158.513C424.174 159.306 425.194 160.378 425.926 161.641C426.657 162.905 427.079 164.324 427.158 165.782C427.218 166.305 427.135 166.835 426.916 167.315C426.697 167.794 426.351 168.204 425.917 168.5L424.191 169.512V231.838L431.324 227.624L431.366 155.289Z" fill="#839969"/>
<g opacity="0.51">
<path opacity="0.51" d="M424.17 162.579V372.694L421.981 371.429L421.96 371.408L418.825 369.596L418.509 369.407L417.962 369.112L417.71 368.943L338.191 322.989L335.708 321.556L333.856 320.481L333.099 320.039V109.924L333.477 110.156L335.518 111.315L338.485 113.043L418.341 159.208L424.17 162.579Z" fill="#B2C0A0"/>
</g>
<g opacity="0.51">
<path opacity="0.51" d="M431.367 155.289V227.54L424.233 231.754V169.533L425.959 168.521C426.394 168.225 426.739 167.815 426.958 167.336C427.177 166.857 427.261 166.327 427.2 165.803C427.122 164.345 426.699 162.926 425.968 161.662C425.236 160.399 424.216 159.327 422.992 158.534C422.565 158.223 422.063 158.032 421.538 157.98C421.012 157.928 420.483 158.018 420.004 158.239L418.383 159.187L338.486 113.022C338.693 112.514 338.794 111.969 338.781 111.42C338.699 109.963 338.275 108.545 337.544 107.282C336.813 106.019 335.795 104.947 334.572 104.151C334.15 103.837 333.65 103.645 333.127 103.597C332.604 103.549 332.077 103.646 331.605 103.877L328.764 105.542H328.659C328.22 105.836 327.871 106.245 327.648 106.724C327.425 107.203 327.338 107.734 327.397 108.26C327.475 109.718 327.898 111.137 328.629 112.401C329.361 113.664 330.38 114.736 331.605 115.529C332.057 115.815 332.568 115.995 333.099 116.056V286.726L325.966 291.046V94.3955L431.367 155.289Z" fill="#838383"/>
<path opacity="0.51" d="M427.158 165.803C427.218 166.327 427.135 166.856 426.916 167.336C426.697 167.815 426.351 168.225 425.916 168.521L424.191 169.533V231.859L333.099 286.895V116.224C332.568 116.164 332.057 115.983 331.605 115.698C330.38 114.905 329.36 113.833 328.629 112.569C327.897 111.306 327.475 109.887 327.397 108.428C327.338 107.903 327.425 107.372 327.648 106.892C327.87 106.413 328.22 106.004 328.659 105.71H328.764L331.605 104.046C332.077 103.814 332.603 103.717 333.127 103.766C333.65 103.814 334.15 104.006 334.572 104.32C335.773 105.098 336.777 106.144 337.507 107.376C338.237 108.608 338.673 109.992 338.78 111.42C338.79 111.962 338.69 112.499 338.486 113.001L418.341 159.166L419.961 158.218C420.441 157.996 420.97 157.907 421.495 157.959C422.021 158.011 422.523 158.202 422.949 158.513C424.177 159.308 425.199 160.383 425.93 161.651C426.662 162.918 427.083 164.341 427.158 165.803Z" fill="#7A9757"/>
</g>
<path d="M427.158 165.803C427.218 166.327 427.135 166.857 426.916 167.336C426.697 167.815 426.351 168.225 425.916 168.521L424.191 169.533L423.013 170.228L423.854 168.669C423.541 168.581 423.238 168.461 422.95 168.311C422.651 168.14 422.37 167.943 422.108 167.721C420.394 166.243 419.243 164.219 418.846 161.989C418.816 161.639 418.816 161.286 418.846 160.936C418.812 160.635 418.812 160.331 418.846 160.03H417.037L418.383 159.229L420.004 158.281C420.483 158.06 421.012 157.97 421.538 158.022C422.063 158.074 422.565 158.265 422.992 158.576C424.203 159.37 425.211 160.437 425.935 161.692C426.659 162.948 427.078 164.356 427.158 165.803Z" fill="#7A9757"/>
<path d="M424.149 167.552C424.149 170.228 422.276 171.324 419.94 169.975C418.716 169.182 417.696 168.11 416.964 166.847C416.233 165.583 415.811 164.164 415.732 162.706C415.732 160.03 417.605 158.955 419.94 160.283C421.163 161.078 422.181 162.151 422.912 163.414C423.643 164.677 424.067 166.094 424.149 167.552Z" fill="#B2C0A0"/>
<path d="M422.381 166.541C422.381 168.079 421.287 168.648 419.961 167.931C419.259 167.467 418.677 166.843 418.26 166.111C417.843 165.379 417.604 164.559 417.562 163.717C417.563 162.179 418.636 161.61 419.961 162.327C420.667 162.789 421.254 163.412 421.674 164.144C422.095 164.876 422.337 165.697 422.381 166.541Z" fill="#7A9757"/>
<path d="M338.78 111.42C338.791 111.962 338.69 112.499 338.486 113.001C338.318 113.482 337.982 113.886 337.539 114.139L334.635 115.824L335.477 114.265C335.159 114.172 334.855 114.038 334.572 113.865C334.274 113.695 333.992 113.497 333.73 113.275C333.498 113.095 333.28 112.898 333.078 112.685C331.734 111.298 330.827 109.547 330.469 107.649C330.438 107.298 330.438 106.946 330.469 106.595C330.436 106.294 330.436 105.99 330.469 105.689H328.659H328.764L331.605 104.025C332.077 103.793 332.604 103.696 333.127 103.745C333.65 103.793 334.15 103.985 334.572 104.299C335.775 105.079 336.782 106.129 337.512 107.365C338.242 108.6 338.676 109.988 338.78 111.42Z" fill="#7A9757"/>
<path d="M335.792 113.19C335.847 113.69 335.77 114.196 335.571 114.657C335.372 115.119 335.057 115.521 334.656 115.824C334.433 115.983 334.179 116.093 333.911 116.148C333.643 116.202 333.366 116.2 333.099 116.14C332.568 116.079 332.057 115.899 331.605 115.613C330.38 114.821 329.36 113.748 328.629 112.485C327.897 111.221 327.475 109.802 327.397 108.344C327.338 107.819 327.425 107.287 327.648 106.808C327.87 106.329 328.22 105.92 328.659 105.626H328.764C329.228 105.454 329.727 105.397 330.218 105.459C330.709 105.521 331.178 105.702 331.584 105.984C333.496 107.241 334.887 109.15 335.498 111.357C335.67 111.954 335.769 112.57 335.792 113.19Z" fill="#B2C0A0"/>
<path d="M334.025 112.179C334.025 113.717 332.952 114.286 331.605 113.57C330.904 113.105 330.321 112.481 329.904 111.749C329.487 111.017 329.248 110.197 329.207 109.356C329.207 107.817 330.28 107.249 331.605 107.965C332.312 108.426 332.9 109.049 333.321 109.781C333.741 110.513 333.983 111.335 334.025 112.179Z" fill="#7A9757"/>
<path d="M427.158 375.18C427.079 373.722 426.657 372.303 425.926 371.039C425.194 369.776 424.174 368.704 422.95 367.911C422.527 367.6 422.028 367.408 421.506 367.356C420.984 367.304 420.458 367.394 419.983 367.616L417.016 369.365H418.846C418.812 369.666 418.812 369.97 418.846 370.271C418.928 371.728 419.352 373.146 420.083 374.409C420.814 375.672 421.832 376.745 423.055 377.54C423.346 377.696 423.648 377.83 423.96 377.94L423.097 379.542L426.001 377.835C426.408 377.532 426.73 377.128 426.933 376.662C427.136 376.196 427.214 375.685 427.158 375.18Z" fill="#7A9757"/>
<path d="M424.149 376.908C424.149 379.584 422.276 380.658 419.94 379.331C418.718 378.535 417.7 377.463 416.969 376.2C416.238 374.937 415.814 373.519 415.732 372.062C415.732 369.386 417.605 368.29 419.94 369.639C421.165 370.432 422.185 371.504 422.916 372.767C423.648 374.031 424.07 375.45 424.149 376.908Z" fill="#B2C0A0"/>
<path d="M422.381 375.896C422.381 377.435 421.287 378.003 419.961 377.287C419.256 376.826 418.67 376.203 418.253 375.47C417.836 374.737 417.599 373.916 417.563 373.073C417.562 371.535 418.636 370.966 419.961 371.661C420.669 372.127 421.256 372.753 421.677 373.489C422.097 374.225 422.339 375.05 422.381 375.896Z" fill="#7A9757"/>
<path d="M536.662 93.616L431.324 154.51L325.966 93.616L431.303 32.7224L536.662 93.616Z" fill="#838383"/>
<path d="M431.366 154.488V388.37L536.578 327.371V93.4895L431.366 154.488ZM520.901 286.895L447.253 329.52V323.347L520.901 280.721V286.895ZM520.901 260.768L447.253 303.393V297.219L520.901 254.594V260.768ZM520.901 234.64L447.253 277.266V271.092L520.901 228.467V234.64ZM520.901 208.513L447.253 251.138V244.965L520.901 202.339V208.513ZM520.901 182.386L447.253 225.011V218.88L520.901 176.254V182.386ZM520.901 156.258L447.253 198.884V192.71L520.901 150.085V156.258Z" fill="#838383"/>
<g opacity="0.51">
<path opacity="0.51" d="M326.576 291.025L431.914 227.35V155.099L326.576 94.2058V291.025Z" fill="#7A9757"/>
</g>
<path d="M520.86 150.106V156.279L447.127 198.905V192.731L520.86 150.106Z" fill="#838383"/>
<path d="M520.86 176.233V182.407L447.127 225.032V218.858L520.86 176.233Z" fill="#838383"/>
<path d="M520.86 202.361V208.534L447.127 251.16V244.986L520.86 202.361Z" fill="#838383"/>
<path d="M520.86 228.488V234.661L447.127 277.287V271.113L520.86 228.488Z" fill="#838383"/>
<path d="M520.86 254.615V260.789L447.127 303.414V297.241L520.86 254.615Z" fill="#838383"/>
<path d="M520.86 280.742V286.916L447.127 329.542V323.368L520.86 280.742Z" fill="#838383"/>
<path d="M520.86 150.106V156.279L447.127 198.905V192.731L520.86 150.106Z" fill="#839969"/>
<path d="M520.86 176.233V182.407L447.127 225.032V218.858L520.86 176.233Z" fill="#839969"/>
<path d="M520.86 202.361V208.534L447.127 251.16V244.986L520.86 202.361Z" fill="#839969"/>
<path d="M520.86 228.488V234.661L447.127 277.287V271.113L520.86 228.488Z" fill="#839969"/>
<path d="M520.86 254.615V260.789L447.127 303.414V297.241L520.86 254.615Z" fill="#839969"/>
<path d="M520.86 280.742V286.916L447.127 329.542V323.368L520.86 280.742Z" fill="#839969"/>
<path d="M402.16 91.2137L398.772 89.2753L399.046 87.6739L430.441 69.3848L434.796 71.4497L433.997 72.8192L402.16 91.2137Z" fill="#839969"/>
<path d="M430.609 70.8598L433.997 72.8193L436.164 71.5551L430.609 68.3313L396.584 88.0111L398.772 89.2753L430.609 70.8598Z" fill="#839969"/>
<path d="M412.428 97.1346L409.041 95.1751L409.314 93.5948L440.73 75.3057L445.086 77.3706L444.265 78.7401L412.428 97.1346Z" fill="#839969"/>
<path d="M440.898 76.7806L444.265 78.7402L446.454 77.476L440.898 74.2522L406.873 93.932L409.04 95.1962L440.898 76.7806Z" fill="#839969"/>
<path d="M422.697 103.056L419.309 101.117L419.604 99.5157L450.999 81.2266L455.354 83.2915L454.534 84.661L422.697 103.056Z" fill="#839969"/>
<path d="M451.167 82.7015L454.534 84.6611L456.723 83.3969L451.167 80.1731L417.142 99.8529L419.33 101.117L451.167 82.7015Z" fill="#839969"/>
<path d="M432.987 108.997L429.599 107.038L429.873 105.437L461.268 87.1475L465.623 89.2124L464.824 90.5819L432.987 108.997Z" fill="#839969"/>
<path d="M461.436 88.6221L464.824 90.5817L467.012 89.3174L461.436 86.0938L427.411 105.774L429.599 107.038L461.436 88.6221Z" fill="#839969"/>
<path d="M338.781 320.818C338.7 319.36 338.277 317.942 337.546 316.679C336.815 315.416 335.796 314.343 334.572 313.549C334.149 313.238 333.651 313.046 333.129 312.995C332.607 312.943 332.081 313.032 331.605 313.254L328.638 315.003H330.469C330.445 315.304 330.445 315.607 330.469 315.909C330.551 317.366 330.975 318.784 331.706 320.047C332.437 321.31 333.455 322.383 334.677 323.178C334.964 323.343 335.268 323.477 335.582 323.579L334.719 325.18L337.644 323.473C338.05 323.17 338.368 322.764 338.568 322.298C338.767 321.832 338.841 321.322 338.781 320.818Z" fill="#7A9757"/>
<path d="M335.813 322.567C335.813 325.243 333.92 326.339 331.605 324.99C330.383 324.195 329.364 323.122 328.633 321.859C327.902 320.596 327.478 319.179 327.396 317.721C327.396 315.045 329.269 313.95 331.605 315.298C332.826 316.095 333.843 317.168 334.574 318.43C335.305 319.693 335.73 321.11 335.813 322.567Z" fill="#B2C0A0"/>
<path d="M334.025 321.535C334.025 323.073 332.952 323.642 331.605 322.925C330.9 322.464 330.314 321.841 329.897 321.109C329.48 320.376 329.243 319.554 329.207 318.711C329.207 317.173 330.28 316.604 331.605 317.321C332.317 317.777 332.909 318.398 333.33 319.131C333.751 319.865 333.989 320.689 334.025 321.535Z" fill="#7A9757"/>
<path d="M431.808 134.703L355.362 90.5187L431.787 46.334L508.234 90.5187L431.808 134.703Z" fill="#3C3C3C"/>
<path d="M508.234 90.5186V95.8915L431.808 140.076V134.703L508.234 90.5186Z" fill="#3C3C3C"/>
<path d="M355.362 90.5186V95.8915L431.808 140.076V134.703L355.362 90.5186Z" fill="#3C3C3C"/>
<path d="M401.675 90.4555L398.288 88.496L398.561 86.8946L429.977 68.6055L434.333 70.6914L433.512 72.0399L401.675 90.4555Z" fill="#839969"/>
<path d="M430.125 70.0802L433.513 72.0398L435.701 70.7755L430.125 67.5518L396.121 87.2316L398.288 88.4958L430.125 70.0802Z" fill="#839969"/>
<path d="M411.944 96.3762L408.557 94.4166L408.83 92.8153L440.246 74.5261L444.602 76.6121L443.781 77.9606L411.944 96.3762Z" fill="#839969"/>
<path d="M440.414 76.001L443.781 77.9606L445.97 76.6964L440.414 73.4937L406.389 93.1524L408.557 94.4166L440.414 76.001Z" fill="#839969"/>
<path d="M422.234 102.297L418.825 100.337L419.12 98.7359L450.515 80.4468L454.871 82.5327L454.071 83.8813L422.234 102.297Z" fill="#839969"/>
<path d="M450.683 81.9217L454.071 83.8812L456.238 82.617L450.683 79.4143L416.658 99.073L418.846 100.337L450.683 81.9217Z" fill="#839969"/>
<path d="M432.503 108.218L429.115 106.258L429.389 104.657L460.805 86.3677L465.161 88.4536L464.34 89.8021L432.503 108.218Z" fill="#839969"/>
<path d="M460.952 87.8426L464.339 89.8021L466.528 88.5379L460.952 85.3352L426.947 104.994L429.115 106.258L460.952 87.8426Z" fill="#839969"/>
<path d="M366.094 189.739L346.356 178.34V174L366.094 185.399V189.739Z" fill="#B2C0A0"/>
<path d="M376.215 195.597L369.124 191.488V187.148L376.215 191.256V195.597Z" fill="#B2C0A0"/>
<path d="M384.084 200.127L379.245 197.346V193.005L384.084 195.787V200.127Z" fill="#B2C0A0"/>
<path d="M357.109 194.48L346.356 188.243V183.903L357.109 190.119V194.48Z" fill="#B2C0A0"/>
<path d="M373.311 203.835L360.138 196.208V191.867L373.311 199.495V203.835Z" fill="#B2C0A0"/>
<path d="M381.16 208.365L376.32 205.584V201.244L381.16 204.025V208.365Z" fill="#B2C0A0"/>
<path d="M388.63 212.685L383.79 209.904V205.563L388.63 208.345V212.685Z" fill="#B2C0A0"/>
<path d="M354.142 202.676L346.356 198.167V193.827L354.142 198.336V202.676Z" fill="#B2C0A0"/>
<path d="M359.823 205.942L357.15 204.404V200.064L359.823 201.602V205.942Z" fill="#B2C0A0"/>
<path d="M367.672 210.494L362.832 207.691V203.351L367.672 206.153V210.494Z" fill="#B2C0A0"/>
<path d="M375.079 224.695L346.356 208.092V203.751L375.079 220.355V224.695Z" fill="#B2C0A0"/>
<path d="M385.221 230.553L378.108 226.444V222.103L385.221 226.212V230.553Z" fill="#B2C0A0"/>
<path d="M354.142 222.504L346.356 218.016V213.675L354.142 218.163V222.504Z" fill="#B2C0A0"/>
<path d="M372.406 233.06L357.15 224.253V219.912L372.406 228.72V233.06Z" fill="#B2C0A0"/>
<path d="M380.255 237.611L375.415 234.809V230.468L380.255 233.271V237.611Z" fill="#B2C0A0"/>
<path d="M362.285 237.127L346.356 227.919V223.579L362.285 232.786V237.127Z" fill="#B2C0A0"/>
<path d="M376.825 245.534L365.294 238.875V234.535L376.825 241.193V245.534Z" fill="#B2C0A0"/>
<path d="M387.62 251.771L379.834 247.283V242.942L387.62 247.43V251.771Z" fill="#B2C0A0"/>
<path d="M351.743 240.962L346.356 237.843V233.503L351.743 236.621V240.962Z" fill="#B2C0A0"/>
<path d="M361.864 246.798L354.751 242.689V238.349L361.864 242.458V246.798Z" fill="#B2C0A0"/>
<path d="M376.32 255.184L364.873 248.547V244.206L376.32 250.822V255.184Z" fill="#B2C0A0"/>
<path d="M362.832 257.291L346.356 247.767V243.427L362.832 252.951V257.291Z" fill="#B2C0A0"/>
<path d="M381.286 267.953L365.841 259.04V254.699L381.286 263.612V267.953Z" fill="#B2C0A0"/>
<path d="M389.135 272.483L384.295 269.702V265.361L389.135 268.163V272.483Z" fill="#B2C0A0"/>
<path d="M396.668 276.844L391.828 274.063V269.723L396.668 272.504V276.844Z" fill="#B2C0A0"/>
<path d="M356.225 263.38L346.356 257.691V253.33L356.225 259.04V263.38Z" fill="#B2C0A0"/>
<path d="M397.51 207.902L411.208 215.825V211.484L397.51 203.562V207.902Z" fill="#B2C0A0"/>
<path d="M400.456 219.533L411.208 225.749V221.408L400.456 215.192V219.533Z" fill="#B2C0A0"/>
<path d="M403.422 231.164L411.208 235.652V231.311L403.422 226.823V231.164Z" fill="#B2C0A0"/>
<path d="M399.887 239.023L411.208 245.576V241.235L399.887 234.703V239.023Z" fill="#B2C0A0"/>
<path d="M403.422 250.991L411.208 255.5V251.16L403.422 246.651V250.991Z" fill="#B2C0A0"/>
<path d="M401.339 259.714L411.208 265.424V261.084L401.339 255.374V259.714Z" fill="#B2C0A0"/>
<path d="M405.821 272.23L411.208 275.327V270.987L405.821 267.889V272.23Z" fill="#B2C0A0"/>
<path d="M400.792 279.225L411.208 285.251V280.911L400.792 274.885V279.225Z" fill="#B2C0A0"/>
<path d="M401.339 289.466L411.208 295.176V290.835L401.339 285.125V289.466Z" fill="#B2C0A0"/>
<path d="M363.442 267.552L359.234 265.129V260.789L363.442 263.212V267.552Z" fill="#B2C0A0"/>
<path d="M375.92 274.758L366.451 269.301V264.961L375.92 270.418V274.758Z" fill="#B2C0A0"/>
<path d="M383.726 308.134L367.776 298.905V294.565L383.726 303.794V308.134Z" fill="#B2C0A0"/>
<path d="M394.648 314.455L388.377 310.81V306.469L394.648 310.115V314.455Z" fill="#B2C0A0"/>
<path d="M563.848 279.963L458.511 219.069L563.848 158.155L669.186 219.069L563.848 279.963Z" fill="#838383"/>
<path d="M563.848 513.739L458.511 452.825L563.848 391.931L669.186 452.846L563.848 513.739Z" fill="white"/>
<path d="M669.186 219.069V452.846L563.849 513.739V279.963L669.186 219.069Z" fill="#838383"/>
<path d="M458.511 219.069V452.825L563.848 513.739V279.963L458.511 219.069Z" fill="#839969"/>
<g opacity="0.51">
<path opacity="0.51" d="M465.645 234.577V444.692L556.716 497.346V287.211L465.645 234.577Z" fill="#B2C0A0"/>
</g>
<path d="M653.383 275.538V281.733L579.651 324.358V318.164L653.383 275.538Z" fill="#839969"/>
<path d="M653.383 301.665V307.839L579.651 350.485V344.291L653.383 301.665Z" fill="#839969"/>
<path d="M653.383 327.793V333.966L579.651 376.613V370.418L653.383 327.793Z" fill="#839969"/>
<path d="M653.383 353.92V360.094L579.651 402.74V396.546L653.383 353.92Z" fill="#839969"/>
<path d="M653.383 380.048V386.221L579.651 428.868V422.673L653.383 380.048Z" fill="#839969"/>
<path d="M653.383 406.175V412.348L579.651 454.995V448.8L653.383 406.175Z" fill="#839969"/>
<path d="M563.849 258.576L487.423 214.392L563.849 170.207L640.295 214.392L563.849 258.576Z" fill="#3C3C3C"/>
<path d="M640.295 214.392V219.765L563.849 263.949V258.576L640.295 214.392Z" fill="#3C3C3C"/>
<path d="M487.423 214.392V219.765L563.849 263.949V258.576L487.423 214.392Z" fill="#3C3C3C"/>
<path d="M534.2 215.108L530.812 213.149L531.107 211.547L562.502 193.258L566.857 195.344L566.058 196.693L534.2 215.108Z" fill="#839969"/>
<path d="M562.67 194.733L566.058 196.693L568.225 195.428L562.67 192.205L528.645 211.884L530.833 213.149L562.67 194.733Z" fill="#839969"/>
<path d="M544.489 221.029L541.102 219.069L541.375 217.468L572.77 199.179L577.147 201.265L576.326 202.613L544.489 221.029Z" fill="#839969"/>
<path d="M572.939 200.654L576.326 202.613L578.515 201.349L572.939 198.125L538.913 217.805L541.102 219.069L572.939 200.654Z" fill="#839969"/>
<path d="M554.758 226.95L551.37 224.99L551.644 223.389L583.06 205.1L587.416 207.186L586.595 208.534L554.758 226.95Z" fill="#839969"/>
<path d="M583.229 206.575L586.595 208.534L588.784 207.27L583.229 204.067L549.203 223.726L551.37 224.99L583.229 206.575Z" fill="#839969"/>
<path d="M565.027 232.87L561.639 230.911L561.934 229.309L593.329 211.02L597.685 213.106L596.885 214.455L565.027 232.87Z" fill="#839969"/>
<path d="M593.497 212.495L596.885 214.455L599.052 213.19L593.497 209.988L559.472 229.646L561.66 230.911L593.497 212.495Z" fill="#839969"/>
<path d="M559.724 290.519C559.642 289.062 559.218 287.644 558.487 286.381C557.756 285.118 556.738 284.045 555.515 283.25C555.087 282.943 554.584 282.755 554.059 282.707C553.533 282.659 553.005 282.752 552.527 282.976L549.561 284.704H551.391C551.37 285.006 551.37 285.308 551.391 285.61C551.471 287.068 551.894 288.486 552.626 289.749C553.357 291.013 554.376 292.085 555.6 292.879C555.879 293.05 556.175 293.191 556.483 293.301L555.642 294.902L558.546 293.195C558.954 292.887 559.277 292.48 559.483 292.011C559.69 291.543 559.773 291.029 559.724 290.519Z" fill="#7A9757"/>
<path d="M556.694 292.205C556.694 294.881 554.821 295.976 552.486 294.628C551.262 293.834 550.243 292.761 549.512 291.498C548.781 290.235 548.358 288.817 548.277 287.359C548.277 284.683 550.171 283.608 552.486 284.936C553.708 285.731 554.726 286.804 555.457 288.067C556.189 289.33 556.612 290.747 556.694 292.205Z" fill="#B2C0A0"/>
<path d="M554.906 291.193C554.906 292.732 553.832 293.3 552.507 292.584C551.8 292.123 551.212 291.5 550.791 290.768C550.371 290.036 550.129 289.214 550.087 288.37C550.087 286.832 551.16 286.263 552.507 286.979C553.209 287.444 553.791 288.068 554.208 288.8C554.625 289.532 554.864 290.352 554.906 291.193Z" fill="#7A9757"/>
<path d="M471.346 236.115C471.268 234.657 470.846 233.238 470.114 231.975C469.383 230.711 468.363 229.639 467.138 228.846C466.711 228.535 466.209 228.344 465.684 228.292C465.159 228.24 464.629 228.33 464.15 228.551L461.183 230.3H463.035C463.001 230.601 463.001 230.905 463.035 231.206C463.117 232.663 463.54 234.081 464.272 235.344C465.003 236.607 466.021 237.68 467.243 238.475C467.534 238.631 467.837 238.765 468.148 238.876L467.285 240.477L470.189 238.77C470.594 238.465 470.913 238.06 471.116 237.595C471.318 237.13 471.398 236.62 471.346 236.115Z" fill="#7A9757"/>
<path d="M468.338 237.843C468.338 240.519 466.465 241.594 464.129 240.266C462.907 239.471 461.889 238.398 461.158 237.135C460.426 235.872 460.003 234.454 459.921 232.997C459.921 230.321 461.794 229.225 464.129 230.574C465.354 231.367 466.374 232.439 467.105 233.702C467.837 234.966 468.259 236.385 468.338 237.843Z" fill="#B2C0A0"/>
<path d="M466.57 236.832C466.57 238.37 465.476 238.939 464.15 238.222C463.445 237.76 462.858 237.137 462.437 236.405C462.017 235.673 461.775 234.852 461.73 234.008C461.73 232.47 462.825 231.901 464.15 232.617C464.855 233.081 465.441 233.704 465.861 234.436C466.282 235.168 466.524 235.989 466.57 236.832Z" fill="#7A9757"/>
<path d="M559.724 499.833C559.645 498.374 559.223 496.955 558.492 495.692C557.76 494.428 556.74 493.356 555.515 492.563C555.089 492.253 554.587 492.061 554.062 492.009C553.536 491.958 553.007 492.047 552.527 492.268L549.561 494.017H551.391C551.368 494.319 551.368 494.622 551.391 494.923C551.475 496.38 551.899 497.797 552.63 499.06C553.361 500.323 554.378 501.396 555.6 502.193C555.879 502.357 556.176 502.491 556.483 502.593L555.642 504.194L558.546 502.488C558.956 502.186 559.28 501.782 559.487 501.317C559.693 500.851 559.775 500.34 559.724 499.833Z" fill="#7A9757"/>
<path d="M556.694 501.582C556.694 504.258 554.821 505.332 552.486 504.005C551.265 503.208 550.247 502.135 549.516 500.872C548.785 499.61 548.361 498.193 548.277 496.736C548.277 494.06 550.171 492.964 552.486 494.312C553.711 495.105 554.73 496.178 555.462 497.441C556.193 498.704 556.616 500.123 556.694 501.582Z" fill="#B2C0A0"/>
<path d="M554.906 500.549C554.906 502.087 553.832 502.656 552.507 501.94C551.795 501.484 551.204 500.863 550.782 500.129C550.361 499.395 550.123 498.571 550.087 497.726C550.087 496.188 551.16 495.619 552.507 496.335C553.212 496.796 553.798 497.419 554.215 498.152C554.632 498.885 554.869 499.706 554.906 500.549Z" fill="#7A9757"/>
<path d="M471.346 445.471C471.265 444.014 470.841 442.596 470.11 441.333C469.379 440.07 468.36 438.997 467.138 438.202C466.711 437.891 466.209 437.7 465.684 437.648C465.159 437.596 464.629 437.685 464.15 437.907L461.183 439.656H463.035C463.001 439.957 463.001 440.261 463.035 440.562C463.117 442.019 463.54 443.437 464.272 444.7C465.003 445.963 466.021 447.035 467.243 447.831C467.53 447.995 467.833 448.13 468.148 448.231L467.285 449.833L470.189 448.126C470.595 447.822 470.916 447.417 471.119 446.952C471.321 446.486 471.4 445.976 471.346 445.471Z" fill="#7A9757"/>
<path d="M468.338 447.22C468.338 449.896 466.465 450.992 464.129 449.643C462.905 448.85 461.885 447.778 461.153 446.515C460.422 445.251 459.999 443.832 459.921 442.374C459.921 439.698 461.794 438.623 464.129 439.951C465.352 440.746 466.37 441.819 467.101 443.082C467.832 444.345 468.256 445.763 468.338 447.22Z" fill="#B2C0A0"/>
<path d="M466.57 446.188C466.57 447.726 465.476 448.295 464.15 447.578C463.442 447.118 462.854 446.496 462.433 445.764C462.012 445.031 461.771 444.208 461.73 443.364C461.73 441.826 462.825 441.257 464.15 441.974C464.858 442.434 465.447 443.056 465.868 443.788C466.289 444.521 466.529 445.344 466.57 446.188Z" fill="#7A9757"/>
<g opacity="0.51">
<path opacity="0.51" d="M458.511 415.888L563.848 352.192V279.963L458.511 219.069V415.888Z" fill="#7A9757"/>
</g>
</g>
</g>
<defs>
<linearGradient id="paint0_linear_57_47" x1="353.922" y1="568.118" x2="568.852" y2="194.641" gradientUnits="userSpaceOnUse">
<stop stop-color="#7A9757"/>
<stop offset="0.19" stop-color="#ABBD95"/>
<stop offset="0.37" stop-color="#9CBD73"/>
<stop offset="0.51" stop-color="#71A039"/>
<stop offset="0.64" stop-color="#9CC668"/>
<stop offset="0.85" stop-color="#91DC37"/>
<stop offset="1" stop-color="#435133"/>
</linearGradient>
<linearGradient id="paint1_linear_57_47" x1="401.017" y1="475.868" x2="615.947" y2="102.391" gradientUnits="userSpaceOnUse">
<stop stop-color="#7A9757"/>
<stop offset="0.19" stop-color="#ABBD95"/>
<stop offset="0.37" stop-color="#9CBD73"/>
<stop offset="0.51" stop-color="#71A039"/>
<stop offset="0.64" stop-color="#9CC668"/>
<stop offset="0.85" stop-color="#91DC37"/>
<stop offset="1" stop-color="#435133"/>
</linearGradient>
<linearGradient id="paint2_linear_57_47" x1="244.017" y1="504.868" x2="458.947" y2="131.391" gradientUnits="userSpaceOnUse">
<stop stop-color="#7A9757"/>
<stop offset="0.19" stop-color="#ABBD95"/>
<stop offset="0.37" stop-color="#9CBD73"/>
<stop offset="0.51" stop-color="#71A039"/>
<stop offset="0.64" stop-color="#9CC668"/>
<stop offset="0.85" stop-color="#91DC37"/>
<stop offset="1" stop-color="#435133"/>
</linearGradient>
<linearGradient id="paint3_linear_57_47" x1="188.017" y1="473.868" x2="402.947" y2="100.391" gradientUnits="userSpaceOnUse">
<stop stop-color="#7A9757"/>
<stop offset="0.19" stop-color="#ABBD95"/>
<stop offset="0.37" stop-color="#9CBD73"/>
<stop offset="0.51" stop-color="#71A039"/>
<stop offset="0.64" stop-color="#9CC668"/>
<stop offset="0.85" stop-color="#91DC37"/>
<stop offset="1" stop-color="#435133"/>
</linearGradient>
<linearGradient id="paint4_linear_57_47" x1="132.017" y1="440.868" x2="346.947" y2="67.3908" gradientUnits="userSpaceOnUse">
<stop stop-color="#7A9757"/>
<stop offset="0.19" stop-color="#ABBD95"/>
<stop offset="0.37" stop-color="#9CBD73"/>
<stop offset="0.51" stop-color="#71A039"/>
<stop offset="0.64" stop-color="#9CC668"/>
<stop offset="0.85" stop-color="#91DC37"/>
<stop offset="1" stop-color="#435133"/>
</linearGradient>
<linearGradient id="paint5_linear_57_47" x1="-16.9833" y1="406.868" x2="197.947" y2="33.3908" gradientUnits="userSpaceOnUse">
<stop stop-color="#7A9757"/>
<stop offset="0.19" stop-color="#ABBD95"/>
<stop offset="0.37" stop-color="#9CBD73"/>
<stop offset="0.51" stop-color="#71A039"/>
<stop offset="0.64" stop-color="#9CC668"/>
<stop offset="0.85" stop-color="#91DC37"/>
<stop offset="1" stop-color="#435133"/>
</linearGradient>
<linearGradient id="paint6_linear_57_47" x1="203.017" y1="340.868" x2="417.947" y2="-32.6092" gradientUnits="userSpaceOnUse">
<stop stop-color="#7A9757"/>
<stop offset="0.19" stop-color="#ABBD95"/>
<stop offset="0.37" stop-color="#9CBD73"/>
<stop offset="0.51" stop-color="#71A039"/>
<stop offset="0.64" stop-color="#9CC668"/>
<stop offset="0.85" stop-color="#7D9460"/>
<stop offset="1" stop-color="#64853C"/>
</linearGradient>
<clipPath id="clip0_57_47">
<rect width="675" height="598" fill="white"/>
</clipPath>
</defs>
</svg>
