<svg width="989" height="730" viewBox="0 0 989 730" fill="none" xmlns="http://www.w3.org/2000/svg">
<mask id="mask0_63_731" style="mask-type:luminance" maskUnits="userSpaceOnUse" x="0" y="0" width="1191" height="730">
<path d="M1191 0.433594H0V730H1191V0.433594Z" fill="white"/>
</mask>
<g mask="url(#mask0_63_731)">
<g filter="url(#filter0_d_63_731)">
<g opacity="0.3">
<path opacity="0.3" d="M996.08 469.308C995.89 469.303 995.7 469.251 995.528 469.156L776.915 334.488C772.873 332.008 770.656 328.631 770.656 324.948C770.656 321.266 772.873 317.946 776.915 315.408L919.289 227.64C922.598 225.617 924.422 222.965 924.422 220.218C924.422 217.47 922.633 214.837 919.289 212.795L678.213 64.4476C674.129 62.2458 669.618 61.0987 665.042 61.0987C660.466 61.0987 655.954 62.2458 651.87 64.4476L571.017 114.266C567.708 116.307 565.884 118.94 565.884 121.688C565.884 124.435 567.673 127.068 571.017 129.11L691.197 203.141C695.239 205.621 697.457 208.998 697.457 212.681C697.457 216.363 695.239 219.683 691.197 222.221L511.499 332.886C503.612 337.732 490.79 337.732 482.885 332.886L363.581 259.313C363.454 259.235 363.342 259.132 363.252 259.009C363.163 258.885 363.097 258.744 363.059 258.593C363.02 258.442 363.01 258.285 363.029 258.13C363.049 257.975 363.096 257.826 363.17 257.691C363.319 257.415 363.565 257.214 363.854 257.132C364.142 257.05 364.449 257.093 364.708 257.252L484.119 330.749C488.2 332.959 492.713 334.111 497.29 334.111C501.868 334.111 506.38 332.959 510.462 330.749L690.178 220.084C693.486 218.042 695.293 215.409 695.293 212.662C695.293 209.914 693.504 207.262 690.178 205.24L569.962 131.171C565.938 128.69 563.72 125.332 563.72 121.631C563.72 117.929 565.938 114.628 569.962 112.091L650.815 62.2724C658.702 57.4261 671.525 57.4261 679.429 62.2724L920.487 210.887C924.529 213.368 926.747 216.745 926.747 220.427C926.747 224.11 924.529 227.449 920.505 229.967L778.113 317.736C774.805 319.778 772.998 322.411 772.998 325.158C772.998 327.906 774.787 330.558 778.113 332.58L996.74 467.248C996.96 467.383 997.12 467.587 997.21 467.831C997.3 468.074 997.32 468.342 997.25 468.595C997.19 468.848 997.05 469.071 996.85 469.231C996.66 469.391 996.42 469.478 996.17 469.48L996.08 469.308Z" fill="url(#paint0_linear_63_731)"/>
<path opacity="0.3" d="M944.005 368.336C943.808 368.335 943.614 368.278 943.444 368.171C943.274 368.064 943.135 367.91 943.039 367.726C942.962 367.593 942.912 367.444 942.89 367.289C942.869 367.135 942.876 366.977 942.913 366.826C942.95 366.674 943.015 366.532 943.104 366.408C943.193 366.284 943.305 366.181 943.433 366.104L1155.64 235.386C1160.2 232.581 1162.8 228.918 1162.8 225.083C1162.8 221.248 1160.29 217.584 1155.64 214.78L952.124 89.4043C942.27 83.3559 926.264 83.3559 916.356 89.4043L870.931 117.433C870.804 117.536 870.658 117.61 870.502 117.648C870.347 117.687 870.185 117.69 870.029 117.657C869.872 117.624 869.724 117.555 869.593 117.457C869.463 117.358 869.354 117.23 869.274 117.083C869.194 116.936 869.143 116.772 869.127 116.603C869.11 116.433 869.127 116.262 869.178 116.1C869.228 115.938 869.309 115.79 869.418 115.664C869.526 115.539 869.657 115.439 869.804 115.372L915.301 87.3436C925.763 80.8946 942.771 80.8946 953.233 87.3436L1156.77 212.719C1162.14 215.963 1164.94 220.351 1164.94 225.083C1164.94 229.815 1162.05 234.203 1156.77 237.447L944.559 368.165C944.392 368.274 944.201 368.333 944.005 368.336Z" fill="url(#paint1_linear_63_731)"/>
<path opacity="0.3" d="M438.676 730.019C433.071 730.134 427.531 728.722 422.58 725.917L131.805 546.831C127.298 544.045 124.812 540.286 124.812 536.222C124.812 532.158 127.298 528.4 131.805 525.614L230.971 464.557C239.913 459.081 254.221 459.081 263.163 464.557L446.562 577.512C454.825 582.606 468.256 582.606 476.518 577.512L723.978 425.1C727.752 422.753 729.844 419.719 729.844 416.552C729.844 413.385 727.752 410.351 723.961 408.023L650.851 362.975C642.589 357.9 629.158 357.9 620.895 362.975L477.681 451.22C468.739 456.696 454.431 456.696 445.489 451.22L245.314 327.925C237.07 322.83 223.621 322.83 215.359 327.925L1.68117 459.578C1.55293 459.664 1.4096 459.722 1.25978 459.748C1.10996 459.774 0.956751 459.768 0.809351 459.729C0.661941 459.691 0.523371 459.621 0.401971 459.523C0.280571 459.426 0.178841 459.304 0.102871 459.164C0.0269114 459.023 -0.0217087 458.868 -0.0400687 458.707C-0.0584287 458.547 -0.0461485 458.384 -0.0039685 458.228C0.0382115 458.072 0.109421 457.928 0.205381 457.802C0.301351 457.677 0.420092 457.573 0.554482 457.498L214.25 325.845C223.192 320.369 237.499 320.369 246.441 325.845L446.562 449.16C454.807 454.235 468.256 454.235 476.5 449.16L619.822 360.857C628.764 355.381 643.071 355.381 652.013 360.857L725.141 405.905C729.648 408.672 732.133 412.431 732.133 416.495C732.133 420.559 729.648 424.318 725.141 427.103L477.681 579.591C468.739 585.048 454.431 585.048 445.489 579.591L262.072 466.599C253.809 461.505 240.36 461.505 232.116 466.599L132.949 527.655C129.158 530.002 127.066 533.036 127.066 536.203C127.066 539.371 129.158 542.404 132.949 544.732L423.689 723.818C431.951 728.912 445.382 728.912 453.645 723.818L829.869 492.109C829.996 492.006 830.142 491.932 830.298 491.894C830.454 491.855 830.615 491.852 830.772 491.885C830.928 491.918 831.077 491.987 831.207 492.086C831.337 492.184 831.446 492.312 831.526 492.459C831.607 492.606 831.657 492.77 831.674 492.939C831.69 493.109 831.673 493.28 831.623 493.442C831.573 493.604 831.491 493.752 831.383 493.878C831.275 494.003 831.143 494.103 830.996 494.17L454.771 725.917C449.82 728.722 444.281 730.134 438.676 730.019Z" fill="url(#paint2_linear_63_731)"/>
<path opacity="0.3" d="M716.861 641.335C716.666 641.339 716.475 641.286 716.306 641.182L653.712 602.679C653.467 602.512 653.291 602.251 653.221 601.95C653.152 601.649 653.194 601.33 653.34 601.061C653.485 600.793 653.723 600.595 654.002 600.508C654.282 600.422 654.581 600.454 654.839 600.599L717.433 639.103C717.688 639.265 717.873 639.529 717.946 639.837C718.02 640.144 717.977 640.47 717.826 640.744C717.73 640.926 717.589 641.077 717.42 641.181C717.25 641.285 717.057 641.338 716.861 641.335Z" fill="url(#paint3_linear_63_731)"/>
<path opacity="0.3" d="M545.926 217.756C545.73 217.759 545.537 217.706 545.367 217.602C545.197 217.498 545.056 217.347 544.96 217.165C544.811 216.889 544.77 216.561 544.848 216.253C544.925 215.946 545.113 215.683 545.371 215.524L627.638 164.809C627.896 164.65 628.203 164.607 628.492 164.689C628.78 164.771 629.026 164.972 629.176 165.248C629.249 165.383 629.297 165.532 629.316 165.687C629.335 165.842 629.325 165.999 629.287 166.15C629.249 166.301 629.183 166.442 629.093 166.566C629.003 166.689 628.892 166.792 628.764 166.87L546.409 217.604C546.259 217.69 546.095 217.742 545.926 217.756Z" fill="url(#paint4_linear_63_731)"/>
<path opacity="0.3" d="M546.713 240.023H509.675C509.376 240.023 509.09 239.896 508.878 239.671C508.667 239.445 508.548 239.139 508.548 238.821V215.924C508.546 215.766 508.573 215.608 508.629 215.461C508.685 215.314 508.768 215.181 508.873 215.069C508.978 214.957 509.103 214.868 509.241 214.809C509.379 214.749 509.526 214.72 509.675 214.722H546.713C547.011 214.722 547.298 214.849 547.509 215.075C547.721 215.3 547.839 215.606 547.839 215.924V238.821C547.835 239.134 547.72 239.434 547.517 239.66C547.305 239.89 547.015 240.02 546.713 240.023ZM510.748 237.619H545.64V217.165H510.784L510.748 237.619Z" fill="url(#paint5_linear_63_731)"/>
<path opacity="0.3" d="M990.056 187.591H952.965C952.826 187.598 952.687 187.577 952.556 187.527C952.426 187.478 952.305 187.401 952.202 187.302C952.099 187.203 952.016 187.083 951.956 186.949C951.897 186.815 951.863 186.67 951.856 186.522V165.839C951.87 165.539 951.994 165.257 952.201 165.053C952.409 164.85 952.683 164.741 952.965 164.752H990.056C990.197 164.744 990.338 164.766 990.471 164.817C990.604 164.867 990.726 164.945 990.831 165.046C990.935 165.147 991.02 165.269 991.081 165.405C991.141 165.541 991.176 165.689 991.183 165.839V186.522C991.164 186.822 991.036 187.103 990.825 187.303C990.614 187.503 990.338 187.606 990.056 187.591ZM954.091 185.435H988.929V166.927H954.091V185.435Z" fill="url(#paint6_linear_63_731)"/>
<path opacity="0.3" d="M447.528 676.995C440.615 677.121 433.786 675.354 427.695 671.863C422.187 668.486 419.146 663.887 419.146 658.965C419.146 654.042 422.187 649.425 427.695 646.048C438.622 639.312 456.417 639.312 467.362 646.048C472.87 649.444 475.91 654.023 475.91 658.965C475.91 663.906 472.87 668.505 467.362 671.863C461.27 675.354 454.442 677.121 447.528 676.995ZM447.528 643.434C441.008 643.295 434.562 644.937 428.804 648.204C424.029 651.142 421.382 654.996 421.382 659.041C421.382 663.086 424.029 666.921 428.804 669.879C439.123 676.232 455.916 676.232 466.235 669.879C471.028 666.921 473.657 663.086 473.657 659.041C473.657 654.996 471.028 651.142 466.235 648.204C460.484 644.934 454.043 643.292 447.528 643.434Z" fill="url(#paint7_linear_63_731)"/>
<path opacity="0.3" d="M378.246 634.313C371.333 634.462 364.499 632.721 358.395 629.257C352.886 625.88 349.864 621.281 349.864 616.359C349.864 611.436 352.886 606.819 358.395 603.461C369.34 596.706 387.134 596.706 398.079 603.461C403.587 606.838 406.61 611.436 406.61 616.359C406.61 621.281 403.587 625.899 398.079 629.276C391.976 632.723 385.15 634.456 378.246 634.313ZM378.246 600.751C371.731 600.61 365.29 602.252 359.539 605.521C354.746 608.46 352.117 612.314 352.117 616.359C352.117 620.404 354.746 624.239 359.539 627.196C369.858 633.55 386.651 633.55 396.97 627.196C401.763 624.258 404.392 620.404 404.392 616.359C404.392 612.314 401.763 608.46 396.97 605.521C391.207 602.251 384.755 600.609 378.228 600.751H378.246Z" fill="url(#paint8_linear_63_731)"/>
<path opacity="0.3" d="M239.663 548.968C232.757 549.109 225.93 547.369 219.83 543.911C214.304 540.515 211.281 535.936 211.281 530.994C211.281 526.052 214.304 521.454 219.812 518.096C230.757 511.361 248.551 511.361 259.496 518.096C265.005 521.492 268.045 526.072 268.045 530.994C268.045 535.917 265.005 540.534 259.496 543.911C253.394 547.365 246.569 549.105 239.663 548.968ZM239.663 515.387C233.143 515.248 226.697 516.89 220.939 520.157C216.146 523.114 213.517 526.949 213.517 530.994C213.517 535.039 216.146 538.893 220.939 541.832C231.258 548.185 248.051 548.185 258.37 541.832C263.163 538.893 265.792 535.039 265.792 530.994C265.792 526.949 263.163 523.114 258.37 520.157C252.614 516.903 246.176 515.268 239.663 515.406V515.387Z" fill="url(#paint9_linear_63_731)"/>
<path opacity="0.3" d="M258.942 520.329C258.743 520.325 258.547 520.267 258.375 520.161C258.203 520.054 258.059 519.901 257.958 519.718C257.885 519.583 257.837 519.434 257.818 519.279C257.799 519.124 257.809 518.966 257.847 518.816C257.885 518.665 257.951 518.524 258.041 518.4C258.131 518.277 258.242 518.173 258.37 518.096L303.687 490.182C303.814 490.079 303.961 490.005 304.116 489.967C304.272 489.928 304.433 489.925 304.59 489.958C304.747 489.991 304.895 490.06 305.025 490.158C305.155 490.257 305.264 490.385 305.344 490.532C305.425 490.679 305.475 490.843 305.492 491.012C305.508 491.182 305.491 491.353 305.441 491.515C305.391 491.677 305.309 491.825 305.201 491.951C305.093 492.076 304.961 492.176 304.814 492.243L259.496 520.157C259.329 520.266 259.138 520.325 258.942 520.329Z" fill="url(#paint10_linear_63_731)"/>
<path opacity="0.3" d="M385.006 596.382C384.81 596.385 384.617 596.332 384.447 596.228C384.277 596.124 384.136 595.973 384.04 595.791C383.964 595.655 383.914 595.504 383.893 595.347C383.873 595.19 383.882 595.03 383.92 594.877C383.959 594.724 384.025 594.581 384.117 594.456C384.208 594.331 384.322 594.227 384.451 594.15L429.769 566.235C430.022 566.12 430.305 566.107 430.566 566.199C430.827 566.291 431.047 566.482 431.186 566.735C431.324 566.988 431.371 567.286 431.318 567.574C431.264 567.861 431.114 568.118 430.896 568.296L385.56 596.21C385.394 596.321 385.202 596.381 385.006 596.382Z" fill="url(#paint11_linear_63_731)"/>
<path opacity="0.3" d="M507.368 693.328C507.166 693.327 506.968 693.268 506.796 693.156L469.239 669.745C469.111 669.666 468.999 669.561 468.909 669.435C468.82 669.31 468.755 669.166 468.718 669.013C468.682 668.86 468.674 668.701 468.696 668.545C468.718 668.389 468.769 668.239 468.846 668.104C468.918 667.968 469.015 667.849 469.131 667.754C469.247 667.658 469.381 667.589 469.522 667.55C469.664 667.511 469.812 667.502 469.957 667.525C470.102 667.549 470.241 667.603 470.366 667.684L507.922 691.095C508.174 691.262 508.356 691.525 508.429 691.831C508.502 692.137 508.462 692.462 508.316 692.736C508.218 692.913 508.08 693.06 507.914 693.164C507.748 693.267 507.56 693.324 507.368 693.328Z" fill="url(#paint12_linear_63_731)"/>
<path opacity="0.3" d="M753.952 664.116H716.86C716.565 664.111 716.283 663.983 716.075 663.758C715.868 663.533 715.752 663.23 715.752 662.914V640.018C715.749 639.862 715.776 639.707 715.831 639.562C715.886 639.418 715.968 639.286 716.071 639.176C716.174 639.065 716.298 638.978 716.433 638.92C716.569 638.861 716.714 638.832 716.86 638.835H753.952C754.246 638.835 754.528 638.96 754.736 639.181C754.944 639.403 755.061 639.704 755.061 640.018V662.914C755.063 663.07 755.036 663.225 754.981 663.37C754.926 663.515 754.845 663.646 754.741 663.757C754.638 663.867 754.515 663.954 754.379 664.013C754.243 664.071 754.098 664.1 753.952 664.097V664.116ZM717.987 661.731H752.825V641.335H717.987V661.731Z" fill="url(#paint13_linear_63_731)"/>
</g>
<path opacity="0.5" d="M734.923 508.671L601.938 425.73C600.561 424.871 600.722 423.383 602.332 422.391L707.275 357.881C708.09 357.398 708.999 357.125 709.93 357.082C710.861 357.039 711.789 357.227 712.64 357.633L845.625 440.555C847.02 441.394 846.841 442.902 845.232 443.875L740.289 508.404C739.475 508.891 738.567 509.168 737.636 509.215C736.704 509.261 735.775 509.075 734.923 508.671Z" fill="#6C7D57"/>
<path d="M850.239 150.48L763.484 203.313V364.998V472.953C764.459 472.915 765.413 472.641 766.274 472.152L848.952 421.208C849.304 421.035 849.608 420.769 849.837 420.435C850.066 420.101 850.21 419.71 850.257 419.3L850.239 150.48Z" fill="#838383"/>
<path d="M767.043 430.767V201.137L763.466 203.313V364.998V472.953H764.074H764.199C764.652 472.878 765.096 472.75 765.523 472.571H765.612C765.832 472.475 766.047 472.366 766.256 472.247L767.025 471.77L767.043 430.767Z" fill="#838383"/>
<path d="M760.855 203.561L623.381 118.883C621.986 118.024 622.165 116.517 623.757 115.544L706.398 64.6385C707.213 64.1561 708.122 63.8825 709.054 63.8395C709.985 63.7964 710.913 63.985 711.764 64.3905L849.291 149.068C850.686 149.926 850.507 151.434 848.916 152.407L766.274 203.313C765.452 203.804 764.533 204.083 763.592 204.126C762.651 204.169 761.713 203.975 760.855 203.561Z" fill="#838383"/>
<path d="M710.458 73.396L644.395 114.075L638.01 112.816V118.025L762.214 194.536L825.112 148.915L710.458 73.396Z" fill="#3C3C3C"/>
<path d="M834.68 144.698V149.907L762.214 194.536V189.327L834.68 144.698Z" fill="#3C3C3C"/>
<path d="M762.214 189.327L638.01 112.816L710.458 68.1875L834.68 144.698L762.214 189.327Z" fill="#3C3C3C"/>
<path d="M684.366 107.225L682.38 106.004L682.541 105.031L700.908 93.6211L703.466 94.9185L702.983 95.758L684.366 107.225Z" fill="#8E9F78"/>
<path d="M700.997 94.5563L702.982 95.7584L704.252 94.9761L700.997 92.9727L681.11 105.222L682.398 106.023L700.997 94.5563Z" fill="#8E9F78"/>
<path d="M690.374 110.927L688.389 109.706L688.55 108.713L706.917 97.3037L709.457 98.6011L708.992 99.4597L690.374 110.927Z" fill="#8E9F78"/>
<path d="M707.006 98.2384L708.991 99.4595L710.261 98.6582L707.006 96.6738L687.119 108.923L688.389 109.706L707.006 98.2384Z" fill="#8E9F78"/>
<path d="M696.383 114.609L694.398 113.388L694.559 112.396L712.926 101.005L715.465 102.302L715 103.142L696.383 114.609Z" fill="#8E9F78"/>
<path d="M713.015 101.921L715 103.142L716.27 102.36L713.015 100.356L693.128 112.606L694.398 113.388L713.015 101.921Z" fill="#8E9F78"/>
<path d="M702.392 118.292L700.407 117.07L700.568 116.097L718.935 104.688L721.475 105.985L720.992 106.824L702.392 118.292Z" fill="#8E9F78"/>
<path d="M719.024 105.622L720.992 106.824L722.279 106.042L719.024 104.039L699.137 116.288L700.407 117.07L719.024 105.622Z" fill="#8E9F78"/>
<path d="M719.954 129.186L717.969 127.965L718.13 126.973L736.497 115.582L739.037 116.88L738.572 117.719L719.954 129.186Z" fill="#8E9F78"/>
<path d="M736.586 116.498L738.572 117.719L739.841 116.937L736.586 114.933L716.699 127.183L717.969 127.965L736.586 116.498Z" fill="#8E9F78"/>
<path d="M725.963 132.869L723.978 131.648L724.139 130.655L742.506 119.265L745.046 120.562L744.581 121.402L725.963 132.869Z" fill="#8E9F78"/>
<path d="M742.595 120.2L744.581 121.402L745.85 120.619L742.595 118.616L722.708 130.865L723.978 131.667L742.595 120.2Z" fill="#8E9F78"/>
<path d="M731.972 136.57L729.987 135.349L730.148 134.357L748.515 122.966L751.055 124.245L750.572 125.103L731.972 136.57Z" fill="#8E9F78"/>
<path d="M748.605 123.882L750.572 125.103L751.859 124.302L748.605 122.318L728.718 134.567L729.987 135.349L748.605 123.882Z" fill="#8E9F78"/>
<path d="M737.964 140.253L735.997 139.032L736.158 138.039L754.506 126.649L757.064 127.946L756.581 128.786L737.964 140.253Z" fill="#8E9F78"/>
<path d="M754.614 127.565L756.581 128.786L757.868 128.003L754.614 126L734.727 138.249L735.996 139.032L754.614 127.565Z" fill="#8E9F78"/>
<path d="M755.543 151.148L753.558 149.926L753.719 148.934L772.086 137.543L774.626 138.822L774.161 139.68L755.543 151.148Z" fill="#8E9F78"/>
<path d="M772.176 138.459L774.161 139.68L775.43 138.879L772.176 136.895L752.289 149.144L753.558 149.926L772.176 138.459Z" fill="#8E9F78"/>
<path d="M761.552 154.83L759.567 153.609L759.728 152.617L778.077 141.226L780.635 142.523L780.17 143.363L761.552 154.83Z" fill="#8E9F78"/>
<path d="M778.185 142.142L780.17 143.363L781.439 142.581L778.185 140.577L758.298 152.827L759.567 153.609L778.185 142.142Z" fill="#8E9F78"/>
<path d="M767.562 158.512L765.576 157.291L765.737 156.299L784.086 144.908L786.644 146.206L786.161 147.045L767.562 158.512Z" fill="#8E9F78"/>
<path d="M784.194 145.824L786.161 147.045L787.448 146.263L784.194 144.26L764.307 156.509L765.576 157.291L784.194 145.824Z" fill="#8E9F78"/>
<path d="M773.553 162.195L771.585 160.993L771.746 160.001L790.095 148.591L792.653 149.888L792.17 150.747L773.553 162.195Z" fill="#8E9F78"/>
<path d="M790.203 149.526L792.17 150.747L793.457 149.945L790.203 147.942L770.316 160.191L771.585 160.993L790.203 149.526Z" fill="#8E9F78"/>
<path d="M779.973 367.535C779.564 367.532 779.163 367.413 778.811 367.192C778.458 366.976 778.164 366.665 777.96 366.29C777.756 365.915 777.648 365.489 777.648 365.055V281.77C777.651 280.839 777.882 279.925 778.318 279.118C778.754 278.312 779.38 277.641 780.134 277.172L836.54 242.427C836.893 242.21 837.293 242.095 837.7 242.094C838.107 242.094 838.507 242.208 838.86 242.424C839.214 242.64 839.507 242.952 839.712 243.327C839.917 243.703 840.026 244.129 840.027 244.564V327.848C840.026 328.78 839.796 329.695 839.36 330.502C838.924 331.309 838.297 331.979 837.542 332.447L781.136 367.192C780.784 367.415 780.382 367.534 779.973 367.535ZM837.702 243.514C837.526 243.521 837.354 243.573 837.202 243.667L780.796 278.412C780.242 278.753 779.784 279.246 779.469 279.84C779.155 280.434 778.995 281.107 779.007 281.789V365.055C779.009 365.241 779.056 365.425 779.145 365.586C779.233 365.747 779.36 365.88 779.512 365.973C779.664 366.066 779.836 366.114 780.011 366.114C780.186 366.113 780.358 366.064 780.51 365.971L836.916 331.226C837.469 330.885 837.927 330.392 838.242 329.798C838.556 329.204 838.716 328.531 838.704 327.848V244.564C838.702 244.378 838.655 244.196 838.568 244.035C838.48 243.874 838.354 243.741 838.203 243.648C838.051 243.552 837.879 243.499 837.702 243.495V243.514Z" fill="#8E9F78"/>
<path d="M676.282 240.519L659.489 230.196V226.266L676.282 236.588V240.519Z" fill="#67893E"/>
<path d="M684.884 245.823L678.839 242.102V238.172L684.884 241.893V245.823Z" fill="#67893E"/>
<path d="M691.555 249.925L687.441 247.407V243.476L691.555 245.995V249.925Z" fill="#67893E"/>
<path d="M668.645 244.793L659.489 239.164V235.234L668.645 240.862V244.793Z" fill="#67893E"/>
<path d="M682.398 253.283L671.203 246.376V242.446L682.398 249.353V253.283Z" fill="#67893E"/>
<path d="M689.087 257.386L684.973 254.867V250.937L689.087 253.455V257.386Z" fill="#67893E"/>
<path d="M695.418 261.297L691.322 258.778V254.848L695.418 257.367V261.297Z" fill="#67893E"/>
<path d="M666.106 252.234L659.489 248.151V244.22L666.106 248.303V252.234Z" fill="#67893E"/>
<path d="M670.935 255.191L668.681 253.798V249.868L670.935 251.261V255.191Z" fill="#67893E"/>
<path d="M677.605 259.313L673.492 256.775V252.844L677.605 255.382V259.313Z" fill="#67893E"/>
<path d="M683.918 272.173L659.489 257.138V253.207L683.918 268.242V272.173Z" fill="#67893E"/>
<path d="M692.52 277.477L686.476 273.756V269.826L692.52 273.546V277.477Z" fill="#67893E"/>
<path d="M666.106 270.188L659.489 266.124V262.194L666.106 266.258V270.188Z" fill="#67893E"/>
<path d="M681.629 279.747L668.681 271.772V267.842L681.629 275.817V279.747Z" fill="#67893E"/>
<path d="M688.3 283.869L684.204 281.331V277.401L688.3 279.938V283.869Z" fill="#67893E"/>
<path d="M673.027 283.43L659.489 275.092V271.161L673.027 279.499V283.43Z" fill="#67893E"/>
<path d="M685.385 291.043L675.602 285.014V281.083L685.385 287.112V291.043Z" fill="#67893E"/>
<path d="M694.559 296.691L687.942 292.627V288.696L694.559 292.76V296.691Z" fill="#67893E"/>
<path d="M664.067 286.902L659.489 284.079V280.148L664.067 282.953V286.902Z" fill="#67893E"/>
<path d="M672.669 292.188L666.625 288.467V284.537L672.669 288.257V292.188Z" fill="#67893E"/>
<path d="M684.973 299.762L675.227 293.771V289.841L684.973 295.832V299.762Z" fill="#67893E"/>
<path d="M673.492 301.69L659.489 293.065V289.135L673.492 297.759V301.69Z" fill="#67893E"/>
<path d="M689.194 311.344L676.067 303.273V299.343L689.194 307.414V311.344Z" fill="#67893E"/>
<path d="M695.847 315.446L691.751 312.928V308.997L695.847 311.516V315.446Z" fill="#67893E"/>
<path d="M702.249 319.396L698.154 316.877V312.947L702.249 315.466V319.396Z" fill="#67893E"/>
<path d="M667.876 307.204L659.489 302.033V298.103L667.876 303.273V307.204Z" fill="#67893E"/>
<path d="M702.982 256.966L714.607 264.14V260.209L702.982 253.035V256.966Z" fill="#67893E"/>
<path d="M705.468 267.498L714.607 273.127V269.196L705.468 263.568V267.498Z" fill="#67893E"/>
<path d="M707.99 278.03L714.607 282.113V278.164L707.99 274.1V278.03Z" fill="#67893E"/>
<path d="M704.986 285.147L714.607 291.081V287.15L704.986 281.217V285.147Z" fill="#67893E"/>
<path d="M707.99 295.985L714.607 300.068V296.137L707.99 292.054V295.985Z" fill="#67893E"/>
<path d="M706.22 303.884L714.607 309.055V305.124L706.22 299.953V303.884Z" fill="#67893E"/>
<path d="M710.047 315.217L714.607 318.022V314.092L710.047 311.287V315.217Z" fill="#67893E"/>
<path d="M705.755 321.552L714.607 327.009V323.078L705.755 317.621V321.552Z" fill="#67893E"/>
<path d="M706.22 330.825L714.607 335.996V332.065L706.22 326.894V330.825Z" fill="#67893E"/>
<path d="M674.011 310.982L670.452 308.787V304.857L674.011 307.051V310.982Z" fill="#67893E"/>
<path d="M684.616 317.507L676.586 312.565V308.635L684.616 313.577V317.507Z" fill="#67893E"/>
<path d="M691.251 347.73L677.695 339.373V335.442L691.251 343.8V347.73Z" fill="#67893E"/>
<path d="M700.532 353.435L695.203 350.153V346.223L700.532 349.504V353.435Z" fill="#67893E"/>
<path d="M762.787 204.992L622.433 117.986L622.451 386.367L763.43 473.544L762.787 204.992Z" fill="#8E9F78"/>
<path d="M753.827 207.625C753.78 206.692 753.527 205.784 753.088 204.975C752.65 204.166 752.039 203.479 751.305 202.969C751.048 202.775 750.747 202.657 750.433 202.626C750.118 202.596 749.802 202.655 749.517 202.797L747.728 203.923H748.837C748.818 204.113 748.818 204.305 748.837 204.496C748.888 205.432 749.144 206.344 749.585 207.156C750.026 207.968 750.64 208.658 751.377 209.17C751.545 209.277 751.725 209.36 751.913 209.418L751.394 210.448L753.183 209.361C753.421 209.155 753.605 208.887 753.717 208.583C753.83 208.279 753.868 207.949 753.827 207.625Z" fill="#455334"/>
<path d="M752.038 208.75C752.038 210.468 750.894 211.154 749.499 210.296C748.764 209.786 748.153 209.099 747.715 208.29C747.277 207.481 747.024 206.573 746.977 205.64C746.977 203.923 748.104 203.236 749.499 204.095C750.235 204.603 750.849 205.29 751.29 206.099C751.731 206.907 751.988 207.816 752.038 208.75Z" fill="#67893E"/>
<path d="M750.948 208.082C750.948 209.074 750.304 209.475 749.499 208.979C749.078 208.686 748.727 208.292 748.476 207.828C748.224 207.364 748.078 206.843 748.05 206.308C748.05 205.316 748.694 204.915 749.499 205.411C749.92 205.704 750.27 206.098 750.522 206.562C750.774 207.026 750.92 207.547 750.948 208.082Z" fill="#455334"/>
<path d="M633.199 133.136C633.162 132.211 632.923 131.309 632.501 130.5C632.079 129.692 631.485 129 630.767 128.48C630.51 128.286 630.209 128.168 629.895 128.138C629.581 128.108 629.265 128.167 628.979 128.309L627.19 129.415H628.299C628.281 129.606 628.281 129.797 628.299 129.988C628.332 130.925 628.573 131.842 629.002 132.661C629.431 133.48 630.036 134.179 630.767 134.7C630.936 134.807 631.116 134.89 631.304 134.948L630.785 135.979L632.574 134.891C632.811 134.681 632.993 134.409 633.103 134.101C633.213 133.794 633.246 133.461 633.199 133.136Z" fill="#455334"/>
<path d="M631.393 134.262C631.393 135.979 630.267 136.666 628.872 135.807C628.135 135.299 627.521 134.612 627.08 133.803C626.639 132.994 626.383 132.086 626.332 131.152C626.332 129.434 627.477 128.747 628.872 129.606C629.606 130.115 630.217 130.803 630.655 131.612C631.093 132.421 631.346 133.329 631.393 134.262Z" fill="#67893E"/>
<path d="M630.32 133.593C630.32 134.585 629.676 134.986 628.872 134.49C628.448 134.198 628.095 133.805 627.84 133.341C627.585 132.877 627.436 132.356 627.405 131.819C627.405 130.827 628.067 130.427 628.872 130.923C629.293 131.215 629.643 131.609 629.895 132.073C630.146 132.537 630.292 133.058 630.32 133.593Z" fill="#455334"/>
<path d="M753.862 459.101C753.815 458.168 753.563 457.26 753.124 456.451C752.686 455.642 752.075 454.954 751.341 454.445C751.085 454.248 750.785 454.126 750.471 454.093C750.157 454.059 749.84 454.115 749.553 454.254L747.764 455.361H748.873C748.854 455.551 748.854 455.743 748.873 455.933C748.919 456.869 749.174 457.779 749.615 458.589C750.057 459.398 750.673 460.084 751.412 460.589C751.58 460.701 751.761 460.791 751.949 460.856L751.43 461.867L753.219 460.78C753.448 460.579 753.627 460.32 753.74 460.027C753.852 459.734 753.894 459.415 753.862 459.101Z" fill="#455334"/>
<path d="M752.056 460.226C752.056 461.924 750.929 462.63 749.534 461.772C748.798 461.263 748.184 460.577 747.743 459.768C747.302 458.959 747.045 458.051 746.995 457.116C746.995 455.399 748.139 454.712 749.534 455.552C750.269 456.065 750.88 456.756 751.318 457.568C751.756 458.38 752.009 459.291 752.056 460.226Z" fill="#67893E"/>
<path d="M750.983 459.558C750.983 460.55 750.339 460.95 749.535 460.454C749.109 460.161 748.754 459.764 748.499 459.297C748.244 458.83 748.097 458.305 748.068 457.765C748.068 456.792 748.73 456.391 749.535 456.887C749.959 457.176 750.312 457.57 750.564 458.035C750.816 458.499 750.96 459.022 750.983 459.558Z" fill="#455334"/>
<path d="M632.663 384.745C632.616 383.812 632.363 382.904 631.925 382.095C631.486 381.286 630.875 380.599 630.141 380.09C629.884 379.896 629.583 379.777 629.269 379.747C628.955 379.717 628.639 379.776 628.353 379.918L626.564 381.025H627.673C627.654 381.221 627.654 381.42 627.673 381.616C627.725 382.55 627.982 383.458 628.423 384.267C628.864 385.075 629.477 385.762 630.213 386.272C630.381 386.378 630.561 386.462 630.749 386.52L630.231 387.55L632.019 386.463C632.254 386.258 632.436 385.993 632.549 385.693C632.662 385.392 632.701 385.066 632.663 384.745Z" fill="#455334"/>
<path d="M630.857 385.871C630.857 387.588 629.73 388.275 628.335 387.417C627.598 386.908 626.985 386.222 626.543 385.413C626.102 384.604 625.846 383.695 625.795 382.761C625.795 381.044 626.94 380.357 628.335 381.216C629.069 381.725 629.68 382.412 630.118 383.221C630.557 384.03 630.81 384.938 630.857 385.871Z" fill="#67893E"/>
<path d="M629.784 385.203C629.784 386.195 629.14 386.595 628.335 386.099C627.911 385.809 627.557 385.415 627.302 384.951C627.047 384.487 626.898 383.965 626.868 383.428C626.868 382.436 627.53 382.036 628.335 382.532C628.756 382.824 629.106 383.219 629.358 383.683C629.61 384.147 629.756 384.667 629.784 385.203Z" fill="#455334"/>
<g opacity="0.51">
<path opacity="0.51" d="M623.148 372.858L762.858 295.355V207.434L623.148 133.327V372.858Z" fill="#455334"/>
</g>
<path d="M840.01 331.149L778.972 368.756V279.728L840.01 242.141V331.149Z" fill="#BCD5FF"/>
<path d="M836.612 244.239V329.47L778.972 364.978V368.756L840.01 331.149V242.141L836.612 244.239Z" fill="#455334"/>
<path d="M876.779 354.122L873.506 356.03L840.707 335.824C840.378 335.642 840.013 335.546 839.643 335.546C839.273 335.546 838.908 335.642 838.579 335.824L781.994 370.664C781.457 370.34 778.99 369.08 778.99 369.08L780.188 372.4C780.254 372.572 780.374 372.714 780.527 372.801L815.079 394.075C815.408 394.258 815.773 394.353 816.143 394.353C816.514 394.353 816.879 394.258 817.207 394.075L875.098 358.415C875.323 358.303 875.502 358.106 875.599 357.861L876.779 354.122Z" fill="#606060"/>
<path d="M876.278 354.694L816.939 391.252C816.601 391.434 816.227 391.53 815.848 391.53C815.469 391.53 815.096 391.434 814.757 391.252L779.347 369.443C778.793 369.1 778.846 368.489 779.508 368.088L838.829 331.55C839.162 331.351 839.535 331.236 839.916 331.217C840.298 331.197 840.679 331.272 841.029 331.436L876.439 353.244C876.994 353.702 876.922 354.294 876.278 354.694Z" fill="#606060"/>
<path d="M799.055 383.333V382.646L801.362 384.076C801.374 384.103 801.38 384.133 801.38 384.162C801.38 384.192 801.374 384.221 801.362 384.248V384.934L799.055 383.524C799.041 383.494 799.034 383.461 799.034 383.428C799.034 383.395 799.041 383.362 799.055 383.333Z" fill="#67893E"/>
<path d="M802.453 385.451V384.764L804.76 386.175C804.777 386.231 804.777 386.291 804.76 386.347V387.052L802.453 385.641C802.439 385.612 802.432 385.579 802.432 385.546C802.432 385.513 802.439 385.48 802.453 385.451Z" fill="#67893E"/>
<path d="M788.575 367.497L837.881 337.121C838.04 337.019 838.223 336.964 838.409 336.964C838.595 336.964 838.777 337.019 838.936 337.121L856.498 347.959C856.554 347.997 856.599 348.049 856.631 348.111C856.662 348.172 856.679 348.242 856.679 348.312C856.679 348.382 856.662 348.451 856.631 348.513C856.599 348.575 856.554 348.627 856.498 348.665L807.228 379.021C807.063 379.115 806.879 379.164 806.692 379.164C806.505 379.164 806.32 379.115 806.155 379.021L788.575 368.184C788.52 368.148 788.474 368.098 788.442 368.038C788.41 367.977 788.393 367.909 788.393 367.84C788.393 367.771 788.41 367.703 788.442 367.643C788.474 367.583 788.52 367.532 788.575 367.497Z" fill="#606060"/>
<path d="M788.575 368.184L788.754 368.298L837.881 337.961C838.04 337.858 838.223 337.804 838.409 337.804C838.595 337.804 838.777 337.858 838.936 337.961L856.32 348.684H856.498C856.554 348.646 856.599 348.594 856.631 348.532C856.662 348.47 856.679 348.401 856.679 348.331C856.679 348.261 856.662 348.192 856.631 348.13C856.599 348.068 856.554 348.016 856.498 347.978L838.936 337.141C838.777 337.038 838.595 336.984 838.409 336.984C838.223 336.984 838.04 337.038 837.881 337.141L788.575 367.516C788.524 367.553 788.481 367.602 788.452 367.66C788.423 367.719 788.407 367.784 788.407 367.85C788.407 367.916 788.423 367.981 788.452 368.039C788.481 368.098 788.524 368.147 788.575 368.184Z" fill="#606060"/>
<path d="M840.278 339.869L797.446 366.238L795.532 365.074L838.364 338.686L840.278 339.869Z" fill="#67893E"/>
<path d="M844.945 342.731L804.76 367.478L802.864 366.314L843.032 341.567L844.945 342.731Z" fill="#67893E"/>
<path d="M847.986 344.601L800.683 373.736L798.769 372.572L846.072 343.437L847.986 344.601Z" fill="#67893E"/>
<path d="M851.026 346.49L803.723 375.606L801.827 374.442L849.112 345.307L851.026 346.49Z" fill="#67893E"/>
<path d="M854.066 348.36L806.763 377.495L804.867 376.312L852.153 347.177L854.066 348.36Z" fill="#67893E"/>
<path d="M794.853 367.839L792.957 369.002L791.043 367.839L792.957 366.657L794.853 367.839Z" fill="#67893E"/>
<path d="M801.577 369.443L797.625 371.885L795.711 370.702L799.663 368.279L801.577 369.443Z" fill="#67893E"/>
<path d="M839.777 374.843L853.083 366.657C853.198 366.618 853.3 366.541 853.371 366.436C853.443 366.331 853.482 366.205 853.482 366.075C853.482 365.946 853.443 365.82 853.371 365.715C853.3 365.61 853.198 365.533 853.083 365.494L843.98 359.903C843.69 359.743 843.368 359.659 843.041 359.659C842.714 359.659 842.392 359.743 842.102 359.903L828.814 368.088C828.705 368.132 828.61 368.21 828.543 368.312C828.477 368.415 828.441 368.536 828.441 368.661C828.441 368.785 828.477 368.907 828.543 369.009C828.61 369.112 828.705 369.19 828.814 369.233L837.899 374.843C838.189 375.003 838.511 375.087 838.838 375.087C839.165 375.087 839.487 375.003 839.777 374.843Z" fill="#606060"/>
<path d="M828.814 368.489L842.102 360.285C842.395 360.134 842.716 360.056 843.041 360.056C843.366 360.056 843.687 360.134 843.98 360.285L853.083 365.894C853.219 365.972 853.331 366.092 853.404 366.238C853.548 365.951 853.405 365.646 853.083 365.417L843.98 359.827C843.69 359.666 843.368 359.582 843.041 359.582C842.714 359.582 842.392 359.666 842.102 359.827L828.814 368.012C828.741 368.042 828.674 368.086 828.617 368.144C828.56 368.201 828.515 368.27 828.483 368.347C828.452 368.423 828.435 368.505 828.433 368.589C828.431 368.672 828.445 368.755 828.474 368.833C828.555 368.686 828.673 368.567 828.814 368.489Z" fill="#606060"/>
<path d="M836.612 244.24L778.972 279.729V364.978L836.612 329.47V244.24Z" fill="#455334"/>
<path d="M836.612 244.24L778.972 279.729V364.978L836.612 329.47V244.24Z" fill="#455334"/>
<g opacity="0.11">
<path opacity="0.51" d="M833.41 331.455V250.116L778.971 283.64V364.978L833.41 331.455Z" fill="#4553C7"/>
<g opacity="0.11">
<path opacity="0.11" d="M838.99 331.512L779.973 367.898C779.642 368.095 779.272 368.207 778.893 368.223C778.514 368.24 778.136 368.161 777.791 367.993L742.56 346.28C741.987 345.936 742.059 345.345 742.703 344.944L801.72 308.559C802.052 308.365 802.422 308.256 802.8 308.239C803.179 308.223 803.555 308.299 803.902 308.463L839.151 330.176C839.705 330.52 839.634 331.13 838.99 331.512Z" fill="url(#paint14_linear_63_731)"/>
<path opacity="0.11" d="M779.758 337.961L792.992 329.814C793.511 329.489 793.511 328.974 792.992 328.669L783.943 323.098C783.665 322.953 783.359 322.877 783.049 322.877C782.739 322.877 782.433 322.953 782.155 323.098L768.939 331.245C768.42 331.55 768.42 332.065 768.939 332.39L777.97 337.961C778.248 338.106 778.554 338.181 778.864 338.181C779.174 338.181 779.48 338.106 779.758 337.961Z" fill="url(#paint15_linear_63_731)"/>
<path opacity="0.11" d="M768.849 331.779L782.065 323.632C782.346 323.496 782.651 323.425 782.959 323.425C783.268 323.425 783.573 323.496 783.854 323.632L792.903 329.203C793.036 329.287 793.147 329.405 793.225 329.547C793.368 329.28 793.225 328.955 792.903 328.745L783.854 323.174C783.575 323.029 783.269 322.953 782.959 322.953C782.65 322.953 782.344 323.029 782.065 323.174L768.849 331.321C768.491 331.531 768.384 331.855 768.509 332.122C768.6 331.985 768.715 331.868 768.849 331.779Z" fill="#91AFFF"/>
<path opacity="0.11" d="M763.108 350.783L812.182 320.56C812.341 320.457 812.524 320.403 812.71 320.403C812.896 320.403 813.078 320.457 813.237 320.56L830.71 331.34C830.765 331.376 830.811 331.426 830.843 331.486C830.875 331.547 830.892 331.614 830.892 331.684C830.892 331.753 830.875 331.821 830.843 331.881C830.811 331.941 830.765 331.991 830.71 332.027L781.672 362.25C781.51 362.343 781.329 362.392 781.144 362.392C780.96 362.392 780.779 362.343 780.617 362.25L763.108 351.47C763.053 351.434 763.007 351.384 762.975 351.324C762.943 351.263 762.926 351.195 762.926 351.126C762.926 351.057 762.943 350.989 762.975 350.929C763.007 350.869 763.053 350.818 763.108 350.783Z" fill="#ADC8FF"/>
<path opacity="0.11" d="M763.108 351.47L763.287 351.584L812.182 321.457C812.344 321.363 812.525 321.314 812.71 321.314C812.894 321.314 813.075 321.363 813.237 321.457L830.549 332.142L830.71 332.027C830.765 331.991 830.811 331.941 830.843 331.881C830.875 331.821 830.892 331.753 830.892 331.684C830.892 331.614 830.875 331.547 830.843 331.486C830.811 331.426 830.765 331.376 830.71 331.34L813.183 320.56C813.024 320.457 812.842 320.403 812.656 320.403C812.47 320.403 812.287 320.457 812.128 320.56L763.108 350.783C763.053 350.818 763.007 350.869 762.975 350.929C762.943 350.989 762.926 351.057 762.926 351.126C762.926 351.195 762.943 351.263 762.975 351.324C763.007 351.384 763.053 351.434 763.108 351.47Z" fill="#91AFFF"/>
<path opacity="0.11" d="M826.06 330.596L783.299 356.927L784.998 357.976L827.741 331.645L826.06 330.596Z" fill="#242993"/>
<path opacity="0.11" d="M821.553 327.83L780.921 352.844L782.62 353.894L823.252 328.861L821.553 327.83Z" fill="#242993"/>
<path opacity="0.11" d="M777.881 354.713L774.089 357.06L775.788 358.09L779.58 355.762L777.881 354.713Z" fill="#242993"/>
<path opacity="0.11" d="M781.243 358.206L778.596 359.826L780.295 360.875L782.924 359.254L781.243 358.206Z" fill="#242993"/>
<path opacity="0.11" d="M818.727 326.074L771.263 355.324L772.962 356.354L820.426 327.123L818.727 326.074Z" fill="#242993"/>
<path opacity="0.11" d="M815.902 324.338L768.438 353.588L770.137 354.618L817.601 325.387L815.902 324.338Z" fill="#242993"/>
<path opacity="0.11" d="M813.076 322.603L765.63 351.833L767.311 352.883L814.775 323.652L813.076 322.603Z" fill="#242993"/>
</g>
</g>
<path d="M794.691 290.318L791.24 292.436V289.975L794.691 287.857V290.318Z" fill="#67893E"/>
<path d="M794.691 306.975L791.24 309.093V294.687L794.691 292.55V306.975Z" fill="#67893E"/>
<path d="M794.691 314.95L791.24 317.068V311.344L794.691 309.226V314.95Z" fill="#67893E"/>
<path d="M794.691 323.212L791.24 325.33V319.606L794.691 317.488V323.212Z" fill="#67893E"/>
<path d="M799.824 295.107L796.391 297.244V291.52L799.824 289.383V295.107Z" fill="#67893E"/>
<path d="M799.824 306.059L796.391 308.177V299.782L799.824 297.645V306.059Z" fill="#67893E"/>
<path d="M799.824 316.133L796.391 318.251V311.039L799.824 308.921V316.133Z" fill="#67893E"/>
<path d="M794.691 331.474L791.24 333.592V327.868L794.691 325.75V331.474Z" fill="#67893E"/>
<path d="M799.824 287.151L796.391 289.269V286.807L799.824 284.689V287.151Z" fill="#67893E"/>
<path d="M797.267 337.904L791.24 341.605V339.22L797.267 335.5V337.904Z" fill="#67893E"/>
<path d="M415.784 249.162L353.709 210.926L415.784 172.689L477.842 210.926L415.784 249.162Z" fill="#838383"/>
<path d="M415.784 395.926L353.709 357.69L415.784 319.453L477.842 357.69L415.784 395.926Z" fill="white"/>
<path d="M477.842 210.926V357.69L415.784 395.926V249.162L477.842 210.926Z" fill="#838383"/>
<path d="M353.709 210.926V357.69L415.784 395.926V249.162L353.709 210.926Z" fill="#8E9F78"/>
<g opacity="0.51">
<path opacity="0.51" d="M357.912 220.656V352.576L411.564 385.623V253.722L357.912 220.656Z" fill="#67893E"/>
</g>
<path d="M468.542 246.376V250.269L425.084 277.019V273.146L468.542 246.376Z" fill="#8E9F78"/>
<path d="M468.542 262.785V266.659L425.084 293.428V289.555L468.542 262.785Z" fill="#8E9F78"/>
<path d="M468.542 279.175V283.067L425.084 309.837V305.944L468.542 279.175Z" fill="#8E9F78"/>
<path d="M468.542 295.584V299.457L425.084 326.227V322.353L468.542 295.584Z" fill="#8E9F78"/>
<path d="M468.542 311.993V315.866L425.084 342.636V338.743L468.542 311.993Z" fill="#8E9F78"/>
<path d="M468.542 328.383V332.275L425.084 359.025V355.152L468.542 328.383Z" fill="#8E9F78"/>
<path d="M415.784 235.73L370.734 207.987L415.784 180.245L460.816 207.987L415.784 235.73Z" fill="#3C3C3C"/>
<path d="M460.816 207.987V211.364L415.784 239.107V235.73L460.816 207.987Z" fill="#3C3C3C"/>
<path d="M370.734 207.987V211.364L415.784 239.107V235.73L370.734 207.987Z" fill="#3C3C3C"/>
<path d="M398.312 208.445L396.309 207.205L396.47 206.213L414.979 194.727L417.555 196.024L417.072 196.883L398.312 208.445Z" fill="#8E9F78"/>
<path d="M415.087 195.642L417.072 196.883L418.359 196.081L415.087 194.078L395.039 206.423L396.309 207.205L415.087 195.642Z" fill="#8E9F78"/>
<path d="M404.356 212.147L402.371 210.926L402.532 209.933L421.042 198.447L423.599 199.745L423.134 200.603L404.356 212.147Z" fill="#8E9F78"/>
<path d="M421.131 199.363L423.134 200.603L424.404 199.802L421.131 197.779L401.083 210.143L402.371 210.926L421.131 199.363Z" fill="#8E9F78"/>
<path d="M410.419 215.867L408.416 214.646L408.595 213.654L427.087 202.149L429.662 203.465L429.179 204.324L410.419 215.867Z" fill="#8E9F78"/>
<path d="M427.194 203.084L429.179 204.324L430.467 203.522L427.194 201.5L407.146 213.864L408.434 214.646L427.194 203.084Z" fill="#8E9F78"/>
<path d="M416.482 219.588L414.479 218.367L414.639 217.356L433.149 205.869L435.707 207.186L435.242 208.025L416.482 219.588Z" fill="#8E9F78"/>
<path d="M433.239 206.804L435.242 208.025L436.529 207.243L433.239 205.221L413.191 217.565L414.479 218.367L433.239 206.804Z" fill="#8E9F78"/>
<path d="M413.316 255.764C413.268 254.851 413.02 253.962 412.591 253.17C412.163 252.378 411.565 251.704 410.848 251.204C410.592 251.006 410.292 250.885 409.978 250.851C409.664 250.818 409.347 250.874 409.06 251.013L407.271 252.12H408.362C408.343 252.31 408.343 252.502 408.362 252.692C408.41 253.605 408.658 254.494 409.087 255.286C409.516 256.078 410.113 256.751 410.83 257.252C410.998 257.358 411.179 257.442 411.367 257.5L410.848 258.511L412.636 257.443C412.872 257.246 413.058 256.989 413.177 256.696C413.296 256.402 413.344 256.082 413.316 255.764Z" fill="#455334"/>
<path d="M411.563 256.87C411.563 258.549 410.455 259.217 409.095 258.378C408.369 257.886 407.763 257.215 407.331 256.421C406.898 255.628 406.651 254.735 406.61 253.818C406.61 252.139 407.718 251.452 409.095 252.291C409.814 252.795 410.412 253.472 410.841 254.267C411.269 255.063 411.517 255.954 411.563 256.87Z" fill="#67893E"/>
<path d="M410.508 256.221C410.508 257.175 409.864 257.576 409.095 257.099C408.68 256.81 408.335 256.421 408.086 255.964C407.838 255.507 407.693 254.994 407.665 254.466C407.665 253.493 408.309 253.112 409.095 253.589C409.507 253.879 409.849 254.269 410.095 254.726C410.34 255.183 410.482 255.695 410.508 256.221Z" fill="#455334"/>
<path d="M361.256 221.572C361.208 220.659 360.96 219.771 360.531 218.978C360.103 218.186 359.505 217.513 358.788 217.012C358.531 216.818 358.23 216.7 357.915 216.669C357.601 216.639 357.285 216.698 357 216.84L355.211 217.928H356.302C356.283 218.118 356.283 218.31 356.302 218.5C356.35 219.414 356.598 220.302 357.027 221.094C357.456 221.886 358.053 222.56 358.77 223.061C358.942 223.165 359.121 223.255 359.307 223.328L358.788 224.32L360.576 223.251C360.812 223.055 360.998 222.798 361.117 222.504C361.236 222.211 361.284 221.89 361.256 221.572Z" fill="#455334"/>
<path d="M359.503 222.736C359.503 224.415 358.395 225.102 357.035 224.263C356.312 223.769 355.71 223.097 355.281 222.303C354.851 221.51 354.607 220.618 354.567 219.702C354.567 218.023 355.658 217.337 357.035 218.176C357.753 218.677 358.35 219.35 358.779 220.142C359.207 220.934 359.456 221.823 359.503 222.736Z" fill="#67893E"/>
<path d="M358.448 222.087C358.448 223.06 357.822 223.441 357.035 222.964C356.619 222.677 356.273 222.288 356.024 221.831C355.776 221.373 355.632 220.86 355.604 220.332C355.604 219.378 356.248 218.977 357.035 219.473C357.448 219.759 357.79 220.145 358.036 220.599C358.282 221.053 358.423 221.563 358.448 222.087Z" fill="#455334"/>
<path d="M413.316 387.207C413.267 386.291 413.018 385.401 412.59 384.606C412.161 383.811 411.565 383.133 410.848 382.627C410.591 382.433 410.29 382.315 409.976 382.285C409.661 382.255 409.345 382.314 409.06 382.456L407.271 383.543H408.362C408.343 383.734 408.343 383.925 408.362 384.116C408.401 385.032 408.641 385.926 409.063 386.725C409.486 387.524 410.079 388.205 410.794 388.714C410.962 388.826 411.142 388.916 411.331 388.981L410.812 389.973L412.601 388.905C412.846 388.71 413.04 388.452 413.166 388.155C413.291 387.858 413.343 387.531 413.316 387.207Z" fill="#455334"/>
<path d="M411.563 388.294C411.563 389.973 410.455 390.66 409.095 389.821C408.369 389.329 407.763 388.658 407.331 387.864C406.898 387.071 406.651 386.178 406.61 385.26C406.61 383.581 407.718 382.895 409.095 383.734C409.813 384.235 410.41 384.908 410.839 385.7C411.267 386.492 411.516 387.381 411.563 388.294Z" fill="#67893E"/>
<path d="M410.508 387.569C410.508 388.541 409.864 388.942 409.095 388.446C408.681 388.162 408.335 387.776 408.087 387.322C407.838 386.868 407.693 386.358 407.665 385.833C407.665 384.86 408.309 384.459 409.095 384.955C409.505 385.244 409.846 385.631 410.091 386.084C410.336 386.538 410.479 387.046 410.508 387.569Z" fill="#455334"/>
<path d="M361.256 353.072C361.208 352.159 360.96 351.271 360.531 350.479C360.103 349.687 359.505 349.013 358.788 348.512C358.531 348.318 358.23 348.2 357.915 348.17C357.601 348.139 357.285 348.198 357 348.341L355.211 349.428H356.302C356.283 349.618 356.283 349.81 356.302 350C356.35 350.914 356.598 351.802 357.027 352.594C357.456 353.386 358.053 354.06 358.77 354.561C358.938 354.667 359.119 354.75 359.307 354.809L358.788 355.82L360.576 354.751C360.812 354.555 360.998 354.298 361.117 354.004C361.236 353.711 361.284 353.391 361.256 353.072Z" fill="#455334"/>
<path d="M359.503 354.179C359.503 355.858 358.395 356.526 357.035 355.686C356.312 355.192 355.71 354.521 355.281 353.727C354.851 352.933 354.607 352.041 354.567 351.126C354.567 349.447 355.658 348.76 357.035 349.619C357.753 350.12 358.35 350.793 358.779 351.585C359.207 352.377 359.456 353.266 359.503 354.179Z" fill="#67893E"/>
<path d="M358.448 353.53C358.448 354.503 357.822 354.884 357.035 354.407C356.62 354.118 356.275 353.73 356.026 353.273C355.778 352.815 355.633 352.302 355.604 351.775C355.604 350.802 356.248 350.42 357.035 350.897C357.448 351.187 357.791 351.576 358.036 352.034C358.282 352.491 358.423 353.003 358.448 353.53Z" fill="#455334"/>
<g opacity="0.51">
<path opacity="0.51" d="M353.709 334.488L415.784 294.516V249.162L353.709 210.926V334.488Z" fill="#455334"/>
</g>
<path d="M745.582 245.46L658.827 298.293V460.074V568.029C659.805 567.997 660.762 567.715 661.617 567.208L744.259 516.322C744.611 516.149 744.916 515.883 745.144 515.549C745.373 515.215 745.517 514.824 745.564 514.414L745.582 245.46Z" fill="#838383"/>
<path d="M662.386 525.747V296.118L658.809 298.293V460.074V568.029H659.417H659.542C659.995 567.954 660.439 567.826 660.866 567.647H660.955C661.18 567.556 661.396 567.441 661.599 567.304L662.368 566.846L662.386 525.747Z" fill="#838383"/>
<path d="M656.198 298.541L518.724 213.94C517.329 213.082 517.508 211.574 519.1 210.601L601.741 159.695C602.556 159.213 603.465 158.939 604.397 158.896C605.328 158.853 606.256 159.042 607.107 159.447L744.599 244.125C745.976 244.984 745.815 246.491 744.205 247.464L661.563 298.37C660.743 298.84 659.831 299.1 658.9 299.13C657.969 299.16 657.044 298.958 656.198 298.541Z" fill="#838383"/>
<path d="M605.801 168.377L539.756 209.056L533.353 207.796V213.005L657.557 289.516L720.455 243.896L605.801 168.377Z" fill="#3C3C3C"/>
<path d="M730.023 239.679V244.888L657.557 289.517V284.308L730.023 239.679Z" fill="#3C3C3C"/>
<path d="M657.557 284.308L533.353 207.796L605.801 163.149L730.023 239.679L657.557 284.308Z" fill="#3C3C3C"/>
<path d="M579.708 202.206L577.741 200.985L577.902 200.012L596.251 188.602L598.809 189.899L598.326 190.739L579.708 202.206Z" fill="#8E9F78"/>
<path d="M596.341 189.537L598.326 190.739L599.595 189.957L596.341 187.953L576.454 200.203L577.741 200.985L596.341 189.537Z" fill="#8E9F78"/>
<path d="M585.718 205.907L583.732 204.686L583.911 203.694L602.26 192.303L604.818 193.582L604.335 194.44L585.718 205.907Z" fill="#8E9F78"/>
<path d="M602.349 193.219L604.335 194.44L605.604 193.658L602.349 191.655L582.462 203.904L583.75 204.686L602.349 193.219Z" fill="#8E9F78"/>
<path d="M591.726 209.59L589.741 208.369L589.902 207.377L608.269 195.986L610.809 197.283L610.344 198.123L591.726 209.59Z" fill="#8E9F78"/>
<path d="M608.359 196.902L610.344 198.123L611.614 197.34L608.359 195.337L588.472 207.587L589.741 208.369L608.359 196.902Z" fill="#8E9F78"/>
<path d="M597.736 213.272L595.75 212.051L595.911 211.059L614.278 199.668L616.818 200.966L616.353 201.805L597.736 213.272Z" fill="#8E9F78"/>
<path d="M614.368 200.603L616.353 201.805L617.622 201.023L614.368 199.02L594.481 211.269L595.75 212.07L614.368 200.603Z" fill="#8E9F78"/>
<path d="M615.298 224.167L613.312 222.946L613.491 221.954L631.84 210.563L634.398 211.86L633.915 212.7L615.298 224.167Z" fill="#8E9F78"/>
<path d="M631.929 211.479L633.915 212.7L635.184 211.918L631.929 209.914L612.042 222.164L613.312 222.946L631.929 211.479Z" fill="#8E9F78"/>
<path d="M621.307 227.85L619.322 226.629L619.483 225.636L637.849 214.245L640.389 215.543L639.924 216.382L621.307 227.85Z" fill="#8E9F78"/>
<path d="M637.939 215.18L639.924 216.382L641.193 215.6L637.939 213.597L618.052 225.846L619.321 226.647L637.939 215.18Z" fill="#8E9F78"/>
<path d="M627.316 231.551L625.331 230.33L625.492 229.338L643.858 217.947L646.398 219.225L645.933 220.084L627.316 231.551Z" fill="#8E9F78"/>
<path d="M643.948 218.863L645.933 220.084L647.202 219.283L643.948 217.298L624.061 229.548L625.33 230.33L643.948 218.863Z" fill="#8E9F78"/>
<path d="M633.325 235.234L631.339 234.013L631.5 233.02L649.867 221.63L652.407 222.927L651.942 223.767L633.325 235.234Z" fill="#8E9F78"/>
<path d="M649.957 222.545L651.942 223.767L653.212 222.984L649.957 220.981L630.07 233.23L631.34 234.013L649.957 222.545Z" fill="#8E9F78"/>
<path d="M650.887 246.128L648.901 244.907L649.062 243.915L667.429 232.524L669.969 233.803L669.504 234.661L650.887 246.128Z" fill="#8E9F78"/>
<path d="M667.519 233.44L669.504 234.661L670.774 233.86L667.519 231.875L647.632 244.125L648.902 244.907L667.519 233.44Z" fill="#8E9F78"/>
<path d="M656.895 249.811L654.91 248.59L655.071 247.597L673.438 236.207L675.978 237.504L675.513 238.344L656.895 249.811Z" fill="#8E9F78"/>
<path d="M673.528 237.123L675.513 238.344L676.782 237.561L673.528 235.558L653.641 247.807L654.91 248.59L673.528 237.123Z" fill="#8E9F78"/>
<path d="M662.905 253.493L660.919 252.272L661.08 251.28L679.447 239.889L681.987 241.187L681.504 242.026L662.905 253.493Z" fill="#8E9F78"/>
<path d="M679.537 240.805L681.504 242.026L682.792 241.244L679.537 239.24L659.65 251.49L660.92 252.272L679.537 240.805Z" fill="#8E9F78"/>
<path d="M668.896 257.176L666.928 255.974L667.089 254.981L685.438 243.572L687.996 244.869L687.513 245.728L668.896 257.176Z" fill="#8E9F78"/>
<path d="M685.546 244.507L687.513 245.728L688.801 244.926L685.546 242.923L665.659 255.172L666.928 255.974L685.546 244.507Z" fill="#8E9F78"/>
<path d="M675.316 462.516C674.907 462.512 674.506 462.394 674.154 462.172C673.801 461.957 673.507 461.646 673.303 461.271C673.099 460.896 672.991 460.469 672.991 460.035V376.751C672.994 375.817 673.227 374.901 673.666 374.094C674.106 373.287 674.736 372.617 675.495 372.152L731.883 337.408C732.236 337.19 732.636 337.076 733.043 337.075C733.45 337.075 733.85 337.188 734.204 337.405C734.557 337.621 734.85 337.933 735.055 338.308C735.26 338.684 735.369 339.11 735.37 339.544V422.829C735.369 423.761 735.139 424.676 734.703 425.483C734.267 426.289 733.64 426.96 732.885 427.428L676.479 462.172C676.127 462.396 675.725 462.514 675.316 462.516ZM733.046 338.495C732.869 338.501 732.697 338.554 732.545 338.648L676.139 373.393C675.591 373.741 675.138 374.236 674.825 374.828C674.511 375.42 674.348 376.09 674.35 376.77V460.074C674.348 460.258 674.392 460.44 674.477 460.601C674.561 460.761 674.684 460.896 674.833 460.989C674.986 461.083 675.158 461.133 675.334 461.133C675.51 461.133 675.683 461.083 675.835 460.989L732.241 426.245C732.795 425.904 733.253 425.41 733.567 424.816C733.882 424.223 734.041 423.549 734.029 422.867V339.544C734.028 339.359 733.981 339.176 733.893 339.016C733.805 338.855 733.679 338.722 733.528 338.629C733.382 338.535 733.216 338.483 733.046 338.476V338.495Z" fill="#8E9F78"/>
<path d="M658.13 299.972L517.776 212.967L517.794 481.348L658.774 568.525L658.13 299.972Z" fill="#8E9F78"/>
<path d="M649.188 302.606C649.137 301.671 648.881 300.763 648.44 299.954C647.998 299.145 647.385 298.458 646.648 297.95C646.391 297.756 646.09 297.637 645.776 297.607C645.461 297.577 645.145 297.636 644.86 297.778L643.071 298.904H644.18C644.17 299.095 644.17 299.286 644.18 299.476C644.227 300.412 644.48 301.323 644.918 302.135C645.356 302.947 645.967 303.637 646.702 304.151C646.872 304.254 647.051 304.337 647.238 304.399L646.72 305.429L648.508 304.342C648.752 304.14 648.943 303.874 649.062 303.569C649.181 303.265 649.225 302.933 649.188 302.606Z" fill="#455334"/>
<path d="M647.381 303.731C647.381 305.449 646.237 306.135 644.842 305.277C644.108 304.767 643.497 304.08 643.059 303.271C642.62 302.462 642.367 301.554 642.32 300.621C642.32 298.904 643.447 298.217 644.842 299.076C645.578 299.584 646.192 300.271 646.633 301.08C647.075 301.888 647.331 302.797 647.381 303.731Z" fill="#67893E"/>
<path d="M646.308 303.063C646.308 304.055 645.647 304.455 644.842 303.959C644.421 303.667 644.07 303.272 643.819 302.808C643.567 302.345 643.421 301.824 643.393 301.289C643.393 300.297 644.037 299.896 644.842 300.392C645.265 300.684 645.619 301.077 645.873 301.541C646.128 302.005 646.277 302.526 646.308 303.063Z" fill="#455334"/>
<path d="M528.543 228.117C528.496 227.184 528.243 226.276 527.804 225.467C527.366 224.658 526.755 223.971 526.021 223.461C525.763 223.267 525.462 223.149 525.148 223.119C524.834 223.088 524.518 223.147 524.233 223.289L522.444 224.396H523.553C523.534 224.586 523.534 224.778 523.553 224.969C523.603 225.905 523.86 226.817 524.301 227.629C524.742 228.441 525.356 229.131 526.092 229.643C526.261 229.75 526.441 229.833 526.629 229.891L526.11 230.921L527.899 229.834C528.134 229.629 528.316 229.364 528.429 229.064C528.541 228.764 528.581 228.438 528.543 228.117Z" fill="#455334"/>
<path d="M526.736 229.204C526.736 230.921 525.609 231.608 524.214 230.75C523.478 230.241 522.864 229.555 522.423 228.746C521.982 227.937 521.725 227.028 521.675 226.094C521.675 224.377 522.819 223.69 524.214 224.549C524.949 225.058 525.56 225.745 525.998 226.554C526.436 227.363 526.689 228.271 526.736 229.204Z" fill="#67893E"/>
<path d="M525.663 228.574C525.663 229.566 525.019 229.967 524.215 229.471C523.793 229.178 523.443 228.784 523.191 228.32C522.94 227.856 522.794 227.335 522.766 226.8C522.766 225.808 523.41 225.407 524.215 225.903C524.636 226.196 524.986 226.59 525.238 227.054C525.489 227.518 525.635 228.039 525.663 228.574Z" fill="#455334"/>
<path d="M649.206 554.081C649.158 553.148 648.905 552.24 648.467 551.431C648.029 550.622 647.418 549.935 646.684 549.426C646.428 549.228 646.128 549.107 645.814 549.073C645.5 549.04 645.183 549.096 644.896 549.235L643.107 550.342H644.216C644.197 550.532 644.197 550.724 644.216 550.914C644.266 551.848 644.523 552.757 644.964 553.566C645.405 554.375 646.019 555.061 646.755 555.57C646.923 555.682 647.104 555.771 647.292 555.837L646.773 556.848L648.562 555.76C648.791 555.56 648.97 555.301 649.083 555.008C649.195 554.715 649.237 554.396 649.206 554.081Z" fill="#455334"/>
<path d="M647.399 555.207C647.399 556.905 646.273 557.611 644.878 556.752C644.141 556.244 643.527 555.557 643.086 554.749C642.645 553.94 642.389 553.031 642.338 552.097C642.338 550.38 643.483 549.693 644.878 550.532C645.612 551.046 646.223 551.737 646.661 552.549C647.099 553.361 647.352 554.271 647.399 555.207Z" fill="#67893E"/>
<path d="M646.326 554.539C646.326 555.531 645.682 555.931 644.878 555.435C644.452 555.142 644.097 554.745 643.842 554.278C643.588 553.81 643.44 553.285 643.411 552.746C643.411 551.773 644.073 551.372 644.878 551.868C645.302 552.157 645.655 552.551 645.907 553.015C646.159 553.48 646.303 554.003 646.326 554.539Z" fill="#455334"/>
<path d="M528.006 479.726C527.959 478.793 527.706 477.885 527.268 477.076C526.83 476.267 526.219 475.58 525.485 475.071C525.227 474.876 524.926 474.758 524.612 474.728C524.298 474.698 523.982 474.757 523.696 474.899L521.908 476.006H523.017C522.997 476.202 522.997 476.4 523.017 476.597C523.068 477.531 523.325 478.439 523.766 479.248C524.207 480.056 524.821 480.743 525.556 481.253C525.724 481.359 525.905 481.442 526.093 481.501L525.574 482.531L527.362 481.443C527.597 481.239 527.78 480.974 527.892 480.674C528.005 480.373 528.044 480.047 528.006 479.726Z" fill="#455334"/>
<path d="M526.2 480.852C526.2 482.569 525.073 483.256 523.678 482.397C522.942 481.889 522.328 481.203 521.887 480.394C521.445 479.585 521.189 478.676 521.139 477.742C521.139 476.025 522.283 475.338 523.678 476.196C524.412 476.706 525.023 477.393 525.462 478.202C525.9 479.011 526.153 479.919 526.2 480.852Z" fill="#67893E"/>
<path d="M525.127 480.183C525.127 481.175 524.483 481.576 523.678 481.08C523.256 480.789 522.905 480.395 522.653 479.93C522.401 479.466 522.256 478.945 522.229 478.409C522.229 477.417 522.873 477.017 523.678 477.513C524.099 477.805 524.45 478.2 524.701 478.664C524.953 479.128 525.099 479.648 525.127 480.183Z" fill="#455334"/>
<g opacity="0.51">
<path opacity="0.51" d="M518.492 467.839L658.201 390.336V302.415L518.492 228.307V467.839Z" fill="#455334"/>
</g>
<path d="M571.625 335.5L554.832 325.177V321.228L571.625 331.569V335.5Z" fill="#67893E"/>
<path d="M580.227 340.804L574.182 337.083V333.153L580.227 336.873V340.804Z" fill="#67893E"/>
<path d="M586.898 344.906L582.784 342.388V338.457L586.898 340.976V344.906Z" fill="#67893E"/>
<path d="M563.988 339.774L554.832 334.145V330.214L563.988 335.843V339.774Z" fill="#67893E"/>
<path d="M577.759 348.264L566.546 341.357V337.427L577.759 344.334V348.264Z" fill="#67893E"/>
<path d="M584.43 352.366L580.316 349.848V345.917L584.43 348.436V352.366Z" fill="#67893E"/>
<path d="M590.761 356.278L586.665 353.759V349.829L590.761 352.347V356.278Z" fill="#67893E"/>
<path d="M561.449 347.215L554.832 343.132V339.201L561.449 343.284V347.215Z" fill="#67893E"/>
<path d="M566.278 350.172L564.024 348.779V344.849L566.278 346.242V350.172Z" fill="#67893E"/>
<path d="M572.948 354.294L568.835 351.756V347.825L572.948 350.363V354.294Z" fill="#67893E"/>
<path d="M579.261 367.153L554.832 352.118V348.188L579.261 363.223V367.153Z" fill="#67893E"/>
<path d="M587.864 372.458L581.819 368.737V364.807L587.864 368.527V372.458Z" fill="#67893E"/>
<path d="M561.449 365.169L554.832 361.105V357.175L561.449 361.239V365.169Z" fill="#67893E"/>
<path d="M576.99 374.728L564.024 366.753V362.822L576.99 370.798V374.728Z" fill="#67893E"/>
<path d="M583.661 378.85L579.548 376.312V372.381L583.661 374.919V378.85Z" fill="#67893E"/>
<path d="M568.37 378.411L554.832 370.073V366.142L568.37 374.48V378.411Z" fill="#67893E"/>
<path d="M580.728 386.024L570.945 379.994V376.064L580.728 382.093V386.024Z" fill="#67893E"/>
<path d="M589.902 391.671L583.285 387.607V383.677L589.902 387.741V391.671Z" fill="#67893E"/>
<path d="M559.41 381.883L554.832 379.059V375.129L559.41 377.934V381.883Z" fill="#67893E"/>
<path d="M568.012 387.169L561.968 383.448V379.517L568.012 383.238V387.169Z" fill="#67893E"/>
<path d="M580.316 394.743L570.588 388.752V384.822L580.316 390.813V394.743Z" fill="#67893E"/>
<path d="M568.835 396.67L554.832 388.046V384.116L568.835 392.74V396.67Z" fill="#67893E"/>
<path d="M584.537 406.325L571.41 398.254V394.323L584.537 402.394V406.325Z" fill="#67893E"/>
<path d="M591.19 410.427L587.094 407.909V403.978L591.19 406.497V410.427Z" fill="#67893E"/>
<path d="M597.593 414.377L593.497 411.858V407.928L597.593 410.446V414.377Z" fill="#67893E"/>
<path d="M563.237 402.185L554.832 397.014V393.083L563.237 398.254V402.185Z" fill="#67893E"/>
<path d="M598.326 351.947L609.95 359.121V355.19L598.326 348.016V351.947Z" fill="#67893E"/>
<path d="M600.812 362.479L609.95 368.108V364.177L600.812 358.548V362.479Z" fill="#67893E"/>
<path d="M603.351 373.011L609.95 377.094V373.145L603.351 369.081V373.011Z" fill="#67893E"/>
<path d="M600.329 380.128L609.95 386.062V382.131L600.329 376.198V380.128Z" fill="#67893E"/>
<path d="M603.351 390.965L609.95 395.049V391.118L603.351 387.035V390.965Z" fill="#67893E"/>
<path d="M601.562 398.865L609.95 404.035V400.105L601.562 394.934V398.865Z" fill="#67893E"/>
<path d="M605.39 410.198L609.95 413.003V409.073L605.39 406.268V410.198Z" fill="#67893E"/>
<path d="M601.098 416.533L609.95 421.99V418.059L601.098 412.602V416.533Z" fill="#67893E"/>
<path d="M601.562 425.806L609.95 430.976V427.046L601.562 421.875V425.806Z" fill="#67893E"/>
<path d="M569.372 405.962L565.795 403.768V399.838L569.372 402.032V405.962Z" fill="#67893E"/>
<path d="M579.959 412.488L571.929 407.546V403.615L579.959 408.557V412.488Z" fill="#67893E"/>
<path d="M586.594 442.711L573.056 434.354V430.423L586.594 438.78V442.711Z" fill="#67893E"/>
<path d="M595.876 448.416L590.546 445.134V441.203L595.876 444.485V448.416Z" fill="#67893E"/>
<path d="M212.444 592.661L137.653 546.602C136.025 545.591 136.24 543.854 138.1 542.691L160.079 529.163L240.754 578.771L218.774 592.318C217.818 592.9 216.747 593.235 215.647 593.294C214.548 593.354 213.45 593.137 212.444 592.661Z" fill="#6C7D57"/>
<path d="M318.764 529.964V514.07H294.549L240.682 480.89C239.871 480.487 238.982 480.293 238.088 480.322C237.193 480.352 236.318 480.605 235.532 481.062L181.88 514.09H157.701V530.021C157.73 530.302 157.825 530.571 157.979 530.801C158.132 531.031 158.338 531.216 158.577 531.338L235.836 578.924C236.65 579.324 237.541 579.512 238.437 579.472C239.332 579.433 240.206 579.166 240.986 578.695L317.494 531.567C317.809 531.426 318.089 531.207 318.309 530.928C318.53 530.65 318.686 530.319 318.764 529.964Z" fill="#838383"/>
<path d="M235.854 563.106L158.631 515.54C157.307 514.719 157.486 513.307 159.006 512.372L235.532 465.244C236.312 464.773 237.185 464.507 238.081 464.467C238.977 464.427 239.868 464.615 240.682 465.015L317.941 512.601C319.264 513.403 319.085 514.834 317.565 515.769L241.058 562.896C240.268 563.368 239.384 563.633 238.479 563.669C237.575 563.706 236.675 563.513 235.854 563.106Z" fill="#838383"/>
<path d="M236.122 557.554L167.573 515.406C166.41 514.681 166.553 513.498 167.895 512.601L235.711 470.816C236.407 470.406 237.184 470.176 237.979 470.143C238.773 470.11 239.564 470.275 240.289 470.625L308.856 512.754C310.018 513.479 309.875 514.662 308.534 515.578L240.682 557.382C239.989 557.793 239.214 558.022 238.421 558.052C237.629 558.082 236.841 557.911 236.122 557.554Z" fill="#455334"/>
<path d="M236.301 554.024L173.385 515.272C172.312 514.605 172.437 513.364 173.689 512.677L235.997 474.307C236.631 473.927 237.341 473.712 238.068 473.678C238.795 473.645 239.519 473.795 240.182 474.117L303.097 512.868C304.17 513.536 304.045 514.681 302.793 515.444L240.486 553.833C239.85 554.209 239.141 554.422 238.414 554.455C237.688 554.488 236.964 554.341 236.301 554.024Z" fill="#67893E"/>
<path d="M236.801 543.53L190.41 514.91C189.606 514.433 189.713 513.574 190.625 513.002L236.587 484.706C237.056 484.425 237.58 484.265 238.117 484.239C238.654 484.212 239.189 484.32 239.681 484.553L286.072 513.174C286.876 513.67 286.769 514.528 285.857 515.082L239.895 543.396C239.425 543.674 238.9 543.831 238.363 543.854C237.826 543.877 237.291 543.766 236.801 543.53Z" fill="#67893E"/>
<path d="M236.802 511.533L229.433 507.011L233.457 504.53L240.808 509.052L236.802 511.533Z" fill="#455334"/>
<path d="M250.465 510.903L243.114 515.425L239.091 512.945L246.459 508.423L250.465 510.903Z" fill="#455334"/>
<path d="M235.12 512.563L231.114 515.044L227.091 512.563L231.114 510.083L235.12 512.563Z" fill="#455334"/>
<path d="M249.016 521.111L244.992 523.592L233.404 516.455L237.427 513.975L249.016 521.111Z" fill="#455334"/>
<path d="M357.643 680.811L282.853 634.733C281.225 633.741 281.44 631.985 283.318 630.917L305.279 617.294L385.954 666.997L363.974 680.525C363.011 681.088 361.938 681.407 360.84 681.457C359.742 681.506 358.648 681.286 357.643 680.811Z" fill="#6C7D57"/>
<path d="M463.963 618.095V602.201H439.695L385.757 569.04C384.94 568.65 384.05 568.468 383.156 568.508C382.262 568.547 381.39 568.808 380.606 569.269L326.954 602.297H302.811V618.229C302.834 618.511 302.925 618.783 303.075 619.017C303.226 619.251 303.43 619.44 303.669 619.564L380.928 667.15C381.745 667.54 382.635 667.722 383.529 667.683C384.423 667.643 385.295 667.382 386.079 666.921L462.658 619.812C462.994 619.667 463.289 619.433 463.518 619.133C463.746 618.833 463.899 618.476 463.963 618.095Z" fill="#838383"/>
<path d="M381.053 651.257L303.795 603.671C302.489 602.869 302.65 601.438 304.17 600.504L380.678 553.376C381.46 552.91 382.333 552.647 383.228 552.607C384.122 552.568 385.013 552.752 385.828 553.147L463.087 600.732C464.411 601.553 464.25 602.965 462.712 603.9L386.204 651.028C385.424 651.499 384.55 651.765 383.655 651.805C382.759 651.845 381.867 651.657 381.053 651.257Z" fill="#838383"/>
<path d="M381.322 645.685L312.844 603.518C311.681 602.793 311.825 601.61 313.184 600.694L381 558.927C381.69 558.511 382.464 558.275 383.256 558.238C384.049 558.202 384.838 558.366 385.56 558.718L454.038 600.904C455.218 601.61 455.057 602.812 453.716 603.709L385.9 645.494C385.203 645.904 384.427 646.134 383.632 646.167C382.837 646.2 382.046 646.035 381.322 645.685Z" fill="#455334"/>
<path d="M381.501 642.155L318.585 603.404C317.512 602.736 317.637 601.591 318.889 600.809L381.197 562.439C381.836 562.062 382.548 561.849 383.277 561.816C384.006 561.783 384.733 561.931 385.399 562.248L448.351 600.999C449.442 601.667 449.299 602.908 448.047 603.594L385.757 641.964C385.113 642.354 384.391 642.575 383.65 642.608C382.91 642.641 382.173 642.486 381.501 642.155Z" fill="#67893E"/>
<path d="M382.001 631.661L335.682 603.175C334.895 602.698 334.984 601.839 335.896 601.267L381.858 572.952C382.327 572.67 382.852 572.51 383.39 572.487C383.928 572.464 384.463 572.577 384.952 572.818L431.361 601.438C432.148 601.915 432.041 602.774 431.129 603.346L385.185 631.642C384.695 631.919 384.15 632.066 383.595 632.069C383.041 632.072 382.494 631.932 382.001 631.661Z" fill="#67893E"/>
<path d="M382.001 599.664L374.651 595.142L378.657 592.661L386.007 597.202L382.001 599.664Z" fill="#455334"/>
<path d="M395.665 599.034L388.314 603.556L384.291 601.095L391.659 596.554L395.665 599.034Z" fill="#455334"/>
<path d="M380.32 600.694L376.314 603.174L372.29 600.694L376.314 598.233L380.32 600.694Z" fill="#455334"/>
<path d="M394.216 609.242L390.192 611.722L378.621 604.587L382.627 602.125L394.216 609.242Z" fill="#455334"/>
</g>
</g>
<defs>
<filter id="filter0_d_63_731" x="-4.04834" y="58.6377" width="1172.99" height="679.388" filterUnits="userSpaceOnUse" color-interpolation-filters="sRGB">
<feFlood flood-opacity="0" result="BackgroundImageFix"/>
<feColorMatrix in="SourceAlpha" type="matrix" values="0 0 0 0 0 0 0 0 0 0 0 0 0 0 0 0 0 0 127 0" result="hardAlpha"/>
<feOffset dy="4"/>
<feGaussianBlur stdDeviation="2"/>
<feComposite in2="hardAlpha" operator="out"/>
<feColorMatrix type="matrix" values="0 0 0 0 0 0 0 0 0 0 0 0 0 0 0 0 0 0 0.25 0"/>
<feBlend mode="normal" in2="BackgroundImageFix" result="effect1_dropShadow_63_731"/>
<feBlend mode="normal" in="SourceGraphic" in2="effect1_dropShadow_63_731" result="shape"/>
</filter>
<linearGradient id="paint0_linear_63_731" x1="363.027" y1="264.025" x2="997.21" y2="264.025" gradientUnits="userSpaceOnUse">
<stop stop-color="#FFDD06"/>
<stop offset="1" stop-color="#F9AF35"/>
</linearGradient>
<linearGradient id="paint1_linear_63_731" x1="153913" y1="36388.6" x2="202824" y2="36388.6" gradientUnits="userSpaceOnUse">
<stop stop-color="#FFDD06"/>
<stop offset="1" stop-color="#F9AF35"/>
</linearGradient>
<linearGradient id="paint2_linear_63_731" x1="26033" y1="116475" x2="412762" y2="116475" gradientUnits="userSpaceOnUse">
<stop stop-color="#FFDD06"/>
<stop offset="1" stop-color="#F9AF35"/>
</linearGradient>
<linearGradient id="paint3_linear_63_731" x1="26347.6" y1="14263.5" x2="28693.7" y2="14263.5" gradientUnits="userSpaceOnUse">
<stop stop-color="#FFDD06"/>
<stop offset="1" stop-color="#F9AF35"/>
</linearGradient>
<linearGradient id="paint4_linear_63_731" x1="544.799" y1="191.12" x2="629.39" y2="191.12" gradientUnits="userSpaceOnUse">
<stop stop-color="white"/>
<stop offset="0.04" stop-color="#F7F7F7"/>
<stop offset="1"/>
</linearGradient>
<linearGradient id="paint5_linear_63_731" x1="12911.2" y1="3454.44" x2="13775.2" y2="3454.44" gradientUnits="userSpaceOnUse">
<stop stop-color="white"/>
<stop offset="0.04" stop-color="#F7F7F7"/>
<stop offset="1"/>
</linearGradient>
<linearGradient id="paint6_linear_63_731" x1="23114.1" y1="2476.58" x2="23978.9" y2="2476.58" gradientUnits="userSpaceOnUse">
<stop stop-color="#FFDD06"/>
<stop offset="1" stop-color="#F9AF35"/>
</linearGradient>
<linearGradient id="paint7_linear_63_731" x1="15499.6" y1="13397.1" x2="17301.2" y2="13397.1" gradientUnits="userSpaceOnUse">
<stop stop-color="#FFDD06"/>
<stop offset="1" stop-color="#F9AF35"/>
</linearGradient>
<linearGradient id="paint8_linear_63_731" x1="13227.2" y1="12522.9" x2="15027.7" y2="12522.9" gradientUnits="userSpaceOnUse">
<stop stop-color="#FFDD06"/>
<stop offset="1" stop-color="#F9AF35"/>
</linearGradient>
<linearGradient id="paint9_linear_63_731" x1="8694.04" y1="10831.4" x2="10495.7" y2="10831.4" gradientUnits="userSpaceOnUse">
<stop stop-color="white"/>
<stop offset="0.04" stop-color="#F7F7F7"/>
<stop offset="1"/>
</linearGradient>
<linearGradient id="paint10_linear_63_731" x1="8625.37" y1="8806.4" x2="9893.43" y2="8806.4" gradientUnits="userSpaceOnUse">
<stop stop-color="#FFDD06"/>
<stop offset="1" stop-color="#F9AF35"/>
</linearGradient>
<linearGradient id="paint11_linear_63_731" x1="12055.8" y1="10047.6" x2="13318.1" y2="10047.6" gradientUnits="userSpaceOnUse">
<stop stop-color="#FFDD06"/>
<stop offset="1" stop-color="#F9AF35"/>
</linearGradient>
<linearGradient id="paint12_linear_63_731" x1="12139.2" y1="10102.4" x2="13024.7" y2="10102.4" gradientUnits="userSpaceOnUse">
<stop stop-color="#FFDD06"/>
<stop offset="1" stop-color="#F9AF35"/>
</linearGradient>
<linearGradient id="paint13_linear_63_731" x1="17678.5" y1="9495.72" x2="18542.5" y2="9495.72" gradientUnits="userSpaceOnUse">
<stop stop-color="#FFDD06"/>
<stop offset="1" stop-color="#F9AF35"/>
</linearGradient>
<linearGradient id="paint14_linear_63_731" x1="774.876" y1="338.228" x2="872.254" y2="338.228" gradientUnits="userSpaceOnUse">
<stop stop-color="#C0D6FF"/>
<stop offset="0.3" stop-color="#C5DBFF"/>
<stop offset="0.65" stop-color="#D3E9FF"/>
<stop offset="1" stop-color="#E9FFFF"/>
</linearGradient>
<linearGradient id="paint15_linear_63_731" x1="-45173" y1="3110.36" x2="-44826.8" y2="3110.36" gradientUnits="userSpaceOnUse">
<stop stop-color="#C0D6FF"/>
<stop offset="0.3" stop-color="#C5DBFF"/>
<stop offset="0.65" stop-color="#D3E9FF"/>
<stop offset="1" stop-color="#E9FFFF"/>
</linearGradient>
</defs>
</svg>
