<svg width="180" height="180" viewBox="0 0 180 180" fill="none" xmlns="http://www.w3.org/2000/svg">
<g clip-path="url(#clip0_52_2)">
<mask id="mask0_52_2" style="mask-type:luminance" maskUnits="userSpaceOnUse" x="0" y="0" width="180" height="180">
<path d="M180 0H0V180H180V0Z" fill="white"/>
</mask>
<g mask="url(#mask0_52_2)">
<path d="M90 0C107.799 9.35705e-07 125.198 5.27768 139.998 15.1657C154.798 25.0538 166.334 39.1081 173.146 55.5518C179.959 71.9954 181.743 90.0899 178.273 107.547C174.803 125.005 166.234 141.041 153.65 153.629C141.066 166.217 125.032 174.791 107.576 178.267C90.1197 181.743 72.0246 179.965 55.5787 173.158C39.1328 166.35 25.0748 154.819 15.1819 140.023C5.28908 125.226 0.00577143 107.828 0 90.0292C0 66.1597 9.48211 43.2679 26.3604 26.3896C43.2387 9.5113 66.1305 0.0291891 90 0.0291891V0ZM90 9.75682C71.423 9.7525 53.4192 16.19 39.0566 27.9725C24.6941 39.7549 14.8616 56.153 11.2347 74.3726C7.6077 92.5921 10.4107 111.506 19.1661 127.89C27.9214 144.275 42.0873 157.116 59.2498 164.226C76.4123 171.337 95.5093 172.276 113.287 166.884C131.064 161.492 146.421 150.102 156.742 134.656C167.063 119.209 171.708 100.662 169.886 82.1745C168.064 63.687 159.888 46.4032 146.751 33.2685C139.307 25.8044 130.461 19.8849 120.722 15.85C110.982 11.8151 100.542 9.74441 90 9.75682Z" fill="#7A9757"/>
<path d="M145.156 97.3343H158.609V108.648H131.634V69.9316H145.156V97.3343ZM101.08 95.1942L78.8619 112.704L58.502 96.702C56.9902 100.262 54.4594 103.296 51.2278 105.421C47.9963 107.547 44.2084 108.669 40.3405 108.648H23.0156V69.9316H40.3794C44.2463 69.8976 48.0355 71.0168 51.2634 73.1462C54.4913 75.2756 57.0114 78.3187 58.502 81.8868L78.8327 65.9141L86.3619 71.8382L67.753 86.4296L71.3133 89.2409L89.932 74.6495L97.4611 80.5639L78.8425 95.2039L82.4222 98.0152L101.051 83.4238V69.9316H114.572V97.3246H128.055V108.648H101.08V95.1942ZM47.4222 89.2896C47.4222 84.0172 43.9397 81.0502 39.0273 81.0502H36.0117V97.5289H38.93C43.502 97.5289 47.4028 95.0289 47.4028 89.2896" fill="#7A9757"/>
</g>
</g>
<defs>
<clipPath id="clip0_52_2">
<rect width="180" height="180" fill="white"/>
</clipPath>
</defs>
</svg>
