<svg width="180" height="180" viewBox="0 0 180 180" fill="none" xmlns="http://www.w3.org/2000/svg">
<g clip-path="url(#clip0_52_9)">
<mask id="mask0_52_9" style="mask-type:luminance" maskUnits="userSpaceOnUse" x="0" y="0" width="180" height="180">
<path d="M180 0H0V180H180V0Z" fill="white"/>
</mask>
<g mask="url(#mask0_52_9)">
<path d="M89.749 0.297654C92.4214 0.28177 95.0836 -0.323275 97.7358 0.241337C109.478 1.28175 121.055 4.5077 131.499 10.0044C145.011 16.9219 156.634 27.4395 165.068 40.0436C173.67 52.8636 178.763 67.9601 179.913 83.344C179.723 87.4154 179.605 91.5128 180 95.5741C179.159 107.271 176.23 118.871 171.008 129.403C165.053 141.643 156.234 152.474 145.498 160.842C132.12 171.329 115.705 177.888 98.7679 179.441C96.188 179.626 93.6117 180.103 91.0173 179.903C89.2983 179.79 87.5389 180.337 85.8892 179.636C92.2148 161.847 98.5568 144.062 104.915 126.28C111.86 126.152 118.811 126.326 125.757 126.198C130.189 126.044 134.568 123.346 136.027 119.039C141.901 102.505 147.923 86.0205 153.611 69.4164C154.545 66.9089 155.063 64.1147 154.319 61.4887C153.314 58.161 150.267 55.8072 146.994 54.925C144.153 54.0434 141.151 54.3661 138.227 54.3149C129.312 54.2896 120.397 54.3611 111.486 54.2737C111.342 54.5712 111.053 55.161 110.908 55.4535C96.4728 95.9823 82.0275 136.511 67.5727 177.04C52.6861 173.179 38.8151 165.445 27.7558 154.759C14.4294 142.012 5.18079 125.065 1.75943 106.948C0.686871 101.507 0.300461 95.9691 0 90.4464C0.240513 78.9441 2.12851 67.3912 6.4628 56.6946C17.0353 29.6755 41.499 8.39933 69.9381 2.31784C55.3802 42.6674 41.1603 83.144 26.6074 123.501C27.5362 123.783 28.5106 123.675 29.4647 123.685C34.769 123.659 40.0819 123.696 45.3819 123.675C46.1042 123.67 46.0319 122.664 46.3309 122.203C52.723 104.163 59.1915 86.1483 65.6031 68.119C65.988 67.0006 66.347 65.8728 66.8605 64.8114C70.1829 64.8678 73.5053 64.7956 76.8321 64.8468C69.8608 84.3895 62.9516 103.966 55.8778 123.469C56.616 123.766 57.4213 123.674 58.1963 123.69C63.7671 123.638 69.3379 123.725 74.9087 123.649C81.2025 105.891 87.5743 88.1634 93.884 70.4164C95.2324 66.7854 95.3509 62.4938 93.2072 59.1451C91.3344 56.1812 87.7794 54.7654 84.3891 54.6275C79.7515 54.4889 75.1095 54.6376 70.4668 54.5553C76.848 36.4581 83.4191 18.4194 89.749 0.297654Z" fill="#7A9757"/>
<path d="M126.709 65.0411C127.263 64.4158 128.248 64.7949 128.986 64.6873C131.561 64.7335 134.136 64.6671 136.714 64.7234C130.719 81.835 124.436 98.8492 118.539 115.997C115.204 116.233 111.844 116.089 108.505 116.069C114.594 99.0701 120.621 82.0451 126.711 65.0411H126.709Z" fill="#7A9757"/>
</g>
</g>
<defs>
<clipPath id="clip0_52_9">
<rect width="180" height="180" fill="white"/>
</clipPath>
</defs>
</svg>
