<svg width="180" height="72" viewBox="0 0 180 72" fill="none" xmlns="http://www.w3.org/2000/svg">
<g clip-path="url(#clip0_52_16)">
<path d="M0 0V4.92624H35.0366V0H0ZM40.0003 0V4.92624H89.928C89.928 4.92624 84.8297 0 78.0754 0H40.0003ZM99.7243 0V4.92624H129.93L128.138 0H99.7243ZM151.587 0L149.794 4.92624H179.726V0H151.587ZM0 9.58032V14.5058H35.0366V9.58032H0ZM40.0003 9.5868V14.5058H95.7233C95.7233 14.5058 95.0753 10.715 93.9377 9.5868H40.0003ZM99.7243 9.5868V14.5058H133.242L131.586 9.5868H99.7243ZM148.001 9.5868L146.341 14.5066H179.726V9.5868H148.001ZM10.0685 19.1628V24.0962H25.2418V19.1599L10.0685 19.1628ZM50.0695 19.1628V24.0962H65.2428V19.1599L50.0695 19.1628ZM80.0014 19.1628V24.0962H95.1754C95.1754 24.0962 96.138 21.4906 96.138 19.1628H80.0014ZM109.793 19.1628V24.0962H136.695L134.901 19.1628H109.793ZM144.696 19.1628L142.896 24.0962H169.932V19.1599L144.696 19.1628ZM10.0685 28.7467V33.673H25.2425V28.7467H10.0685ZM50.0695 28.7467V33.673H88.8257C88.8257 33.673 92.0657 31.1458 93.101 28.7467H50.0695ZM109.793 28.7467V33.673H124.966V30.9312L125.928 33.673H153.72L154.753 30.9312V33.673H169.927V28.7467H141.448L139.936 32.9191L138.417 28.7467H109.793ZM10.0685 38.327V43.2533H25.2418V38.327H10.0685ZM50.0695 38.327V43.2533H93.101C92.0678 40.8622 88.8257 38.327 88.8257 38.327H50.0695ZM109.793 38.327V43.2533H124.966V38.327H109.793ZM127.721 38.327L129.555 43.2533H150.396L152.14 38.327H127.721ZM154.755 38.327V43.2533H169.929V38.327H154.755ZM10.0663 47.903V52.8293H25.2418V47.9066L10.0663 47.903ZM50.0674 47.903V52.8293H65.2428V47.9066L50.0674 47.903ZM79.9992 47.903V52.8293H96.1358C96.1358 50.5044 95.1725 47.903 95.1725 47.903H79.9992ZM109.791 47.903V52.8293H124.964V47.9066L109.791 47.903ZM131.166 47.903L132.944 52.8293H146.912L148.705 47.903H131.166ZM154.755 47.903V52.8293H169.929V47.9066L154.755 47.903ZM0.27432 57.487V62.424H35.311V57.487H0.27432ZM40.0003 57.487V62.424H93.9377C95.0724 61.2943 95.7233 57.4906 95.7233 57.4906H40.0003V57.487ZM99.9986 57.487V62.424H124.966V57.487H99.9986ZM134.621 57.487L136.449 62.424H143.557L145.272 57.4906L134.621 57.487ZM154.758 57.487V62.424H180V57.487H154.758ZM0.27432 67.0738V72H35.311V67.0738H0.27432ZM40.0003 67.0738V71.9928H78.0754C84.8297 71.9928 89.9294 67.0738 89.9294 67.0738H40.0003ZM99.9986 67.0738V72H124.966V67.0738H99.9986ZM138.087 67.0738L139.845 71.9863L140.147 71.9928L141.933 67.0738H138.087ZM154.758 67.0738V72H180V67.0738H154.758Z" fill="#7A9757"/>
</g>
<defs>
<clipPath id="clip0_52_16">
<rect width="180" height="72" fill="white"/>
</clipPath>
</defs>
</svg>
