<svg width="180" height="118" viewBox="0 0 180 118" fill="none" xmlns="http://www.w3.org/2000/svg">
<g clip-path="url(#clip0_52_18)">
<mask id="mask0_52_18" style="mask-type:luminance" maskUnits="userSpaceOnUse" x="0" y="0" width="180" height="118">
<path d="M180 0.5H0V117.5H180V0.5Z" fill="white"/>
</mask>
<g mask="url(#mask0_52_18)">
<path d="M85.503 104.8C49.9346 108.034 12.862 102.932 7.66971 75.5419C5.12889 62.0512 11.3798 47.7225 19.6596 38.8107V34.0573C4.74334 46.9531 -3.34052 63.2691 1.33029 82.5443C7.26204 107.264 39.0729 121.266 87.6393 116.615C106.86 114.781 132.003 108.688 149.491 99.2185V85.7776C133.617 95.1006 107.369 102.801 85.503 104.8ZM179.201 33.7333C170.766 -6.86667 90.7869 -9.4396 39.2341 21.4917V24.9181C90.7458 -1.17569 163.772 -1.01683 170.425 36.3841C172.656 48.7535 165.583 61.6431 152.952 69.066V78.769C168.149 73.2649 183.732 55.5098 179.201 33.7333Z" fill="#7A9757"/>
<path d="M146.615 27.8213H137.299V68.7639C137.299 73.5609 139.653 77.7318 146.625 78.3984L146.615 27.8213Z" fill="#7A9757"/>
<path d="M35.5716 42.7695H26.23V69.5174C26.23 74.3331 28.5907 78.5009 35.5779 79.155L35.5716 42.7695Z" fill="#7A9757"/>
<path d="M35.5431 29.0674H26.23V37.7799H35.5431V29.0674Z" fill="#7A9757"/>
<path d="M91.422 78.7319C83.8722 78.7319 80.6772 73.5611 80.6772 68.4526V32.9424H89.9209V42.77H96.8734V50.1306H89.9209V67.9044C89.9209 69.982 90.9195 71.1377 93.119 71.1377H96.8828V78.7319H91.422Z" fill="#7A9757"/>
<path d="M108.434 63.6086C108.434 68.281 111.391 71.7075 116.625 71.7075C120.733 71.7075 122.749 70.5861 125.116 68.281L130.83 73.645C127.167 77.2084 123.331 79.3764 116.558 79.3764C107.71 79.3764 99.2341 74.6168 99.2341 60.7429C99.2341 48.8812 106.642 42.1748 116.353 42.1748C126.226 42.1748 131.898 50.0244 131.898 60.3286V63.6086H108.434ZM115.949 49.7036C112.788 49.7036 110.352 51.3109 109.312 53.4758C108.74 54.6999 108.44 56.0308 108.434 57.3788H122.68C122.5 53.4695 120.698 49.6974 115.949 49.6974V49.7036Z" fill="#7A9757"/>
<path d="M60.6795 50.1298C63.391 50.1298 64.5192 51.4505 64.5192 53.5936V78.784H73.7786V53.5531C73.7786 48.4384 71.0134 42.791 62.8916 42.791H43.7913V78.784H53.0412V50.1267L60.6795 50.1298Z" fill="#7A9757"/>
<path d="M156.649 35.1375C155.915 35.1362 155.197 34.9205 154.587 34.5174C153.978 34.1143 153.503 33.5421 153.223 32.873C152.943 32.204 152.87 31.4681 153.014 30.7584C153.159 30.0488 153.513 29.3972 154.033 28.8861C154.553 28.375 155.215 28.0272 155.935 27.8869C156.656 27.7465 157.402 27.8198 158.08 28.0975C158.758 28.3752 159.337 28.8448 159.745 29.4469C160.152 30.0491 160.369 30.7568 160.369 31.4805C160.371 31.9621 160.276 32.4394 160.09 32.8846C159.903 33.3298 159.629 33.7342 159.283 34.0743C158.937 34.4144 158.526 34.6835 158.074 34.866C157.622 35.0485 157.138 35.1408 156.649 35.1375ZM156.649 28.431C156.04 28.4341 155.446 28.6148 154.941 28.9503C154.436 29.2858 154.043 29.7611 153.812 30.3164C153.58 30.8716 153.521 31.4819 153.641 32.0704C153.761 32.6588 154.055 33.1991 154.486 33.6231C154.917 34.0471 155.466 34.3358 156.063 34.4529C156.66 34.57 157.279 34.5102 157.842 34.2811C158.405 34.052 158.886 33.6638 159.226 33.1654C159.565 32.667 159.747 32.0808 159.749 31.4805C159.743 30.6727 159.414 29.8999 158.833 29.3292C158.253 28.7586 157.469 28.4359 156.649 28.431ZM158.296 33.6703H157.6C157.57 33.6701 157.541 33.6615 157.516 33.6455C157.491 33.6295 157.471 33.6068 157.458 33.58L156.51 32.0225C156.474 31.9858 156.428 31.9598 156.377 31.9478H155.947V33.5052C155.949 33.5264 155.946 33.5475 155.939 33.5675C155.931 33.5874 155.92 33.6058 155.906 33.6215C155.892 33.6371 155.874 33.6498 155.855 33.6587C155.835 33.6677 155.814 33.6727 155.793 33.6735H155.161C155.118 33.6703 155.077 33.6512 155.048 33.62C155.019 33.5888 155.002 33.5478 155.003 33.5052V29.5524C155.003 29.3219 155.082 29.2253 155.287 29.1973C155.492 29.1693 156.099 29.1443 156.425 29.1443C157.581 29.1443 158.261 29.4807 158.261 30.5367V30.6146C158.284 30.8751 158.213 31.1354 158.061 31.3492C157.908 31.5631 157.683 31.7167 157.426 31.7827L158.403 33.4211C158.418 33.4578 158.427 33.4968 158.428 33.5364C158.429 33.5538 158.426 33.5712 158.419 33.5874C158.413 33.6037 158.403 33.6184 158.39 33.6309C158.378 33.6434 158.363 33.6533 158.347 33.6601C158.331 33.6669 158.313 33.6703 158.296 33.6703ZM157.395 30.5367C157.395 30.0944 157.117 29.9573 156.523 29.9573H155.944V31.2033L156.535 31.222C157.129 31.222 157.407 31.0258 157.407 30.599L157.395 30.5367Z" fill="#7A9757"/>
</g>
</g>
<defs>
<clipPath id="clip0_52_18">
<rect width="180" height="118" fill="white"/>
</clipPath>
</defs>
</svg>
