<svg width="180" height="92" viewBox="0 0 180 92" fill="none" xmlns="http://www.w3.org/2000/svg">
<g clip-path="url(#clip0_52_31)">
<mask id="mask0_52_31" style="mask-type:luminance" maskUnits="userSpaceOnUse" x="0" y="0" width="180" height="92">
<path d="M180 0.217773H0V91.783H180V0.217773Z" fill="white"/>
</mask>
<g mask="url(#mask0_52_31)">
<path d="M165.813 54.6382C164.873 56.0774 163.818 57.4379 162.657 58.7061C157.974 63.9118 152.547 68.3975 146.553 72.0178C144.284 73.4258 141.968 74.7296 139.603 75.9291C134.244 78.7014 128.692 81.0848 122.99 83.0609C117.047 85.1127 110.98 86.7892 104.826 88.0804C101.349 88.8366 97.8194 89.4712 94.2379 89.984C91.1083 90.4273 87.9527 90.8184 84.8102 91.1052C82.8933 91.2747 80.9765 91.4182 79.0727 91.5094C77.9774 91.5094 76.8951 91.5876 75.7997 91.6528C73.5569 91.7832 71.301 91.7963 69.0582 91.7832C66.8154 91.7702 64.6508 91.705 62.4601 91.5876C59.6827 91.4442 56.9052 91.2356 54.1538 90.8966C50.2419 90.4403 46.4474 89.8536 42.6398 89.0583C38.5709 88.219 34.5596 87.1216 30.6302 85.7727C24.9626 83.893 19.5727 81.262 14.6044 77.95C12.5843 76.5867 10.6825 75.0558 8.91911 73.3737C6.75612 71.3359 4.89448 69.0003 3.39028 66.4375C1.70194 63.5741 0.610773 60.3987 0.182512 57.1024C0.0611544 56.1639 -0.00849581 55.2194 -0.026123 54.2732C-0.0102819 52.0721 0.283256 49.8818 0.847537 47.7542C2.14208 43.1921 4.36135 38.945 7.36739 35.2769C10.8615 30.937 14.9277 27.0905 19.4552 23.8427C22.8312 21.3819 26.3637 19.1433 30.0304 17.1412C35.4417 14.2208 41.0646 11.7105 46.8516 9.63138C51.259 8.02772 55.7186 6.67178 60.2564 5.48533C65.1854 4.18154 70.1796 3.17762 75.226 2.35623C78.199 1.86079 81.2243 1.46965 84.2364 1.16978C86.4532 0.948136 88.6699 0.73953 90.8736 0.609151C93.0773 0.478772 94.9159 0.42662 96.911 0.335355C99.519 0.218014 102.127 0.335355 104.657 0.335355C106.456 0.335355 108.282 0.452696 110.081 0.556999C112.089 0.700416 114.097 0.830795 116.092 1.02636C118.896 1.3132 121.673 1.66522 124.425 2.16066C128.83 2.89185 133.185 3.89774 137.464 5.17242C141.604 6.38496 145.638 7.93291 149.526 9.80087C153.35 11.605 156.948 13.8544 160.245 16.5024C163.575 19.118 166.376 22.3436 168.499 26.007C170.111 28.8138 171.136 31.9188 171.511 35.1335C171.627 36.338 171.67 37.5484 171.642 38.7581C171.596 38.7919 171.541 38.8102 171.485 38.8102C171.429 38.8102 171.374 38.7919 171.329 38.7581C171.383 37.6014 171.352 36.4422 171.237 35.29C170.806 31.963 169.61 28.7812 167.743 25.9939C165.884 23.1314 163.572 20.5905 160.897 18.4711C157.322 15.686 153.415 13.3561 149.265 11.5349C144.775 9.54788 140.119 7.95559 135.352 6.77608C131.936 5.91558 128.493 5.22457 124.999 4.69001C122.847 4.36407 120.695 4.07723 118.479 3.86863C116.575 3.6861 114.658 3.52964 112.741 3.42534C110.824 3.32103 109.22 3.19066 107.434 3.17762C103.679 3.17762 99.9101 3.17762 96.1677 3.38622C94.1988 3.5166 92.2558 3.62091 90.2738 3.7904C87.053 4.07723 83.8191 4.46837 80.6375 4.96381C77.0124 5.50271 73.4178 6.18068 69.8536 6.99772C64.8306 8.13711 59.8762 9.56053 55.0145 11.2611C51.2979 12.5637 47.6506 14.0564 44.0872 15.7331C39.8071 17.7504 35.699 20.1137 31.8038 22.7997C27.8963 25.4647 24.3542 28.6294 21.2677 32.213C18.6745 35.1962 16.6939 38.6606 15.439 42.4087C14.4373 45.435 14.1341 48.6488 14.5523 51.809C15.0028 54.9912 16.1565 58.0331 17.9295 60.7139C20.0102 63.8305 22.6128 66.5651 25.623 68.7974C28.7136 71.1309 32.0498 73.1201 35.5723 74.7296C38.9553 76.272 42.4409 77.5789 46.004 78.641C49.2844 79.6409 52.6139 80.472 55.9794 81.1312C59.4871 81.8223 62.9817 82.3438 66.5546 82.7219C68.1585 82.8914 69.7754 83.0087 71.3923 83.1521C73.5047 83.3477 75.6433 83.452 77.7687 83.4911C81.811 83.4911 85.8794 83.5824 89.9478 83.3086L94.0684 83.0609C96.3764 82.8914 98.6844 82.6306 100.979 82.3699C104.383 81.9526 107.76 81.4311 111.124 80.7792C117.446 79.568 123.676 77.9213 129.771 75.8509C134.926 74.0874 139.951 71.9613 144.806 69.4884C149.096 67.3088 153.173 64.7335 156.985 61.796C159.912 59.556 162.564 56.9784 164.887 54.1167C165.21 54.2387 165.51 54.4151 165.774 54.6382" fill="#7A9757"/>
<path d="M30.3042 35.3682V42.3434H29.7565C29.6491 41.2271 29.3258 40.1422 28.8046 39.1492C28.3278 38.3554 27.6481 37.7029 26.8356 37.2587C26.0397 36.8092 25.1418 36.5713 24.2277 36.5677C23.2899 36.5359 22.377 36.8729 21.6849 37.5064C21.3729 37.7699 21.1208 38.0969 20.9454 38.4657C20.77 38.8344 20.6754 39.2363 20.6678 39.6446C20.6605 40.2628 20.8731 40.8635 21.2677 41.3395C22.5624 42.5584 24.041 43.5659 25.649 44.3252C27.0085 45.0012 28.316 45.7769 29.5609 46.646C30.2225 47.1633 30.7651 47.817 31.1517 48.5625C31.5235 49.2747 31.716 50.0669 31.7125 50.8702C31.7099 51.6117 31.5492 52.3441 31.2412 53.0186C30.9331 53.693 30.4848 54.2941 29.926 54.7816C29.2992 55.3494 28.5665 55.7879 27.77 56.072C26.9734 56.3561 26.1285 56.4803 25.2839 56.4374C24.7291 56.4425 24.175 56.3989 23.6278 56.307C22.9781 56.1647 22.3379 55.9818 21.711 55.7594C21.118 55.5334 20.5012 55.3759 19.8724 55.2901C19.7654 55.2847 19.6585 55.303 19.5594 55.3435C19.4602 55.3841 19.3712 55.446 19.2987 55.5248C19.1021 55.79 18.9886 56.1077 18.9727 56.4374H18.438V49.5143H18.9727C19.1289 50.6489 19.4819 51.7475 20.0158 52.7607C20.5045 53.531 21.1944 54.1531 22.0109 54.56C22.9198 55.0364 23.9317 55.2827 24.9579 55.277C26.0247 55.3362 27.0739 54.9865 27.8918 54.2992C28.4339 53.8447 28.797 53.2125 28.9164 52.5153C29.0359 51.8181 28.9038 51.1011 28.5438 50.4921C28.2244 49.9314 27.7778 49.4536 27.2398 49.0971C26.2222 48.4005 25.1641 47.7649 24.0712 47.1935C22.797 46.5115 21.5726 45.7404 20.407 44.8858C19.7285 44.3788 19.1642 43.7347 18.751 42.9953C18.3736 42.2946 18.1807 41.5095 18.1903 40.7137C18.1857 40.009 18.3323 39.3115 18.6202 38.6682C18.9081 38.025 19.3307 37.4509 19.8594 36.9849C20.4267 36.4553 21.0932 36.0433 21.8206 35.7725C22.5479 35.5017 23.3217 35.3776 24.0973 35.4073C25.2696 35.4285 26.4245 35.695 27.4876 36.1896C27.8574 36.3853 28.2593 36.5134 28.6742 36.5677C28.9071 36.5745 29.1345 36.4956 29.3131 36.346C29.5331 36.0784 29.6692 35.7519 29.7043 35.4073H30.2259" fill="#7A9757"/>
<path d="M44.8436 40.3095V39.8662H50.5811V40.3095H50.0595C49.7658 40.3001 49.475 40.3703 49.2179 40.5126C48.9609 40.6549 48.747 40.864 48.5991 41.1179C48.3795 41.6679 48.2945 42.2624 48.3513 42.8519V49.3708C48.3962 50.6447 48.2333 51.9174 47.8688 53.1388C47.4972 54.0917 46.83 54.9005 45.965 55.4465C44.7878 56.1532 43.4235 56.4852 42.0531 56.3983C40.6502 56.4875 39.2514 56.1706 38.0239 55.4856C37.158 54.8947 36.4937 54.053 36.1201 53.0736C35.7867 51.7625 35.6505 50.4091 35.7158 49.0579V42.7346C35.7955 42.0561 35.6537 41.3701 35.3116 40.7789C35.1391 40.6139 34.934 40.4869 34.7094 40.406C34.4848 40.3252 34.2457 40.2923 34.0076 40.3095H33.3948V39.8662H40.3841V40.3095H39.7581C39.4841 40.2815 39.2075 40.3258 38.9558 40.4378C38.7042 40.5499 38.4863 40.7259 38.3238 40.9484C38.072 41.5081 37.9687 42.1233 38.0239 42.7346V49.7881C38.0354 50.508 38.0921 51.2265 38.1934 51.9393C38.2611 52.6077 38.4748 53.253 38.8193 53.8298C39.1508 54.3122 39.5995 54.7026 40.1233 54.9641C40.7782 55.2756 41.4977 55.4276 42.2227 55.4074C43.214 55.4265 44.1934 55.1884 45.0653 54.7164C45.8257 54.3386 46.43 53.7067 46.7735 52.9302C47.1364 51.7492 47.2865 50.5131 47.2169 49.2796V42.7606C47.2966 42.1079 47.1833 41.4461 46.8909 40.8571C46.71 40.6742 46.4916 40.5328 46.2507 40.4428C46.0097 40.3527 45.7521 40.3161 45.4956 40.3356H44.8436" fill="#7A9757"/>
<path d="M56.3835 48.4841V53.1908C56.3062 53.8449 56.4242 54.5072 56.7226 55.0943C56.8905 55.2687 57.0937 55.4054 57.3185 55.4953C57.5433 55.5852 57.7846 55.6263 58.0265 55.6158H58.6524V56.0591H51.7805V55.681H52.3803C52.6622 55.7095 52.9466 55.6616 53.2036 55.5423C53.4606 55.4231 53.6807 55.2368 53.8408 55.0031C54.0572 54.4432 54.1376 53.84 54.0755 53.243V42.8126C54.1505 42.1614 54.0421 41.5021 53.7626 40.9091C53.5837 40.7272 53.3675 40.5864 53.1288 40.4963C52.8902 40.4063 52.6348 40.3692 52.3803 40.3876H51.7805V39.9443H57.7005C58.8603 39.9027 60.019 40.0524 61.13 40.3876C61.9677 40.6863 62.7044 41.215 63.2555 41.913C63.8246 42.6221 64.1289 43.5072 64.1161 44.4163C64.1405 45.0169 64.0369 45.6158 63.8121 46.1733C63.5873 46.7308 63.2464 47.234 62.8121 47.6497C61.786 48.5185 60.464 48.9576 59.1219 48.8753C58.6863 48.8794 58.2509 48.8577 57.8179 48.8101C57.3261 48.767 56.838 48.6886 56.3575 48.5754L56.3835 48.4841ZM56.3575 47.9105L57.4919 48.093C57.7698 48.1101 58.0485 48.1101 58.3264 48.093C58.7377 48.0959 59.1446 48.0086 59.5186 47.8374C59.8925 47.6663 60.2245 47.4153 60.491 47.1021C61.1073 46.4229 61.4306 45.528 61.3908 44.6119C61.3957 43.936 61.2486 43.2676 60.9605 42.6562C60.7025 42.1055 60.2784 41.6495 59.7478 41.3524C59.202 41.0478 58.5863 40.8905 57.9613 40.8961C57.4377 40.9143 56.9174 40.9886 56.4096 41.1177L56.3575 47.9105Z" fill="#7A9757"/>
<path d="M70.5579 40.7659V47.1544H74.1307C74.7754 47.2234 75.4251 47.0817 75.9824 46.7504C76.4551 46.2216 76.703 45.5294 76.6735 44.8208H77.1299V50.4661H76.6735C76.6252 49.9496 76.5113 49.4415 76.3344 48.9538C76.1764 48.6582 75.9239 48.424 75.6173 48.2887C75.1472 48.0935 74.6387 48.0088 74.1307 48.041H70.5579V53.3867C70.5341 53.824 70.5691 54.2624 70.6622 54.6904C70.7199 54.8526 70.8362 54.9875 70.9882 55.0685C71.2746 55.1785 71.582 55.2229 71.8879 55.1988H74.6262C75.2971 55.2263 75.9686 55.1605 76.6213 55.0033C77.0734 54.8518 77.4841 54.5975 77.821 54.2602C78.4289 53.593 78.9383 52.8422 79.3336 52.0307H79.803L78.4208 56.0724H65.9548V55.6812H66.5286C66.9126 55.6839 67.2905 55.585 67.6239 55.3945C67.7454 55.3395 67.8543 55.2601 67.944 55.1615C68.0337 55.0628 68.1023 54.947 68.1455 54.8208C68.2606 54.3078 68.3045 53.7812 68.2759 53.2562V42.6433C68.3504 41.9907 68.2373 41.3304 67.9499 40.7398C67.7596 40.5656 67.5346 40.4337 67.2896 40.3528C67.0446 40.2719 66.7852 40.2439 66.5286 40.2705H65.9548V39.8271H78.4208L78.6033 43.3736H78.1339C78.0473 42.7595 77.8578 42.1644 77.5732 41.6133C77.3559 41.2798 77.042 41.0207 76.6735 40.8703C76.1246 40.728 75.558 40.6664 74.9913 40.6876L70.5579 40.7659Z" fill="#7A9757"/>
<path d="M97.3936 56.0593H93.0905L87.6138 48.4843C87.2096 48.4843 86.8836 48.4843 86.6228 48.4843H86.2837H85.9186V53.191C85.8389 53.8437 85.9522 54.5055 86.2446 55.0945C86.4193 55.2783 86.633 55.4206 86.8699 55.5108C87.1069 55.6011 87.3611 55.637 87.6138 55.616H88.2527V56.0593H81.3547V55.6812H81.9546C82.2364 55.7097 82.5208 55.6618 82.7778 55.5425C83.0348 55.4232 83.2549 55.237 83.415 55.0033C83.6383 54.4451 83.7233 53.8412 83.6628 53.2431V42.8128C83.7401 42.1588 83.6221 41.4965 83.3237 40.9093C83.1454 40.7267 82.9293 40.5854 82.6905 40.4953C82.4517 40.4052 82.196 40.3685 81.9415 40.3878H81.3547V39.9445H87.2617C88.5413 39.9027 89.821 40.0254 91.0693 40.3095C91.8506 40.549 92.5502 41.0003 93.0905 41.6133C93.6583 42.2825 93.9641 43.1348 93.9511 44.0123C93.9763 44.9732 93.6308 45.9069 92.9861 46.6199C92.1659 47.4445 91.108 47.9917 89.9609 48.1844L93.2991 52.8259C93.8239 53.6457 94.4906 54.3654 95.2681 54.9511C95.9228 55.3393 96.66 55.5672 97.4196 55.616V56.0854L97.3936 56.0593ZM85.9317 47.7803H86.5706C87.815 47.8635 89.0498 47.5134 90.0653 46.7894C90.4404 46.4819 90.7409 46.0934 90.9442 45.653C91.1475 45.2126 91.2482 44.7319 91.2388 44.247C91.2593 43.7928 91.1853 43.3392 91.0215 42.915C90.8576 42.4909 90.6075 42.1053 90.2869 41.7828C89.9551 41.4602 89.5604 41.2093 89.1275 41.0455C88.6946 40.8818 88.2326 40.8088 87.7703 40.8311C87.1435 40.8515 86.5197 40.9256 85.9056 41.0527V47.7803" fill="#7A9757"/>
<path d="M107.669 56.0593L101.41 42.4478V53.2692C101.334 53.9036 101.443 54.5465 101.723 55.1207C101.905 55.3013 102.124 55.4402 102.364 55.528C102.605 55.6158 102.862 55.6503 103.118 55.6292H103.692V56.0854H98.0715V55.6812H98.6453C98.9202 55.7057 99.197 55.6628 99.4515 55.556C99.706 55.4492 99.9306 55.2819 100.106 55.0686C100.336 54.5167 100.43 53.9173 100.38 53.3214V42.6433C100.416 42.1141 100.331 41.5836 100.132 41.0919C99.9873 40.8376 99.769 40.6329 99.5059 40.5051C99.0487 40.3313 98.5599 40.2559 98.0715 40.2836V39.8271H102.648L108.516 52.4869L114.293 39.8271H118.857V40.2836H118.296C118.021 40.2568 117.743 40.2988 117.489 40.4057C117.234 40.5127 117.009 40.6813 116.836 40.8964C116.608 41.4492 116.515 42.0476 116.562 42.6433V53.2171C116.484 53.8543 116.602 54.5003 116.901 55.0686C117.081 55.2481 117.298 55.3865 117.536 55.4743C117.775 55.562 118.03 55.5971 118.283 55.577H118.844V56.0333H111.985V55.6812H112.559C112.836 55.7102 113.116 55.6695 113.373 55.5624C113.631 55.4554 113.857 55.2856 114.032 55.0686C114.251 54.5137 114.34 53.916 114.293 53.3214V42.5L108.047 56.0593H107.669Z" fill="#7A9757"/>
<path d="M127.437 55.6807V56.124H120.474V55.6807H121.048C121.32 55.7061 121.595 55.6661 121.849 55.5641C122.103 55.462 122.329 55.3009 122.508 55.094C122.764 54.5172 122.863 53.883 122.795 53.2557V42.8254C122.827 42.2773 122.774 41.7277 122.638 41.1956C122.596 41.0833 122.531 40.9805 122.448 40.8932C122.365 40.806 122.266 40.7359 122.156 40.6872C121.815 40.5066 121.434 40.4126 121.048 40.4134H120.474V39.957H127.411V40.4134H126.824C126.555 40.3885 126.283 40.4275 126.032 40.5272C125.78 40.6269 125.556 40.7844 125.377 40.987C125.108 41.56 125.004 42.1966 125.077 42.8254V53.2557C125.051 53.8036 125.104 54.3524 125.233 54.8854C125.28 54.9998 125.349 55.1037 125.436 55.1911C125.524 55.2784 125.628 55.3474 125.742 55.3939C126.07 55.5857 126.444 55.6849 126.824 55.6807H127.411" fill="#7A9757"/>
<path d="M143.241 39.5145L143.606 45.0034H143.241C142.916 43.6265 142.174 42.3834 141.116 41.4441C140.178 40.7049 139.011 40.3174 137.817 40.3489C136.737 40.3266 135.677 40.6462 134.79 41.2621C133.902 41.8779 133.232 42.7584 132.875 43.7779C132.331 45.1952 132.074 46.7064 132.118 48.2238C132.092 49.5287 132.336 50.8251 132.835 52.0309C133.268 53.0543 134.006 53.9194 134.948 54.508C135.918 55.0954 137.035 55.3939 138.169 55.3686C139.138 55.3906 140.096 55.1567 140.946 54.6906C141.994 53.993 142.883 53.0823 143.554 52.0178L143.932 52.2525C143.271 53.5384 142.287 54.6303 141.077 55.4207C139.897 56.1273 138.538 56.476 137.165 56.4246C135.962 56.4804 134.764 56.2369 133.678 55.7158C132.593 55.1947 131.653 54.4124 130.945 53.4389C129.832 51.931 129.25 50.0973 129.289 48.2238C129.269 46.6743 129.641 45.1449 130.371 43.7779C131.109 42.4541 132.196 41.3582 133.514 40.6096C134.774 39.8684 136.211 39.481 137.673 39.4884C138.881 39.4961 140.07 39.791 141.142 40.3489C141.363 40.4792 141.606 40.5675 141.859 40.6096C141.962 40.6116 142.065 40.593 142.162 40.555C142.258 40.5169 142.346 40.4602 142.42 40.388C142.648 40.1332 142.805 39.823 142.876 39.4884H143.306" fill="#7A9757"/>
<path d="M161.836 56.0597H157.52L152.056 48.4847C151.639 48.4847 151.313 48.4847 151.052 48.4847H150.713H150.348V53.1913C150.263 53.8456 150.381 54.5101 150.687 55.0949C150.854 55.2706 151.057 55.4082 151.282 55.4982C151.507 55.5882 151.749 55.6285 151.991 55.6164H152.617V56.0597H145.68V55.6816H146.279C146.563 55.7111 146.85 55.6638 147.109 55.5445C147.368 55.4252 147.591 55.2384 147.753 55.0036C147.962 54.442 148.043 53.8404 147.988 53.2435V42.8132C148.072 42.1589 147.954 41.4945 147.649 40.9096C147.47 40.727 147.254 40.5857 147.015 40.4956C146.776 40.4055 146.521 40.3688 146.266 40.3881H145.667V39.9448H151.56C152.836 39.902 154.111 40.0247 155.355 40.3099C156.17 40.5656 156.894 41.0498 157.441 41.705C158.018 42.413 158.324 43.3037 158.302 44.2169C158.281 45.13 157.934 46.0054 157.324 46.6854C156.511 47.5127 155.456 48.0606 154.312 48.25L157.65 52.8915C158.175 53.7113 158.842 54.4309 159.619 55.0167C160.273 55.4072 161.01 55.6352 161.771 55.6816L161.836 56.0597ZM150.348 47.7415H151.013C152.257 47.8247 153.492 47.4746 154.507 46.7506C154.857 46.4401 155.14 46.0627 155.341 45.6408C155.542 45.2189 155.656 44.761 155.676 44.2942C155.697 43.8274 155.624 43.3612 155.461 42.9232C155.298 42.4852 155.049 42.0842 154.729 41.7441C154.398 41.4191 154.004 41.1658 153.571 40.9998C153.138 40.8338 152.676 40.7587 152.212 40.7793C151.585 40.7986 150.961 40.8772 150.348 41.0139V47.7415Z" fill="#7A9757"/>
<path d="M171.029 38.458C172.806 38.458 174.543 38.9849 176.02 39.9719C177.498 40.959 178.649 42.362 179.329 44.0034C180.009 45.6449 180.187 47.4511 179.841 49.1937C179.494 50.9362 178.638 52.5368 177.382 53.7932C176.125 55.0495 174.524 55.905 172.782 56.2516C171.039 56.5983 169.232 56.4204 167.591 55.7404C165.949 55.0605 164.546 53.9091 163.559 52.4319C162.571 50.9546 162.044 49.2178 162.044 47.4411C162.043 46.261 162.274 45.0921 162.725 44.0014C163.176 42.9108 163.837 41.9198 164.672 41.0853C165.507 40.2508 166.498 39.5892 167.589 39.1383C168.679 38.6875 169.848 38.4563 171.029 38.458Z" fill="#7A9757"/>
</g>
</g>
<defs>
<clipPath id="clip0_52_31">
<rect width="180" height="92" fill="white"/>
</clipPath>
</defs>
</svg>
