<svg width="271" height="59" viewBox="0 0 271 59" fill="none" xmlns="http://www.w3.org/2000/svg">
<path d="M22.9743 15.2939H38.9482L36.4744 24.7767C36.0964 26.0982 35.3896 27.1597 34.3539 27.9613C33.317 28.7643 32.1152 29.1646 30.7493 29.1646H23.3277C21.6311 29.1646 20.1346 29.6597 18.8392 30.6507C17.5424 31.6414 16.636 32.9858 16.1177 34.6842C15.7879 35.9583 15.7525 37.1613 16.0119 38.2934C16.2706 39.4259 16.7298 40.4289 17.3902 41.301C18.0497 42.1745 18.8976 42.8702 19.935 43.3891C20.9707 43.9088 22.1019 44.1671 23.3277 44.1671H27.8512C28.6993 44.1671 29.3941 44.5101 29.9363 45.1932C30.4775 45.8778 30.6311 46.644 30.3959 47.4932L27.5687 57.9668H22.6209C19.2282 57.9668 16.1059 57.2237 13.2555 55.7379C10.4038 54.2515 8.03592 52.2825 6.15201 49.8285C4.26668 47.3762 2.98215 44.5808 2.29984 41.443C1.6161 38.3059 1.6988 35.0857 2.54699 31.7827L2.82995 30.7212C3.44159 28.4569 4.39579 26.369 5.6921 24.4585C6.98794 22.5476 8.51938 20.9201 10.2864 19.5753C12.0535 18.2307 14.0208 17.1815 16.1886 16.4264C18.3555 15.6722 20.6173 15.2939 22.9743 15.2939Z" fill="#7A9757"/>
<path d="M31.0312 57.9672L44.9557 5.74063C45.332 4.42034 46.0387 3.35882 47.0761 2.55608C48.1118 1.75429 49.3135 1.35303 50.681 1.35303H65.4534C68.8461 1.35303 71.9671 2.09609 74.8189 3.58221C77.669 5.06833 80.0371 7.03898 81.9224 9.49132C83.8063 11.9448 85.103 14.7404 85.8098 17.8773C86.5167 21.0156 86.4216 24.2353 85.527 27.5371L85.2444 28.5986C84.6313 30.8632 83.6894 32.9508 82.4171 34.8615C81.1446 36.7723 79.6253 38.4122 77.8582 39.7799C76.0912 41.1488 74.1229 42.2103 71.956 42.9644C69.7882 43.7198 67.5263 44.097 65.1707 44.097H52.3773L54.9218 34.5431C55.2983 33.2693 56.0051 32.232 57.0422 31.4293C58.0782 30.6277 59.2797 30.2262 60.6469 30.2262H64.7466C66.4427 30.2262 67.9626 29.7075 69.3053 28.6694C70.6485 27.6321 71.5322 26.2875 71.956 24.6356C72.2852 23.4568 72.3205 22.3003 72.0623 21.168C71.8029 20.0357 71.3432 19.0339 70.6837 18.1603C70.0233 17.288 69.175 16.5803 68.1393 16.0373C67.1022 15.4955 65.9715 15.2235 64.7466 15.2235H56.8302L46.5104 53.6506C46.1327 54.9242 45.4259 55.9626 44.3899 56.7641C43.3533 57.5669 42.1748 57.9672 40.8559 57.9672H31.0312Z" fill="#7A9757"/>
<path d="M119.171 30.0846L119.383 29.3062C119.477 28.9292 119.419 28.6108 119.206 28.3508C118.994 28.0923 118.7 27.9616 118.323 27.9616H95.3512C94.3619 27.9616 93.4659 27.7495 92.6653 27.3247C91.8637 26.9001 91.2043 26.346 90.6867 25.6617C90.1674 24.9785 89.814 24.1878 89.6264 23.2909C89.4372 22.3953 89.4606 21.4753 89.6966 20.531L91.1103 15.1526H122.21C124.142 15.1526 125.909 15.5773 127.512 16.4267C129.113 17.2757 130.445 18.3846 131.506 19.7526C132.566 21.1214 133.295 22.6894 133.696 24.4586C134.096 26.2278 134.061 28.0567 133.59 29.9431L128.006 50.749C127.441 52.8721 126.298 54.5946 124.578 55.9151C122.858 57.2366 120.891 57.8966 118.676 57.8966L95.7046 57.8258C93.6782 57.8258 91.8171 57.3899 90.121 56.5164C88.4244 55.6443 87.0343 54.4886 85.9505 53.049C84.8662 51.6105 84.113 49.9593 83.6887 48.0953C83.265 46.2319 83.3124 44.3332 83.83 42.3982L84.113 41.3367C84.4421 40.0167 84.9965 38.7893 85.7738 37.657C86.5515 36.5245 87.4579 35.558 88.4953 34.7553C89.531 33.9535 90.6867 33.3289 91.9585 32.8802C93.2307 32.4322 94.5742 32.2077 95.9878 32.2077H115.284L113.87 37.5155C113.492 38.7893 112.786 39.8275 111.749 40.629C110.713 41.432 109.534 41.8321 108.215 41.8321H99.5921C98.7906 41.8321 98.2725 42.2338 98.0374 43.0354C97.896 43.555 97.99 44.015 98.3198 44.4153C98.6492 44.8166 99.0731 45.0166 99.5921 45.0166H113.516C114.035 45.0166 114.482 44.8751 114.86 44.5923C115.236 44.3089 115.471 43.932 115.566 43.4597L115.708 42.8936L119.171 30.0846Z" fill="#7A9757"/>
<path d="M160.308 15.2944C163.747 15.2944 166.892 16.0374 169.744 17.5235C172.595 19.0097 174.962 20.9803 176.848 23.4326C178.732 25.8864 180.016 28.694 180.699 31.854C181.382 35.0154 181.276 38.2479 180.382 41.5494L176.848 54.8537C176.611 55.7978 176.105 56.5519 175.328 57.1183C174.551 57.6845 173.69 57.9673 172.748 57.9673H165.114C164.219 57.9673 163.512 57.6259 162.994 56.9414C162.475 56.258 162.333 55.4904 162.57 54.6414L166.811 38.5772C167.14 37.3982 167.175 36.2418 166.916 35.1093C166.657 33.977 166.198 32.9752 165.539 32.1017C164.878 31.2294 164.03 30.5217 162.994 29.9787C161.957 29.4368 160.826 29.1651 159.602 29.1651H151.685L144.828 54.8537C144.593 55.7978 144.086 56.5519 143.309 57.1183C142.531 57.6845 141.648 57.9673 140.658 57.9673H133.095C132.247 57.9673 131.551 57.6259 131.01 56.9414C130.469 56.258 130.315 55.4904 130.551 54.6414L141.012 15.2944H160.308Z" fill="#7A9757"/>
<path d="M201.939 28.7756C201.374 29.2245 200.972 29.8017 200.737 30.5094L197.557 42.5399C197.368 43.2014 197.486 43.8137 197.91 44.3799C198.334 44.9463 198.9 45.2291 199.607 45.2291H228.869L226.607 53.6507C226.229 54.9243 225.523 55.9627 224.487 56.7642C223.45 57.567 222.271 57.9673 220.953 57.9673H194.306C192.373 57.9673 190.606 57.5549 189.004 56.7289C187.402 55.9042 186.071 54.7952 185.01 53.4028C183.95 52.0119 183.219 50.4308 182.82 48.6616C182.42 46.8924 182.478 45.0876 182.997 43.2476L187.308 27.1833C187.778 25.4387 188.509 23.8341 189.499 22.3711C190.488 20.9093 191.655 19.6588 192.998 18.6204C194.341 17.5832 195.848 16.7696 197.521 16.179C199.194 15.5897 200.925 15.2944 202.717 15.2944H221.588C223.52 15.2944 225.287 15.719 226.89 16.5682C228.491 17.4174 229.823 18.5266 230.884 19.8943C231.944 21.2631 232.661 22.8434 233.039 24.6357C233.416 26.4292 233.368 28.2448 232.898 30.0848L231.625 34.897C231.06 37.0203 229.917 38.7305 228.197 40.0279C226.477 41.3258 224.533 41.974 222.366 41.974H201.02L202.434 36.737C202.763 35.4632 203.446 34.4259 204.484 33.6232C205.519 32.8214 206.721 32.4201 208.089 32.4201H216.712C217.512 32.4201 218.03 32.0198 218.267 31.2171L218.549 30.1556C218.691 29.6368 218.596 29.1648 218.267 28.7402C217.936 28.3156 217.512 28.1033 216.994 28.1033H203.848C203.141 28.1033 202.504 28.3279 201.939 28.7756Z" fill="#7A9757"/>
<path d="M228.797 57.9672L243.004 4.53758C243.239 3.59448 243.746 2.82807 244.524 2.23763C245.301 1.64837 246.184 1.35303 247.174 1.35303H254.737C255.632 1.35303 256.35 1.69578 256.893 2.37916C257.434 3.06372 257.587 3.8299 257.352 4.67911L246.75 44.097C246.231 46.1735 245.395 48.0597 244.241 49.7584C243.086 51.4566 241.719 52.9075 240.141 54.1103C238.562 55.3134 236.807 56.2579 234.875 56.9411C232.943 57.6258 230.917 57.9672 228.797 57.9672Z" fill="#7A9757"/>
<path d="M263.954 6.00389H264.649C264.993 6.00389 265.269 5.91472 265.477 5.73615C265.686 5.55781 265.79 5.33088 265.79 5.0556C265.79 4.73313 265.697 4.5022 265.513 4.36231C265.328 4.22266 265.036 4.1526 264.636 4.1526H263.954V6.00389ZM266.749 5.02989C266.749 5.37405 266.658 5.67812 266.476 5.94255C266.293 6.20699 266.037 6.40372 265.706 6.53276L267.239 9.08063H266.157L264.823 6.79719H263.954V9.08063H263V3.33358H264.682C265.394 3.33358 265.918 3.47323 266.25 3.75277C266.583 4.03253 266.749 4.45808 266.749 5.02989ZM260.616 6.20392C260.616 6.94793 260.803 7.64334 261.177 8.29039C261.551 8.93791 262.06 9.44744 262.707 9.81921C263.353 10.1912 264.046 10.3771 264.785 10.3771C265.532 10.3771 266.226 10.19 266.865 9.81591C267.506 9.44178 268.013 8.93556 268.389 8.297C268.765 7.65843 268.953 6.9609 268.953 6.20392C268.953 5.45567 268.766 4.7612 268.392 4.12052C268.019 3.47984 267.513 2.97149 266.875 2.59501C266.237 2.21876 265.541 2.03052 264.785 2.03052C264.037 2.03052 263.344 2.21758 262.704 2.5917C262.064 2.96583 261.556 3.47229 261.18 4.11085C260.804 4.74941 260.616 5.44718 260.616 6.20392ZM259.94 6.20392C259.94 5.34386 260.155 4.53758 260.584 3.78508C261.013 3.03259 261.604 2.43932 262.356 2.0048C263.107 1.57053 263.917 1.35327 264.785 1.35327C265.644 1.35327 266.449 1.5684 267.2 1.99843C267.952 2.42847 268.545 3.01985 268.979 3.77211C269.413 4.5246 269.629 5.33537 269.629 6.20392C269.629 7.05101 269.421 7.84668 269.004 8.59045C268.588 9.33445 268.003 9.93008 267.252 10.3771C266.501 10.8246 265.678 11.048 264.785 11.048C263.896 11.048 263.075 10.8253 262.324 10.3804C261.572 9.93527 260.987 9.34082 260.568 8.59681C260.149 7.85305 259.94 7.05526 259.94 6.20392Z" fill="#7A9757"/>
<path fill-rule="evenodd" clip-rule="evenodd" d="M32.2068 54.4342C32.689 52.6797 35.7662 41.1424 39.045 28.7957C42.3239 16.449 45.2362 5.75684 45.517 5.03528C45.7978 4.31373 46.6898 3.25038 47.4992 2.67228C48.8408 1.71416 49.6267 1.60641 56.3851 1.45397C69.238 1.16408 74.0436 2.38762 79.342 7.29896C84.9734 12.519 87.1758 19.8574 85.3028 27.1604C83.1021 35.7409 77.2088 41.6512 69.1269 43.3829C67.7512 43.6777 63.4798 43.9189 59.635 43.9189H52.6444L54.0027 38.9156C56.0252 31.4658 56.5913 30.9478 63.19 30.5079C67.7413 30.2045 69.7864 29.1924 71.3015 26.4935C73.3814 22.7883 72.293 18.6586 68.5754 16.1503C67.095 15.1514 66.5292 15.0721 61.7546 15.1938L56.5481 15.3266L51.3258 34.7032C48.4535 45.3603 45.8396 54.5561 45.5171 55.1382C44.4276 57.105 42.5968 57.6243 36.7518 57.6243H31.3301L32.2068 54.4342Z" fill="#7A9757"/>
<path fill-rule="evenodd" clip-rule="evenodd" d="M92.6305 57.1923C89.347 56.1645 86.4543 53.7076 84.7924 50.5349C83.51 48.0867 83.6107 42.9591 85.0012 39.9014C86.4055 36.8134 88.0833 35.0742 90.9815 33.7024C93.2469 32.6302 93.7741 32.5851 104.118 32.5807L114.894 32.5761L114.573 34.112C113.993 36.8804 112.603 39.4978 111.169 40.5201C109.958 41.3838 108.982 41.543 104.198 41.6581C99.5045 41.7709 98.5534 41.9211 98.1147 42.6188C97.736 43.2212 97.7361 43.6706 98.1151 44.2729C98.568 44.9928 99.5843 45.1168 105.958 45.2298C109.985 45.3012 113.795 45.1637 114.424 44.9242C115.433 44.54 115.807 43.5902 117.598 36.8633C118.715 32.6694 119.509 28.9257 119.363 28.544C119.138 27.9581 117.158 27.8501 106.643 27.8501C94.4611 27.8501 94.1544 27.8266 92.5922 26.7726C89.7466 24.8526 89.2784 22.4521 90.7516 17.3348L91.2618 15.5625H108.002C124.073 15.5625 124.827 15.6025 126.87 16.5643C130.836 18.4304 133.7 22.7978 133.7 26.9777C133.7 29.098 127.743 51.3033 126.685 53.1277C126.235 53.9039 124.956 55.1799 123.843 55.9633L121.82 57.3876L107.817 57.4751C100.115 57.5233 93.2812 57.396 92.6305 57.1923Z" fill="#7A9757"/>
<path fill-rule="evenodd" clip-rule="evenodd" d="M131.434 57.057C131.123 56.7451 130.874 55.9476 130.882 55.2848C130.89 54.622 133.197 45.4665 136.01 34.9394L141.123 15.7991L151.879 15.6719C163.996 15.5286 166.557 15.9136 170.924 18.5341C177.269 22.3419 181.367 30.1121 180.794 37.2457C180.437 41.6868 176.627 55.332 175.401 56.5592C174.428 57.5332 173.9 57.6242 169.218 57.6242C163.747 57.6242 162.966 57.3395 162.966 55.345C162.966 54.7153 163.944 50.4567 165.139 45.8815C167.52 36.7694 167.624 34.6723 165.823 32.1398C164.019 29.6022 162.403 29.0587 156.625 29.0445L151.465 29.0319L148.75 39.1928C147.256 44.7813 145.666 50.7285 145.216 52.4088C144.765 54.0892 143.911 55.95 143.318 56.5441C142.327 57.5363 141.823 57.6242 137.12 57.6242C133.768 57.6242 131.805 57.4284 131.434 57.057Z" fill="#7A9757"/>
<path fill-rule="evenodd" clip-rule="evenodd" d="M190.408 56.9769C186.524 55.5698 182.806 50.563 182.795 46.7268C182.789 44.5542 187.235 27.8653 188.647 24.7567C190.227 21.28 192.373 19.0928 195.92 17.3445L199.056 15.7988H211.811C225.935 15.7988 226.434 15.8898 229.573 19.0397C232.908 22.386 233.607 26.6985 231.848 33.0582C230.709 37.1715 229.253 39.3007 226.681 40.6147C224.99 41.4784 223.889 41.5555 213.255 41.5555C203.982 41.5555 201.672 41.4312 201.672 40.9324C201.672 39.1246 203.229 35.453 204.523 34.2111C205.95 32.8406 206.095 32.8092 211.732 32.6528C214.896 32.565 217.75 32.2731 218.075 32.0042C218.938 31.289 218.824 28.4851 217.918 28.137C217.508 27.9792 213.92 27.8501 209.946 27.8501C203.754 27.8501 202.58 27.9684 201.737 28.6772C201.06 29.2469 200.235 31.4366 199.089 35.7142C197.293 42.4131 197.113 43.8913 197.99 44.7692C198.407 45.1866 202.529 45.3363 213.599 45.3363C227.705 45.3363 228.626 45.3878 228.393 46.1634C228.257 46.6183 227.732 48.5088 227.226 50.3645C226.111 54.456 225.645 55.3725 224.033 56.6421C222.826 57.5924 222.291 57.6228 207.391 57.588C196.564 57.5627 191.524 57.3814 190.408 56.9769Z" fill="#7A9757"/>
<path fill-rule="evenodd" clip-rule="evenodd" d="M229.26 57.1006C229.388 56.7387 232.586 44.7729 236.366 30.5098C240.146 16.2467 243.462 4.15969 243.735 3.64973C244.512 2.19588 247.1 1.38477 250.962 1.38477C254.6 1.38477 256.659 1.96551 257.1 3.11666C257.439 4.0009 246.262 45.4165 245.034 47.8261C243.485 50.867 240.163 54.0596 236.85 55.6925C233.444 57.3715 228.864 58.2211 229.26 57.1006Z" fill="#7A9757"/>
<path fill-rule="evenodd" clip-rule="evenodd" d="M24.1895 22.1789V15.5625H31.2699C36.6202 15.5625 38.35 15.7069 38.3491 16.1533C38.3484 16.4782 37.8149 18.7644 37.1634 21.2337C36.1796 24.9629 35.7012 25.9836 34.3394 27.2593C32.7405 28.7572 32.5944 28.7953 28.4446 28.7953H24.1895V22.1789Z" fill="#7A9757"/>
<path fill-rule="evenodd" clip-rule="evenodd" d="M263.01 6.20598V3.33936H263.935C264.48 3.33936 264.92 3.34386 265.007 3.3503C265.44 3.38264 265.771 3.46844 266.041 3.61855C266.386 3.8101 266.615 4.14209 266.701 4.57686C266.732 4.72968 266.748 4.94289 266.741 5.10452C266.715 5.71626 266.383 6.20943 265.821 6.47315C265.755 6.50426 265.703 6.53442 265.705 6.54016C265.707 6.5459 266.05 7.11688 266.467 7.809L267.224 9.06739L266.7 9.07011C266.411 9.07161 266.171 9.071 266.165 9.06878C266.159 9.06657 265.856 8.55433 265.492 7.93051L264.83 6.79628L264.389 6.79616L263.948 6.79603V7.93433V9.07262H263.479H263.01V6.20598ZM264.764 6.00232C265.063 5.98073 265.272 5.90655 265.459 5.75542C265.697 5.56348 265.808 5.30661 265.792 4.98496C265.769 4.54696 265.582 4.31008 265.176 4.20667C264.998 4.16113 264.891 4.15277 264.41 4.14658L263.948 4.14065V5.07672V6.01279L264.285 6.01269C264.47 6.01264 264.685 6.00798 264.764 6.00232Z" fill="#7A9757"/>
<path fill-rule="evenodd" clip-rule="evenodd" d="M264.525 11.0358C263.47 10.9825 262.51 10.6028 261.664 9.90462C260.798 9.18933 260.186 8.10756 260.007 6.97369C259.948 6.60462 259.932 6.08763 259.968 5.73618C260.058 4.86573 260.361 4.06538 260.871 3.35081C261.125 2.99568 261.492 2.61736 261.832 2.35992L261.891 2.31592L262.564 2.31861L263.237 2.3213L263.1 2.3831C262.259 2.76168 261.567 3.39926 261.122 4.20627C260.847 4.70324 260.686 5.22895 260.63 5.80406C260.613 5.98173 260.613 6.42448 260.63 6.60296C260.679 7.11106 260.813 7.5767 261.044 8.04411C261.441 8.84929 262.03 9.46024 262.821 9.88632C263.429 10.2144 264.078 10.3775 264.779 10.378C265.769 10.3786 266.657 10.0588 267.443 9.41838C267.589 9.29923 267.875 9.01266 267.997 8.86389C268.632 8.0872 268.955 7.19197 268.955 6.20584C268.955 5.54548 268.817 4.95201 268.527 4.36709C268.135 3.5771 267.54 2.95638 266.761 2.52616C266.656 2.46816 266.395 2.34303 266.337 2.32314C266.329 2.32016 266.626 2.31735 266.998 2.3169L267.675 2.31607L267.728 2.35523C267.935 2.50627 268.231 2.7837 268.426 3.00777C268.781 3.41677 269.094 3.93478 269.299 4.45033C269.442 4.81184 269.551 5.26741 269.598 5.69963C269.623 5.93382 269.624 6.47083 269.599 6.70035C269.492 7.68005 269.114 8.57468 268.487 9.3286C268.361 9.47948 268.097 9.74379 267.933 9.88144C266.955 10.7053 265.79 11.0997 264.525 11.0358Z" fill="#7A9757"/>
</svg>
