<svg width="290" height="64" viewBox="0 0 290 64" fill="none" xmlns="http://www.w3.org/2000/svg">
<g clip-path="url(#clip0_58_33)">
<path d="M71.1431 45.0882H72.0977L74.007 53.2917L76.8709 45.0882H77.5073L80.4349 53.1664L82.4714 45.0882H83.3624L81.0076 54.4189H80.053L77.1891 46.4032L74.3888 54.4189H73.3705L71.1431 45.0882ZM90.8722 49.096H97.0455C97.0455 46.9668 96.0272 45.8396 94.1816 45.8396C92.0178 45.9022 90.9358 46.9668 90.8722 49.096ZM94.118 45.0882C96.6 45.0882 97.8729 46.4658 97.8729 49.2212C97.8729 49.4091 97.8729 49.597 97.8729 49.8475H90.8722C90.8722 52.2271 92.0814 53.4796 94.6271 53.4796C95.6454 53.4796 96.6 53.3543 97.3637 53.1038V53.9179C96.5364 54.1684 95.6454 54.2936 94.6271 54.2936C91.5723 54.2936 89.8539 52.7281 89.8539 49.4717C89.9812 46.5285 91.3813 45.0882 94.118 45.0882ZM106.083 53.3543C107.037 53.4795 107.865 53.6048 108.565 53.6048C110.92 53.6048 112.065 52.2897 112.065 49.597C112.065 47.2799 110.983 46.1527 108.819 46.1527C107.928 46.1527 107.037 46.278 106.019 46.5911L106.083 53.3543ZM105.192 41.7692H106.146V45.5891C107.228 45.3386 108.183 45.2134 108.947 45.2134C111.683 45.2134 113.02 46.6537 113.02 49.7222C113.02 52.9159 111.62 54.6067 108.756 54.6067C107.483 54.6067 106.337 54.4815 105.255 54.2936L105.192 41.7692ZM136.313 54.1058C135.549 54.231 134.722 54.3563 133.894 54.3563C130.84 54.3563 129.185 52.7281 129.185 49.4717C129.185 46.5285 130.649 44.9629 133.894 44.9629C134.785 44.9629 135.549 45.0255 136.313 45.2134V46.0275C135.486 45.9022 134.722 45.777 134.022 45.777C131.603 45.777 130.33 46.9668 130.33 49.4717C130.33 52.1645 131.54 53.4796 134.022 53.4796C134.785 53.4796 135.486 53.4169 136.313 53.2291V54.1058ZM147.132 53.73C149.36 53.73 150.441 52.415 150.441 49.7848C150.441 47.1547 149.36 45.9022 147.132 45.9022C144.905 45.9022 143.823 47.1547 143.823 49.7848C143.823 52.3523 144.968 53.73 147.132 53.73ZM142.932 49.7848C142.932 46.7163 144.332 44.9629 147.132 44.9629C149.932 44.9629 151.332 46.5285 151.332 49.7848C151.332 52.8533 149.932 54.6067 147.132 54.6067C144.332 54.4189 142.932 52.9159 142.932 49.7848ZM158.842 54.3563V45.0882H159.479L159.606 46.278C160.752 45.4639 161.897 45.0882 162.979 45.0882C165.207 45.0882 166.288 46.0901 166.288 47.9688V54.4189H165.334V47.9688C165.334 46.6537 164.506 45.9022 162.915 45.9022C161.833 45.9022 160.752 46.278 159.67 47.0921V54.4815L158.842 54.3563ZM173.989 43.6478H174.626L174.753 45.0882H177.489V45.9022H174.88V51.914C174.88 53.1038 175.262 53.73 176.153 53.73H177.489V54.5441H176.217C174.753 54.5441 173.989 53.6674 173.989 52.1019V43.6478ZM184.49 54.3563V45.0882H185.19L185.317 46.6537C186.272 45.6518 187.29 45.0882 188.309 45.0882V45.8396C187.227 45.8396 186.208 46.4032 185.445 47.4678V54.4815L184.49 54.3563ZM198.873 53.73C201.101 53.73 202.183 52.415 202.183 49.7848C202.183 47.1547 201.101 45.9022 198.873 45.9022C196.646 45.9022 195.564 47.1547 195.564 49.7848C195.437 52.3523 196.519 53.73 198.873 53.73ZM194.482 49.7848C194.482 46.7163 195.882 44.9629 198.682 44.9629C201.483 44.9629 202.883 46.5285 202.883 49.7848C202.883 52.8533 201.483 54.6067 198.682 54.6067C196.009 54.4189 194.482 52.9159 194.482 49.7848ZM211.411 54.3563H210.456V41.7065H211.411V54.3563ZM229.549 53.0412C230.504 53.3543 231.331 53.4796 232.031 53.4796C234.386 53.4796 235.531 52.1645 235.531 49.5343C235.531 47.2173 234.386 45.9649 232.031 45.9649C231.204 45.9649 230.376 46.0275 229.549 46.1527V53.0412ZM228.658 45.4013C229.676 45.1508 230.885 45.0882 232.095 45.0882C235.022 45.0882 236.422 46.5285 236.422 49.4091C236.422 52.6655 235.022 54.3563 232.095 54.3563C231.331 54.3563 230.504 54.231 229.613 53.9805V57.8005H228.658V45.4013ZM247.051 49.7848C245.269 49.7848 244.378 50.4111 244.378 51.6635C244.378 52.8533 245.141 53.4796 246.605 53.4796C247.687 53.4796 248.769 53.2291 249.724 52.5402V49.9727C248.705 49.8475 247.814 49.7848 247.051 49.7848ZM243.359 51.7887C243.359 49.9727 244.569 49.0334 246.987 49.0334C247.878 49.0334 248.705 49.096 249.724 49.1586V48.0314C249.724 46.6537 248.833 45.9022 247.114 45.9022C246.096 45.9022 245.078 46.0275 244.187 46.278V45.4013C245.205 45.1508 246.16 45.0255 247.114 45.0255C249.469 45.0255 250.615 46.0275 250.615 47.9062V54.3563H250.042L249.851 53.4169C248.705 54.1058 247.623 54.3563 246.541 54.3563C244.378 54.3563 243.359 53.5422 243.359 51.7887ZM258.315 54.3563V45.0882H258.952L259.079 46.278C260.225 45.4639 261.37 45.0882 262.452 45.0882C264.68 45.0882 265.761 46.0901 265.761 47.9688V54.4189H264.807V47.9688C264.807 46.6537 263.979 45.9022 262.388 45.9022C261.307 45.9022 260.225 46.278 259.143 47.0921V54.4815L258.315 54.3563ZM274.099 49.096H280.272C280.208 46.9668 279.254 45.8396 277.408 45.8396C275.244 45.9022 274.226 46.9668 274.099 49.096ZM277.344 45.0882C279.826 45.0882 281.099 46.4658 281.099 49.2212C281.099 49.4091 281.099 49.597 281.099 49.8475H274.099C274.099 52.2271 275.371 53.4796 277.854 53.4796C278.872 53.4796 279.826 53.3543 280.59 53.1038V53.9179C279.763 54.1684 278.872 54.2936 277.854 54.2936C274.799 54.2936 273.08 52.7281 273.08 49.4717C273.208 46.5285 274.608 45.0882 277.344 45.0882ZM289.436 54.3563H288.482V41.7065H289.436V54.3563Z" fill="#7A9757"/>
<path d="M87.6263 27.1153V16.6574C87.6263 15.4049 87.1808 14.5908 86.1625 14.1525C85.2079 13.7768 83.7441 13.401 81.7712 13.401H77.2526V29.9959H81.5803C83.8714 29.9959 85.4624 29.8707 86.4171 29.5576C87.1808 29.2445 87.6263 28.3678 87.6263 27.1153ZM93.6087 16.7826V27.1153C93.6087 29.9333 92.7177 31.9999 91.063 32.9392C89.3446 33.9411 86.1625 34.4421 81.8348 34.4421H71.2065V9.08008H81.7712C85.9716 9.08008 89.0264 9.51844 90.872 10.7083C92.654 11.7728 93.6087 13.8394 93.6087 16.7826ZM104.11 34.3795H98.5091V15.5928H104.11V34.3795ZM104.11 13.3384H98.5091V8.82959H104.11V13.3384ZM121.484 19.8511H119.511C117.984 19.8511 116.838 20.039 116.074 20.6026C115.247 21.0409 114.865 21.9177 114.865 23.0449V34.3795H109.265V15.5928H114.611V18.8492C114.611 17.9098 115.183 17.0957 116.138 16.3443C117.156 15.5928 118.302 15.1544 119.32 15.1544H121.357L121.484 19.8511ZM136.504 23.2327V20.54C136.504 19.9764 136.313 19.538 135.74 19.1623C135.358 18.9118 134.403 18.7239 133.258 18.7239C131.921 18.7239 130.967 18.8492 130.521 19.1623C130.139 19.4128 129.758 19.9764 129.758 20.54V23.2327H136.504ZM141.85 26.4891H129.821V28.1799C129.821 29.2445 130.139 29.9959 130.903 30.4969C131.667 31.0605 133.067 31.2484 135.04 31.2484C136.885 31.2484 138.986 30.9979 141.34 30.4343V34.129C138.986 34.5674 136.44 34.8805 134.085 34.8805C127.466 34.8805 124.284 32.8139 124.284 28.6809V21.9177C124.284 19.538 125.048 17.7846 126.575 16.72C128.103 15.718 130.458 15.2171 133.512 15.2171C136.376 15.2171 138.604 15.6554 139.94 16.6574C141.34 17.5967 142.04 19.3501 142.04 21.9177L141.85 26.4891ZM161.642 34.129C159.415 34.5047 157.315 34.7552 155.278 34.7552C154.323 34.7552 153.56 34.7552 152.987 34.6926C152.414 34.6926 151.714 34.63 150.823 34.5047C149.932 34.3795 149.296 34.2543 148.723 33.9411C148.277 33.6907 147.705 33.2523 147.196 32.8766C146.75 32.5008 146.305 31.812 145.986 31.0605C145.795 30.309 145.668 29.3697 145.668 28.3678V22.0429C145.668 21.1036 145.732 20.2895 145.923 19.6006C146.114 18.8492 146.368 18.2856 146.75 17.8472C147.005 17.4088 147.514 16.9705 148.087 16.5948C148.659 16.2816 149.168 16.0312 149.614 15.8433C150.059 15.718 150.696 15.5928 151.523 15.4676C152.351 15.4049 152.923 15.3423 153.432 15.3423C153.878 15.3423 154.642 15.3423 155.533 15.3423C156.933 15.3423 158.715 15.5302 161.133 16.0938V19.8511C158.46 19.1623 156.551 18.9118 154.96 18.9118C152.414 18.9118 151.078 19.7885 151.078 21.5419V28.3051C151.078 30.2464 152.478 31.2484 155.278 31.2484C156.615 31.2484 158.524 30.9979 161.26 30.3717L161.642 34.129ZM177.362 34.5674C176.28 34.6926 175.198 34.7552 174.307 34.7552C173.416 34.7552 172.652 34.7552 172.016 34.6926C171.38 34.63 170.68 34.5047 169.979 34.3169C169.343 34.129 168.707 33.7533 168.261 33.3775C167.879 33.0018 167.434 32.4382 167.179 31.6867C166.925 30.9353 166.797 30.0586 166.797 29.0566V19.037H162.979V15.5302H166.797V10.0194H172.398V15.4676H177.553V18.9744H172.398V27.8668C172.398 29.1818 172.589 30.0586 172.971 30.4969C173.353 30.9353 174.244 31.1231 175.453 31.1231C175.835 31.1231 176.535 31.0605 177.489 30.9353L177.362 34.5674Z" fill="#7A9757"/>
<path d="M196.964 24.4853L194.1 15.5929H193.973L191.109 24.4853H196.964ZM206.065 34.5049H200.337L198.237 28.2426H189.645L187.545 34.5049H182.072L190.727 10.8962H197.537L206.065 34.5049ZM220.575 29.182V22.1056C220.575 21.2289 220.384 20.6027 219.875 20.2896C219.43 19.9765 218.412 19.8512 216.948 19.8512C215.357 19.8512 214.402 19.9765 214.02 20.2896C213.702 20.6027 213.511 21.2915 213.511 22.3561V29.0567C213.511 29.996 213.702 30.6849 214.02 31.0606C214.338 31.4364 215.293 31.5616 216.693 31.5616C218.412 31.5616 219.43 31.4364 219.939 31.1233C220.321 30.7475 220.575 30.1213 220.575 29.182ZM225.794 34.5049H220.703V32.5009C220.321 33.1898 219.939 33.6908 219.621 33.9413C219.303 34.1917 218.793 34.4422 218.093 34.6301C217.393 34.7553 216.502 34.818 215.293 34.818C212.366 34.818 210.329 34.4422 209.374 33.6281C208.483 32.8767 207.974 31.2485 207.974 28.6184V21.8552C207.974 19.8512 208.483 18.5362 209.629 17.7221C210.711 16.9706 212.429 16.5323 214.911 16.5323C216.63 16.5323 217.775 16.6575 218.539 16.9706C219.239 17.2837 219.875 17.9099 220.512 18.8493V9.01758H225.794V34.5049ZM257.552 34.5049H252.269V22.2935C252.269 21.2289 252.142 20.5401 251.951 20.227C251.697 19.9765 250.996 19.7886 249.851 19.7886C248.387 19.7886 247.56 19.9139 247.242 20.227C246.923 20.4775 246.796 21.1663 246.796 22.2935V34.4422H241.514V22.2935C241.514 21.2289 241.386 20.5401 241.196 20.227C240.941 19.9765 240.241 19.7886 239.095 19.7886C237.632 19.7886 236.804 19.9139 236.486 20.227C236.168 20.4775 236.041 21.1663 236.041 22.2935V34.4422H230.758V16.908H236.041V19.0371C236.359 17.409 238.141 16.5323 241.196 16.5323C242.85 16.5323 244.059 16.7201 244.95 17.2211C245.778 17.5968 246.351 18.2857 246.605 19.225C246.86 18.3483 247.432 17.6595 248.26 17.2211C249.087 16.8454 250.36 16.5949 252.078 16.5949C254.369 16.5949 255.897 16.9706 256.661 17.8473C257.424 18.724 257.743 19.9765 257.743 21.6673L257.552 34.5049ZM267.671 34.5049H262.388V16.908H267.671V34.5049ZM267.671 14.8415H262.388V10.5205H267.671V14.8415ZM289.309 34.5049H284.027V22.2935C284.027 21.3542 283.9 20.6653 283.581 20.2896C283.263 19.9765 282.499 19.8512 281.29 19.8512C279.763 19.8512 278.808 19.9765 278.49 20.2896C278.108 20.6027 277.917 21.2289 277.917 22.2935V34.5049H272.635V16.908H277.854V19.0371C278.235 17.409 280.145 16.5323 283.39 16.5323C285.682 16.5323 287.273 16.908 288.164 17.7847C288.991 18.5988 289.5 19.9139 289.5 21.6047L289.309 34.5049Z" fill="#7A9757"/>
<path d="M56.5052 32.9391L24.9386 1.87842L15.9014 10.7708L38.4944 32.9391L15.965 55.1074L24.9386 63.9997L56.5052 32.9391Z" fill="#7A9757"/>
<path d="M54.596 31.0607L23.0294 0L13.9922 8.89237L36.5852 31.0607L14.0558 53.229L23.0294 62.1213L54.596 31.0607Z" fill="#7A9757"/>
<path d="M7.24609 46.5911L9.53722 48.8455L27.548 31.0608L25.1296 28.6812" fill="#7A9757"/>
<path d="M25.1296 28.7435L9.53722 13.3384L0.5 22.1681L9.53722 31.0605L0.5 39.9529L7.24609 46.5908" fill="#7A9757"/>
</g>
<defs>
<clipPath id="clip0_58_33">
<rect width="289" height="64" fill="white" transform="translate(0.5)"/>
</clipPath>
</defs>
</svg>
