<svg width="218" height="90" viewBox="0 0 218 90" fill="none" xmlns="http://www.w3.org/2000/svg">
<g clip-path="url(#clip0_58_41)">
<mask id="mask0_58_41" style="mask-type:luminance" maskUnits="userSpaceOnUse" x="0" y="0" width="218" height="90">
<path d="M217.424 0H0.5V90H217.424V0Z" fill="white"/>
</mask>
<g mask="url(#mask0_58_41)">
<path d="M7.05289 89.9998H0.5V21.0727C5.75189 19.4074 11.2251 18.5447 16.7346 18.5137C20.3273 18.4674 23.8981 19.0783 27.271 20.3164C30.2885 21.4281 33.0497 23.1391 35.3883 25.3463C37.6462 27.5097 39.4128 30.1331 40.5685 33.0388C41.7904 36.1189 42.4027 39.407 42.3712 42.7205C42.3712 46.9614 41.6442 50.6013 40.1903 53.6403C38.8432 56.5253 36.8806 59.0803 34.4404 61.1256C32.0536 63.0983 29.2924 64.5678 26.3231 65.4459C23.3005 66.3648 20.158 66.8292 16.9988 66.8238C15.315 66.8241 13.6336 66.6977 11.9689 66.4457C10.3052 66.1927 8.6571 65.8469 7.03217 65.4096L7.05289 89.9998ZM34.8703 42.6273C34.8703 37.1191 33.3353 32.6728 30.2652 29.2884C27.1951 25.904 22.8783 24.2101 17.3148 24.2067C15.569 24.2068 13.825 24.3175 12.0932 24.5382C10.3804 24.7607 8.69495 25.1582 7.06325 25.7245V59.3333C8.60113 59.8446 10.1662 60.27 11.7513 60.6076C13.2947 60.9463 14.8696 61.1199 16.4497 61.1256C22.0822 61.1256 26.5596 59.5284 29.8818 56.334C33.204 53.1396 34.8669 48.5707 34.8703 42.6273Z" fill="#7A9757"/>
<path d="M55.6582 66.4562V0H62.3043V66.4562H55.6582Z" fill="#7A9757"/>
<path d="M116.608 59.5252C114.465 61.8745 111.841 63.7349 108.915 64.9799C106.004 66.2093 102.501 66.824 98.4049 66.824C94.9796 66.8992 91.5783 66.2349 88.4331 64.8763C85.7003 63.67 83.2681 61.8746 81.3104 59.6184C79.4015 57.3919 77.9494 54.8115 77.0367 52.0243C76.077 49.1114 75.5959 46.0622 75.6122 42.9953C75.5327 39.2965 76.1115 35.6131 77.3216 32.117C78.3247 29.2707 79.9128 26.6662 81.9838 24.4711C83.8988 22.4782 86.235 20.9384 88.8216 19.9643C91.4609 18.9733 94.2596 18.4746 97.0788 18.4932C104.041 18.4932 109.294 20.6291 112.837 24.901C116.38 29.1729 118.089 35.3891 117.965 43.5496H82.3464C82.5398 48.9335 84.0938 53.2054 87.0085 56.3653C89.9232 59.5252 93.8705 61.112 98.8504 61.1259C101.447 61.1619 104.025 60.6958 106.444 59.7531C108.814 58.7725 110.927 57.2608 112.619 55.3344L116.608 59.5252ZM111.288 37.9757C111.303 36.1024 110.998 34.2402 110.387 32.4692C109.839 30.854 108.966 29.3679 107.822 28.1024C106.613 26.8308 105.138 25.842 103.502 25.2067C99.5022 23.7492 95.1163 23.7492 91.1164 25.2067C89.541 25.8131 88.1239 26.7696 86.9723 28.0039C85.8515 29.3129 84.9107 30.7659 84.175 32.3242C83.3095 34.1021 82.7474 36.0123 82.5122 37.9757H111.288Z" fill="#7A9757"/>
<path d="M161.426 30.19C159.986 28.2883 158.154 26.7178 156.055 25.5849C153.909 24.5542 151.549 24.0499 149.17 24.1137C145.793 24.1137 143.424 24.7146 142.063 25.9164C141.406 26.477 140.881 27.177 140.528 27.9655C140.175 28.754 140.002 29.6112 140.022 30.4749C139.987 31.6241 140.319 32.7544 140.97 33.7022C141.634 34.6223 142.478 35.3978 143.451 35.9814C144.583 36.6619 145.785 37.2177 147.036 37.6391C148.393 38.1157 149.802 38.575 151.263 39.017C153.052 39.5868 154.841 40.205 156.63 40.8715C158.381 41.5084 160.038 42.3797 161.556 43.4616C163.022 44.5113 164.256 45.8514 165.182 47.3985C166.168 49.182 166.65 51.2001 166.576 53.2365C166.628 55.2585 166.164 57.2605 165.229 59.0538C164.307 60.757 163.017 62.2329 161.452 63.3741C159.758 64.5968 157.852 65.4976 155.832 66.0315C150.221 67.4999 144.29 67.1683 138.877 65.0835C135.712 63.6676 132.894 61.578 130.62 58.9606L135.8 54.4021C139.254 58.8363 143.729 61.0517 149.227 61.0482C152.805 61.0482 155.457 60.3834 157.184 59.0538C158.911 57.7243 159.774 56.1098 159.774 54.2104C159.813 52.9364 159.486 51.6778 158.831 50.5843C158.161 49.5673 157.277 48.7082 156.241 48.0667C155.057 47.3296 153.787 46.7398 152.46 46.3107C151.035 45.8393 149.528 45.3782 147.937 44.9379C146.145 44.4303 144.372 43.8605 142.617 43.2285C140.939 42.6394 139.35 41.8238 137.893 40.8042C136.491 39.8178 135.321 38.538 134.464 37.0537C133.501 35.28 133.036 33.2789 133.117 31.2623C133.117 27.0871 134.642 23.8599 137.691 21.5806C140.74 19.3013 144.674 18.1514 149.491 18.1306C152.642 18.0748 155.771 18.6562 158.691 19.8401C161.375 20.9797 163.944 22.9741 166.399 25.8232L161.525 30.2833L161.426 30.19Z" fill="#7A9757"/>
<path d="M179.07 66.4562V0.0932617H185.716V66.4562H179.07ZM185.716 41.9593L208.509 18.9853H217.435L194.082 41.778L217.341 66.4614H208.121L185.716 41.9593Z" fill="#7A9757"/>
<path d="M78.7771 90H38.7915V83.7476H78.7771V90Z" fill="#7A9757"/>
</g>
</g>
<defs>
<clipPath id="clip0_58_41">
<rect width="217" height="90" fill="white" transform="translate(0.5)"/>
</clipPath>
</defs>
</svg>
