<svg width="134" height="134" viewBox="0 0 134 134" fill="none" xmlns="http://www.w3.org/2000/svg">
<path d="M129.813 69.5746C129.82 67.1582 129.1 64.7955 127.745 62.7946C126.391 60.7936 124.464 59.2473 122.218 58.3571C119.927 57.4356 117.998 55.793 116.723 53.6779L112.764 47.0791C112.578 46.769 112.315 46.5124 112 46.3343C111.686 46.1561 111.33 46.0625 110.969 46.0625C110.607 46.0625 110.252 46.1561 109.937 46.3343C109.623 46.5124 109.359 46.769 109.173 47.0791L105.214 53.6778C103.94 55.793 102.011 57.4356 99.7196 58.3571C97.5926 59.2076 95.7513 60.6453 94.4104 62.5026C93.0696 64.3599 92.2845 66.5602 92.1469 68.8468C92.0092 71.1334 92.5246 73.4119 93.6329 75.4167C94.7411 77.4215 96.3967 79.0698 98.4063 80.1693V83.4508C97.3917 82.5807 96.2406 81.8838 94.9992 81.3884C92.7081 80.4668 90.7793 78.8243 89.5046 76.7092L85.5454 70.1103C85.3594 69.8003 85.0962 69.5437 84.7816 69.3656C84.467 69.1874 84.1116 69.0938 83.75 69.0938V54.4375H83.7471C83.7482 54.0453 83.639 53.6608 83.4318 53.3278L73.2813 37.0869V30.3629C74.665 29.5898 75.7941 28.4311 76.5312 27.0279C77.2682 25.6246 77.5815 24.0373 77.4327 22.4593C77.2839 20.8812 76.6795 19.3805 75.6932 18.1397C74.7068 16.8989 73.3811 15.9717 71.8772 15.4708C71.465 15.3346 71.0839 15.118 70.7559 14.8336C70.4279 14.5492 70.1596 14.2025 69.9665 13.8137L69.0938 12.0683V4.1875H64.9063V12.0683L64.0336 13.8137C63.8404 14.2025 63.5721 14.5492 63.2441 14.8336C62.9162 15.118 62.535 15.3346 62.1228 15.4708C60.619 15.9717 59.2932 16.8989 58.3068 18.1397C57.3205 19.3805 56.7161 20.8812 56.5674 22.4593C56.4186 24.0373 56.7318 25.6246 57.4688 27.0279C58.2059 28.4311 59.335 29.5898 60.7188 30.3629V37.0869L50.5682 53.3278C50.3611 53.6608 50.2518 54.0453 50.2529 54.4375H50.25V62.8495C50.0636 62.5918 49.888 62.3262 49.7234 62.0529L45.7641 55.4541C45.5781 55.144 45.315 54.8874 45.0004 54.7093C44.6857 54.5311 44.3303 54.4375 43.9688 54.4375C43.6072 54.4375 43.2518 54.5311 42.9372 54.7093C42.6225 54.8874 42.3594 55.144 42.1734 55.4541L38.2141 62.0528C36.9395 64.168 35.0108 65.8106 32.7196 66.7321C30.7054 67.5336 28.9441 68.8626 27.6206 70.5796L24.8266 65.9228C24.6406 65.6128 24.3775 65.3562 24.0629 65.178C23.7482 64.9999 23.3928 64.9062 23.0313 64.9062C22.6697 64.9062 22.3143 64.9999 21.9997 65.178C21.685 65.3562 21.4219 65.6128 21.2359 65.9228L17.2766 72.5215C16.002 74.6367 14.0733 76.2793 11.7821 77.2009C9.65507 78.0513 7.81373 79.4891 6.4729 81.3464C5.13207 83.2037 4.34702 85.404 4.20934 87.6905C4.07166 89.9771 4.58704 92.2557 5.69533 94.2605C6.80363 96.2652 8.45915 97.9135 10.4688 99.013V106.083L4.60628 113.9C4.33446 114.262 4.18751 114.703 4.18751 115.156V127.719C4.1875 127.994 4.24165 128.266 4.34687 128.52C4.45208 128.774 4.60631 129.005 4.80073 129.199C4.99516 129.394 5.22597 129.548 5.48 129.653C5.73403 129.758 6.0063 129.813 6.28126 129.812H127.719C127.994 129.813 128.266 129.758 128.52 129.653C128.774 129.548 129.005 129.394 129.199 129.199C129.394 129.005 129.548 128.774 129.653 128.52C129.758 128.266 129.813 127.994 129.813 127.719V96.3125C129.813 95.8595 129.666 95.4187 129.394 95.0563L123.531 87.2397V80.1693C125.432 79.1282 127.017 77.5955 128.122 75.7317C129.227 73.8679 129.811 71.7414 129.813 69.5746ZM101.275 62.2451C104.415 60.9821 107.058 58.731 108.805 55.8322L110.969 52.2258L113.133 55.8324C114.88 58.7311 117.523 60.9821 120.663 62.2451C122.366 62.9265 123.779 64.1798 124.659 65.7898C125.538 67.3998 125.83 69.2659 125.483 71.0675C125.136 72.869 124.172 74.4934 122.757 75.6616C121.343 76.8298 119.566 77.4688 117.731 77.4688H104.207C102.372 77.4688 100.595 76.8298 99.1801 75.6616C97.7655 74.4934 96.8019 72.869 96.4549 71.0675C96.108 69.2659 96.3994 67.3998 97.2789 65.7898C98.1585 64.1798 99.5714 62.9265 101.275 62.2451ZM120.391 90.0312L123.531 94.2188H102.483C102.673 92.8241 102.618 91.4068 102.319 90.0312H120.391ZM85.8438 117.25V115.156C85.8438 114.601 86.0644 114.068 86.457 113.676C86.8497 113.283 87.3822 113.062 87.9375 113.062C88.4928 113.062 89.0254 113.283 89.418 113.676C89.8107 114.068 90.0313 114.601 90.0313 115.156V117.25H85.8438ZM77.4688 117.25V115.156C77.4688 114.601 77.6894 114.068 78.082 113.676C78.4747 113.283 79.0072 113.062 79.5625 113.062C80.1178 113.062 80.6504 113.283 81.043 113.676C81.4357 114.068 81.6563 114.601 81.6563 115.156V117.25H77.4688ZM69.0938 117.25V115.156C69.0938 114.601 69.3144 114.068 69.707 113.676C70.0997 113.283 70.6322 113.062 71.1875 113.062C71.7428 113.062 72.2754 113.283 72.668 113.676C73.0607 114.068 73.2813 114.601 73.2813 115.156V117.25H69.0938ZM43.9688 116.383L37.6875 110.102V106.781H50.25V110.102L43.9688 116.383ZM37.2066 90.0312H50.7309C51.2704 90.0302 51.8092 89.9932 52.3438 89.9204V95.8232C51.1936 94.7902 49.7022 94.2188 48.1563 94.2188C46.6103 94.2188 45.1189 94.7902 43.9688 95.8232C42.8186 94.7902 41.3272 94.2188 39.7813 94.2188C38.2353 94.2188 36.7439 94.7902 35.5938 95.8232V89.9204C36.1283 89.9932 36.6671 90.0302 37.2066 90.0312ZM54.4375 56.5312H64.9063V60.0209L59.0438 67.8376C58.8306 68.1237 58.6942 68.4598 58.6477 68.8136C57.6276 67.9346 56.4686 67.2312 55.2179 66.7321C54.953 66.6262 54.693 66.5091 54.4375 66.3833V56.5312ZM64.9159 92.125H62.8125V69.7916L67 64.2084L71.1875 69.7916V82.0069C69.3529 83.0028 67.8095 84.4598 66.7097 86.2341C65.6099 88.0085 64.9916 90.0388 64.9159 92.125ZM37.6875 102.594V100.5C37.6875 99.9447 37.9081 99.4121 38.3008 99.0195C38.6934 98.6268 39.226 98.4062 39.7813 98.4062C40.3366 98.4062 40.8691 98.6268 41.2618 99.0195C41.6544 99.4121 41.875 99.9447 41.875 100.5V102.594H37.6875ZM46.0625 100.5C46.0625 99.9447 46.2831 99.4121 46.6758 99.0195C47.0684 98.6268 47.601 98.4062 48.1563 98.4062C48.7116 98.4062 49.2441 98.6268 49.6368 99.0195C50.0294 99.4121 50.25 99.9447 50.25 100.5V102.594H46.0625V100.5ZM54.4375 100.5C54.4375 99.9447 54.6581 99.4121 55.0508 99.0195C55.4434 98.6268 55.976 98.4062 56.5313 98.4062C57.0866 98.4062 57.6191 98.6268 58.0118 99.0195C58.4044 99.4121 58.625 99.9447 58.625 100.5V102.594H54.4375V100.5ZM75.375 71.1875H79.5625V74.0972L77.9954 76.709C77.3055 77.8542 76.4184 78.8683 75.375 79.7043V71.1875ZM79.5625 67H74.3281L69.0938 60.0209V56.5312H79.5625V67ZM58.625 92.125H56.5313V88.5443C57.2786 88.1325 57.9804 87.643 58.625 87.0839V92.125ZM33.5 100.5V102.594H29.3125V100.5C29.3125 99.9447 29.5331 99.4121 29.9258 99.0195C30.3184 98.6268 30.851 98.4062 31.4063 98.4062C31.9616 98.4062 32.4941 98.6268 32.8868 99.0195C33.2794 99.4121 33.5 99.9447 33.5 100.5ZM29.3125 106.781H33.5V110.102L29.3125 114.289V106.781ZM54.4375 106.781H58.625V114.289L54.4375 110.102V106.781ZM62.8125 104.688V100.5C62.8136 98.9538 62.242 97.4621 61.208 96.3125H65.4903C66.4443 99.2495 68.4816 101.713 71.1875 103.201V108.875C69.5222 108.877 67.9256 109.539 66.7481 110.717C65.5705 111.894 64.9081 113.491 64.9063 115.156V125.625H62.8125V104.688ZM87.9375 108.875C86.3914 108.874 84.8996 109.446 83.75 110.479C82.5999 109.446 81.1085 108.875 79.5625 108.875C78.0166 108.875 76.5252 109.446 75.375 110.479V104.577C75.9096 104.649 76.4484 104.686 76.9879 104.688H90.5122C91.0516 104.686 91.5905 104.649 92.125 104.577V110.479C90.9755 109.446 89.4837 108.874 87.9375 108.875ZM94.2188 115.156C94.2188 114.601 94.4394 114.068 94.832 113.676C95.2247 113.283 95.7572 113.062 96.3125 113.062C96.8678 113.062 97.4004 113.283 97.793 113.676C98.1857 114.068 98.4063 114.601 98.4063 115.156V117.25H94.2188V115.156ZM113.063 125.625H104.688V118.117L108.875 113.93L113.063 118.117V125.625ZM117.25 118.117L121.438 113.93L125.625 118.117V125.625H117.25V118.117ZM122.918 109.488C122.525 109.096 121.993 108.875 121.438 108.875C120.882 108.875 120.35 109.096 119.957 109.488L115.156 114.289L110.355 109.488C109.963 109.096 109.43 108.875 108.875 108.875C108.32 108.875 107.787 109.096 107.395 109.488L102.539 114.343C102.34 112.832 101.599 111.444 100.454 110.439C99.3086 109.433 97.8369 108.877 96.3125 108.875V103.201C98.3326 102.089 99.9952 100.426 101.107 98.4062H125.625V102.594H123.531V106.781H125.625V112.195L122.918 109.488ZM85.9139 78.8636C87.6608 81.7623 90.304 84.0134 93.444 85.2763C95.1474 85.9577 96.5602 87.2111 97.4398 88.8211C98.3194 90.4311 98.6108 92.2972 98.2638 94.0987C97.9169 95.9002 96.9533 97.5246 95.5387 98.6928C94.1241 99.861 92.3468 100.5 90.5122 100.5H76.9879C75.1533 100.5 73.3759 99.861 71.9613 98.6928C70.5467 97.5246 69.5831 95.9002 69.2362 94.0987C68.8892 92.2972 69.1806 90.4311 70.0602 88.8211C70.9398 87.2111 72.3527 85.9577 74.0561 85.2763C77.196 84.0134 79.8393 81.7623 81.5861 78.8635L83.6792 75.375H83.75V75.257L85.9139 78.8636ZM69.0938 52.3438V39.7812H70.027L77.8786 52.3438H69.0938ZM69.0938 35.5938H64.9063V31.4062H69.0938V35.5938ZM63.447 19.4433C64.8556 18.9781 66.0929 18.1023 67 16.9285C67.9071 18.1023 69.1444 18.9781 70.553 19.4433C71.4518 19.743 72.2147 20.3526 72.7051 21.1633C73.1956 21.9739 73.3815 22.9326 73.2298 23.8678C73.078 24.803 72.5984 25.6537 71.8768 26.2677C71.1552 26.8816 70.2386 27.2187 69.2912 27.2188H64.7088C63.7614 27.2187 62.8449 26.8816 62.1232 26.2677C61.4016 25.6537 60.922 24.803 60.7703 23.8678C60.6185 22.9326 60.8045 21.9739 61.2949 21.1633C61.7853 20.3526 62.5482 19.743 63.447 19.4433ZM63.973 39.7812H64.9063V52.3438H56.1214L63.973 39.7812ZM34.2748 70.6201C37.4148 69.3571 40.058 67.106 41.8049 64.2072L43.9688 60.6008L46.1327 64.2074C47.8795 67.1061 50.5228 69.3571 53.6627 70.6201C55.3661 71.3015 56.779 72.5548 57.6586 74.1648C58.5382 75.7748 58.8295 77.6409 58.4826 79.4425C58.1357 81.244 57.1721 82.8684 55.7575 84.0366C54.3428 85.2048 52.5655 85.8438 50.7309 85.8438H37.2066C35.372 85.8438 33.5947 85.2048 32.1801 84.0366C30.7654 82.8684 29.8019 81.244 29.4549 79.4425C29.108 77.6409 29.3993 75.7748 30.2789 74.1648C31.1585 72.5548 32.5714 71.3015 34.2748 70.6201ZM13.3373 81.0888C16.4773 79.8259 19.1205 77.5748 20.8673 74.676L23.0313 71.0695L25.1952 74.676C25.281 74.8191 25.3713 74.9601 25.462 75.1007C24.8393 77.6833 25.0841 80.399 26.1584 82.8287C27.2327 85.2584 29.0769 87.2669 31.4063 88.5443V94.2188C30.5232 94.2185 29.6501 94.4049 28.8441 94.7657C28.0381 95.1266 27.3175 95.6537 26.7295 96.3125H16.2691C14.4345 96.3125 12.6572 95.6735 11.2426 94.5053C9.82794 93.3371 8.86437 91.7127 8.51743 89.9112C8.17049 88.1097 8.46185 86.2436 9.34144 84.6336C10.221 83.0236 11.6339 81.7702 13.3373 81.0888ZM16.2691 100.5H25.125V104.688H14.6563V100.389C15.1908 100.462 15.7296 100.499 16.2691 100.5ZM13.6094 108.875H25.125V115.156C23.9359 115.156 22.7605 115.41 21.6773 115.9C20.5941 116.391 19.6281 117.107 18.8438 118.001C17.5677 116.546 15.8264 115.58 13.9171 115.266C12.0077 114.953 10.0489 115.312 8.37501 116.283V115.854L13.6094 108.875ZM8.37501 123.531C8.37501 122.421 8.81619 121.356 9.6015 120.57C10.3868 119.785 11.4519 119.344 12.5625 119.344C13.6731 119.344 14.7382 119.785 15.5235 120.57C16.3088 121.356 16.75 122.421 16.75 123.531V125.625H8.37501V123.531ZM20.9375 123.531C20.9388 122.421 21.3804 121.357 22.1654 120.572C22.9504 119.787 24.0148 119.345 25.125 119.344V125.625H20.9375V123.531ZM29.3125 120.211L35.5938 113.93L41.875 120.211V125.625H29.3125V120.211ZM46.0625 125.625V120.211L52.3438 113.93L58.625 120.211V125.625H46.0625ZM98.4063 125.625H69.0938V121.438H98.4063V125.625ZM119.344 85.8438H102.594V81.5454C103.128 81.6182 103.667 81.6552 104.207 81.6562H117.731C118.27 81.6552 118.809 81.6182 119.344 81.5454V85.8438Z" fill="#7A9757"/>
<path d="M110.969 102.594H106.781V106.781H110.969V102.594Z" fill="#7A9757"/>
<path d="M119.344 102.594H115.156V106.781H119.344V102.594Z" fill="#7A9757"/>
<path d="M102.594 102.594H98.4062V106.781H102.594V102.594Z" fill="#7A9757"/>
</svg>
