<svg width="183" height="50" viewBox="0 0 3225 763" fill="none" xmlns="http://www.w3.org/2000/svg">
<path d="M1102.23 244.937C1062.66 203.52 1010.41 173.302 951.88 157.986C962.641 183.569 969.941 210.206 973.627 237.333C1011.14 254.678 1042.81 280.616 1065.37 312.487C1087.94 344.358 1100.6 381.012 1102.05 418.689C1103.49 456.366 1093.68 493.707 1073.61 526.882C1053.54 560.056 1023.94 587.868 987.842 607.463C951.747 627.058 910.458 637.731 868.213 638.386C825.968 639.041 784.289 629.654 747.453 611.189C710.617 592.725 679.95 565.847 658.601 533.315C637.253 500.783 625.99 463.767 625.969 426.069C625.969 297.178 527.613 188.44 394.352 156.39C414.977 130.481 441.855 109.031 473.005 93.6216C504.155 78.2121 538.784 69.2354 574.339 67.3531C609.894 65.4709 645.469 70.731 678.443 82.7458C711.416 94.7606 740.948 113.224 764.863 136.775C788.777 160.327 806.464 188.366 816.62 218.826C826.776 249.287 829.142 281.392 823.544 312.777C817.947 344.162 804.528 374.026 784.276 400.169C764.025 426.312 737.457 448.067 706.531 463.831C713.125 485.657 725.342 505.806 742.208 522.672C790.534 498.316 830.745 462.949 858.736 420.185C886.726 377.421 901.49 328.794 901.521 279.272C901.521 125.285 761.107 0 588.503 0C532.003 0.0220745 476.56 13.6773 428.048 39.5197C379.535 65.3621 339.758 102.43 312.929 146.797C140.37 146.797 0 272.102 0 426.069C0 573.161 128.051 693.974 289.991 704.572C267.96 680.931 249.554 654.777 235.26 626.801C193.943 614.07 157.352 591.434 129.501 561.374C101.651 531.314 83.6147 494.992 77.3718 456.39C71.1289 417.788 76.92 378.398 94.1101 342.539C111.3 306.68 139.225 275.737 174.823 253.103C210.421 230.47 252.317 217.02 295.916 214.229C339.515 211.437 383.134 219.412 421.989 237.279C460.844 255.146 493.434 282.214 516.186 315.516C538.938 348.818 550.973 387.067 550.971 426.069C551.007 475.054 565.472 523.171 592.918 565.596C620.364 608.022 659.825 643.265 707.347 667.794C671.151 686.383 630.112 696.15 588.349 696.116C546.585 696.081 505.566 686.246 469.409 667.598C433.251 648.949 403.227 622.143 382.349 589.87C361.471 557.596 350.474 520.991 350.461 483.727C350.565 453.776 357.725 424.178 371.479 396.856C385.232 369.533 405.271 345.096 430.294 325.131C412.156 308.348 389.779 295.684 365.033 288.196C307.554 340.347 275.38 410.584 275.463 483.727C275.463 637.734 415.878 762.999 588.459 762.999C662.217 763.139 733.635 739.906 789.984 697.441C814.213 702.686 839.057 705.331 863.989 705.321C1036.57 705.321 1176.98 580.036 1176.98 426.049C1176.98 359.67 1150.48 295.464 1102.23 244.937Z" fill="url(#paint0_linear_612_204)"/>
<path d="M1831.12 74.1271V338.763H1781.67V153.593L1676.45 267.492L1571.09 153.356V338.763H1521.64V74.1271H1547.91L1676.45 212.02L1804.79 74.1271H1831.12Z" fill="white"/>
<path d="M2035.63 73.9498L2153.59 338.763H2104.56L2084.27 293.889H1937.52L1917.45 338.763H1868.17L1986.37 73.9498H2035.63ZM1955.31 253.624H2066.47L2010.99 125.837L1955.31 253.624Z" fill="white"/>
<path d="M2210.11 262.134C2240.53 287.743 2275.5 298.144 2304.91 298.144C2342.16 298.321 2370.73 282.069 2370.73 259.534C2370.73 203.214 2183.4 246.985 2183.4 151.327C2183.4 99.6176 2231.22 74.1271 2288.75 73.9498C2327.88 74.1844 2365.98 85.1917 2397.84 105.468L2369.69 136.553C2347.61 122.153 2315.86 114.018 2288.97 114.018C2257.51 114.018 2232.45 124.537 2232.45 148.176C2232.45 206.347 2419.56 158.163 2419.56 259.356C2419.56 305.157 2369.89 338.763 2306.15 338.586C2266.61 338.586 2221.5 325.112 2179.69 292.411L2210.11 262.134Z" fill="white"/>
<path d="M2702.93 73.7529V114.943H2599.03V338.763H2549.55V114.943H2445.66V73.7529H2702.93Z" fill="white"/>
<path d="M2943.44 73.9498V114.943H2790.47V173.489H2905.98V214.482H2790.47V297.947H2943.44V338.763H2740.79V73.9498H2943.44Z" fill="white"/>
<path d="M3169.25 338.763L3095.78 226.479H3029.81V338.763H2980.33V74.1271H3121.92C3169.72 74.1271 3208.84 104.779 3208.84 150.776C3208.84 184.934 3187.73 211.35 3148.83 222.618L3225 338.842L3169.25 338.763ZM3029.81 186.411H3116.11C3137.86 186.411 3160.27 172.937 3160.27 150.776C3160.27 129.895 3139.78 115.121 3116.11 115.121H3029.81V186.411Z" fill="white"/>
<path d="M1541.35 593.076C1571.78 618.685 1606.77 629.086 1636.16 629.086C1673.4 629.263 1701.97 613.011 1701.97 590.476C1701.97 534.157 1514.66 577.928 1514.66 482.27C1514.66 430.56 1562.48 405.069 1620.02 404.892C1659.14 405.131 1697.23 416.138 1729.08 436.41L1700.93 467.436C1678.85 453.036 1647.13 444.901 1620.22 444.901C1588.76 444.901 1563.72 455.42 1563.72 479.059C1563.72 537.23 1750.83 489.046 1750.83 590.239C1750.83 636.039 1701.15 669.646 1637.39 669.469C1597.87 669.469 1552.75 655.995 1510.93 623.294L1541.35 593.076Z" fill="white"/>
<path d="M1996.58 404.892V445.886H1843.62V504.431H1959.04V545.424H1843.55V628.889H1996.58V669.705H1793.95V404.892H1996.58Z" fill="white"/>
<path d="M2222.32 669.705L2148.84 557.421H2082.81V669.705H2033.36V405.069H2174.92C2222.74 405.069 2261.86 435.721 2261.86 481.718C2261.86 515.876 2240.73 542.292 2201.83 553.56L2278 669.784L2222.32 669.705ZM2082.81 517.354H2169.13C2190.86 517.354 2213.29 503.879 2213.29 481.718C2213.29 460.837 2192.8 446.063 2169.13 446.063H2082.81V517.354Z" fill="white"/>
<path d="M2562.18 404.695L2442.54 669.705H2391.77L2271.93 404.695H2325.53L2417.02 611.357L2508.51 404.695H2562.18Z" fill="white"/>
<path d="M2802.41 404.892V445.886H2649.46V504.431H2764.95V545.424H2649.46V628.889H2802.41V669.705H2599.78V404.892H2802.41Z" fill="white"/>
<path d="M3028.29 669.705L2954.81 557.421H2888.78V669.705H2839.32V405.069H2980.89C3028.71 405.069 3067.83 435.721 3067.83 481.718C3067.83 515.876 3046.72 542.292 3007.8 553.56L3083.97 669.784L3028.29 669.705ZM2888.78 517.354H2975.1C2996.83 517.354 3019.26 503.879 3019.26 481.718C3019.26 460.837 2998.77 446.063 2975.1 446.063H2888.78V517.354Z" fill="white"/>
<defs>
<linearGradient id="paint0_linear_612_204" x1="-0.0220777" y1="381.51" x2="1177.01" y2="381.51" gradientUnits="userSpaceOnUse">
<stop stop-color="#FFDD06"/>
<stop offset="1" stop-color="#F9AF35"/>
</linearGradient>
</defs>
</svg>
